%TF.GenerationSoftware,Altium Limited,Altium Designer,19.1.5 (86)*%
G04 Layer_Physical_Order=2*
G04 Layer_Color=16711680*
%FSLAX44Y44*%
%MOMM*%
%TF.FileFunction,Copper,L2,Bot,Signal*%
%TF.Part,Single*%
G01*
G75*
%TA.AperFunction,Conductor*%
%ADD19C,0.2000*%
%TA.AperFunction,ComponentPad*%
%ADD24R,1.8000X1.8000*%
%ADD25C,1.8000*%
%ADD26R,1.6000X1.6000*%
%ADD27C,1.6000*%
%ADD28R,1.6000X1.6000*%
%TA.AperFunction,ViaPad*%
%ADD29C,0.7000*%
G36*
X107410Y-122410D02*
X88780D01*
X78780Y-122410D01*
X78717Y-122423D01*
X78653Y-122414D01*
X76693Y-122510D01*
X76506Y-122556D01*
X76315D01*
X72469Y-123321D01*
X72233Y-123419D01*
X71983Y-123469D01*
X68361Y-124969D01*
X68315Y-125000D01*
X-71405D01*
X-71451Y-124969D01*
X-75073Y-123469D01*
X-75324Y-123419D01*
X-75559Y-123321D01*
X-79405Y-122556D01*
X-79596D01*
X-79783Y-122510D01*
X-81743Y-122414D01*
X-81807Y-122423D01*
X-81870Y-122410D01*
X-91870D01*
X-107410Y-122410D01*
X-107410Y122410D01*
X107410D01*
X107410Y-122410D01*
D02*
G37*
%LPC*%
G36*
X90000Y116599D02*
X86998Y116204D01*
X84200Y115045D01*
X81798Y113202D01*
X79955Y110800D01*
X78796Y108002D01*
X78401Y105000D01*
X78796Y101998D01*
X79955Y99200D01*
X81798Y96798D01*
X84200Y94955D01*
X86998Y93796D01*
X90000Y93401D01*
X93002Y93796D01*
X95800Y94955D01*
X98202Y96798D01*
X100045Y99200D01*
X101204Y101998D01*
X101599Y105000D01*
X101204Y108002D01*
X100045Y110800D01*
X98202Y113202D01*
X95800Y115045D01*
X93002Y116204D01*
X90000Y116599D01*
D02*
G37*
G36*
X-90000D02*
X-93002Y116204D01*
X-95800Y115045D01*
X-98202Y113202D01*
X-100045Y110800D01*
X-101204Y108002D01*
X-101599Y105000D01*
X-101204Y101998D01*
X-100045Y99200D01*
X-98202Y96798D01*
X-95800Y94955D01*
X-93002Y93796D01*
X-90000Y93401D01*
X-86998Y93796D01*
X-84200Y94955D01*
X-81798Y96798D01*
X-79955Y99200D01*
X-78796Y101998D01*
X-78401Y105000D01*
X-78796Y108002D01*
X-79955Y110800D01*
X-81798Y113202D01*
X-84200Y115045D01*
X-86998Y116204D01*
X-90000Y116599D01*
D02*
G37*
G36*
X-17960Y73551D02*
X-20701Y73190D01*
X-23256Y72132D01*
X-25449Y70449D01*
X-27132Y68256D01*
X-28190Y65701D01*
X-28551Y62960D01*
X-28190Y60219D01*
X-27132Y57665D01*
X-25449Y55472D01*
X-23256Y53789D01*
X-20701Y52731D01*
X-17960Y52370D01*
X-15219Y52731D01*
X-12665Y53789D01*
X-10472Y55472D01*
X-8789Y57665D01*
X-7731Y60219D01*
X-7370Y62960D01*
X-7731Y65701D01*
X-8789Y68256D01*
X-10472Y70449D01*
X-12665Y72132D01*
X-15219Y73190D01*
X-17960Y73551D01*
D02*
G37*
G36*
X-1915Y57098D02*
X-3866Y56710D01*
X-5520Y55605D01*
X-6625Y53951D01*
X-7013Y52000D01*
X-6625Y50049D01*
X-5520Y48395D01*
X-4464Y47690D01*
Y44141D01*
X-12511Y36093D01*
X-12665Y36211D01*
X-15219Y37269D01*
X-17960Y37630D01*
X-20701Y37269D01*
X-23256Y36211D01*
X-25449Y34528D01*
X-27132Y32335D01*
X-28190Y29781D01*
X-28551Y27040D01*
X-28190Y24299D01*
X-27132Y21744D01*
X-25449Y19551D01*
X-23256Y17868D01*
X-20701Y16810D01*
X-17960Y16449D01*
X-15219Y16810D01*
X-12665Y17868D01*
X-10472Y19551D01*
X-8789Y21744D01*
X-7731Y24299D01*
X-7370Y27040D01*
X-7731Y29781D01*
X-8789Y32335D01*
X-8907Y32489D01*
X-113Y41282D01*
X440Y42109D01*
X634Y43085D01*
Y47690D01*
X1690Y48395D01*
X2795Y50049D01*
X3183Y52000D01*
X2795Y53951D01*
X1690Y55605D01*
X36Y56710D01*
X-1915Y57098D01*
D02*
G37*
G36*
X17960Y37630D02*
X15219Y37269D01*
X12665Y36211D01*
X10472Y34528D01*
X8789Y32335D01*
X7731Y29781D01*
X7370Y27040D01*
X7731Y24299D01*
X8789Y21744D01*
X10472Y19551D01*
X12665Y17868D01*
X15219Y16810D01*
X17960Y16449D01*
X20701Y16810D01*
X23256Y17868D01*
X25449Y19551D01*
X27132Y21744D01*
X28190Y24299D01*
X28551Y27040D01*
X28190Y29781D01*
X27132Y32335D01*
X25449Y34528D01*
X23256Y36211D01*
X20701Y37269D01*
X17960Y37630D01*
D02*
G37*
G36*
X73500Y-43418D02*
X71020Y-43745D01*
X68709Y-44702D01*
X66725Y-46224D01*
X65202Y-48209D01*
X64245Y-50520D01*
X63918Y-53000D01*
X64245Y-55480D01*
X65202Y-57791D01*
X66725Y-59775D01*
X68709Y-61298D01*
X71020Y-62256D01*
X73500Y-62582D01*
X75980Y-62256D01*
X78291Y-61298D01*
X80275Y-59775D01*
X81798Y-57791D01*
X82755Y-55480D01*
X83082Y-53000D01*
X82755Y-50520D01*
X81798Y-48209D01*
X80275Y-46224D01*
X78291Y-44702D01*
X75980Y-43745D01*
X73500Y-43418D01*
D02*
G37*
G36*
Y-68818D02*
X71020Y-69145D01*
X68709Y-70102D01*
X66725Y-71624D01*
X65202Y-73609D01*
X64245Y-75920D01*
X63918Y-78400D01*
X64245Y-80880D01*
X65202Y-83191D01*
X66725Y-85175D01*
X68709Y-86698D01*
X71020Y-87655D01*
X73500Y-87982D01*
X75980Y-87655D01*
X78291Y-86698D01*
X80275Y-85175D01*
X81798Y-83191D01*
X82755Y-80880D01*
X83082Y-78400D01*
X82755Y-75920D01*
X81798Y-73609D01*
X80275Y-71624D01*
X78291Y-70102D01*
X75980Y-69145D01*
X73500Y-68818D01*
D02*
G37*
G36*
X25000Y-70418D02*
X22520Y-70745D01*
X20209Y-71702D01*
X18225Y-73225D01*
X16702Y-75209D01*
X15745Y-77520D01*
X15418Y-80000D01*
X15745Y-82480D01*
X16702Y-84791D01*
X18225Y-86775D01*
X20209Y-88298D01*
X22520Y-89255D01*
X25000Y-89582D01*
X27480Y-89255D01*
X29791Y-88298D01*
X31776Y-86775D01*
X33298Y-84791D01*
X34255Y-82480D01*
X34582Y-80000D01*
X34255Y-77520D01*
X33298Y-75209D01*
X31776Y-73225D01*
X29791Y-71702D01*
X27480Y-70745D01*
X25000Y-70418D01*
D02*
G37*
G36*
X-25000D02*
X-27480Y-70745D01*
X-29791Y-71702D01*
X-31776Y-73225D01*
X-33298Y-75209D01*
X-34255Y-77520D01*
X-34582Y-80000D01*
X-34255Y-82480D01*
X-33298Y-84791D01*
X-31776Y-86775D01*
X-29791Y-88298D01*
X-27480Y-89255D01*
X-25000Y-89582D01*
X-22520Y-89255D01*
X-20209Y-88298D01*
X-18225Y-86775D01*
X-16702Y-84791D01*
X-15745Y-82480D01*
X-15418Y-80000D01*
X-15745Y-77520D01*
X-16702Y-75209D01*
X-18225Y-73225D01*
X-20209Y-71702D01*
X-22520Y-70745D01*
X-25000Y-70418D01*
D02*
G37*
G36*
X90000Y-93401D02*
X86998Y-93796D01*
X84200Y-94955D01*
X81798Y-96798D01*
X79955Y-99200D01*
X78796Y-101998D01*
X78401Y-105000D01*
X78796Y-108002D01*
X79955Y-110800D01*
X81798Y-113202D01*
X84200Y-115045D01*
X86998Y-116204D01*
X90000Y-116599D01*
X93002Y-116204D01*
X95800Y-115045D01*
X98202Y-113202D01*
X100045Y-110800D01*
X101204Y-108002D01*
X101599Y-105000D01*
X101204Y-101998D01*
X100045Y-99200D01*
X98202Y-96798D01*
X95800Y-94955D01*
X93002Y-93796D01*
X90000Y-93401D01*
D02*
G37*
G36*
X-90000D02*
X-93002Y-93796D01*
X-95800Y-94955D01*
X-98202Y-96798D01*
X-100045Y-99200D01*
X-101204Y-101998D01*
X-101599Y-105000D01*
X-101204Y-108002D01*
X-100045Y-110800D01*
X-98202Y-113202D01*
X-95800Y-115045D01*
X-93002Y-116204D01*
X-90000Y-116599D01*
X-86998Y-116204D01*
X-84200Y-115045D01*
X-81798Y-113202D01*
X-79955Y-110800D01*
X-78796Y-108002D01*
X-78401Y-105000D01*
X-78796Y-101998D01*
X-79955Y-99200D01*
X-81798Y-96798D01*
X-84200Y-94955D01*
X-86998Y-93796D01*
X-90000Y-93401D01*
D02*
G37*
%LPD*%
D19*
X-1915Y43085D02*
Y52000D01*
X-17960Y27040D02*
X-1915Y43085D01*
D24*
X17960Y62960D02*
D03*
D25*
X-17960D02*
D03*
Y27040D02*
D03*
X17960D02*
D03*
D26*
X73500Y-27600D02*
D03*
D27*
Y-53000D02*
D03*
Y-78400D02*
D03*
X25000Y-80000D02*
D03*
Y-30000D02*
D03*
X-25000Y-80000D02*
D03*
D28*
Y-30000D02*
D03*
D29*
X-1915Y52000D02*
D03*
X92750Y80000D02*
D03*
X-56555Y-67250D02*
D03*
X-35000Y103000D02*
D03*
X35000D02*
D03*
X-39645Y-110000D02*
D03*
%TF.MD5,7ac24f92f0e337ad23b319d2f81a14c8*%
M02*
