G04*
G04 #@! TF.GenerationSoftware,Altium Limited,Altium Designer,19.1.5 (86)*
G04*
G04 Layer_Color=8388736*
%FSAX44Y44*%
%MOMM*%
G71*
G01*
G75*
%ADD16R,1.0500X1.0000*%
G04:AMPARAMS|DCode=17|XSize=12.9mm|YSize=1.47mm|CornerRadius=0.4175mm|HoleSize=0mm|Usage=FLASHONLY|Rotation=270.000|XOffset=0mm|YOffset=0mm|HoleType=Round|Shape=RoundedRectangle|*
%AMROUNDEDRECTD17*
21,1,12.9000,0.6350,0,0,270.0*
21,1,12.0650,1.4700,0,0,270.0*
1,1,0.8350,-0.3175,-6.0325*
1,1,0.8350,-0.3175,6.0325*
1,1,0.8350,0.3175,6.0325*
1,1,0.8350,0.3175,-6.0325*
%
%ADD17ROUNDEDRECTD17*%
G04:AMPARAMS|DCode=18|XSize=12.265mm|YSize=1.4065mm|CornerRadius=0.4016mm|HoleSize=0mm|Usage=FLASHONLY|Rotation=270.000|XOffset=0mm|YOffset=0mm|HoleType=Round|Shape=RoundedRectangle|*
%AMROUNDEDRECTD18*
21,1,12.2650,0.6033,0,0,270.0*
21,1,11.4618,1.4065,0,0,270.0*
1,1,0.8033,-0.3016,-5.7309*
1,1,0.8033,-0.3016,5.7309*
1,1,0.8033,0.3016,5.7309*
1,1,0.8033,0.3016,-5.7309*
%
%ADD18ROUNDEDRECTD18*%
%ADD19R,1.4500X1.4500*%
%ADD20O,0.9000X1.7000*%
%ADD21R,0.9000X1.7000*%
%ADD22R,1.5000X0.9000*%
G04:AMPARAMS|DCode=23|XSize=0.9mm|YSize=1.5mm|CornerRadius=0.275mm|HoleSize=0mm|Usage=FLASHONLY|Rotation=270.000|XOffset=0mm|YOffset=0mm|HoleType=Round|Shape=RoundedRectangle|*
%AMROUNDEDRECTD23*
21,1,0.9000,0.9500,0,0,270.0*
21,1,0.3500,1.5000,0,0,270.0*
1,1,0.5500,-0.4750,-0.1750*
1,1,0.5500,-0.4750,0.1750*
1,1,0.5500,0.4750,0.1750*
1,1,0.5500,0.4750,-0.1750*
%
%ADD23ROUNDEDRECTD23*%
%ADD24R,1.2000X1.6000*%
%ADD25R,1.0000X1.0500*%
%ADD26C,1.8000*%
%ADD27R,1.8000X1.8000*%
%ADD28C,2.7000*%
%ADD29P,2.5456X4X90.0*%
G04:AMPARAMS|DCode=30|XSize=0.2mm|YSize=0.2mm|CornerRadius=0mm|HoleSize=0mm|Usage=FLASHONLY|Rotation=90.000|XOffset=0mm|YOffset=0mm|HoleType=Round|Shape=RoundedRectangle|*
%AMROUNDEDRECTD30*
21,1,0.2000,0.2000,0,0,90.0*
21,1,0.2000,0.2000,0,0,90.0*
1,1,0.0000,0.1000,0.1000*
1,1,0.0000,0.1000,-0.1000*
1,1,0.0000,-0.1000,-0.1000*
1,1,0.0000,-0.1000,0.1000*
%
%ADD30ROUNDEDRECTD30*%
%ADD31C,0.9000*%
D16*
X02885050Y02486750D02*
D03*
X02869550D02*
D03*
X02908050Y02438250D02*
D03*
X02923550D02*
D03*
X02937050Y02544431D02*
D03*
X02952550D02*
D03*
X02867050Y02438250D02*
D03*
X02882550D02*
D03*
D17*
X02981355Y02298075D02*
D03*
X02905155D02*
D03*
D18*
X02954050Y02301250D02*
D03*
X02932460D02*
D03*
D19*
X02884800Y02571750D02*
D03*
Y02594250D02*
D03*
X02944800Y02571750D02*
D03*
Y02594250D02*
D03*
X03004800Y02571750D02*
D03*
Y02594250D02*
D03*
D20*
X02990750Y02435500D02*
D03*
X03003450D02*
D03*
X03016150D02*
D03*
X03028850D02*
D03*
X02990750Y02494500D02*
D03*
X03003450D02*
D03*
X03016150D02*
D03*
D21*
X03028850D02*
D03*
D22*
X02865300Y02470650D02*
D03*
D23*
Y02451650D02*
D03*
Y02461150D02*
D03*
X02889300Y02451650D02*
D03*
Y02470650D02*
D03*
D24*
X02949800Y02408000D02*
D03*
X02879800D02*
D03*
D25*
X02999800Y02512750D02*
D03*
Y02528250D02*
D03*
X02984800Y02512750D02*
D03*
Y02528250D02*
D03*
X03014800Y02512750D02*
D03*
Y02528250D02*
D03*
X02954050Y02487750D02*
D03*
Y02472250D02*
D03*
X02937050Y02487750D02*
D03*
Y02472250D02*
D03*
X03029800Y02512750D02*
D03*
Y02528250D02*
D03*
D26*
X02974400Y02408000D02*
D03*
X02999800D02*
D03*
X02913369Y02544431D02*
D03*
X02976231D02*
D03*
X02913369Y02481569D02*
D03*
D27*
X03025200Y02408000D02*
D03*
D28*
X02944800Y02513000D02*
D03*
D29*
X02976231Y02481569D02*
D03*
D30*
X03029800Y02598000D02*
D03*
X02859800D02*
D03*
X03029800Y02383000D02*
D03*
X02859800D02*
D03*
D31*
X03029800Y02558000D02*
D03*
X03004800Y02475500D02*
D03*
X02961800Y02501050D02*
D03*
X02915800Y02594250D02*
D03*
X02974400D02*
D03*
X02905155Y02378000D02*
D03*
M02*
