G04*
G04 #@! TF.GenerationSoftware,Altium Limited,Altium Designer,19.1.5 (86)*
G04*
G04 Layer_Color=32896*
%FSAX44Y44*%
%MOMM*%
G71*
G01*
G75*
%ADD13C,0.2000*%
%ADD15C,0.1500*%
G36*
X02859742Y02494874D02*
X02851270D01*
X02850130D01*
X02849042D01*
X02848524D01*
X02848031Y02494900D01*
X02847565D01*
X02847125D01*
X02846736D01*
X02846373D01*
X02846062Y02494926D01*
X02845777D01*
X02845570D01*
X02845415D01*
X02845311D01*
X02845285D01*
Y02494615D01*
X02846192Y02494407D01*
X02846995Y02494200D01*
X02847721Y02494019D01*
X02848342Y02493889D01*
X02848886Y02493734D01*
X02849353Y02493630D01*
X02849767Y02493526D01*
X02850104Y02493449D01*
X02850389Y02493371D01*
X02850596Y02493319D01*
X02850778Y02493267D01*
X02850907Y02493241D01*
X02851011Y02493216D01*
X02851063Y02493190D01*
X02851115D01*
X02859742Y02490962D01*
Y02487542D01*
X02851011Y02485262D01*
X02850596Y02485158D01*
X02850182Y02485029D01*
X02849249Y02484796D01*
X02848290Y02484562D01*
X02847358Y02484355D01*
X02846943Y02484251D01*
X02846555Y02484148D01*
X02846192Y02484070D01*
X02845881Y02483992D01*
X02845648Y02483940D01*
X02845441Y02483889D01*
X02845337Y02483863D01*
X02845285D01*
Y02483552D01*
X02846010D01*
X02846684Y02483578D01*
X02847306D01*
X02847902D01*
X02848446D01*
X02848912D01*
X02849353Y02483604D01*
X02849767D01*
X02850104D01*
X02850415D01*
X02850674D01*
X02850881D01*
X02851037D01*
X02851140D01*
X02851218D01*
X02851244D01*
X02859742D01*
Y02480806D01*
X02842876D01*
Y02485573D01*
X02851529Y02487723D01*
X02851943Y02487827D01*
X02852384Y02487956D01*
X02852824Y02488060D01*
X02853213Y02488163D01*
X02853602Y02488241D01*
X02853887Y02488319D01*
X02853990Y02488345D01*
X02854068D01*
X02854120Y02488371D01*
X02854146D01*
X02854534Y02488448D01*
X02854897Y02488552D01*
X02855234Y02488604D01*
X02855519Y02488682D01*
X02855804Y02488734D01*
X02856037Y02488811D01*
X02856244Y02488837D01*
X02856425Y02488889D01*
X02856711Y02488967D01*
X02856892Y02489019D01*
X02857021Y02489044D01*
X02857047D01*
Y02489355D01*
X02856037Y02489537D01*
X02855052Y02489744D01*
X02854120Y02489951D01*
X02853679Y02490055D01*
X02853265Y02490158D01*
X02852902Y02490236D01*
X02852565Y02490314D01*
X02852254Y02490392D01*
X02851995Y02490443D01*
X02851788Y02490495D01*
X02851633Y02490547D01*
X02851529Y02490573D01*
X02851503D01*
X02842876Y02492697D01*
Y02497464D01*
X02859742D01*
Y02494874D01*
D02*
G37*
G36*
X02880603Y02491830D02*
X02880577Y02491337D01*
X02880551Y02490897D01*
X02880499Y02490456D01*
X02880421Y02490042D01*
X02880344Y02489679D01*
X02880266Y02489342D01*
X02880162Y02489005D01*
X02880059Y02488721D01*
X02879955Y02488461D01*
X02879852Y02488254D01*
X02879774Y02488047D01*
X02879696Y02487892D01*
X02879619Y02487762D01*
X02879567Y02487684D01*
X02879515Y02487632D01*
Y02487607D01*
X02879256Y02487296D01*
X02878997Y02487036D01*
X02878712Y02486803D01*
X02878401Y02486596D01*
X02878090Y02486441D01*
X02877805Y02486285D01*
X02877209Y02486078D01*
X02876665Y02485974D01*
X02876432Y02485923D01*
X02876224Y02485897D01*
X02876069Y02485871D01*
X02875940D01*
X02875862D01*
X02875836D01*
X02875292Y02485897D01*
X02874799Y02486000D01*
X02874359Y02486130D01*
X02873996Y02486285D01*
X02873686Y02486467D01*
X02873478Y02486596D01*
X02873349Y02486700D01*
X02873297Y02486726D01*
X02872882Y02487140D01*
X02872545Y02487632D01*
X02872286Y02488125D01*
X02872079Y02488617D01*
X02871949Y02489057D01*
X02871872Y02489239D01*
X02871846Y02489394D01*
X02871794Y02489550D01*
Y02489653D01*
X02871768Y02489705D01*
Y02489731D01*
X02871639D01*
X02871509Y02489213D01*
X02871354Y02488772D01*
X02871172Y02488384D01*
X02870965Y02488047D01*
X02870784Y02487788D01*
X02870628Y02487581D01*
X02870525Y02487477D01*
X02870499Y02487425D01*
X02870110Y02487088D01*
X02869670Y02486829D01*
X02869255Y02486648D01*
X02868841Y02486518D01*
X02868504Y02486441D01*
X02868219Y02486415D01*
X02868115Y02486389D01*
X02868037D01*
X02867986D01*
X02867960D01*
X02867597D01*
X02867286Y02486441D01*
X02866690Y02486570D01*
X02866172Y02486752D01*
X02865758Y02486933D01*
X02865421Y02487140D01*
X02865188Y02487321D01*
X02865058Y02487451D01*
X02865006Y02487477D01*
Y02487503D01*
X02864773Y02487788D01*
X02864592Y02488099D01*
X02864410Y02488461D01*
X02864281Y02488824D01*
X02864048Y02489576D01*
X02863892Y02490353D01*
X02863840Y02490715D01*
X02863814Y02491052D01*
X02863763Y02491337D01*
Y02491622D01*
X02863737Y02491830D01*
Y02498177D01*
X02880603D01*
Y02491830D01*
D02*
G37*
G36*
X02875214Y02483694D02*
X02875706Y02483669D01*
X02876147Y02483591D01*
X02876561Y02483513D01*
X02876950Y02483409D01*
X02877313Y02483306D01*
X02877624Y02483202D01*
X02877934Y02483073D01*
X02878193Y02482943D01*
X02878427Y02482839D01*
X02878608Y02482736D01*
X02878789Y02482632D01*
X02878919Y02482554D01*
X02878997Y02482477D01*
X02879048Y02482451D01*
X02879074Y02482425D01*
X02879385Y02482140D01*
X02879670Y02481803D01*
X02879929Y02481466D01*
X02880137Y02481129D01*
X02880318Y02480767D01*
X02880473Y02480404D01*
X02880577Y02480041D01*
X02880681Y02479704D01*
X02880758Y02479368D01*
X02880810Y02479057D01*
X02880862Y02478772D01*
X02880888Y02478539D01*
X02880914Y02478357D01*
Y02478072D01*
X02880862Y02477373D01*
X02880758Y02476751D01*
X02880603Y02476155D01*
X02880370Y02475637D01*
X02880110Y02475197D01*
X02879826Y02474782D01*
X02879489Y02474419D01*
X02879178Y02474108D01*
X02878841Y02473823D01*
X02878530Y02473616D01*
X02878245Y02473435D01*
X02877986Y02473279D01*
X02877753Y02473176D01*
X02877598Y02473098D01*
X02877468Y02473046D01*
X02877442D01*
X02876717Y02475533D01*
X02877131Y02475663D01*
X02877468Y02475818D01*
X02877779Y02475974D01*
X02878038Y02476181D01*
X02878271Y02476388D01*
X02878452Y02476596D01*
X02878608Y02476803D01*
X02878737Y02477010D01*
X02878841Y02477217D01*
X02878893Y02477399D01*
X02878945Y02477580D01*
X02878997Y02477735D01*
Y02477865D01*
X02879023Y02477969D01*
Y02478046D01*
X02878971Y02478539D01*
X02878867Y02478953D01*
X02878737Y02479342D01*
X02878556Y02479627D01*
X02878401Y02479886D01*
X02878245Y02480041D01*
X02878141Y02480171D01*
X02878116Y02480197D01*
X02877701Y02480482D01*
X02877235Y02480689D01*
X02876768Y02480819D01*
X02876302Y02480922D01*
X02875887Y02481000D01*
X02875706Y02481026D01*
X02875551D01*
X02875421Y02481052D01*
X02875318D01*
X02875266D01*
X02875240D01*
Y02472994D01*
X02874670D01*
X02874178Y02473020D01*
X02873686Y02473046D01*
X02873245Y02473124D01*
X02872831Y02473202D01*
X02872416Y02473305D01*
X02872053Y02473409D01*
X02871717Y02473538D01*
X02871432Y02473642D01*
X02871147Y02473772D01*
X02870913Y02473901D01*
X02870706Y02474005D01*
X02870551Y02474108D01*
X02870421Y02474186D01*
X02870317Y02474264D01*
X02870266Y02474290D01*
X02870240Y02474316D01*
X02869903Y02474601D01*
X02869644Y02474912D01*
X02869385Y02475222D01*
X02869178Y02475559D01*
X02868996Y02475896D01*
X02868841Y02476233D01*
X02868737Y02476544D01*
X02868633Y02476855D01*
X02868556Y02477166D01*
X02868504Y02477425D01*
X02868452Y02477684D01*
X02868426Y02477891D01*
X02868400Y02478072D01*
Y02478306D01*
X02868426Y02478720D01*
X02868452Y02479109D01*
X02868530Y02479497D01*
X02868633Y02479860D01*
X02868867Y02480482D01*
X02869022Y02480767D01*
X02869152Y02481026D01*
X02869281Y02481259D01*
X02869437Y02481466D01*
X02869566Y02481622D01*
X02869670Y02481777D01*
X02869773Y02481881D01*
X02869825Y02481958D01*
X02869877Y02482010D01*
X02869903Y02482036D01*
X02870240Y02482321D01*
X02870602Y02482580D01*
X02870991Y02482814D01*
X02871380Y02483021D01*
X02871768Y02483176D01*
X02872183Y02483306D01*
X02872960Y02483513D01*
X02873323Y02483591D01*
X02873660Y02483643D01*
X02873944Y02483669D01*
X02874203Y02483694D01*
X02874411Y02483720D01*
X02874592D01*
X02874696D01*
X02874722D01*
X02875214Y02483694D01*
D02*
G37*
G36*
X02857047Y02477723D02*
X02857514Y02477619D01*
X02857954Y02477464D01*
X02858291Y02477308D01*
X02858576Y02477153D01*
X02858783Y02476997D01*
X02858913Y02476893D01*
X02858965Y02476868D01*
X02859327Y02476453D01*
X02859586Y02476013D01*
X02859768Y02475546D01*
X02859897Y02475080D01*
X02859975Y02474691D01*
X02860001Y02474510D01*
Y02474355D01*
X02860027Y02474251D01*
Y02474070D01*
X02860001Y02473629D01*
X02859949Y02473189D01*
X02859845Y02472800D01*
X02859742Y02472437D01*
X02859612Y02472101D01*
X02859457Y02471790D01*
X02859276Y02471531D01*
X02859094Y02471272D01*
X02858939Y02471038D01*
X02858757Y02470857D01*
X02858602Y02470676D01*
X02858472Y02470546D01*
X02858369Y02470442D01*
X02858265Y02470365D01*
X02858213Y02470339D01*
X02858187Y02470313D01*
X02858524Y02470287D01*
X02858809Y02470261D01*
X02859068Y02470209D01*
X02859301Y02470183D01*
X02859483Y02470157D01*
X02859638D01*
X02859716Y02470132D01*
X02859742D01*
Y02467619D01*
X02859068Y02467670D01*
X02858446Y02467722D01*
X02857851Y02467748D01*
X02857307Y02467774D01*
X02856866Y02467800D01*
X02856685D01*
X02856529D01*
X02856400D01*
X02856296D01*
X02856244D01*
X02856218D01*
X02851477D01*
X02851115D01*
X02850778Y02467852D01*
X02850156Y02468007D01*
X02849638Y02468214D01*
X02849197Y02468525D01*
X02848809Y02468862D01*
X02848472Y02469277D01*
X02848213Y02469691D01*
X02848005Y02470106D01*
X02847850Y02470546D01*
X02847721Y02470961D01*
X02847643Y02471349D01*
X02847565Y02471712D01*
X02847539Y02471997D01*
X02847513Y02472230D01*
Y02472437D01*
X02847539Y02473137D01*
X02847643Y02473785D01*
X02847824Y02474380D01*
X02848031Y02474899D01*
X02848290Y02475339D01*
X02848549Y02475754D01*
X02848860Y02476090D01*
X02849171Y02476401D01*
X02849482Y02476634D01*
X02849767Y02476842D01*
X02850052Y02477023D01*
X02850311Y02477153D01*
X02850518Y02477256D01*
X02850674Y02477308D01*
X02850804Y02477360D01*
X02850829D01*
X02851503Y02474795D01*
X02851166Y02474717D01*
X02850881Y02474614D01*
X02850622Y02474484D01*
X02850415Y02474380D01*
X02850259Y02474251D01*
X02850130Y02474147D01*
X02850052Y02474095D01*
X02850026Y02474070D01*
X02849819Y02473810D01*
X02849664Y02473551D01*
X02849560Y02473292D01*
X02849482Y02473059D01*
X02849431Y02472852D01*
X02849405Y02472670D01*
Y02472515D01*
X02849431Y02472152D01*
X02849482Y02471841D01*
X02849534Y02471582D01*
X02849612Y02471375D01*
X02849715Y02471220D01*
X02849767Y02471116D01*
X02849819Y02471038D01*
X02849845Y02471012D01*
X02850052Y02470831D01*
X02850311Y02470676D01*
X02850596Y02470572D01*
X02850881Y02470520D01*
X02851115Y02470468D01*
X02851322Y02470442D01*
X02851477D01*
X02851503D01*
X02851529D01*
X02852202D01*
X02852228Y02471142D01*
X02852280Y02471816D01*
X02852358Y02472386D01*
X02852410Y02472878D01*
X02852462Y02473292D01*
X02852487Y02473474D01*
X02852513Y02473603D01*
X02852539Y02473707D01*
Y02473785D01*
X02852565Y02473836D01*
Y02473862D01*
X02852721Y02474536D01*
X02852954Y02475132D01*
X02853213Y02475676D01*
X02853498Y02476116D01*
X02853809Y02476479D01*
X02854146Y02476790D01*
X02854482Y02477049D01*
X02854819Y02477256D01*
X02855156Y02477412D01*
X02855467Y02477541D01*
X02855752Y02477619D01*
X02855985Y02477697D01*
X02856192Y02477723D01*
X02856374Y02477749D01*
X02856477D01*
X02856503D01*
X02857047Y02477723D01*
D02*
G37*
G36*
X02880603Y02467502D02*
X02863426D01*
Y02470222D01*
X02880603D01*
Y02467502D01*
D02*
G37*
G36*
X02882131Y02464989D02*
X02882339Y02464963D01*
X02882727Y02464833D01*
X02883064Y02464626D01*
X02883349Y02464393D01*
X02883582Y02464186D01*
X02883764Y02463978D01*
X02883867Y02463849D01*
X02883893Y02463797D01*
X02884049Y02463512D01*
X02884204Y02463201D01*
X02884411Y02462527D01*
X02884567Y02461828D01*
X02884696Y02461154D01*
X02884722Y02460844D01*
X02884748Y02460558D01*
X02884774Y02460299D01*
Y02460066D01*
X02884800Y02459885D01*
Y02459134D01*
X02884748Y02458693D01*
X02884722Y02458253D01*
X02884644Y02457838D01*
X02884593Y02457475D01*
X02884515Y02457113D01*
X02884437Y02456802D01*
X02884334Y02456517D01*
X02884256Y02456258D01*
X02884178Y02456025D01*
X02884101Y02455817D01*
X02884023Y02455662D01*
X02883971Y02455532D01*
X02883919Y02455455D01*
X02883893Y02455403D01*
Y02455377D01*
X02883686Y02455066D01*
X02883479Y02454807D01*
X02883271Y02454574D01*
X02883038Y02454366D01*
X02882805Y02454211D01*
X02882572Y02454056D01*
X02882131Y02453848D01*
X02881743Y02453745D01*
X02881588Y02453693D01*
X02881432Y02453667D01*
X02881302Y02453641D01*
X02881225D01*
X02881173D01*
X02881147D01*
X02880706Y02453667D01*
X02880318Y02453745D01*
X02879981Y02453874D01*
X02879696Y02454004D01*
X02879489Y02454159D01*
X02879333Y02454263D01*
X02879230Y02454366D01*
X02879204Y02454392D01*
X02879048Y02454600D01*
X02878893Y02454807D01*
X02878660Y02455325D01*
X02878452Y02455895D01*
X02878323Y02456439D01*
X02878219Y02456957D01*
X02878167Y02457165D01*
X02878141Y02457372D01*
X02878116Y02457527D01*
X02878090Y02457657D01*
Y02457760D01*
X02877857Y02460455D01*
X02877831Y02460766D01*
X02877779Y02461051D01*
X02877727Y02461284D01*
X02877701Y02461439D01*
X02877650Y02461595D01*
X02877624Y02461673D01*
X02877598Y02461724D01*
Y02461750D01*
X02877520Y02461880D01*
X02877416Y02461958D01*
X02877235Y02462061D01*
X02877079Y02462113D01*
X02877028D01*
X02877002D01*
X02876794Y02462087D01*
X02876587Y02461983D01*
X02876406Y02461854D01*
X02876250Y02461673D01*
X02876147Y02461517D01*
X02876043Y02461388D01*
X02875991Y02461284D01*
X02875965Y02461258D01*
X02876069Y02460714D01*
X02876095Y02460455D01*
X02876121Y02460196D01*
X02876147Y02460014D01*
Y02459704D01*
X02876095Y02459004D01*
X02875991Y02458382D01*
X02875862Y02457812D01*
X02875681Y02457346D01*
X02875525Y02456983D01*
X02875447Y02456828D01*
X02875370Y02456724D01*
X02875318Y02456620D01*
X02875266Y02456543D01*
X02875240Y02456517D01*
Y02456491D01*
X02875033Y02456232D01*
X02874799Y02455999D01*
X02874566Y02455817D01*
X02874307Y02455636D01*
X02874074Y02455481D01*
X02873815Y02455377D01*
X02873323Y02455196D01*
X02872882Y02455092D01*
X02872701Y02455066D01*
X02872520Y02455040D01*
X02872390Y02455014D01*
X02872286D01*
X02872234D01*
X02872209D01*
X02871717Y02455066D01*
X02871250Y02455170D01*
X02870862Y02455325D01*
X02870499Y02455481D01*
X02870214Y02455662D01*
X02870006Y02455817D01*
X02869877Y02455921D01*
X02869825Y02455973D01*
X02869618Y02455714D01*
X02869489Y02455481D01*
X02869411Y02455299D01*
X02869385Y02455273D01*
Y02455247D01*
X02869333Y02455040D01*
X02869281Y02454833D01*
X02869229Y02454366D01*
X02869203Y02454159D01*
Y02453848D01*
X02867001Y02453693D01*
X02867027Y02454133D01*
X02867053Y02454522D01*
X02867131Y02454859D01*
X02867209Y02455144D01*
X02867286Y02455351D01*
X02867338Y02455532D01*
X02867390Y02455636D01*
X02867416Y02455662D01*
X02867597Y02455973D01*
X02867856Y02456258D01*
X02868115Y02456517D01*
X02868374Y02456724D01*
X02868607Y02456906D01*
X02868815Y02457035D01*
X02868944Y02457113D01*
X02868970Y02457139D01*
X02868996D01*
X02868789Y02457553D01*
X02868659Y02457994D01*
X02868556Y02458408D01*
X02868478Y02458797D01*
X02868426Y02459160D01*
X02868400Y02459419D01*
Y02459678D01*
X02868452Y02460377D01*
X02868556Y02460999D01*
X02868685Y02461543D01*
X02868867Y02462009D01*
X02869048Y02462372D01*
X02869126Y02462527D01*
X02869178Y02462631D01*
X02869255Y02462735D01*
X02869281Y02462812D01*
X02869333Y02462838D01*
Y02462864D01*
X02869540Y02463123D01*
X02869773Y02463357D01*
X02870006Y02463564D01*
X02870240Y02463719D01*
X02870473Y02463875D01*
X02870706Y02464004D01*
X02871172Y02464186D01*
X02871587Y02464289D01*
X02871768Y02464315D01*
X02871924Y02464341D01*
X02872053Y02464367D01*
X02872157D01*
X02872209D01*
X02872234D01*
X02872623Y02464341D01*
X02872960Y02464289D01*
X02873297Y02464212D01*
X02873608Y02464108D01*
X02874152Y02463823D01*
X02874592Y02463512D01*
X02874929Y02463201D01*
X02875188Y02462916D01*
X02875292Y02462812D01*
X02875344Y02462735D01*
X02875370Y02462683D01*
X02875396Y02462657D01*
X02875603Y02462968D01*
X02875836Y02463253D01*
X02876043Y02463512D01*
X02876250Y02463719D01*
X02876458Y02463901D01*
X02876665Y02464056D01*
X02876872Y02464160D01*
X02877054Y02464263D01*
X02877390Y02464393D01*
X02877624Y02464471D01*
X02877727Y02464496D01*
X02877805D01*
X02877831D01*
X02877857D01*
X02878090Y02464471D01*
X02878323Y02464419D01*
X02878530Y02464341D01*
X02878712Y02464238D01*
X02878997Y02463952D01*
X02879230Y02463642D01*
X02879411Y02463357D01*
X02879515Y02463072D01*
X02879541Y02462968D01*
X02879567Y02462890D01*
X02879593Y02462838D01*
Y02462812D01*
X02879748Y02463201D01*
X02879929Y02463538D01*
X02880110Y02463823D01*
X02880292Y02464082D01*
X02880473Y02464289D01*
X02880681Y02464471D01*
X02880862Y02464626D01*
X02881043Y02464730D01*
X02881380Y02464885D01*
X02881639Y02464989D01*
X02881743D01*
X02881821Y02465015D01*
X02881872D01*
X02881898D01*
X02882131Y02464989D01*
D02*
G37*
G36*
X02859742Y02461660D02*
X02855933D01*
X02854120Y02460027D01*
X02859742Y02457074D01*
Y02454095D01*
X02852280Y02458292D01*
X02847798Y02454302D01*
Y02457385D01*
X02853032Y02461660D01*
X02842565D01*
Y02464354D01*
X02859742D01*
Y02461660D01*
D02*
G37*
G36*
X02880603Y02448615D02*
X02868659D01*
Y02451335D01*
X02880603D01*
Y02448615D01*
D02*
G37*
G36*
X02866535Y02448485D02*
X02863711D01*
Y02451439D01*
X02866535D01*
Y02448485D01*
D02*
G37*
G36*
X02854353Y02452670D02*
X02854845Y02452644D01*
X02855286Y02452566D01*
X02855700Y02452488D01*
X02856089Y02452385D01*
X02856451Y02452281D01*
X02856762Y02452177D01*
X02857073Y02452048D01*
X02857332Y02451918D01*
X02857566Y02451815D01*
X02857747Y02451711D01*
X02857928Y02451607D01*
X02858058Y02451530D01*
X02858135Y02451452D01*
X02858187Y02451426D01*
X02858213Y02451400D01*
X02858524Y02451115D01*
X02858809Y02450778D01*
X02859068Y02450441D01*
X02859276Y02450105D01*
X02859457Y02449742D01*
X02859612Y02449379D01*
X02859716Y02449017D01*
X02859820Y02448680D01*
X02859897Y02448343D01*
X02859949Y02448032D01*
X02860001Y02447747D01*
X02860027Y02447514D01*
X02860053Y02447332D01*
Y02447047D01*
X02860001Y02446348D01*
X02859897Y02445726D01*
X02859742Y02445130D01*
X02859509Y02444612D01*
X02859250Y02444172D01*
X02858965Y02443757D01*
X02858628Y02443394D01*
X02858317Y02443084D01*
X02857980Y02442799D01*
X02857669Y02442591D01*
X02857384Y02442410D01*
X02857125Y02442254D01*
X02856892Y02442151D01*
X02856736Y02442073D01*
X02856607Y02442021D01*
X02856581D01*
X02855856Y02444509D01*
X02856270Y02444638D01*
X02856607Y02444794D01*
X02856918Y02444949D01*
X02857177Y02445156D01*
X02857410Y02445363D01*
X02857591Y02445571D01*
X02857747Y02445778D01*
X02857876Y02445985D01*
X02857980Y02446192D01*
X02858032Y02446374D01*
X02858084Y02446555D01*
X02858135Y02446711D01*
Y02446840D01*
X02858161Y02446944D01*
Y02447022D01*
X02858110Y02447514D01*
X02858006Y02447928D01*
X02857876Y02448317D01*
X02857695Y02448602D01*
X02857540Y02448861D01*
X02857384Y02449017D01*
X02857281Y02449146D01*
X02857255Y02449172D01*
X02856840Y02449457D01*
X02856374Y02449664D01*
X02855907Y02449794D01*
X02855441Y02449897D01*
X02855027Y02449975D01*
X02854845Y02450001D01*
X02854690D01*
X02854560Y02450027D01*
X02854456D01*
X02854405D01*
X02854379D01*
Y02441969D01*
X02853809D01*
X02853317Y02441995D01*
X02852824Y02442021D01*
X02852384Y02442099D01*
X02851969Y02442177D01*
X02851555Y02442280D01*
X02851192Y02442384D01*
X02850855Y02442514D01*
X02850570Y02442617D01*
X02850285Y02442747D01*
X02850052Y02442876D01*
X02849845Y02442980D01*
X02849690Y02443084D01*
X02849560Y02443161D01*
X02849456Y02443239D01*
X02849405Y02443265D01*
X02849379Y02443291D01*
X02849042Y02443576D01*
X02848783Y02443887D01*
X02848524Y02444198D01*
X02848316Y02444534D01*
X02848135Y02444871D01*
X02847979Y02445208D01*
X02847876Y02445519D01*
X02847772Y02445830D01*
X02847695Y02446141D01*
X02847643Y02446400D01*
X02847591Y02446659D01*
X02847565Y02446866D01*
X02847539Y02447047D01*
Y02447281D01*
X02847565Y02447695D01*
X02847591Y02448084D01*
X02847669Y02448472D01*
X02847772Y02448835D01*
X02848005Y02449457D01*
X02848161Y02449742D01*
X02848290Y02450001D01*
X02848420Y02450234D01*
X02848575Y02450441D01*
X02848705Y02450597D01*
X02848809Y02450752D01*
X02848912Y02450856D01*
X02848964Y02450934D01*
X02849016Y02450986D01*
X02849042Y02451011D01*
X02849379Y02451296D01*
X02849741Y02451555D01*
X02850130Y02451789D01*
X02850518Y02451996D01*
X02850907Y02452151D01*
X02851322Y02452281D01*
X02852099Y02452488D01*
X02852462Y02452566D01*
X02852798Y02452618D01*
X02853083Y02452644D01*
X02853343Y02452670D01*
X02853550Y02452695D01*
X02853731D01*
X02853835D01*
X02853861D01*
X02854353Y02452670D01*
D02*
G37*
G36*
X02877960Y02445143D02*
X02878452Y02445040D01*
X02878893Y02444884D01*
X02879256Y02444729D01*
X02879541Y02444573D01*
X02879748Y02444418D01*
X02879878Y02444314D01*
X02879929Y02444288D01*
X02880266Y02443900D01*
X02880499Y02443485D01*
X02880681Y02443045D01*
X02880784Y02442656D01*
X02880862Y02442293D01*
X02880888Y02441983D01*
X02880914Y02441879D01*
Y02441723D01*
X02880888Y02441309D01*
X02880836Y02440920D01*
X02880732Y02440583D01*
X02880629Y02440273D01*
X02880551Y02440013D01*
X02880447Y02439806D01*
X02880396Y02439703D01*
X02880370Y02439651D01*
X02880110Y02439262D01*
X02879800Y02438899D01*
X02879515Y02438589D01*
X02879204Y02438329D01*
X02878945Y02438122D01*
X02878737Y02437967D01*
X02878582Y02437863D01*
X02878530Y02437837D01*
X02880603D01*
Y02435195D01*
X02868659D01*
Y02437941D01*
X02876535D01*
X02876820Y02438096D01*
X02877105Y02438278D01*
X02877339Y02438485D01*
X02877546Y02438640D01*
X02877701Y02438822D01*
X02877831Y02438925D01*
X02877909Y02439029D01*
X02877934Y02439055D01*
X02878141Y02439366D01*
X02878297Y02439651D01*
X02878427Y02439936D01*
X02878504Y02440169D01*
X02878556Y02440376D01*
X02878582Y02440558D01*
Y02440687D01*
X02878556Y02440972D01*
X02878504Y02441231D01*
X02878401Y02441464D01*
X02878271Y02441672D01*
X02878116Y02441827D01*
X02877960Y02441957D01*
X02877598Y02442164D01*
X02877235Y02442293D01*
X02876924Y02442345D01*
X02876794Y02442371D01*
X02876691D01*
X02876639D01*
X02876613D01*
X02868659D01*
Y02445169D01*
X02877390D01*
X02877960Y02445143D01*
D02*
G37*
G36*
X02859742Y02429793D02*
X02842876D01*
Y02432772D01*
X02859742D01*
Y02429793D01*
D02*
G37*
G36*
Y02423290D02*
X02851918D01*
X02851607Y02423083D01*
X02851348Y02422875D01*
X02851089Y02422668D01*
X02850907Y02422487D01*
X02850726Y02422331D01*
X02850622Y02422176D01*
X02850544Y02422098D01*
X02850518Y02422072D01*
X02850311Y02421761D01*
X02850156Y02421476D01*
X02850052Y02421217D01*
X02849974Y02420984D01*
X02849922Y02420777D01*
X02849897Y02420621D01*
Y02420492D01*
X02849922Y02420207D01*
X02849974Y02419948D01*
X02850078Y02419740D01*
X02850208Y02419559D01*
X02850363Y02419378D01*
X02850544Y02419248D01*
X02850907Y02419067D01*
X02851270Y02418937D01*
X02851607Y02418885D01*
X02851736Y02418860D01*
X02851840D01*
X02851892D01*
X02851918D01*
X02859742D01*
Y02416036D01*
X02851140D01*
X02850570Y02416062D01*
X02850078Y02416165D01*
X02849638Y02416295D01*
X02849275Y02416450D01*
X02848990Y02416631D01*
X02848783Y02416761D01*
X02848653Y02416865D01*
X02848601Y02416891D01*
X02848239Y02417279D01*
X02847979Y02417694D01*
X02847798Y02418108D01*
X02847669Y02418523D01*
X02847591Y02418885D01*
X02847565Y02419196D01*
X02847539Y02419300D01*
Y02419456D01*
X02847565Y02419844D01*
X02847617Y02420233D01*
X02847721Y02420569D01*
X02847824Y02420880D01*
X02847928Y02421140D01*
X02848031Y02421321D01*
X02848083Y02421450D01*
X02848109Y02421502D01*
X02848368Y02421891D01*
X02848653Y02422254D01*
X02848938Y02422564D01*
X02849223Y02422849D01*
X02849482Y02423057D01*
X02849715Y02423238D01*
X02849845Y02423342D01*
X02849871Y02423368D01*
X02847798D01*
Y02426010D01*
X02859742D01*
Y02423290D01*
D02*
G37*
G36*
X02880603Y02428951D02*
X02872779D01*
X02872468Y02428795D01*
X02872209Y02428614D01*
X02871975Y02428433D01*
X02871768Y02428251D01*
X02871613Y02428122D01*
X02871483Y02427992D01*
X02871406Y02427914D01*
X02871380Y02427888D01*
X02871172Y02427604D01*
X02871017Y02427345D01*
X02870913Y02427085D01*
X02870836Y02426852D01*
X02870784Y02426645D01*
X02870758Y02426490D01*
Y02426360D01*
X02870784Y02426101D01*
X02870836Y02425868D01*
X02870939Y02425686D01*
X02871069Y02425531D01*
X02871406Y02425272D01*
X02871768Y02425090D01*
X02872131Y02424987D01*
X02872468Y02424935D01*
X02872597Y02424909D01*
X02872701D01*
X02872753D01*
X02872779D01*
X02880603D01*
Y02422189D01*
X02872779D01*
X02872494Y02422033D01*
X02872209Y02421878D01*
X02871975Y02421696D01*
X02871768Y02421541D01*
X02871613Y02421386D01*
X02871509Y02421282D01*
X02871432Y02421204D01*
X02871406Y02421178D01*
X02871198Y02420893D01*
X02871043Y02420634D01*
X02870913Y02420401D01*
X02870836Y02420168D01*
X02870784Y02419987D01*
X02870758Y02419831D01*
Y02419702D01*
X02870784Y02419417D01*
X02870836Y02419158D01*
X02870939Y02418924D01*
X02871069Y02418743D01*
X02871224Y02418588D01*
X02871406Y02418458D01*
X02871768Y02418251D01*
X02872131Y02418121D01*
X02872468Y02418069D01*
X02872597Y02418044D01*
X02872701D01*
X02872753D01*
X02872779D01*
X02880603D01*
Y02415323D01*
X02872001D01*
X02871432Y02415349D01*
X02870939Y02415453D01*
X02870499Y02415556D01*
X02870136Y02415712D01*
X02869851Y02415841D01*
X02869644Y02415971D01*
X02869514Y02416075D01*
X02869463Y02416100D01*
X02869100Y02416463D01*
X02868841Y02416852D01*
X02868659Y02417266D01*
X02868530Y02417655D01*
X02868452Y02418018D01*
X02868426Y02418303D01*
X02868400Y02418406D01*
Y02418562D01*
X02868426Y02418976D01*
X02868504Y02419365D01*
X02868607Y02419753D01*
X02868763Y02420090D01*
X02868944Y02420427D01*
X02869152Y02420738D01*
X02869359Y02421023D01*
X02869566Y02421308D01*
X02869799Y02421541D01*
X02870006Y02421748D01*
X02870214Y02421930D01*
X02870395Y02422059D01*
X02870551Y02422189D01*
X02870654Y02422267D01*
X02870732Y02422318D01*
X02870758Y02422344D01*
X02870395Y02422448D01*
X02870084Y02422577D01*
X02869799Y02422733D01*
X02869566Y02422888D01*
X02869385Y02423018D01*
X02869229Y02423147D01*
X02869152Y02423225D01*
X02869126Y02423251D01*
X02868893Y02423562D01*
X02868711Y02423899D01*
X02868582Y02424261D01*
X02868478Y02424572D01*
X02868426Y02424857D01*
X02868400Y02425090D01*
Y02425298D01*
X02868426Y02425712D01*
X02868504Y02426101D01*
X02868607Y02426464D01*
X02868763Y02426826D01*
X02868944Y02427163D01*
X02869152Y02427474D01*
X02869359Y02427759D01*
X02869566Y02428018D01*
X02869799Y02428251D01*
X02870006Y02428459D01*
X02870214Y02428640D01*
X02870395Y02428769D01*
X02870551Y02428899D01*
X02870654Y02428977D01*
X02870732Y02429028D01*
X02870758Y02429054D01*
X02868659D01*
Y02431645D01*
X02880603D01*
Y02428951D01*
D02*
G37*
G36*
X02926940Y02605848D02*
X02927314Y02605626D01*
X02927661Y02605446D01*
X02927966Y02605307D01*
X02928119Y02605252D01*
X02928244Y02605196D01*
X02928355Y02605155D01*
X02928452Y02605113D01*
X02928521Y02605085D01*
X02928590Y02605071D01*
X02928618Y02605058D01*
X02928632D01*
X02928396Y02603837D01*
X02928063Y02603962D01*
X02927744Y02604087D01*
X02927467Y02604212D01*
X02927231Y02604337D01*
X02927037Y02604461D01*
X02926885Y02604544D01*
X02926829Y02604586D01*
X02926788Y02604600D01*
X02926774Y02604628D01*
X02926760D01*
Y02598290D01*
X02928493D01*
Y02597166D01*
X02923709D01*
Y02598290D01*
X02925373D01*
Y02606111D01*
X02926566D01*
X02926940Y02605848D01*
D02*
G37*
G36*
X02954455Y02601785D02*
X02957256Y02597166D01*
X02955620D01*
X02953928Y02600051D01*
X02953859Y02600176D01*
X02953803Y02600287D01*
X02953748Y02600384D01*
X02953706Y02600467D01*
X02953678Y02600536D01*
X02953651Y02600578D01*
X02953623Y02600606D01*
Y02600620D01*
X02953581Y02600536D01*
X02953526Y02600453D01*
X02953498Y02600384D01*
X02953484Y02600370D01*
Y02600356D01*
X02953401Y02600218D01*
X02953359Y02600121D01*
X02953332Y02600065D01*
X02953318Y02600051D01*
X02951640Y02597166D01*
X02949837D01*
X02952666Y02601854D01*
X02949976Y02606195D01*
X02951626D01*
X02953110Y02603657D01*
X02953221Y02603449D01*
X02953304Y02603296D01*
X02953373Y02603185D01*
X02953415Y02603102D01*
X02953443Y02603047D01*
X02953456Y02603005D01*
X02953470Y02602991D01*
X02953526Y02603088D01*
X02953581Y02603185D01*
X02953637Y02603268D01*
X02953651Y02603282D01*
Y02603296D01*
X02953734Y02603449D01*
X02953789Y02603560D01*
X02953831Y02603629D01*
X02953845Y02603643D01*
X02955287Y02606195D01*
X02957076D01*
X02954455Y02601785D01*
D02*
G37*
G36*
X02932834Y02606181D02*
X02933098Y02606139D01*
X02933347Y02606070D01*
X02933569Y02605987D01*
X02933791Y02605876D01*
X02933985Y02605737D01*
X02934166Y02605585D01*
X02934332Y02605418D01*
X02934498Y02605238D01*
X02934637Y02605044D01*
X02934887Y02604628D01*
X02935081Y02604184D01*
X02935247Y02603726D01*
X02935372Y02603268D01*
X02935469Y02602825D01*
X02935539Y02602409D01*
X02935566Y02602214D01*
X02935580Y02602034D01*
X02935608Y02601868D01*
X02935622Y02601715D01*
Y02601577D01*
X02935636Y02601465D01*
Y02601382D01*
Y02601313D01*
Y02601271D01*
Y02601258D01*
X02935622Y02600883D01*
X02935608Y02600536D01*
X02935566Y02600218D01*
X02935525Y02599912D01*
X02935469Y02599635D01*
X02935414Y02599372D01*
X02935358Y02599136D01*
X02935289Y02598928D01*
X02935220Y02598747D01*
X02935164Y02598581D01*
X02935109Y02598456D01*
X02935053Y02598345D01*
X02935012Y02598248D01*
X02934970Y02598193D01*
X02934956Y02598151D01*
X02934942Y02598137D01*
X02934803Y02597943D01*
X02934637Y02597763D01*
X02934471Y02597610D01*
X02934304Y02597485D01*
X02934124Y02597375D01*
X02933944Y02597278D01*
X02933763Y02597208D01*
X02933583Y02597139D01*
X02933430Y02597097D01*
X02933278Y02597055D01*
X02933139Y02597042D01*
X02933015Y02597014D01*
X02932917D01*
X02932848Y02597000D01*
X02932779D01*
X02932571Y02597014D01*
X02932377Y02597028D01*
X02932016Y02597111D01*
X02931697Y02597222D01*
X02931433Y02597361D01*
X02931323Y02597430D01*
X02931226Y02597499D01*
X02931142Y02597555D01*
X02931059Y02597610D01*
X02931004Y02597652D01*
X02930962Y02597693D01*
X02930948Y02597707D01*
X02930934Y02597721D01*
X02930782Y02597888D01*
X02930657Y02598082D01*
X02930532Y02598262D01*
X02930435Y02598456D01*
X02930352Y02598664D01*
X02930282Y02598858D01*
X02930186Y02599247D01*
X02930144Y02599413D01*
X02930116Y02599579D01*
X02930102Y02599732D01*
X02930088Y02599857D01*
X02930074Y02599968D01*
Y02600037D01*
Y02600093D01*
Y02600107D01*
X02930102Y02600550D01*
X02930157Y02600952D01*
X02930255Y02601285D01*
X02930296Y02601438D01*
X02930352Y02601577D01*
X02930407Y02601701D01*
X02930449Y02601812D01*
X02930504Y02601909D01*
X02930546Y02601979D01*
X02930574Y02602034D01*
X02930602Y02602076D01*
X02930629Y02602104D01*
Y02602118D01*
X02930754Y02602270D01*
X02930893Y02602409D01*
X02931031Y02602520D01*
X02931170Y02602617D01*
X02931323Y02602714D01*
X02931461Y02602783D01*
X02931753Y02602880D01*
X02932002Y02602950D01*
X02932113Y02602963D01*
X02932210Y02602977D01*
X02932279Y02602991D01*
X02932390D01*
X02932612Y02602977D01*
X02932820Y02602950D01*
X02933000Y02602894D01*
X02933181Y02602825D01*
X02933347Y02602755D01*
X02933500Y02602658D01*
X02933625Y02602575D01*
X02933749Y02602478D01*
X02933860Y02602381D01*
X02933944Y02602284D01*
X02934027Y02602187D01*
X02934096Y02602118D01*
X02934138Y02602048D01*
X02934179Y02601992D01*
X02934193Y02601965D01*
X02934207Y02601951D01*
X02934193Y02602242D01*
X02934179Y02602506D01*
X02934152Y02602755D01*
X02934110Y02602991D01*
X02934069Y02603199D01*
X02934027Y02603407D01*
X02933971Y02603588D01*
X02933916Y02603768D01*
X02933791Y02604073D01*
X02933666Y02604323D01*
X02933514Y02604531D01*
X02933375Y02604697D01*
X02933222Y02604822D01*
X02933084Y02604919D01*
X02932959Y02604988D01*
X02932834Y02605044D01*
X02932737Y02605071D01*
X02932668Y02605085D01*
X02932599D01*
X02932460Y02605071D01*
X02932349Y02605044D01*
X02932238Y02605002D01*
X02932141Y02604947D01*
X02931974Y02604808D01*
X02931850Y02604655D01*
X02931766Y02604489D01*
X02931711Y02604350D01*
X02931697Y02604295D01*
X02931683Y02604253D01*
X02931669Y02604225D01*
Y02604212D01*
X02930255Y02604738D01*
X02930380Y02605002D01*
X02930518Y02605224D01*
X02930685Y02605418D01*
X02930865Y02605585D01*
X02931059Y02605723D01*
X02931239Y02605834D01*
X02931433Y02605931D01*
X02931628Y02606014D01*
X02931808Y02606070D01*
X02931988Y02606111D01*
X02932141Y02606153D01*
X02932279Y02606167D01*
X02932390Y02606181D01*
X02932487Y02606195D01*
X02932557D01*
X02932834Y02606181D01*
D02*
G37*
G36*
X02946578D02*
X02946772Y02606167D01*
X02947133Y02606084D01*
X02947451Y02605959D01*
X02947715Y02605834D01*
X02947826Y02605765D01*
X02947937Y02605695D01*
X02948020Y02605626D01*
X02948090Y02605571D01*
X02948145Y02605529D01*
X02948187Y02605487D01*
X02948200Y02605474D01*
X02948214Y02605460D01*
X02948367Y02605293D01*
X02948492Y02605113D01*
X02948603Y02604933D01*
X02948700Y02604738D01*
X02948769Y02604531D01*
X02948838Y02604337D01*
X02948936Y02603962D01*
X02948977Y02603782D01*
X02949005Y02603615D01*
X02949019Y02603463D01*
X02949033Y02603338D01*
X02949046Y02603241D01*
Y02603158D01*
Y02603102D01*
Y02603088D01*
X02949033Y02602866D01*
X02949019Y02602658D01*
X02948949Y02602256D01*
X02948852Y02601923D01*
X02948797Y02601771D01*
X02948741Y02601632D01*
X02948686Y02601507D01*
X02948644Y02601396D01*
X02948589Y02601313D01*
X02948547Y02601230D01*
X02948506Y02601174D01*
X02948478Y02601133D01*
X02948450Y02601105D01*
Y02601091D01*
X02948325Y02600939D01*
X02948187Y02600800D01*
X02948034Y02600689D01*
X02947895Y02600592D01*
X02947743Y02600509D01*
X02947590Y02600425D01*
X02947313Y02600328D01*
X02947063Y02600259D01*
X02946952Y02600245D01*
X02946855Y02600231D01*
X02946786Y02600218D01*
X02946675D01*
X02946453Y02600231D01*
X02946245Y02600259D01*
X02946051Y02600315D01*
X02945870Y02600384D01*
X02945704Y02600467D01*
X02945551Y02600550D01*
X02945427Y02600647D01*
X02945302Y02600758D01*
X02945205Y02600855D01*
X02945108Y02600952D01*
X02945038Y02601036D01*
X02944983Y02601119D01*
X02944927Y02601188D01*
X02944900Y02601244D01*
X02944873Y02601271D01*
X02944886Y02600994D01*
X02944900Y02600731D01*
X02944927Y02600481D01*
X02944955Y02600245D01*
X02944983Y02600037D01*
X02945011Y02599843D01*
X02945052Y02599663D01*
X02945094Y02599510D01*
X02945121Y02599372D01*
X02945163Y02599247D01*
X02945191Y02599149D01*
X02945219Y02599066D01*
X02945246Y02599011D01*
X02945260Y02598969D01*
X02945274Y02598942D01*
Y02598928D01*
X02945357Y02598789D01*
X02945441Y02598664D01*
X02945524Y02598553D01*
X02945621Y02598456D01*
X02945732Y02598373D01*
X02945829Y02598304D01*
X02946023Y02598206D01*
X02946203Y02598151D01*
X02946342Y02598123D01*
X02946397Y02598109D01*
X02946481D01*
X02946606Y02598123D01*
X02946717Y02598151D01*
X02946827Y02598193D01*
X02946924Y02598248D01*
X02947077Y02598387D01*
X02947202Y02598539D01*
X02947299Y02598692D01*
X02947368Y02598831D01*
X02947382Y02598886D01*
X02947396Y02598928D01*
X02947410Y02598955D01*
Y02598969D01*
X02948838Y02598429D01*
X02948727Y02598179D01*
X02948589Y02597957D01*
X02948422Y02597763D01*
X02948256Y02597596D01*
X02948062Y02597472D01*
X02947868Y02597347D01*
X02947673Y02597249D01*
X02947479Y02597180D01*
X02947285Y02597125D01*
X02947105Y02597069D01*
X02946938Y02597042D01*
X02946800Y02597028D01*
X02946675Y02597014D01*
X02946592Y02597000D01*
X02946508D01*
X02946259Y02597014D01*
X02946023Y02597042D01*
X02945801Y02597083D01*
X02945593Y02597153D01*
X02945399Y02597222D01*
X02945233Y02597305D01*
X02945066Y02597402D01*
X02944927Y02597485D01*
X02944803Y02597582D01*
X02944692Y02597666D01*
X02944595Y02597749D01*
X02944525Y02597818D01*
X02944470Y02597888D01*
X02944414Y02597929D01*
X02944401Y02597957D01*
X02944387Y02597971D01*
X02944234Y02598221D01*
X02944095Y02598484D01*
X02943971Y02598789D01*
X02943860Y02599094D01*
X02943777Y02599427D01*
X02943707Y02599760D01*
X02943652Y02600079D01*
X02943596Y02600412D01*
X02943554Y02600717D01*
X02943527Y02600994D01*
X02943513Y02601258D01*
X02943499Y02601494D01*
X02943485Y02601674D01*
Y02601812D01*
Y02601868D01*
Y02601909D01*
Y02601923D01*
Y02601937D01*
X02943499Y02602312D01*
X02943513Y02602658D01*
X02943541Y02602977D01*
X02943596Y02603268D01*
X02943638Y02603546D01*
X02943693Y02603810D01*
X02943763Y02604031D01*
X02943818Y02604239D01*
X02943887Y02604420D01*
X02943943Y02604586D01*
X02944012Y02604725D01*
X02944054Y02604836D01*
X02944095Y02604919D01*
X02944137Y02604974D01*
X02944151Y02605016D01*
X02944165Y02605030D01*
X02944303Y02605238D01*
X02944470Y02605418D01*
X02944636Y02605571D01*
X02944817Y02605710D01*
X02944997Y02605820D01*
X02945191Y02605917D01*
X02945371Y02605987D01*
X02945538Y02606056D01*
X02945704Y02606098D01*
X02945870Y02606139D01*
X02946009Y02606153D01*
X02946134Y02606181D01*
X02946231D01*
X02946300Y02606195D01*
X02946370D01*
X02946578Y02606181D01*
D02*
G37*
G36*
X02974800Y02597166D02*
X02973413D01*
Y02601701D01*
Y02602312D01*
Y02602894D01*
Y02603171D01*
X02973427Y02603435D01*
Y02603685D01*
Y02603920D01*
Y02604128D01*
Y02604323D01*
X02973441Y02604489D01*
Y02604641D01*
Y02604753D01*
Y02604836D01*
Y02604891D01*
Y02604905D01*
X02973275D01*
X02973163Y02604420D01*
X02973053Y02603990D01*
X02972956Y02603601D01*
X02972886Y02603268D01*
X02972803Y02602977D01*
X02972747Y02602728D01*
X02972692Y02602506D01*
X02972650Y02602325D01*
X02972609Y02602173D01*
X02972581Y02602062D01*
X02972553Y02601965D01*
X02972539Y02601896D01*
X02972526Y02601840D01*
X02972512Y02601812D01*
Y02601785D01*
X02971319Y02597166D01*
X02969489D01*
X02968268Y02601840D01*
X02968213Y02602062D01*
X02968143Y02602284D01*
X02968018Y02602783D01*
X02967893Y02603296D01*
X02967783Y02603795D01*
X02967727Y02604017D01*
X02967672Y02604225D01*
X02967630Y02604420D01*
X02967589Y02604586D01*
X02967561Y02604711D01*
X02967533Y02604822D01*
X02967519Y02604877D01*
Y02604905D01*
X02967353D01*
Y02604517D01*
X02967367Y02604156D01*
Y02603823D01*
Y02603504D01*
Y02603213D01*
Y02602963D01*
X02967380Y02602728D01*
Y02602506D01*
Y02602325D01*
Y02602159D01*
Y02602020D01*
Y02601909D01*
Y02601826D01*
Y02601771D01*
Y02601729D01*
Y02601715D01*
Y02597166D01*
X02965883D01*
Y02606195D01*
X02968434D01*
X02969586Y02601563D01*
X02969641Y02601341D01*
X02969710Y02601105D01*
X02969766Y02600869D01*
X02969821Y02600661D01*
X02969863Y02600453D01*
X02969904Y02600301D01*
X02969918Y02600245D01*
Y02600204D01*
X02969932Y02600176D01*
Y02600162D01*
X02969974Y02599954D01*
X02970029Y02599760D01*
X02970057Y02599579D01*
X02970099Y02599427D01*
X02970126Y02599274D01*
X02970168Y02599149D01*
X02970182Y02599039D01*
X02970210Y02598942D01*
X02970251Y02598789D01*
X02970279Y02598692D01*
X02970293Y02598623D01*
Y02598609D01*
X02970459D01*
X02970556Y02599149D01*
X02970667Y02599677D01*
X02970778Y02600176D01*
X02970834Y02600412D01*
X02970889Y02600634D01*
X02970931Y02600828D01*
X02970972Y02601008D01*
X02971014Y02601174D01*
X02971042Y02601313D01*
X02971069Y02601424D01*
X02971097Y02601507D01*
X02971111Y02601563D01*
Y02601577D01*
X02972248Y02606195D01*
X02974800D01*
Y02597166D01*
D02*
G37*
G36*
X02963719D02*
X02957894D01*
Y02598429D01*
X02962124D01*
Y02606195D01*
X02963719D01*
Y02597166D01*
D02*
G37*
G36*
X02922474Y02600204D02*
Y02599164D01*
X02919091D01*
Y02597166D01*
X02917759D01*
Y02599164D01*
X02916650D01*
Y02600273D01*
X02917759D01*
Y02606111D01*
X02919590D01*
X02922474Y02600204D01*
D02*
G37*
G36*
X02939796Y02606181D02*
X02940018Y02606153D01*
X02940226Y02606111D01*
X02940406Y02606056D01*
X02940587Y02605987D01*
X02940753Y02605904D01*
X02940892Y02605820D01*
X02941030Y02605737D01*
X02941141Y02605654D01*
X02941252Y02605571D01*
X02941335Y02605487D01*
X02941405Y02605418D01*
X02941460Y02605363D01*
X02941502Y02605321D01*
X02941516Y02605293D01*
X02941530Y02605280D01*
X02941682Y02605058D01*
X02941807Y02604794D01*
X02941918Y02604517D01*
X02942015Y02604225D01*
X02942084Y02603934D01*
X02942154Y02603629D01*
X02942251Y02603019D01*
X02942292Y02602741D01*
X02942320Y02602478D01*
X02942334Y02602228D01*
X02942348Y02602020D01*
X02942362Y02601854D01*
Y02601715D01*
Y02601632D01*
Y02601618D01*
Y02601604D01*
X02942348Y02601188D01*
X02942334Y02600814D01*
X02942306Y02600453D01*
X02942265Y02600121D01*
X02942223Y02599815D01*
X02942168Y02599538D01*
X02942112Y02599288D01*
X02942057Y02599066D01*
X02942001Y02598872D01*
X02941946Y02598692D01*
X02941890Y02598553D01*
X02941849Y02598429D01*
X02941807Y02598345D01*
X02941779Y02598276D01*
X02941752Y02598234D01*
Y02598221D01*
X02941613Y02598012D01*
X02941460Y02597818D01*
X02941294Y02597652D01*
X02941128Y02597513D01*
X02940947Y02597402D01*
X02940767Y02597305D01*
X02940587Y02597222D01*
X02940420Y02597153D01*
X02940254Y02597097D01*
X02940087Y02597069D01*
X02939949Y02597042D01*
X02939824Y02597014D01*
X02939727D01*
X02939658Y02597000D01*
X02939588D01*
X02939352Y02597014D01*
X02939131Y02597042D01*
X02938909Y02597083D01*
X02938714Y02597153D01*
X02938534Y02597222D01*
X02938382Y02597291D01*
X02938229Y02597375D01*
X02938090Y02597472D01*
X02937979Y02597555D01*
X02937868Y02597638D01*
X02937785Y02597707D01*
X02937716Y02597791D01*
X02937661Y02597846D01*
X02937619Y02597888D01*
X02937605Y02597915D01*
X02937591Y02597929D01*
X02937438Y02598151D01*
X02937314Y02598415D01*
X02937203Y02598692D01*
X02937106Y02598983D01*
X02937022Y02599288D01*
X02936967Y02599594D01*
X02936856Y02600190D01*
X02936828Y02600481D01*
X02936801Y02600745D01*
X02936787Y02600994D01*
X02936773Y02601202D01*
X02936759Y02601369D01*
Y02601507D01*
Y02601591D01*
Y02601604D01*
Y02601618D01*
Y02602020D01*
X02936787Y02602409D01*
X02936814Y02602769D01*
X02936856Y02603088D01*
X02936912Y02603393D01*
X02936967Y02603671D01*
X02937022Y02603920D01*
X02937078Y02604142D01*
X02937133Y02604350D01*
X02937189Y02604517D01*
X02937244Y02604655D01*
X02937300Y02604780D01*
X02937341Y02604863D01*
X02937369Y02604933D01*
X02937383Y02604974D01*
X02937397Y02604988D01*
X02937536Y02605196D01*
X02937688Y02605390D01*
X02937855Y02605543D01*
X02938021Y02605681D01*
X02938201Y02605806D01*
X02938382Y02605904D01*
X02938562Y02605987D01*
X02938728Y02606042D01*
X02938895Y02606098D01*
X02939061Y02606125D01*
X02939200Y02606153D01*
X02939311Y02606181D01*
X02939422D01*
X02939491Y02606195D01*
X02939561D01*
X02939796Y02606181D01*
D02*
G37*
%LPC*%
G36*
X02870680Y02495301D02*
X02865939D01*
Y02492477D01*
X02865965Y02491907D01*
X02866017Y02491441D01*
X02866094Y02491026D01*
X02866198Y02490690D01*
X02866302Y02490430D01*
X02866379Y02490249D01*
X02866431Y02490146D01*
X02866457Y02490120D01*
X02866690Y02489835D01*
X02866975Y02489627D01*
X02867260Y02489498D01*
X02867545Y02489394D01*
X02867830Y02489342D01*
X02868037Y02489290D01*
X02868193D01*
X02868219D01*
X02868245D01*
X02868633Y02489316D01*
X02868944Y02489394D01*
X02869255Y02489524D01*
X02869489Y02489653D01*
X02869670Y02489809D01*
X02869825Y02489912D01*
X02869903Y02490016D01*
X02869929Y02490042D01*
X02870188Y02490405D01*
X02870369Y02490845D01*
X02870499Y02491285D01*
X02870576Y02491726D01*
X02870628Y02492115D01*
X02870654Y02492296D01*
X02870680Y02492425D01*
Y02495301D01*
D02*
G37*
G36*
X02878427D02*
X02872882D01*
Y02492555D01*
X02872908Y02491959D01*
X02872986Y02491441D01*
X02873090Y02491000D01*
X02873193Y02490612D01*
X02873323Y02490327D01*
X02873427Y02490120D01*
X02873504Y02489990D01*
X02873530Y02489938D01*
X02873660Y02489731D01*
X02873815Y02489576D01*
X02874152Y02489290D01*
X02874514Y02489083D01*
X02874851Y02488954D01*
X02875162Y02488876D01*
X02875396Y02488850D01*
X02875499Y02488824D01*
X02875577D01*
X02875603D01*
X02875629D01*
X02876069Y02488850D01*
X02876458Y02488928D01*
X02876794Y02489057D01*
X02877054Y02489187D01*
X02877287Y02489316D01*
X02877442Y02489446D01*
X02877546Y02489524D01*
X02877572Y02489550D01*
X02877857Y02489912D01*
X02878064Y02490327D01*
X02878219Y02490741D01*
X02878323Y02491182D01*
X02878375Y02491570D01*
X02878401Y02491881D01*
X02878427Y02491985D01*
Y02495301D01*
D02*
G37*
G36*
X02873427Y02481000D02*
X02872934Y02480948D01*
X02872520Y02480845D01*
X02872157Y02480741D01*
X02871820Y02480611D01*
X02871587Y02480508D01*
X02871406Y02480404D01*
X02871276Y02480326D01*
X02871250Y02480300D01*
X02870939Y02480015D01*
X02870706Y02479679D01*
X02870525Y02479342D01*
X02870421Y02479005D01*
X02870343Y02478720D01*
X02870317Y02478487D01*
X02870291Y02478331D01*
Y02478280D01*
X02870317Y02477865D01*
X02870421Y02477477D01*
X02870576Y02477140D01*
X02870784Y02476855D01*
X02871017Y02476596D01*
X02871276Y02476388D01*
X02871561Y02476207D01*
X02871846Y02476077D01*
X02872157Y02475948D01*
X02872442Y02475844D01*
X02872701Y02475792D01*
X02872934Y02475741D01*
X02873141Y02475689D01*
X02873297Y02475663D01*
X02873401D01*
X02873427D01*
Y02481000D01*
D02*
G37*
G36*
X02856348Y02475132D02*
X02856296D01*
X02856270D01*
X02855985Y02475106D01*
X02855726Y02475054D01*
X02855493Y02474950D01*
X02855286Y02474821D01*
X02854949Y02474510D01*
X02854664Y02474147D01*
X02854482Y02473810D01*
X02854353Y02473500D01*
X02854301Y02473370D01*
X02854275Y02473266D01*
X02854249Y02473215D01*
Y02473189D01*
X02854146Y02472670D01*
X02854068Y02472178D01*
X02854016Y02471712D01*
X02853964Y02471297D01*
X02853938Y02470961D01*
X02853912Y02470676D01*
Y02470442D01*
X02856115D01*
X02856451Y02470650D01*
X02856762Y02470857D01*
X02857021Y02471090D01*
X02857255Y02471323D01*
X02857436Y02471557D01*
X02857591Y02471790D01*
X02857721Y02472023D01*
X02857825Y02472230D01*
X02857980Y02472619D01*
X02858032Y02472800D01*
X02858058Y02472955D01*
Y02473059D01*
X02858084Y02473163D01*
Y02473241D01*
X02858058Y02473577D01*
X02858006Y02473862D01*
X02857928Y02474121D01*
X02857799Y02474329D01*
X02857669Y02474510D01*
X02857514Y02474665D01*
X02857332Y02474795D01*
X02857177Y02474899D01*
X02856840Y02475028D01*
X02856555Y02475106D01*
X02856425D01*
X02856348Y02475132D01*
D02*
G37*
G36*
X02872416Y02461854D02*
X02872260D01*
X02872209D01*
X02871872Y02461828D01*
X02871587Y02461776D01*
X02871302Y02461673D01*
X02871095Y02461569D01*
X02870913Y02461491D01*
X02870784Y02461388D01*
X02870706Y02461336D01*
X02870680Y02461310D01*
X02870473Y02461051D01*
X02870317Y02460792D01*
X02870188Y02460507D01*
X02870110Y02460248D01*
X02870058Y02460040D01*
X02870032Y02459833D01*
Y02459678D01*
X02870058Y02459367D01*
X02870110Y02459082D01*
X02870188Y02458823D01*
X02870266Y02458615D01*
X02870369Y02458460D01*
X02870447Y02458330D01*
X02870499Y02458253D01*
X02870525Y02458227D01*
X02870784Y02457994D01*
X02871043Y02457812D01*
X02871328Y02457683D01*
X02871613Y02457579D01*
X02871846Y02457527D01*
X02872053Y02457501D01*
X02872183D01*
X02872234D01*
X02872597Y02457527D01*
X02872908Y02457579D01*
X02873193Y02457683D01*
X02873427Y02457760D01*
X02873608Y02457864D01*
X02873763Y02457968D01*
X02873841Y02458020D01*
X02873867Y02458046D01*
X02874100Y02458279D01*
X02874255Y02458564D01*
X02874385Y02458823D01*
X02874463Y02459082D01*
X02874514Y02459315D01*
X02874540Y02459496D01*
Y02459678D01*
X02874514Y02459989D01*
X02874463Y02460299D01*
X02874385Y02460533D01*
X02874281Y02460766D01*
X02874178Y02460921D01*
X02874100Y02461051D01*
X02874048Y02461129D01*
X02874022Y02461154D01*
X02873763Y02461388D01*
X02873478Y02461569D01*
X02873167Y02461673D01*
X02872882Y02461776D01*
X02872623Y02461828D01*
X02872416Y02461854D01*
D02*
G37*
G36*
X02881536Y02462761D02*
X02881510D01*
X02881302Y02462735D01*
X02881121Y02462683D01*
X02880966Y02462605D01*
X02880810Y02462502D01*
X02880525Y02462242D01*
X02880318Y02461958D01*
X02880137Y02461673D01*
X02880033Y02461414D01*
X02879981Y02461310D01*
X02879955Y02461232D01*
X02879929Y02461180D01*
Y02461154D01*
X02880214Y02458201D01*
X02880266Y02457786D01*
X02880318Y02457424D01*
X02880396Y02457113D01*
X02880447Y02456880D01*
X02880525Y02456698D01*
X02880551Y02456595D01*
X02880603Y02456517D01*
Y02456491D01*
X02880732Y02456335D01*
X02880888Y02456206D01*
X02881043Y02456128D01*
X02881199Y02456051D01*
X02881354Y02456025D01*
X02881484Y02455999D01*
X02881562D01*
X02881588D01*
X02881821Y02456025D01*
X02882002Y02456102D01*
X02882183Y02456232D01*
X02882339Y02456361D01*
X02882468Y02456517D01*
X02882572Y02456620D01*
X02882624Y02456724D01*
X02882650Y02456750D01*
X02882831Y02457139D01*
X02882961Y02457579D01*
X02883038Y02458046D01*
X02883090Y02458486D01*
X02883142Y02458875D01*
Y02459056D01*
X02883168Y02459211D01*
Y02459496D01*
X02883142Y02459989D01*
X02883116Y02460429D01*
X02883038Y02460818D01*
X02882961Y02461129D01*
X02882909Y02461388D01*
X02882831Y02461595D01*
X02882805Y02461698D01*
X02882779Y02461750D01*
X02882598Y02462087D01*
X02882391Y02462346D01*
X02882183Y02462502D01*
X02881976Y02462631D01*
X02881795Y02462709D01*
X02881639Y02462735D01*
X02881536Y02462761D01*
D02*
G37*
G36*
X02852565Y02449975D02*
X02852073Y02449923D01*
X02851659Y02449820D01*
X02851296Y02449716D01*
X02850959Y02449586D01*
X02850726Y02449483D01*
X02850544Y02449379D01*
X02850415Y02449301D01*
X02850389Y02449276D01*
X02850078Y02448991D01*
X02849845Y02448654D01*
X02849664Y02448317D01*
X02849560Y02447980D01*
X02849482Y02447695D01*
X02849456Y02447462D01*
X02849431Y02447307D01*
Y02447255D01*
X02849456Y02446840D01*
X02849560Y02446452D01*
X02849715Y02446115D01*
X02849922Y02445830D01*
X02850156Y02445571D01*
X02850415Y02445363D01*
X02850700Y02445182D01*
X02850985Y02445053D01*
X02851296Y02444923D01*
X02851581Y02444819D01*
X02851840Y02444768D01*
X02852073Y02444716D01*
X02852280Y02444664D01*
X02852436Y02444638D01*
X02852539D01*
X02852565D01*
Y02449975D01*
D02*
G37*
G36*
X02932779Y02601868D02*
X02932737D01*
X02932529Y02601854D01*
X02932349Y02601785D01*
X02932182Y02601701D01*
X02932044Y02601591D01*
X02931933Y02601452D01*
X02931836Y02601299D01*
X02931753Y02601133D01*
X02931697Y02600966D01*
X02931642Y02600800D01*
X02931614Y02600634D01*
X02931586Y02600481D01*
X02931558Y02600342D01*
Y02600231D01*
X02931544Y02600148D01*
Y02600079D01*
Y02600065D01*
X02931558Y02599718D01*
X02931600Y02599413D01*
X02931655Y02599164D01*
X02931739Y02598942D01*
X02931836Y02598747D01*
X02931933Y02598581D01*
X02932057Y02598456D01*
X02932169Y02598359D01*
X02932279Y02598276D01*
X02932390Y02598206D01*
X02932502Y02598165D01*
X02932599Y02598137D01*
X02932682Y02598123D01*
X02932737Y02598109D01*
X02932793D01*
X02932917Y02598123D01*
X02933042Y02598137D01*
X02933250Y02598221D01*
X02933445Y02598359D01*
X02933597Y02598525D01*
X02933736Y02598720D01*
X02933847Y02598942D01*
X02933944Y02599178D01*
X02934013Y02599427D01*
X02934082Y02599677D01*
X02934124Y02599912D01*
X02934152Y02600134D01*
X02934166Y02600328D01*
X02934179Y02600495D01*
X02934193Y02600634D01*
Y02600717D01*
Y02600731D01*
Y02600745D01*
X02934082Y02600939D01*
X02933971Y02601119D01*
X02933847Y02601271D01*
X02933736Y02601396D01*
X02933611Y02601507D01*
X02933486Y02601591D01*
X02933375Y02601674D01*
X02933250Y02601729D01*
X02933056Y02601812D01*
X02932890Y02601854D01*
X02932820D01*
X02932779Y02601868D01*
D02*
G37*
G36*
X02946370Y02605071D02*
X02946314D01*
X02946190Y02605058D01*
X02946078Y02605044D01*
X02945870Y02604961D01*
X02945676Y02604836D01*
X02945524Y02604669D01*
X02945399Y02604461D01*
X02945288Y02604239D01*
X02945191Y02604004D01*
X02945121Y02603768D01*
X02945066Y02603518D01*
X02945011Y02603282D01*
X02944983Y02603061D01*
X02944969Y02602866D01*
X02944955Y02602686D01*
X02944941Y02602561D01*
Y02602478D01*
Y02602464D01*
Y02602450D01*
X02945038Y02602256D01*
X02945135Y02602090D01*
X02945246Y02601937D01*
X02945371Y02601812D01*
X02945482Y02601701D01*
X02945593Y02601618D01*
X02945718Y02601535D01*
X02945829Y02601479D01*
X02946023Y02601396D01*
X02946190Y02601355D01*
X02946259D01*
X02946300Y02601341D01*
X02946342D01*
X02946522Y02601355D01*
X02946703Y02601410D01*
X02946841Y02601465D01*
X02946966Y02601549D01*
X02947063Y02601618D01*
X02947133Y02601688D01*
X02947174Y02601729D01*
X02947188Y02601743D01*
X02947313Y02601937D01*
X02947410Y02602159D01*
X02947466Y02602395D01*
X02947521Y02602617D01*
X02947549Y02602811D01*
X02947563Y02602963D01*
Y02603033D01*
Y02603074D01*
Y02603102D01*
Y02603116D01*
X02947549Y02603463D01*
X02947507Y02603768D01*
X02947451Y02604017D01*
X02947368Y02604253D01*
X02947271Y02604434D01*
X02947160Y02604600D01*
X02947049Y02604725D01*
X02946938Y02604822D01*
X02946827Y02604905D01*
X02946703Y02604974D01*
X02946606Y02605016D01*
X02946508Y02605044D01*
X02946425Y02605058D01*
X02946370Y02605071D01*
D02*
G37*
G36*
X02919188Y02604947D02*
X02919021D01*
X02919035Y02604628D01*
X02919049Y02604323D01*
Y02604031D01*
X02919063Y02603768D01*
Y02603518D01*
X02919077Y02603296D01*
Y02603102D01*
Y02602922D01*
X02919091Y02602755D01*
Y02602617D01*
Y02602506D01*
Y02602409D01*
Y02602325D01*
Y02602270D01*
Y02602242D01*
Y02602228D01*
Y02600273D01*
X02921268D01*
X02920172Y02602617D01*
X02919964Y02603088D01*
X02919770Y02603532D01*
X02919604Y02603920D01*
X02919521Y02604101D01*
X02919451Y02604267D01*
X02919396Y02604420D01*
X02919340Y02604544D01*
X02919299Y02604669D01*
X02919257Y02604766D01*
X02919229Y02604836D01*
X02919202Y02604905D01*
X02919188Y02604933D01*
Y02604947D01*
D02*
G37*
G36*
X02939630Y02605044D02*
X02939436D01*
X02939325Y02605016D01*
X02939131Y02604947D01*
X02938964Y02604836D01*
X02938825Y02604725D01*
X02938728Y02604614D01*
X02938659Y02604503D01*
X02938617Y02604434D01*
X02938604Y02604420D01*
Y02604406D01*
X02938548Y02604253D01*
X02938492Y02604073D01*
X02938451Y02603879D01*
X02938409Y02603657D01*
X02938354Y02603199D01*
X02938312Y02602741D01*
X02938298Y02602520D01*
X02938285Y02602312D01*
Y02602118D01*
X02938271Y02601951D01*
Y02601812D01*
Y02601701D01*
Y02601646D01*
Y02601618D01*
Y02601285D01*
X02938285Y02600980D01*
X02938298Y02600703D01*
X02938312Y02600439D01*
X02938326Y02600204D01*
X02938354Y02599996D01*
X02938368Y02599801D01*
X02938395Y02599635D01*
X02938423Y02599482D01*
X02938437Y02599358D01*
X02938465Y02599247D01*
X02938479Y02599164D01*
X02938492Y02599094D01*
X02938506Y02599052D01*
X02938520Y02599025D01*
Y02599011D01*
X02938576Y02598858D01*
X02938645Y02598734D01*
X02938728Y02598609D01*
X02938812Y02598512D01*
X02938895Y02598429D01*
X02938992Y02598359D01*
X02939158Y02598262D01*
X02939325Y02598193D01*
X02939463Y02598165D01*
X02939519Y02598151D01*
X02939588D01*
X02939699Y02598165D01*
X02939810Y02598179D01*
X02940004Y02598248D01*
X02940171Y02598359D01*
X02940295Y02598470D01*
X02940392Y02598581D01*
X02940462Y02598692D01*
X02940504Y02598761D01*
X02940517Y02598789D01*
X02940573Y02598942D01*
X02940628Y02599136D01*
X02940684Y02599330D01*
X02940711Y02599552D01*
X02940781Y02600023D01*
X02940822Y02600495D01*
X02940836Y02600717D01*
X02940850Y02600925D01*
Y02601119D01*
X02940864Y02601285D01*
Y02601424D01*
Y02601535D01*
Y02601591D01*
Y02601618D01*
Y02601951D01*
X02940850Y02602242D01*
X02940836Y02602534D01*
X02940822Y02602783D01*
X02940795Y02603019D01*
X02940781Y02603227D01*
X02940753Y02603421D01*
X02940725Y02603588D01*
X02940698Y02603740D01*
X02940670Y02603865D01*
X02940656Y02603976D01*
X02940628Y02604059D01*
X02940614Y02604128D01*
X02940601Y02604170D01*
X02940587Y02604198D01*
Y02604212D01*
X02940531Y02604364D01*
X02940462Y02604489D01*
X02940392Y02604600D01*
X02940309Y02604697D01*
X02940226Y02604780D01*
X02940143Y02604836D01*
X02939962Y02604947D01*
X02939810Y02605002D01*
X02939685Y02605030D01*
X02939630Y02605044D01*
D02*
G37*
%LPD*%
D13*
X02992119Y02547140D02*
G03*
X02992119Y02538860I-00047319J-00004140D01*
G01*
X02999410D01*
Y02547140D01*
X02992119D02*
X02999410D01*
D15*
X02909800Y02584998D02*
Y02579166D01*
X02908634Y02578000D01*
X02906301D01*
X02905135Y02579166D01*
Y02584998D01*
X02902802Y02578000D02*
X02900470D01*
X02901636D01*
Y02584998D01*
X02902802Y02583831D01*
M02*
