G04*
G04 #@! TF.GenerationSoftware,Altium Limited,Altium Designer,19.1.5 (86)*
G04*
G04 Layer_Physical_Order=1*
G04 Layer_Color=255*
%FSAX44Y44*%
%MOMM*%
G71*
G01*
G75*
%ADD10C,0.4000*%
%ADD11C,0.2500*%
%ADD12C,0.5000*%
%ADD13C,0.2000*%
%ADD27C,1.8000*%
%ADD28R,1.8000X1.8000*%
G04:AMPARAMS|DCode=31|XSize=12.065mm|YSize=1.2065mm|CornerRadius=0.3016mm|HoleSize=0mm|Usage=FLASHONLY|Rotation=270.000|XOffset=0mm|YOffset=0mm|HoleType=Round|Shape=RoundedRectangle|*
%AMROUNDEDRECTD31*
21,1,12.0650,0.6033,0,0,270.0*
21,1,11.4618,1.2065,0,0,270.0*
1,1,0.6033,-0.3016,-5.7309*
1,1,0.6033,-0.3016,5.7309*
1,1,0.6033,0.3016,5.7309*
1,1,0.6033,0.3016,-5.7309*
%
%ADD31ROUNDEDRECTD31*%
G04:AMPARAMS|DCode=32|XSize=12.7mm|YSize=1.27mm|CornerRadius=0.3175mm|HoleSize=0mm|Usage=FLASHONLY|Rotation=270.000|XOffset=0mm|YOffset=0mm|HoleType=Round|Shape=RoundedRectangle|*
%AMROUNDEDRECTD32*
21,1,12.7000,0.6350,0,0,270.0*
21,1,12.0650,1.2700,0,0,270.0*
1,1,0.6350,-0.3175,-6.0325*
1,1,0.6350,-0.3175,6.0325*
1,1,0.6350,0.3175,6.0325*
1,1,0.6350,0.3175,-6.0325*
%
%ADD32ROUNDEDRECTD32*%
%ADD33R,1.2500X1.2500*%
%ADD34O,0.7000X1.5000*%
%ADD35R,0.7000X1.5000*%
G04:AMPARAMS|DCode=36|XSize=0.7mm|YSize=1.3mm|CornerRadius=0.175mm|HoleSize=0mm|Usage=FLASHONLY|Rotation=0.000|XOffset=0mm|YOffset=0mm|HoleType=Round|Shape=RoundedRectangle|*
%AMROUNDEDRECTD36*
21,1,0.7000,0.9500,0,0,0.0*
21,1,0.3500,1.3000,0,0,0.0*
1,1,0.3500,0.1750,-0.4750*
1,1,0.3500,-0.1750,-0.4750*
1,1,0.3500,-0.1750,0.4750*
1,1,0.3500,0.1750,0.4750*
%
%ADD36ROUNDEDRECTD36*%
%ADD37R,0.7000X1.3000*%
%ADD38R,0.8500X0.8000*%
%ADD39C,0.3000*%
%ADD40C,0.6000*%
%ADD41R,1.6000X1.6000*%
%ADD42C,1.6000*%
%ADD43R,1.6000X1.6000*%
%ADD44C,0.7000*%
G36*
X03052210Y02375590D02*
X03033580D01*
X03023580Y02375590D01*
X03023517Y02375577D01*
X03023453Y02375587D01*
X03021493Y02375490D01*
X03021306Y02375444D01*
X03021115D01*
X03017269Y02374679D01*
X03017033Y02374581D01*
X03016783Y02374531D01*
X03013161Y02373031D01*
X03013115Y02373000D01*
X02984924D01*
Y02380500D01*
X02990800D01*
Y02391500D01*
X02984924D01*
Y02402055D01*
Y02407077D01*
X03014244Y02436397D01*
X03015820Y02435745D01*
X03018300Y02435418D01*
X03020780Y02435745D01*
X03023091Y02436702D01*
X03025075Y02438225D01*
X03026471Y02440044D01*
X03027071Y02439995D01*
X03027741Y02439693D01*
Y02433267D01*
X03022583Y02428109D01*
X03020780Y02428855D01*
X03018300Y02429182D01*
X03015820Y02428855D01*
X03013509Y02427898D01*
X03011525Y02426375D01*
X03010002Y02424391D01*
X03009044Y02422080D01*
X03008718Y02419600D01*
X03009044Y02417120D01*
X03010002Y02414809D01*
X03011525Y02412825D01*
X03013509Y02411302D01*
X03015820Y02410345D01*
X03018300Y02410018D01*
X03020780Y02410345D01*
X03023091Y02411302D01*
X03025075Y02412825D01*
X03026598Y02414809D01*
X03027556Y02417120D01*
X03027882Y02419600D01*
X03027556Y02422080D01*
X03026867Y02423741D01*
X03032963Y02429837D01*
X03033626Y02430829D01*
X03033859Y02432000D01*
X03033859Y02432000D01*
Y02450056D01*
X03033626Y02451227D01*
X03032963Y02452219D01*
X03026669Y02458513D01*
X03025677Y02459176D01*
X03024506Y02459409D01*
X03024506Y02459409D01*
X03007859D01*
Y02477733D01*
X03009963Y02479837D01*
X03009963Y02479837D01*
X03010626Y02480829D01*
X03010859Y02482000D01*
X03010859Y02482000D01*
Y02483264D01*
X03011055Y02483395D01*
X03012160Y02485049D01*
X03012548Y02487000D01*
Y02495000D01*
X03012160Y02496951D01*
X03011055Y02498605D01*
X03009401Y02499710D01*
X03007450Y02500098D01*
X03005499Y02499710D01*
X03003845Y02498605D01*
X03002740Y02496951D01*
X03002352Y02495000D01*
Y02487000D01*
X03002740Y02485049D01*
X03003845Y02483395D01*
X03003937Y02482463D01*
X03002637Y02481163D01*
X03001974Y02480171D01*
X03001741Y02479000D01*
X03001741Y02479000D01*
Y02457617D01*
X02982887Y02438763D01*
X02982224Y02437771D01*
X02981991Y02436600D01*
X02981991Y02436600D01*
Y02434517D01*
X02974012Y02426538D01*
X02972280Y02427256D01*
X02969800Y02427582D01*
X02967320Y02427256D01*
X02965009Y02426298D01*
X02963025Y02424776D01*
X02961502Y02422791D01*
X02960784Y02421059D01*
X02928816D01*
X02928098Y02422791D01*
X02926576Y02424776D01*
X02924591Y02426298D01*
X02922280Y02427256D01*
X02919800Y02427582D01*
X02917320Y02427256D01*
X02915009Y02426298D01*
X02913025Y02424776D01*
X02911502Y02422791D01*
X02910544Y02420480D01*
X02910218Y02418000D01*
X02910544Y02415520D01*
X02911502Y02413209D01*
X02913025Y02411225D01*
X02915009Y02409702D01*
X02917320Y02408745D01*
X02919800Y02408418D01*
X02922280Y02408745D01*
X02924591Y02409702D01*
X02926576Y02411225D01*
X02928098Y02413209D01*
X02928816Y02414941D01*
X02960784D01*
X02961502Y02413209D01*
X02963025Y02411225D01*
X02965009Y02409702D01*
X02967320Y02408745D01*
X02969800Y02408418D01*
X02972280Y02408745D01*
X02974591Y02409702D01*
X02976576Y02411225D01*
X02978098Y02413209D01*
X02979055Y02415520D01*
X02979382Y02418000D01*
X02979055Y02420480D01*
X02978338Y02422212D01*
X02987213Y02431087D01*
X02987213Y02431087D01*
X02987876Y02432079D01*
X02988109Y02433250D01*
Y02435333D01*
X03006067Y02453291D01*
X03011524D01*
X03011933Y02452089D01*
X03011525Y02451776D01*
X03010002Y02449791D01*
X03009044Y02447480D01*
X03008718Y02445000D01*
X03009044Y02442520D01*
X03009404Y02441651D01*
X02978831Y02411078D01*
X02978058Y02409921D01*
X02977786Y02408555D01*
Y02405624D01*
X02889723D01*
X02874460Y02420887D01*
X02874946Y02422060D01*
X02882340D01*
Y02427350D01*
X02875550D01*
Y02429850D01*
X02882340D01*
Y02433853D01*
X02883393Y02434557D01*
X02884111Y02435632D01*
X02884364Y02436900D01*
Y02446400D01*
X02884111Y02447668D01*
X02883393Y02448743D01*
X02882318Y02449461D01*
X02881050Y02449713D01*
X02878691D01*
X02875602Y02452802D01*
X02874775Y02453355D01*
X02873800Y02453549D01*
X02865800D01*
X02864825Y02453355D01*
X02863997Y02452802D01*
X02860845Y02449650D01*
X02855300D01*
Y02434100D01*
X02854300D01*
Y02423100D01*
X02862153D01*
X02885721Y02399532D01*
X02886879Y02398758D01*
X02888245Y02398486D01*
X02977786D01*
Y02373000D01*
X02873395D01*
X02873349Y02373031D01*
X02869727Y02374531D01*
X02869477Y02374581D01*
X02869241Y02374679D01*
X02865396Y02375444D01*
X02865204D01*
X02865017Y02375490D01*
X02863057Y02375587D01*
X02862993Y02375577D01*
X02862930Y02375590D01*
X02852930D01*
X02837390Y02375590D01*
X02837390Y02620410D01*
X03052210D01*
X03052210Y02375590D01*
D02*
G37*
%LPC*%
G36*
X02953590Y02613040D02*
X02946050D01*
Y02605500D01*
X02953590D01*
Y02613040D01*
D02*
G37*
G36*
X02943550D02*
X02936010D01*
Y02605500D01*
X02943550D01*
Y02613040D01*
D02*
G37*
G36*
X03013590D02*
X03006050D01*
Y02605500D01*
X03013590D01*
Y02613040D01*
D02*
G37*
G36*
X02893590D02*
X02886050D01*
Y02605500D01*
X02893590D01*
Y02613040D01*
D02*
G37*
G36*
X03003550D02*
X02996010D01*
Y02605500D01*
X03003550D01*
Y02613040D01*
D02*
G37*
G36*
X02883550D02*
X02876010D01*
Y02605500D01*
X02883550D01*
Y02613040D01*
D02*
G37*
G36*
X03013590Y02603000D02*
X03006050D01*
Y02595460D01*
X03013590D01*
Y02603000D01*
D02*
G37*
G36*
X03003550D02*
X02996010D01*
Y02595460D01*
X03003550D01*
Y02603000D01*
D02*
G37*
G36*
X03034800Y02614599D02*
X03031798Y02614204D01*
X03029001Y02613045D01*
X03026598Y02611202D01*
X03024755Y02608800D01*
X03023596Y02606002D01*
X03023201Y02603000D01*
X03023596Y02599998D01*
X03024755Y02597200D01*
X03026598Y02594798D01*
X03029001Y02592955D01*
X03031798Y02591796D01*
X03034800Y02591401D01*
X03037802Y02591796D01*
X03040600Y02592955D01*
X03043002Y02594798D01*
X03044845Y02597200D01*
X03046004Y02599998D01*
X03046399Y02603000D01*
X03046004Y02606002D01*
X03044845Y02608800D01*
X03043002Y02611202D01*
X03040600Y02613045D01*
X03037802Y02614204D01*
X03034800Y02614599D01*
D02*
G37*
G36*
X02854800D02*
X02851798Y02614204D01*
X02849001Y02613045D01*
X02846598Y02611202D01*
X02844755Y02608800D01*
X02843596Y02606002D01*
X02843201Y02603000D01*
X02843596Y02599998D01*
X02844755Y02597200D01*
X02846598Y02594798D01*
X02849001Y02592955D01*
X02851798Y02591796D01*
X02854800Y02591401D01*
X02857802Y02591796D01*
X02860600Y02592955D01*
X02863002Y02594798D01*
X02864845Y02597200D01*
X02866004Y02599998D01*
X02866399Y02603000D01*
X02866004Y02606002D01*
X02864845Y02608800D01*
X02863002Y02611202D01*
X02860600Y02613045D01*
X02857802Y02614204D01*
X02854800Y02614599D01*
D02*
G37*
G36*
X02884800Y02604250D02*
D01*
Y02603000D01*
X02876010D01*
Y02596538D01*
X02875089Y02596355D01*
X02874262Y02595802D01*
X02849998Y02571538D01*
X02849445Y02570711D01*
X02849251Y02569735D01*
Y02532250D01*
X02849445Y02531275D01*
X02849998Y02530448D01*
X02856300Y02524145D01*
Y02516500D01*
X02864675D01*
X02865161Y02515327D01*
X02863354Y02513519D01*
X02856300D01*
Y02502519D01*
X02859246D01*
Y02501000D01*
X02856300D01*
Y02490000D01*
X02857496D01*
Y02486000D01*
X02856300D01*
Y02475000D01*
X02857496D01*
Y02473504D01*
X02857282Y02473461D01*
X02856207Y02472743D01*
X02855489Y02471668D01*
X02855236Y02470400D01*
Y02460900D01*
X02855489Y02459632D01*
X02856207Y02458557D01*
X02857282Y02457838D01*
X02858550Y02457586D01*
X02862050D01*
X02863318Y02457838D01*
X02864393Y02458557D01*
X02865111Y02459632D01*
X02865363Y02460900D01*
Y02470400D01*
X02865111Y02471668D01*
X02864393Y02472743D01*
X02863318Y02473461D01*
X02863104Y02473504D01*
Y02475000D01*
X02867800D01*
Y02486000D01*
X02863104D01*
Y02490000D01*
X02867800D01*
Y02501000D01*
X02864854D01*
Y02502519D01*
X02867800D01*
Y02510035D01*
X02870530Y02512765D01*
X02871800Y02512239D01*
Y02502519D01*
X02883300D01*
Y02505470D01*
X02909819D01*
X02910794Y02505664D01*
X02911621Y02506217D01*
X02921391Y02515986D01*
X02921544Y02515868D01*
X02924099Y02514810D01*
X02926840Y02514449D01*
X02929581Y02514810D01*
X02932135Y02515868D01*
X02934328Y02517551D01*
X02936011Y02519744D01*
X02937069Y02522299D01*
X02937430Y02525040D01*
X02937069Y02527781D01*
X02936011Y02530335D01*
X02934328Y02532528D01*
X02933478Y02533181D01*
X02933909Y02534451D01*
X02955691D01*
X02956122Y02533181D01*
X02955272Y02532528D01*
X02953589Y02530335D01*
X02952531Y02527781D01*
X02952170Y02525040D01*
X02952531Y02522299D01*
X02953589Y02519744D01*
X02953707Y02519591D01*
X02932184Y02498068D01*
X02883300D01*
Y02501000D01*
X02871800D01*
Y02490000D01*
X02883300D01*
Y02492970D01*
X02933240D01*
X02934215Y02493164D01*
X02935042Y02493717D01*
X02957311Y02515986D01*
X02957465Y02515868D01*
X02960019Y02514810D01*
X02962760Y02514449D01*
X02965501Y02514810D01*
X02968056Y02515868D01*
X02968210Y02515986D01*
X02972826Y02511369D01*
Y02499944D01*
X02973020Y02498969D01*
X02973573Y02498142D01*
X02982517Y02489198D01*
X02983344Y02488645D01*
X02984319Y02488451D01*
X02989652D01*
Y02487000D01*
X02990040Y02485049D01*
X02991145Y02483395D01*
X02992799Y02482290D01*
X02994750Y02481902D01*
X02996701Y02482290D01*
X02998355Y02483395D01*
X02999460Y02485049D01*
X02999848Y02487000D01*
Y02495000D01*
X02999460Y02496951D01*
X02998355Y02498605D01*
X02996701Y02499710D01*
X02994750Y02500098D01*
X02992799Y02499710D01*
X02991145Y02498605D01*
X02990040Y02496951D01*
X02989652Y02495000D01*
Y02493549D01*
X02985375D01*
X02977924Y02501000D01*
Y02512425D01*
X02977730Y02513400D01*
X02977178Y02514227D01*
X02971814Y02519591D01*
X02971932Y02519744D01*
X02972990Y02522299D01*
X02973351Y02525040D01*
X02972990Y02527781D01*
X02971932Y02530335D01*
X02970249Y02532528D01*
X02969398Y02533181D01*
X02969829Y02534451D01*
X02972050D01*
X02983303Y02523198D01*
X02984130Y02522645D01*
X02985106Y02522451D01*
X02999744D01*
X03017251Y02504944D01*
Y02499077D01*
X03016545Y02498605D01*
X03015440Y02496951D01*
X03015052Y02495000D01*
Y02487000D01*
X03015440Y02485049D01*
X03016545Y02483395D01*
X03018199Y02482290D01*
X03020150Y02481902D01*
X03022101Y02482290D01*
X03023755Y02483395D01*
X03024860Y02485049D01*
X03025248Y02487000D01*
Y02495000D01*
X03024860Y02496951D01*
X03023755Y02498605D01*
X03022349Y02499544D01*
Y02506000D01*
X03022155Y02506976D01*
X03021602Y02507802D01*
X03004627Y02524778D01*
X03005113Y02525951D01*
X03009300D01*
X03010276Y02526145D01*
X03011102Y02526698D01*
X03021953Y02537548D01*
X03022505Y02538375D01*
X03022699Y02539350D01*
Y02541690D01*
X03023755Y02542395D01*
X03024860Y02544049D01*
X03025248Y02546000D01*
Y02554000D01*
X03024860Y02555951D01*
X03023755Y02557605D01*
X03022101Y02558710D01*
X03020150Y02559098D01*
X03018199Y02558710D01*
X03016545Y02557605D01*
X03015440Y02555951D01*
X03015052Y02554000D01*
Y02546000D01*
X03015440Y02544049D01*
X03016545Y02542395D01*
X03017601Y02541690D01*
Y02540406D01*
X03008244Y02531049D01*
X03005113D01*
X03004627Y02532222D01*
X03009252Y02536848D01*
X03009805Y02537675D01*
X03009999Y02538650D01*
Y02541690D01*
X03011055Y02542395D01*
X03012160Y02544049D01*
X03012548Y02546000D01*
Y02554000D01*
X03012160Y02555951D01*
X03011055Y02557605D01*
X03009401Y02558710D01*
X03007450Y02559098D01*
X03005499Y02558710D01*
X03003845Y02557605D01*
X03002740Y02555951D01*
X03002352Y02554000D01*
Y02546000D01*
X03002740Y02544049D01*
X03003845Y02542395D01*
X03004901Y02541690D01*
Y02539706D01*
X02999744Y02534549D01*
X02989061D01*
X02977968Y02545641D01*
X02978086Y02546295D01*
X02978434Y02546911D01*
X02989652D01*
Y02546000D01*
X02990040Y02544049D01*
X02991145Y02542395D01*
X02992799Y02541290D01*
X02994750Y02540902D01*
X02996701Y02541290D01*
X02998355Y02542395D01*
X02999460Y02544049D01*
X02999848Y02546000D01*
Y02554000D01*
X02999460Y02555951D01*
X02998355Y02557605D01*
X02996701Y02558710D01*
X02994750Y02559098D01*
X02992799Y02558710D01*
X02991145Y02557605D01*
X02990040Y02555951D01*
X02989652Y02554000D01*
Y02552009D01*
X02947556D01*
X02946793Y02553150D01*
X02947381Y02554420D01*
X02949925D01*
Y02559710D01*
X02944384D01*
Y02555801D01*
X02943403Y02554995D01*
X02942885Y02555098D01*
X02942514Y02555024D01*
X02941424Y02556102D01*
Y02566460D01*
X02937964D01*
X02937478Y02567634D01*
X02939751Y02569907D01*
X02974214D01*
X02978103Y02566017D01*
X02979012Y02565410D01*
X02980085Y02565196D01*
X03016300D01*
Y02560500D01*
X03023585D01*
X03027850Y02556235D01*
Y02541000D01*
X03037850D01*
Y02559000D01*
X03038929Y02559460D01*
X03044340D01*
Y02564750D01*
X03037550D01*
X03030760D01*
Y02562915D01*
X03029587Y02562429D01*
X03027800Y02564215D01*
Y02571500D01*
X03016300D01*
Y02570804D01*
X02981247D01*
X02977358Y02574693D01*
X02976448Y02575301D01*
X02975375Y02575514D01*
X02952550D01*
Y02588257D01*
X02952550Y02588711D01*
X02953644Y02589674D01*
X02953935Y02589660D01*
X02963647Y02579948D01*
X02964474Y02579395D01*
X02965450Y02579201D01*
X02997050D01*
Y02574000D01*
X03012550D01*
Y02589500D01*
X02997050D01*
Y02584299D01*
X02966506D01*
X02955002Y02595802D01*
X02954175Y02596355D01*
X02953590Y02596471D01*
Y02603000D01*
X02944800D01*
X02936010D01*
Y02596549D01*
X02893590D01*
Y02603000D01*
X02884800D01*
Y02604250D01*
D02*
G37*
G36*
X03044340Y02572540D02*
X03038800D01*
Y02567250D01*
X03044340D01*
Y02572540D01*
D02*
G37*
G36*
X03036300D02*
X03030760D01*
Y02567250D01*
X03036300D01*
Y02572540D01*
D02*
G37*
G36*
X02957964Y02567500D02*
X02952424D01*
Y02562210D01*
X02957964D01*
Y02567500D01*
D02*
G37*
G36*
X02949925D02*
X02944384D01*
Y02562210D01*
X02949925D01*
Y02567500D01*
D02*
G37*
G36*
X02957964Y02559710D02*
X02952424D01*
Y02554420D01*
X02957964D01*
Y02559710D01*
D02*
G37*
G36*
X03034100Y02500910D02*
Y02492250D01*
X03039008D01*
Y02495000D01*
X03038539Y02497357D01*
X03037205Y02499355D01*
X03035207Y02500690D01*
X03034100Y02500910D01*
D02*
G37*
G36*
X03031600D02*
X03030493Y02500690D01*
X03028495Y02499355D01*
X03027160Y02497357D01*
X03026692Y02495000D01*
Y02492250D01*
X03031600D01*
Y02500910D01*
D02*
G37*
G36*
X02884340Y02487040D02*
X02878800D01*
Y02481750D01*
X02884340D01*
Y02487040D01*
D02*
G37*
G36*
X02876300D02*
X02870760D01*
Y02481750D01*
X02876300D01*
Y02487040D01*
D02*
G37*
G36*
X03039008Y02489750D02*
X03034100D01*
Y02481090D01*
X03035207Y02481310D01*
X03037205Y02482646D01*
X03038539Y02484643D01*
X03039008Y02487000D01*
Y02489750D01*
D02*
G37*
G36*
X03031600D02*
X03026692D01*
Y02487000D01*
X03027160Y02484643D01*
X03028495Y02482646D01*
X03030493Y02481310D01*
X03031600Y02481090D01*
Y02489750D01*
D02*
G37*
G36*
X02884340Y02479250D02*
X02877550D01*
X02870760D01*
Y02473960D01*
X02874742D01*
X02875110Y02472997D01*
X02875172Y02472690D01*
X02874489Y02471668D01*
X02874236Y02470400D01*
Y02460900D01*
X02874489Y02459632D01*
X02875207Y02458557D01*
X02876282Y02457838D01*
X02877550Y02457586D01*
X02881050D01*
X02882318Y02457838D01*
X02883393Y02458557D01*
X02884111Y02459632D01*
X02884364Y02460900D01*
Y02470400D01*
X02884111Y02471668D01*
X02883429Y02472690D01*
X02883490Y02472997D01*
X02883858Y02473960D01*
X02884340D01*
Y02479250D01*
D02*
G37*
G36*
X03007340Y02392540D02*
X03001800D01*
Y02387250D01*
X03007340D01*
Y02392540D01*
D02*
G37*
G36*
X02999300D02*
X02993760D01*
Y02387250D01*
X02999300D01*
Y02392540D01*
D02*
G37*
G36*
X03034800Y02404599D02*
X03031798Y02404204D01*
X03029001Y02403045D01*
X03026598Y02401202D01*
X03024755Y02398800D01*
X03023596Y02396002D01*
X03023201Y02393000D01*
X03023596Y02389998D01*
X03024755Y02387200D01*
X03026598Y02384798D01*
X03029001Y02382955D01*
X03031798Y02381796D01*
X03034800Y02381401D01*
X03037802Y02381796D01*
X03040600Y02382955D01*
X03043002Y02384798D01*
X03044845Y02387200D01*
X03046004Y02389998D01*
X03046399Y02393000D01*
X03046004Y02396002D01*
X03044845Y02398800D01*
X03043002Y02401202D01*
X03040600Y02403045D01*
X03037802Y02404204D01*
X03034800Y02404599D01*
D02*
G37*
G36*
X02854800D02*
X02851798Y02404204D01*
X02849001Y02403045D01*
X02846598Y02401202D01*
X02844755Y02398800D01*
X02843596Y02396002D01*
X02843201Y02393000D01*
X02843596Y02389998D01*
X02844755Y02387200D01*
X02846598Y02384798D01*
X02849001Y02382955D01*
X02851798Y02381796D01*
X02854800Y02381401D01*
X02857802Y02381796D01*
X02860600Y02382955D01*
X02863002Y02384798D01*
X02864845Y02387200D01*
X02866004Y02389998D01*
X02866399Y02393000D01*
X02866004Y02396002D01*
X02864845Y02398800D01*
X02863002Y02401202D01*
X02860600Y02403045D01*
X02857802Y02404204D01*
X02854800Y02404599D01*
D02*
G37*
G36*
X03007340Y02384750D02*
X03001800D01*
Y02379460D01*
X03007340D01*
Y02384750D01*
D02*
G37*
G36*
X02999300D02*
X02993760D01*
Y02379460D01*
X02999300D01*
Y02384750D01*
D02*
G37*
%LPD*%
D10*
X03015800Y02443000D02*
X03022300D01*
X02981355Y02298075D02*
Y02402055D01*
X02860700Y02429600D02*
X02860875Y02429425D01*
X02888245Y02402055D01*
X02981355D02*
Y02408555D01*
X03015800Y02443000D01*
X02860300Y02430000D02*
Y02441650D01*
X02860050Y02428600D02*
X02860700Y02429250D01*
Y02429600D01*
X02860300Y02430000D02*
X02860700Y02429600D01*
X02888245Y02402055D02*
X02981355D01*
D11*
X03019800Y02568000D02*
X03022300Y02565500D01*
X02860300Y02465650D02*
Y02495500D01*
X02980085Y02568000D02*
X03019800D01*
X02975375Y02572710D02*
X02980085Y02568000D01*
X02938590Y02572710D02*
X02975375D01*
X02926840Y02560960D02*
X02938590Y02572710D01*
X02873510Y02560960D02*
X02926840D01*
X02869800Y02557250D02*
X02873510Y02560960D01*
X02869800Y02557250D02*
X02869800Y02557250D01*
Y02516000D02*
Y02557250D01*
X02862050Y02508250D02*
X02869800Y02516000D01*
X02862050Y02508019D02*
Y02508250D01*
Y02495500D02*
Y02508019D01*
X03030800Y02554000D02*
Y02557250D01*
X03022050Y02566000D02*
X03030800Y02557250D01*
D12*
X02904800Y02388000D02*
X02905155Y02387645D01*
Y02388000D01*
Y02298075D02*
Y02387645D01*
D13*
X02901805Y02536000D02*
X02906305Y02540500D01*
X02877550Y02536000D02*
X02901805D01*
X02906305Y02540500D02*
X02974555D01*
X02900305Y02550000D02*
X02906305Y02544000D01*
X02877550Y02550000D02*
X02900305D01*
X02906305Y02544000D02*
X02976005D01*
X03009300Y02528500D02*
X03020150Y02539350D01*
X02986555Y02528500D02*
X03009300D01*
X03000800Y02525000D02*
X03019800Y02506000D01*
X02985106Y02525000D02*
X03000800D01*
X02973105Y02537000D02*
X02985106Y02525000D01*
X02974555Y02540500D02*
X02986555Y02528500D01*
X03000800Y02532000D02*
X03007450Y02538650D01*
X02988005Y02532000D02*
X03000800D01*
X02976005Y02544000D02*
X02988005Y02532000D01*
X02962760Y02525040D02*
X02975375Y02512425D01*
Y02499944D02*
Y02512425D01*
Y02499944D02*
X02984319Y02491000D01*
X02990750D01*
X02933240Y02495519D02*
X02962760Y02525040D01*
X02877569Y02495519D02*
X02933240D01*
X02877550Y02495500D02*
X02877569Y02495519D01*
X02909819Y02508019D02*
X02926840Y02525040D01*
X02877550Y02508019D02*
X02909819D01*
X02894800Y02522000D02*
X02909800Y02537000D01*
X02877550Y02522000D02*
X02894800D01*
X02851800Y02569735D02*
X02876065Y02594000D01*
X02851800Y02532250D02*
Y02569735D01*
X02877515Y02590500D02*
X02923969D01*
X02855300Y02568286D02*
X02877515Y02590500D01*
X02855300Y02542750D02*
Y02568286D01*
X02953200Y02594000D02*
X02965450Y02581750D01*
X02876065Y02594000D02*
X02953200D01*
X02923969Y02590500D02*
X02932719Y02581750D01*
X02886675Y02579875D02*
X02888800Y02582000D01*
Y02578000D02*
Y02582000D01*
X02860050Y02566985D02*
X02874815Y02581750D01*
X02860050Y02552000D02*
Y02566985D01*
Y02552000D02*
X02862050Y02550000D01*
X02855300Y02542750D02*
X02862050Y02536000D01*
X02851800Y02532250D02*
X02862050Y02522000D01*
X02874815Y02581750D02*
X02884800D01*
X02909800Y02537000D02*
X02973105D01*
X02994210Y02549460D02*
X02994750Y02550000D01*
X02943424Y02549460D02*
X02994210D01*
X02942885Y02550000D02*
X02943424Y02549460D01*
X03019800Y02491000D02*
Y02506000D01*
X03020150Y02539350D02*
Y02550000D01*
X03007450Y02538650D02*
Y02550000D01*
X02994750Y02549460D02*
Y02550000D01*
X02965450Y02581750D02*
X03004800D01*
X02886675Y02579875D02*
X02888550Y02578000D01*
X02884800Y02581750D02*
X02886675Y02579875D01*
X02888550Y02578000D01*
X02932719Y02581750D02*
X02944800D01*
X02865800Y02451000D02*
X02873800D01*
X02860300Y02445500D02*
X02865800Y02451000D01*
X02860300Y02441650D02*
Y02445500D01*
X02873800Y02451000D02*
X02879300Y02445500D01*
Y02441650D02*
Y02445500D01*
X02888550Y02578000D02*
X02888550D01*
D27*
X02926840Y02560960D02*
D03*
Y02525040D02*
D03*
X02962760D02*
D03*
D28*
Y02560960D02*
D03*
D31*
X02932460Y02301250D02*
D03*
X02954050D02*
D03*
D32*
X02905155Y02298075D02*
D03*
X02981355D02*
D03*
D33*
X02884800Y02604250D02*
D03*
Y02581750D02*
D03*
X02944800D02*
D03*
Y02604250D02*
D03*
X03004800Y02581750D02*
D03*
Y02604250D02*
D03*
D34*
X03007450Y02550000D02*
D03*
X03020150D02*
D03*
X02994750D02*
D03*
X03032850Y02491000D02*
D03*
X03020150D02*
D03*
X03007450D02*
D03*
X02994750D02*
D03*
D35*
X03032850Y02550000D02*
D03*
D36*
X02860300Y02465650D02*
D03*
X02879300D02*
D03*
X02869800Y02441650D02*
D03*
X02879300D02*
D03*
D37*
X02860300D02*
D03*
D38*
X03000550Y02386000D02*
D03*
X02985050D02*
D03*
X02877550Y02480500D02*
D03*
X02862050D02*
D03*
X02877550Y02536000D02*
D03*
X02862050D02*
D03*
X02877550Y02550000D02*
D03*
X02862050D02*
D03*
X02935674Y02560960D02*
D03*
X02951174D02*
D03*
X02860050Y02428600D02*
D03*
X02875550D02*
D03*
X02877550Y02522000D02*
D03*
X02862050D02*
D03*
Y02495500D02*
D03*
X02877550D02*
D03*
X02862050Y02508019D02*
D03*
X02877550D02*
D03*
X03022050Y02566000D02*
D03*
X03037550D02*
D03*
D39*
X03007800Y02482000D02*
Y02491000D01*
X03022300Y02417600D02*
Y02423500D01*
X02985050Y02433250D02*
Y02436600D01*
X02969800Y02418000D02*
X02985050Y02433250D01*
X03004800Y02456350D02*
X03024506D01*
X03004800D02*
Y02479000D01*
X02985050Y02436600D02*
X03004800Y02456350D01*
Y02479000D02*
X03007800Y02482000D01*
X03024506Y02456350D02*
X03030800Y02450056D01*
Y02432000D02*
Y02450056D01*
X03022300Y02423500D02*
X03030800Y02432000D01*
X02919800Y02418000D02*
X02969800D01*
D40*
X02875550Y02428600D02*
Y02429750D01*
X02869800Y02435500D02*
X02875550Y02429750D01*
X02869800Y02435500D02*
Y02441650D01*
D41*
X03018300Y02470400D02*
D03*
D42*
Y02445000D02*
D03*
Y02419600D02*
D03*
X02969800Y02418000D02*
D03*
Y02468000D02*
D03*
X02919800Y02418000D02*
D03*
D43*
Y02468000D02*
D03*
D44*
X02942885Y02550000D02*
D03*
X03037550Y02578000D02*
D03*
X02888245Y02430750D02*
D03*
X02909800Y02601000D02*
D03*
X02979800D02*
D03*
X02905155Y02388000D02*
D03*
M02*
