G04*
G04 #@! TF.GenerationSoftware,Altium Limited,Altium Designer,19.1.5 (86)*
G04*
G04 Layer_Color=2752767*
%FSAX44Y44*%
%MOMM*%
G71*
G01*
G75*
%ADD45C,0.0508*%
%ADD46C,0.0677*%
D45*
X02960728Y02558928D02*
Y02562992D01*
X02964792D01*
Y02558928D01*
X02960728D01*
X02924808D02*
Y02562992D01*
X02928872D01*
Y02558928D01*
X02924808D01*
Y02523008D02*
Y02527072D01*
X02928872D01*
Y02523008D01*
X02924808D01*
X02960728D02*
Y02527072D01*
X02964792D01*
Y02523008D01*
X02960728D01*
X03016268Y02468368D02*
Y02472432D01*
X03020332D01*
Y02468368D01*
X03016268D01*
Y02442968D02*
Y02447032D01*
X03020332D01*
Y02442968D01*
X03016268D01*
Y02417568D02*
Y02421632D01*
X03020332D01*
Y02417568D01*
X03016268D01*
X02967768Y02415968D02*
Y02420032D01*
X02971832D01*
Y02415968D01*
X02967768D01*
Y02465968D02*
Y02470032D01*
X02971832D01*
Y02465968D01*
X02967768D01*
X02917768Y02415968D02*
Y02420032D01*
X02921832D01*
Y02415968D01*
X02917768D01*
Y02465968D02*
Y02470032D01*
X02921832D01*
Y02465968D01*
X02917768D01*
X02942885Y02547968D02*
X02940853Y02552032D01*
X02944917D01*
X02942885Y02547968D01*
X03037550Y02575968D02*
X03035518Y02580032D01*
X03039582D01*
X03037550Y02575968D01*
X02888245Y02428718D02*
X02886213Y02432782D01*
X02890277D01*
X02888245Y02428718D01*
X02909800Y02598968D02*
X02907768Y02603032D01*
X02911832D01*
X02909800Y02598968D01*
X02979800D02*
X02977768Y02603032D01*
X02981832D01*
X02979800Y02598968D01*
X02905155Y02385968D02*
X02903123Y02390032D01*
X02907187D01*
X02905155Y02385968D01*
D46*
X03036832Y02603000D02*
G03*
X03036832Y02603000I-00002032J00000000D01*
G01*
X02856832D02*
G03*
X02856832Y02603000I-00002032J00000000D01*
G01*
X03036832Y02393000D02*
G03*
X03036832Y02393000I-00002032J00000000D01*
G01*
X02856832D02*
G03*
X02856832Y02393000I-00002032J00000000D01*
G01*
M02*
