G04*
G04 #@! TF.GenerationSoftware,Altium Limited,Altium Designer,19.1.5 (86)*
G04*
G04 Layer_Physical_Order=2*
G04 Layer_Color=16711680*
%FSAX44Y44*%
%MOMM*%
G71*
G01*
G75*
%ADD13C,0.2000*%
%ADD27C,1.8000*%
%ADD28R,1.8000X1.8000*%
%ADD41R,1.6000X1.6000*%
%ADD42C,1.6000*%
%ADD43R,1.6000X1.6000*%
%ADD44C,0.7000*%
G36*
X03052210Y02375590D02*
X03033580D01*
X03023580Y02375590D01*
X03023517Y02375577D01*
X03023453Y02375587D01*
X03021493Y02375490D01*
X03021306Y02375444D01*
X03021115D01*
X03017269Y02374679D01*
X03017033Y02374581D01*
X03016783Y02374531D01*
X03013161Y02373031D01*
X03013115Y02373000D01*
X02873395D01*
X02873349Y02373031D01*
X02869727Y02374531D01*
X02869477Y02374581D01*
X02869241Y02374679D01*
X02865396Y02375444D01*
X02865204D01*
X02865017Y02375490D01*
X02863057Y02375587D01*
X02862993Y02375577D01*
X02862930Y02375590D01*
X02852930D01*
X02837390Y02375590D01*
X02837390Y02620410D01*
X03052210D01*
X03052210Y02375590D01*
D02*
G37*
%LPC*%
G36*
X03034800Y02614599D02*
X03031798Y02614204D01*
X03029001Y02613045D01*
X03026598Y02611202D01*
X03024755Y02608800D01*
X03023596Y02606002D01*
X03023201Y02603000D01*
X03023596Y02599998D01*
X03024755Y02597200D01*
X03026598Y02594798D01*
X03029001Y02592955D01*
X03031798Y02591796D01*
X03034800Y02591401D01*
X03037802Y02591796D01*
X03040600Y02592955D01*
X03043002Y02594798D01*
X03044845Y02597200D01*
X03046004Y02599998D01*
X03046399Y02603000D01*
X03046004Y02606002D01*
X03044845Y02608800D01*
X03043002Y02611202D01*
X03040600Y02613045D01*
X03037802Y02614204D01*
X03034800Y02614599D01*
D02*
G37*
G36*
X02854800D02*
X02851798Y02614204D01*
X02849001Y02613045D01*
X02846598Y02611202D01*
X02844755Y02608800D01*
X02843596Y02606002D01*
X02843201Y02603000D01*
X02843596Y02599998D01*
X02844755Y02597200D01*
X02846598Y02594798D01*
X02849001Y02592955D01*
X02851798Y02591796D01*
X02854800Y02591401D01*
X02857802Y02591796D01*
X02860600Y02592955D01*
X02863002Y02594798D01*
X02864845Y02597200D01*
X02866004Y02599998D01*
X02866399Y02603000D01*
X02866004Y02606002D01*
X02864845Y02608800D01*
X02863002Y02611202D01*
X02860600Y02613045D01*
X02857802Y02614204D01*
X02854800Y02614599D01*
D02*
G37*
G36*
X02926840Y02571551D02*
X02924099Y02571190D01*
X02921544Y02570132D01*
X02919351Y02568449D01*
X02917668Y02566255D01*
X02916610Y02563701D01*
X02916249Y02560960D01*
X02916610Y02558219D01*
X02917668Y02555665D01*
X02919351Y02553472D01*
X02921544Y02551789D01*
X02924099Y02550731D01*
X02926840Y02550370D01*
X02929581Y02550731D01*
X02932135Y02551789D01*
X02934328Y02553472D01*
X02936011Y02555665D01*
X02937069Y02558219D01*
X02937430Y02560960D01*
X02937069Y02563701D01*
X02936011Y02566255D01*
X02934328Y02568449D01*
X02932135Y02570132D01*
X02929581Y02571190D01*
X02926840Y02571551D01*
D02*
G37*
G36*
X02942885Y02555098D02*
X02940934Y02554710D01*
X02939280Y02553605D01*
X02938175Y02551951D01*
X02937787Y02550000D01*
X02938175Y02548049D01*
X02939280Y02546395D01*
X02940336Y02545690D01*
Y02542141D01*
X02932289Y02534093D01*
X02932135Y02534211D01*
X02929581Y02535269D01*
X02926840Y02535630D01*
X02924099Y02535269D01*
X02921544Y02534211D01*
X02919351Y02532528D01*
X02917668Y02530335D01*
X02916610Y02527781D01*
X02916249Y02525040D01*
X02916610Y02522299D01*
X02917668Y02519744D01*
X02919351Y02517551D01*
X02921544Y02515868D01*
X02924099Y02514810D01*
X02926840Y02514449D01*
X02929581Y02514810D01*
X02932135Y02515868D01*
X02934328Y02517551D01*
X02936011Y02519744D01*
X02937069Y02522299D01*
X02937430Y02525040D01*
X02937069Y02527781D01*
X02936011Y02530335D01*
X02935893Y02530489D01*
X02944687Y02539282D01*
X02945240Y02540109D01*
X02945434Y02541085D01*
Y02545690D01*
X02946490Y02546395D01*
X02947595Y02548049D01*
X02947982Y02550000D01*
X02947595Y02551951D01*
X02946490Y02553605D01*
X02944836Y02554710D01*
X02942885Y02555098D01*
D02*
G37*
G36*
X02962760Y02535630D02*
X02960019Y02535269D01*
X02957465Y02534211D01*
X02955272Y02532528D01*
X02953589Y02530335D01*
X02952531Y02527781D01*
X02952170Y02525040D01*
X02952531Y02522299D01*
X02953589Y02519744D01*
X02955272Y02517551D01*
X02957465Y02515868D01*
X02960019Y02514810D01*
X02962760Y02514449D01*
X02965501Y02514810D01*
X02968056Y02515868D01*
X02970249Y02517551D01*
X02971932Y02519744D01*
X02972990Y02522299D01*
X02973351Y02525040D01*
X02972990Y02527781D01*
X02971932Y02530335D01*
X02970249Y02532528D01*
X02968056Y02534211D01*
X02965501Y02535269D01*
X02962760Y02535630D01*
D02*
G37*
G36*
X03018300Y02454582D02*
X03015820Y02454256D01*
X03013509Y02453298D01*
X03011525Y02451776D01*
X03010002Y02449791D01*
X03009044Y02447480D01*
X03008718Y02445000D01*
X03009044Y02442520D01*
X03010002Y02440209D01*
X03011525Y02438225D01*
X03013509Y02436702D01*
X03015820Y02435745D01*
X03018300Y02435418D01*
X03020780Y02435745D01*
X03023091Y02436702D01*
X03025075Y02438225D01*
X03026598Y02440209D01*
X03027556Y02442520D01*
X03027882Y02445000D01*
X03027556Y02447480D01*
X03026598Y02449791D01*
X03025075Y02451776D01*
X03023091Y02453298D01*
X03020780Y02454256D01*
X03018300Y02454582D01*
D02*
G37*
G36*
Y02429182D02*
X03015820Y02428855D01*
X03013509Y02427898D01*
X03011525Y02426375D01*
X03010002Y02424391D01*
X03009044Y02422080D01*
X03008718Y02419600D01*
X03009044Y02417120D01*
X03010002Y02414809D01*
X03011525Y02412825D01*
X03013509Y02411302D01*
X03015820Y02410345D01*
X03018300Y02410018D01*
X03020780Y02410345D01*
X03023091Y02411302D01*
X03025075Y02412825D01*
X03026598Y02414809D01*
X03027556Y02417120D01*
X03027882Y02419600D01*
X03027556Y02422080D01*
X03026598Y02424391D01*
X03025075Y02426375D01*
X03023091Y02427898D01*
X03020780Y02428855D01*
X03018300Y02429182D01*
D02*
G37*
G36*
X02969800Y02427582D02*
X02967320Y02427256D01*
X02965009Y02426298D01*
X02963025Y02424776D01*
X02961502Y02422791D01*
X02960544Y02420480D01*
X02960218Y02418000D01*
X02960544Y02415520D01*
X02961502Y02413209D01*
X02963025Y02411225D01*
X02965009Y02409702D01*
X02967320Y02408745D01*
X02969800Y02408418D01*
X02972280Y02408745D01*
X02974591Y02409702D01*
X02976576Y02411225D01*
X02978098Y02413209D01*
X02979055Y02415520D01*
X02979382Y02418000D01*
X02979055Y02420480D01*
X02978098Y02422791D01*
X02976576Y02424776D01*
X02974591Y02426298D01*
X02972280Y02427256D01*
X02969800Y02427582D01*
D02*
G37*
G36*
X02919800D02*
X02917320Y02427256D01*
X02915009Y02426298D01*
X02913025Y02424776D01*
X02911502Y02422791D01*
X02910544Y02420480D01*
X02910218Y02418000D01*
X02910544Y02415520D01*
X02911502Y02413209D01*
X02913025Y02411225D01*
X02915009Y02409702D01*
X02917320Y02408745D01*
X02919800Y02408418D01*
X02922280Y02408745D01*
X02924591Y02409702D01*
X02926576Y02411225D01*
X02928098Y02413209D01*
X02929055Y02415520D01*
X02929382Y02418000D01*
X02929055Y02420480D01*
X02928098Y02422791D01*
X02926576Y02424776D01*
X02924591Y02426298D01*
X02922280Y02427256D01*
X02919800Y02427582D01*
D02*
G37*
G36*
X03034800Y02404599D02*
X03031798Y02404204D01*
X03029001Y02403045D01*
X03026598Y02401202D01*
X03024755Y02398800D01*
X03023596Y02396002D01*
X03023201Y02393000D01*
X03023596Y02389998D01*
X03024755Y02387200D01*
X03026598Y02384798D01*
X03029001Y02382955D01*
X03031798Y02381796D01*
X03034800Y02381401D01*
X03037802Y02381796D01*
X03040600Y02382955D01*
X03043002Y02384798D01*
X03044845Y02387200D01*
X03046004Y02389998D01*
X03046399Y02393000D01*
X03046004Y02396002D01*
X03044845Y02398800D01*
X03043002Y02401202D01*
X03040600Y02403045D01*
X03037802Y02404204D01*
X03034800Y02404599D01*
D02*
G37*
G36*
X02854800D02*
X02851798Y02404204D01*
X02849001Y02403045D01*
X02846598Y02401202D01*
X02844755Y02398800D01*
X02843596Y02396002D01*
X02843201Y02393000D01*
X02843596Y02389998D01*
X02844755Y02387200D01*
X02846598Y02384798D01*
X02849001Y02382955D01*
X02851798Y02381796D01*
X02854800Y02381401D01*
X02857802Y02381796D01*
X02860600Y02382955D01*
X02863002Y02384798D01*
X02864845Y02387200D01*
X02866004Y02389998D01*
X02866399Y02393000D01*
X02866004Y02396002D01*
X02864845Y02398800D01*
X02863002Y02401202D01*
X02860600Y02403045D01*
X02857802Y02404204D01*
X02854800Y02404599D01*
D02*
G37*
%LPD*%
D13*
X02942885Y02541085D02*
Y02550000D01*
X02926840Y02525040D02*
X02942885Y02541085D01*
D27*
X02926840Y02560960D02*
D03*
Y02525040D02*
D03*
X02962760D02*
D03*
D28*
Y02560960D02*
D03*
D41*
X03018300Y02470400D02*
D03*
D42*
Y02445000D02*
D03*
Y02419600D02*
D03*
X02969800Y02418000D02*
D03*
Y02468000D02*
D03*
X02919800Y02418000D02*
D03*
D43*
Y02468000D02*
D03*
D44*
X02942885Y02550000D02*
D03*
X03037550Y02578000D02*
D03*
X02888245Y02430750D02*
D03*
X02909800Y02601000D02*
D03*
X02979800D02*
D03*
X02905155Y02388000D02*
D03*
M02*
