%TF.GenerationSoftware,Altium Limited,Altium Designer,19.1.5 (86)*%
G04 Layer_Color=8388736*
%FSLAX44Y44*%
%MOMM*%
%TF.FileFunction,Soldermask,Top*%
%TF.Part,Single*%
G01*
G75*
%TA.AperFunction,ComponentPad*%
%ADD24R,1.8000X1.8000*%
%ADD25C,1.8000*%
%ADD32R,2.0000X2.0000*%
%ADD33C,2.0000*%
%ADD34R,1.8000X1.8000*%
%TA.AperFunction,WasherPad*%
G04:AMPARAMS|DCode=35|XSize=0.2mm|YSize=0.2mm|CornerRadius=0mm|HoleSize=0mm|Usage=FLASHONLY|Rotation=90.000|XOffset=0mm|YOffset=0mm|HoleType=Round|Shape=RoundedRectangle|*
%AMROUNDEDRECTD35*
21,1,0.2000,0.2000,0,0,90.0*
21,1,0.2000,0.2000,0,0,90.0*
1,1,0.0000,0.1000,0.1000*
1,1,0.0000,0.1000,-0.1000*
1,1,0.0000,-0.1000,-0.1000*
1,1,0.0000,-0.1000,0.1000*
%
%ADD35ROUNDEDRECTD35*%
%TA.AperFunction,ViaPad*%
%ADD36C,0.9000*%
%TA.AperFunction,SMDPad,CuDef*%
G04:AMPARAMS|DCode=41|XSize=12.265mm|YSize=1.4065mm|CornerRadius=0.4016mm|HoleSize=0mm|Usage=FLASHONLY|Rotation=270.000|XOffset=0mm|YOffset=0mm|HoleType=Round|Shape=RoundedRectangle|*
%AMROUNDEDRECTD41*
21,1,12.2650,0.6033,0,0,270.0*
21,1,11.4618,1.4065,0,0,270.0*
1,1,0.8033,-0.3016,-5.7309*
1,1,0.8033,-0.3016,5.7309*
1,1,0.8033,0.3016,5.7309*
1,1,0.8033,0.3016,-5.7309*
%
%ADD41ROUNDEDRECTD41*%
G04:AMPARAMS|DCode=42|XSize=12.9mm|YSize=1.47mm|CornerRadius=0.4175mm|HoleSize=0mm|Usage=FLASHONLY|Rotation=270.000|XOffset=0mm|YOffset=0mm|HoleType=Round|Shape=RoundedRectangle|*
%AMROUNDEDRECTD42*
21,1,12.9000,0.6350,0,0,270.0*
21,1,12.0650,1.4700,0,0,270.0*
1,1,0.8350,-0.3175,-6.0325*
1,1,0.8350,-0.3175,6.0325*
1,1,0.8350,0.3175,6.0325*
1,1,0.8350,0.3175,-6.0325*
%
%ADD42ROUNDEDRECTD42*%
%ADD43R,1.4500X1.4500*%
%ADD44O,0.9000X1.7000*%
%ADD45R,0.9000X1.7000*%
G04:AMPARAMS|DCode=46|XSize=0.9mm|YSize=1.5mm|CornerRadius=0.275mm|HoleSize=0mm|Usage=FLASHONLY|Rotation=0.000|XOffset=0mm|YOffset=0mm|HoleType=Round|Shape=RoundedRectangle|*
%AMROUNDEDRECTD46*
21,1,0.9000,0.9500,0,0,0.0*
21,1,0.3500,1.5000,0,0,0.0*
1,1,0.5500,0.1750,-0.4750*
1,1,0.5500,-0.1750,-0.4750*
1,1,0.5500,-0.1750,0.4750*
1,1,0.5500,0.1750,0.4750*
%
%ADD46ROUNDEDRECTD46*%
%ADD47R,0.9000X1.5000*%
%ADD48R,1.0500X1.0000*%
D24*
X-25000Y-30000D02*
D03*
D25*
X73500Y-53000D02*
D03*
Y-78400D02*
D03*
X25000Y-80000D02*
D03*
Y-30000D02*
D03*
X-25000Y-80000D02*
D03*
D32*
X17960Y62960D02*
D03*
D33*
X-17960D02*
D03*
Y27040D02*
D03*
X17960D02*
D03*
D34*
X73500Y-27600D02*
D03*
D35*
X90000Y105000D02*
D03*
X-90000D02*
D03*
X90000Y-105000D02*
D03*
X-90000D02*
D03*
D36*
X-1915Y52000D02*
D03*
X92750Y80000D02*
D03*
X-56555Y-67250D02*
D03*
X-35000Y103000D02*
D03*
X35000D02*
D03*
X-39645Y-110000D02*
D03*
D41*
X-12340Y-196750D02*
D03*
X9250D02*
D03*
D42*
X-39645Y-199925D02*
D03*
X36555D02*
D03*
D43*
X-60000Y106250D02*
D03*
Y83750D02*
D03*
X-0D02*
D03*
Y106250D02*
D03*
X60000Y83750D02*
D03*
Y106250D02*
D03*
D44*
X62650Y52000D02*
D03*
X75350D02*
D03*
X49950D02*
D03*
X88050Y-7000D02*
D03*
X75350D02*
D03*
X62650D02*
D03*
X49950D02*
D03*
D45*
X88050Y52000D02*
D03*
D46*
X-84500Y-32350D02*
D03*
X-65500D02*
D03*
X-75000Y-56350D02*
D03*
X-65500D02*
D03*
D47*
X-84500D02*
D03*
D48*
X55750Y-112000D02*
D03*
X40250D02*
D03*
X-67250Y-17500D02*
D03*
X-82750D02*
D03*
X-67250Y38000D02*
D03*
X-82750D02*
D03*
X-67250Y52000D02*
D03*
X-82750D02*
D03*
X-9126Y62960D02*
D03*
X6374D02*
D03*
X-84750Y-69400D02*
D03*
X-69250D02*
D03*
X-67250Y24000D02*
D03*
X-82750D02*
D03*
Y-2500D02*
D03*
X-67250D02*
D03*
X-82750Y10019D02*
D03*
X-67250D02*
D03*
X77250Y68000D02*
D03*
X92750D02*
D03*
%TF.MD5,9d3053a764770c069c69dfad15f77be2*%
M02*
