G04*
G04 #@! TF.GenerationSoftware,Altium Limited,Altium Designer,19.1.5 (86)*
G04*
G04 Layer_Color=16711935*
%FSAX44Y44*%
%MOMM*%
G71*
G01*
G75*
%ADD24R,2.0000X2.0000*%
%ADD25C,2.0000*%
%ADD26R,1.8000X1.8000*%
%ADD27C,1.8000*%
%ADD28R,1.8000X1.8000*%
G04:AMPARAMS|DCode=29|XSize=0.2mm|YSize=0.2mm|CornerRadius=0mm|HoleSize=0mm|Usage=FLASHONLY|Rotation=90.000|XOffset=0mm|YOffset=0mm|HoleType=Round|Shape=RoundedRectangle|*
%AMROUNDEDRECTD29*
21,1,0.2000,0.2000,0,0,90.0*
21,1,0.2000,0.2000,0,0,90.0*
1,1,0.0000,0.1000,0.1000*
1,1,0.0000,0.1000,-0.1000*
1,1,0.0000,-0.1000,-0.1000*
1,1,0.0000,-0.1000,0.1000*
%
%ADD29ROUNDEDRECTD29*%
%ADD30C,0.9000*%
D24*
X02962760Y02560960D02*
D03*
D25*
X02926840D02*
D03*
Y02525040D02*
D03*
X02962760D02*
D03*
D26*
X03018300Y02470400D02*
D03*
D27*
Y02445000D02*
D03*
Y02419600D02*
D03*
X02969800Y02418000D02*
D03*
Y02468000D02*
D03*
X02919800Y02418000D02*
D03*
D28*
Y02468000D02*
D03*
D29*
X03034800Y02603000D02*
D03*
X02854800D02*
D03*
X03034800Y02393000D02*
D03*
X02854800D02*
D03*
D30*
X03037550Y02578000D02*
D03*
X02888245Y02430750D02*
D03*
X02909800Y02601000D02*
D03*
X02979800D02*
D03*
X02905155Y02388000D02*
D03*
M02*
