G04*
G04 #@! TF.GenerationSoftware,Altium Limited,Altium Designer,19.1.5 (86)*
G04*
G04 Layer_Color=32896*
%FSAX44Y44*%
%MOMM*%
G71*
G01*
G75*
%ADD12C,0.2000*%
%ADD15C,0.1500*%
G04:AMPARAMS|DCode=48|XSize=0.508mm|YSize=0.635mm|CornerRadius=0mm|HoleSize=0mm|Usage=FLASHONLY|Rotation=45.000|XOffset=0mm|YOffset=0mm|HoleType=Round|Shape=Rectangle|*
%AMROTATEDRECTD48*
4,1,4,0.0449,-0.4041,-0.4041,0.0449,-0.0449,0.4041,0.4041,-0.0449,0.0449,-0.4041,0.0*
%
%ADD48ROTATEDRECTD48*%

G36*
X02925284Y02440365D02*
X02926093Y02440235D01*
X02926838Y02440009D01*
X02927486Y02439750D01*
X02928036Y02439426D01*
X02928554Y02439102D01*
X02928976Y02438713D01*
X02929364Y02438325D01*
X02929655Y02437936D01*
X02929915Y02437580D01*
X02930141Y02437224D01*
X02930303Y02436900D01*
X02930433Y02436641D01*
X02930497Y02436446D01*
X02930562Y02436284D01*
Y02436252D01*
X02927356Y02435410D01*
X02927259Y02435831D01*
X02927130Y02436187D01*
X02926967Y02436511D01*
X02926838Y02436770D01*
X02926676Y02436964D01*
X02926547Y02437126D01*
X02926482Y02437224D01*
X02926449Y02437256D01*
X02926125Y02437515D01*
X02925802Y02437709D01*
X02925478Y02437839D01*
X02925186Y02437936D01*
X02924927Y02438001D01*
X02924701Y02438033D01*
X02924506D01*
X02924053Y02438001D01*
X02923664Y02437936D01*
X02923340Y02437871D01*
X02923081Y02437774D01*
X02922887Y02437645D01*
X02922758Y02437580D01*
X02922660Y02437515D01*
X02922628Y02437483D01*
X02922401Y02437224D01*
X02922207Y02436900D01*
X02922077Y02436543D01*
X02922013Y02436187D01*
X02921948Y02435896D01*
X02921916Y02435637D01*
Y02435442D01*
Y02435410D01*
Y02435378D01*
Y02434536D01*
X02922790Y02434503D01*
X02923632Y02434438D01*
X02924344Y02434341D01*
X02924960Y02434276D01*
X02925478Y02434212D01*
X02925705Y02434179D01*
X02925866Y02434147D01*
X02925996Y02434115D01*
X02926093D01*
X02926158Y02434082D01*
X02926190D01*
X02927032Y02433888D01*
X02927777Y02433596D01*
X02928457Y02433273D01*
X02929008Y02432916D01*
X02929461Y02432528D01*
X02929850Y02432107D01*
X02930174Y02431686D01*
X02930433Y02431265D01*
X02930627Y02430844D01*
X02930789Y02430455D01*
X02930886Y02430099D01*
X02930983Y02429807D01*
X02931016Y02429548D01*
X02931048Y02429322D01*
Y02429192D01*
Y02429160D01*
X02931016Y02428480D01*
X02930886Y02427897D01*
X02930692Y02427346D01*
X02930497Y02426925D01*
X02930303Y02426569D01*
X02930109Y02426310D01*
X02929979Y02426148D01*
X02929947Y02426083D01*
X02929429Y02425630D01*
X02928878Y02425306D01*
X02928295Y02425079D01*
X02927712Y02424917D01*
X02927227Y02424820D01*
X02927000Y02424788D01*
X02926806D01*
X02926676Y02424755D01*
X02926449D01*
X02925899Y02424788D01*
X02925348Y02424852D01*
X02924862Y02424982D01*
X02924409Y02425112D01*
X02923988Y02425273D01*
X02923600Y02425468D01*
X02923276Y02425694D01*
X02922952Y02425921D01*
X02922660Y02426116D01*
X02922434Y02426342D01*
X02922207Y02426537D01*
X02922045Y02426698D01*
X02921916Y02426828D01*
X02921818Y02426958D01*
X02921786Y02427022D01*
X02921754Y02427055D01*
X02921721Y02426634D01*
X02921689Y02426277D01*
X02921624Y02425954D01*
X02921591Y02425662D01*
X02921559Y02425435D01*
Y02425241D01*
X02921527Y02425144D01*
Y02425112D01*
X02918386D01*
X02918450Y02425954D01*
X02918515Y02426731D01*
X02918547Y02427476D01*
X02918580Y02428156D01*
X02918612Y02428706D01*
Y02428933D01*
Y02429127D01*
Y02429289D01*
Y02429419D01*
Y02429483D01*
Y02429516D01*
Y02435442D01*
Y02435896D01*
X02918677Y02436317D01*
X02918871Y02437094D01*
X02919130Y02437742D01*
X02919519Y02438292D01*
X02919940Y02438778D01*
X02920458Y02439199D01*
X02920976Y02439523D01*
X02921494Y02439782D01*
X02922045Y02439976D01*
X02922563Y02440138D01*
X02923049Y02440235D01*
X02923503Y02440332D01*
X02923859Y02440365D01*
X02924150Y02440397D01*
X02924409D01*
X02925284Y02440365D01*
D02*
G37*
G36*
X02914305Y02425112D02*
X02910937D01*
Y02429872D01*
X02908897Y02432139D01*
X02905205Y02425112D01*
X02901481D01*
X02906727Y02434438D01*
X02901740Y02440041D01*
X02905594D01*
X02910937Y02433499D01*
Y02446583D01*
X02914305D01*
Y02425112D01*
D02*
G37*
G36*
X02955693D02*
X02952455D01*
Y02435701D01*
Y02437126D01*
Y02438486D01*
Y02439134D01*
X02952487Y02439750D01*
Y02440332D01*
Y02440883D01*
Y02441369D01*
Y02441822D01*
X02952519Y02442211D01*
Y02442567D01*
Y02442826D01*
Y02443020D01*
Y02443150D01*
Y02443182D01*
X02952131D01*
X02951872Y02442049D01*
X02951613Y02441045D01*
X02951386Y02440138D01*
X02951224Y02439361D01*
X02951030Y02438681D01*
X02950900Y02438098D01*
X02950771Y02437580D01*
X02950674Y02437159D01*
X02950576Y02436803D01*
X02950511Y02436543D01*
X02950447Y02436317D01*
X02950414Y02436155D01*
X02950382Y02436025D01*
X02950349Y02435961D01*
Y02435896D01*
X02947564Y02425112D01*
X02943289D01*
X02940440Y02436025D01*
X02940310Y02436543D01*
X02940148Y02437062D01*
X02939857Y02438228D01*
X02939565Y02439426D01*
X02939306Y02440592D01*
X02939177Y02441110D01*
X02939047Y02441595D01*
X02938950Y02442049D01*
X02938853Y02442437D01*
X02938788Y02442729D01*
X02938723Y02442988D01*
X02938691Y02443118D01*
Y02443182D01*
X02938302D01*
Y02442276D01*
X02938335Y02441434D01*
Y02440656D01*
Y02439911D01*
Y02439231D01*
Y02438649D01*
X02938367Y02438098D01*
Y02437580D01*
Y02437159D01*
Y02436770D01*
Y02436446D01*
Y02436187D01*
Y02435993D01*
Y02435863D01*
Y02435766D01*
Y02435734D01*
Y02425112D01*
X02934869D01*
Y02446194D01*
X02940828D01*
X02943516Y02435378D01*
X02943646Y02434859D01*
X02943808Y02434309D01*
X02943937Y02433758D01*
X02944067Y02433273D01*
X02944164Y02432787D01*
X02944261Y02432431D01*
X02944294Y02432301D01*
Y02432204D01*
X02944326Y02432139D01*
Y02432107D01*
X02944423Y02431621D01*
X02944553Y02431167D01*
X02944617Y02430746D01*
X02944714Y02430390D01*
X02944779Y02430034D01*
X02944876Y02429743D01*
X02944909Y02429483D01*
X02944973Y02429257D01*
X02945071Y02428901D01*
X02945135Y02428674D01*
X02945168Y02428512D01*
Y02428480D01*
X02945557D01*
X02945783Y02429743D01*
X02946042Y02430973D01*
X02946301Y02432139D01*
X02946431Y02432690D01*
X02946560Y02433208D01*
X02946658Y02433661D01*
X02946755Y02434082D01*
X02946852Y02434471D01*
X02946917Y02434795D01*
X02946982Y02435054D01*
X02947046Y02435248D01*
X02947079Y02435378D01*
Y02435410D01*
X02949734Y02446194D01*
X02955693D01*
Y02425112D01*
D02*
G37*
G36*
X02893481Y02440332D02*
X02893967Y02440300D01*
X02894453Y02440203D01*
X02894906Y02440073D01*
X02895684Y02439782D01*
X02896040Y02439588D01*
X02896364Y02439426D01*
X02896655Y02439264D01*
X02896914Y02439070D01*
X02897108Y02438907D01*
X02897303Y02438778D01*
X02897432Y02438649D01*
X02897530Y02438584D01*
X02897594Y02438519D01*
X02897627Y02438486D01*
X02897983Y02438065D01*
X02898307Y02437612D01*
X02898598Y02437126D01*
X02898857Y02436641D01*
X02899052Y02436155D01*
X02899214Y02435637D01*
X02899473Y02434665D01*
X02899570Y02434212D01*
X02899635Y02433791D01*
X02899667Y02433434D01*
X02899699Y02433111D01*
X02899732Y02432852D01*
Y02432625D01*
Y02432495D01*
Y02432463D01*
X02899699Y02431848D01*
X02899667Y02431232D01*
X02899570Y02430682D01*
X02899473Y02430164D01*
X02899343Y02429678D01*
X02899214Y02429224D01*
X02899084Y02428836D01*
X02898922Y02428447D01*
X02898760Y02428123D01*
X02898631Y02427832D01*
X02898501Y02427605D01*
X02898372Y02427379D01*
X02898275Y02427217D01*
X02898177Y02427119D01*
X02898145Y02427055D01*
X02898112Y02427022D01*
X02897756Y02426634D01*
X02897335Y02426277D01*
X02896914Y02425954D01*
X02896493Y02425694D01*
X02896040Y02425468D01*
X02895587Y02425273D01*
X02895133Y02425144D01*
X02894712Y02425014D01*
X02894291Y02424917D01*
X02893903Y02424852D01*
X02893546Y02424788D01*
X02893255Y02424755D01*
X02893028Y02424723D01*
X02892672D01*
X02891797Y02424788D01*
X02891020Y02424917D01*
X02890275Y02425112D01*
X02889628Y02425403D01*
X02889077Y02425727D01*
X02888559Y02426083D01*
X02888105Y02426504D01*
X02887717Y02426893D01*
X02887361Y02427314D01*
X02887102Y02427702D01*
X02886875Y02428059D01*
X02886681Y02428382D01*
X02886551Y02428674D01*
X02886454Y02428868D01*
X02886389Y02429030D01*
Y02429062D01*
X02889498Y02429969D01*
X02889660Y02429451D01*
X02889854Y02429030D01*
X02890049Y02428642D01*
X02890308Y02428318D01*
X02890567Y02428026D01*
X02890826Y02427800D01*
X02891085Y02427605D01*
X02891344Y02427443D01*
X02891603Y02427314D01*
X02891830Y02427249D01*
X02892057Y02427184D01*
X02892251Y02427119D01*
X02892413D01*
X02892542Y02427087D01*
X02892639D01*
X02893255Y02427152D01*
X02893773Y02427281D01*
X02894259Y02427443D01*
X02894615Y02427670D01*
X02894939Y02427864D01*
X02895133Y02428059D01*
X02895295Y02428188D01*
X02895327Y02428221D01*
X02895684Y02428739D01*
X02895943Y02429322D01*
X02896105Y02429904D01*
X02896234Y02430487D01*
X02896331Y02431006D01*
X02896364Y02431232D01*
Y02431427D01*
X02896396Y02431588D01*
Y02431718D01*
Y02431783D01*
Y02431815D01*
X02886324D01*
Y02432528D01*
X02886357Y02433143D01*
X02886389Y02433758D01*
X02886486Y02434309D01*
X02886584Y02434827D01*
X02886713Y02435345D01*
X02886843Y02435799D01*
X02887004Y02436220D01*
X02887134Y02436576D01*
X02887296Y02436932D01*
X02887458Y02437224D01*
X02887587Y02437483D01*
X02887717Y02437677D01*
X02887814Y02437839D01*
X02887911Y02437968D01*
X02887944Y02438033D01*
X02887976Y02438065D01*
X02888332Y02438486D01*
X02888721Y02438810D01*
X02889109Y02439134D01*
X02889531Y02439393D01*
X02889951Y02439620D01*
X02890373Y02439814D01*
X02890761Y02439944D01*
X02891150Y02440073D01*
X02891538Y02440171D01*
X02891862Y02440235D01*
X02892186Y02440300D01*
X02892445Y02440332D01*
X02892672Y02440365D01*
X02892963D01*
X02893481Y02440332D01*
D02*
G37*
G36*
X02874828Y02425112D02*
X02871104D01*
Y02446194D01*
X02874828D01*
Y02425112D01*
D02*
G37*
G36*
X02858668Y02440332D02*
X02859153Y02440268D01*
X02859574Y02440138D01*
X02859963Y02440009D01*
X02860287Y02439879D01*
X02860514Y02439749D01*
X02860675Y02439685D01*
X02860740Y02439652D01*
X02861226Y02439328D01*
X02861679Y02438972D01*
X02862068Y02438616D01*
X02862424Y02438260D01*
X02862683Y02437936D01*
X02862910Y02437645D01*
X02863040Y02437483D01*
X02863072Y02437450D01*
Y02440041D01*
X02866375D01*
Y02425112D01*
X02862975D01*
Y02434892D01*
X02862716Y02435280D01*
X02862457Y02435604D01*
X02862198Y02435928D01*
X02861971Y02436155D01*
X02861776Y02436382D01*
X02861582Y02436511D01*
X02861485Y02436608D01*
X02861453Y02436641D01*
X02861064Y02436900D01*
X02860708Y02437094D01*
X02860384Y02437224D01*
X02860092Y02437321D01*
X02859833Y02437385D01*
X02859639Y02437418D01*
X02859477D01*
X02859121Y02437385D01*
X02858797Y02437321D01*
X02858538Y02437191D01*
X02858311Y02437029D01*
X02858085Y02436835D01*
X02857923Y02436608D01*
X02857696Y02436155D01*
X02857534Y02435701D01*
X02857469Y02435280D01*
X02857437Y02435119D01*
Y02434989D01*
Y02434924D01*
Y02434892D01*
Y02425112D01*
X02853907D01*
Y02435863D01*
X02853940Y02436576D01*
X02854069Y02437191D01*
X02854231Y02437742D01*
X02854425Y02438195D01*
X02854652Y02438551D01*
X02854814Y02438810D01*
X02854943Y02438972D01*
X02854976Y02439037D01*
X02855461Y02439490D01*
X02855980Y02439814D01*
X02856498Y02440041D01*
X02857016Y02440203D01*
X02857469Y02440300D01*
X02857858Y02440332D01*
X02857987Y02440365D01*
X02858182D01*
X02858668Y02440332D01*
D02*
G37*
G36*
X02898161Y02416620D02*
X02894469D01*
Y02420150D01*
X02898161D01*
Y02416620D01*
D02*
G37*
G36*
X02866003Y02414256D02*
X02866489Y02414159D01*
X02866942Y02414029D01*
X02867395Y02413835D01*
X02867816Y02413608D01*
X02868205Y02413349D01*
X02868561Y02413090D01*
X02868885Y02412831D01*
X02869177Y02412540D01*
X02869436Y02412281D01*
X02869662Y02412021D01*
X02869824Y02411795D01*
X02869986Y02411600D01*
X02870083Y02411471D01*
X02870148Y02411374D01*
X02870180Y02411341D01*
Y02413965D01*
X02873419D01*
Y02399035D01*
X02870051D01*
Y02408815D01*
X02869857Y02409204D01*
X02869630Y02409528D01*
X02869403Y02409819D01*
X02869177Y02410078D01*
X02869015Y02410273D01*
X02868853Y02410435D01*
X02868755Y02410532D01*
X02868723Y02410564D01*
X02868367Y02410823D01*
X02868043Y02411018D01*
X02867719Y02411147D01*
X02867428Y02411244D01*
X02867169Y02411309D01*
X02866974Y02411341D01*
X02866812D01*
X02866489Y02411309D01*
X02866197Y02411244D01*
X02865970Y02411115D01*
X02865776Y02410953D01*
X02865452Y02410532D01*
X02865226Y02410078D01*
X02865096Y02409625D01*
X02865031Y02409204D01*
X02864999Y02409042D01*
Y02408913D01*
Y02408848D01*
Y02408815D01*
Y02399035D01*
X02861599D01*
Y02408815D01*
X02861404Y02409172D01*
X02861210Y02409528D01*
X02860983Y02409819D01*
X02860789Y02410078D01*
X02860594Y02410273D01*
X02860465Y02410402D01*
X02860368Y02410499D01*
X02860335Y02410532D01*
X02859979Y02410791D01*
X02859655Y02410985D01*
X02859364Y02411147D01*
X02859072Y02411244D01*
X02858846Y02411309D01*
X02858651Y02411341D01*
X02858489D01*
X02858133Y02411309D01*
X02857809Y02411244D01*
X02857518Y02411115D01*
X02857291Y02410953D01*
X02857097Y02410759D01*
X02856935Y02410532D01*
X02856676Y02410078D01*
X02856514Y02409625D01*
X02856449Y02409204D01*
X02856417Y02409042D01*
Y02408913D01*
Y02408848D01*
Y02408815D01*
Y02399035D01*
X02853016D01*
Y02409787D01*
X02853049Y02410499D01*
X02853178Y02411115D01*
X02853308Y02411665D01*
X02853502Y02412119D01*
X02853664Y02412475D01*
X02853826Y02412734D01*
X02853956Y02412896D01*
X02853988Y02412961D01*
X02854442Y02413414D01*
X02854927Y02413738D01*
X02855445Y02413965D01*
X02855931Y02414126D01*
X02856385Y02414224D01*
X02856741Y02414256D01*
X02856870Y02414288D01*
X02857065D01*
X02857583Y02414256D01*
X02858069Y02414159D01*
X02858554Y02414029D01*
X02858975Y02413835D01*
X02859396Y02413608D01*
X02859785Y02413349D01*
X02860141Y02413090D01*
X02860497Y02412831D01*
X02860789Y02412540D01*
X02861048Y02412281D01*
X02861275Y02412021D01*
X02861436Y02411795D01*
X02861599Y02411600D01*
X02861696Y02411471D01*
X02861760Y02411374D01*
X02861793Y02411341D01*
X02861922Y02411795D01*
X02862084Y02412183D01*
X02862278Y02412540D01*
X02862473Y02412831D01*
X02862635Y02413058D01*
X02862797Y02413252D01*
X02862894Y02413349D01*
X02862926Y02413382D01*
X02863315Y02413673D01*
X02863736Y02413900D01*
X02864189Y02414062D01*
X02864578Y02414191D01*
X02864934Y02414256D01*
X02865226Y02414288D01*
X02865485D01*
X02866003Y02414256D01*
D02*
G37*
G36*
X02890324Y02403051D02*
X02890292Y02402338D01*
X02890162Y02401723D01*
X02889968Y02401172D01*
X02889773Y02400719D01*
X02889579Y02400363D01*
X02889385Y02400104D01*
X02889255Y02399942D01*
X02889223Y02399877D01*
X02888737Y02399456D01*
X02888219Y02399165D01*
X02887668Y02398938D01*
X02887183Y02398808D01*
X02886729Y02398711D01*
X02886341Y02398679D01*
X02886211Y02398647D01*
X02886017D01*
X02885499Y02398679D01*
X02885013Y02398744D01*
X02884592Y02398873D01*
X02884203Y02399003D01*
X02883879Y02399100D01*
X02883620Y02399229D01*
X02883491Y02399294D01*
X02883426Y02399327D01*
X02882940Y02399650D01*
X02882487Y02400039D01*
X02882098Y02400395D01*
X02881774Y02400784D01*
X02881515Y02401108D01*
X02881321Y02401367D01*
X02881191Y02401561D01*
X02881159Y02401626D01*
Y02399035D01*
X02877856D01*
Y02413965D01*
X02881288D01*
Y02404120D01*
X02881483Y02403763D01*
X02881710Y02403407D01*
X02881969Y02403116D01*
X02882163Y02402856D01*
X02882390Y02402662D01*
X02882519Y02402500D01*
X02882649Y02402403D01*
X02882681Y02402371D01*
X02883070Y02402112D01*
X02883426Y02401917D01*
X02883782Y02401755D01*
X02884073Y02401658D01*
X02884333Y02401593D01*
X02884559Y02401561D01*
X02884721D01*
X02885078Y02401593D01*
X02885401Y02401658D01*
X02885693Y02401788D01*
X02885952Y02401950D01*
X02886146Y02402144D01*
X02886308Y02402338D01*
X02886567Y02402792D01*
X02886729Y02403245D01*
X02886794Y02403634D01*
X02886826Y02403796D01*
Y02403925D01*
Y02403990D01*
Y02404022D01*
Y02413965D01*
X02890324D01*
Y02403051D01*
D02*
G37*
G36*
X02932263Y02414256D02*
X02932748Y02414224D01*
X02933234Y02414126D01*
X02933687Y02413997D01*
X02934465Y02413705D01*
X02934821Y02413511D01*
X02935145Y02413349D01*
X02935436Y02413187D01*
X02935695Y02412993D01*
X02935890Y02412831D01*
X02936084Y02412702D01*
X02936213Y02412572D01*
X02936311Y02412507D01*
X02936375Y02412442D01*
X02936408Y02412410D01*
X02936764Y02411989D01*
X02937088Y02411536D01*
X02937379Y02411050D01*
X02937639Y02410564D01*
X02937833Y02410078D01*
X02937995Y02409560D01*
X02938254Y02408589D01*
X02938351Y02408135D01*
X02938416Y02407714D01*
X02938448Y02407358D01*
X02938481Y02407034D01*
X02938513Y02406775D01*
Y02406548D01*
Y02406419D01*
Y02406387D01*
X02938481Y02405771D01*
X02938448Y02405156D01*
X02938351Y02404605D01*
X02938254Y02404087D01*
X02938124Y02403601D01*
X02937995Y02403148D01*
X02937865Y02402759D01*
X02937703Y02402371D01*
X02937541Y02402047D01*
X02937412Y02401756D01*
X02937282Y02401529D01*
X02937153Y02401302D01*
X02937055Y02401140D01*
X02936958Y02401043D01*
X02936926Y02400978D01*
X02936894Y02400946D01*
X02936537Y02400557D01*
X02936116Y02400201D01*
X02935695Y02399877D01*
X02935274Y02399618D01*
X02934821Y02399391D01*
X02934367Y02399197D01*
X02933914Y02399068D01*
X02933493Y02398938D01*
X02933072Y02398841D01*
X02932683Y02398776D01*
X02932327Y02398711D01*
X02932036Y02398679D01*
X02931809Y02398647D01*
X02931453D01*
X02930579Y02398711D01*
X02929801Y02398841D01*
X02929056Y02399035D01*
X02928409Y02399327D01*
X02927858Y02399650D01*
X02927340Y02400007D01*
X02926887Y02400428D01*
X02926498Y02400816D01*
X02926142Y02401237D01*
X02925883Y02401626D01*
X02925656Y02401982D01*
X02925462Y02402306D01*
X02925332Y02402598D01*
X02925235Y02402792D01*
X02925170Y02402954D01*
Y02402986D01*
X02928279Y02403893D01*
X02928441Y02403375D01*
X02928635Y02402954D01*
X02928830Y02402565D01*
X02929089Y02402241D01*
X02929348Y02401950D01*
X02929607Y02401723D01*
X02929866Y02401529D01*
X02930125Y02401367D01*
X02930384Y02401237D01*
X02930611Y02401172D01*
X02930838Y02401108D01*
X02931032Y02401043D01*
X02931194D01*
X02931323Y02401011D01*
X02931421D01*
X02932036Y02401075D01*
X02932554Y02401205D01*
X02933040Y02401367D01*
X02933396Y02401593D01*
X02933720Y02401788D01*
X02933914Y02401982D01*
X02934076Y02402112D01*
X02934109Y02402144D01*
X02934465Y02402662D01*
X02934724Y02403245D01*
X02934886Y02403828D01*
X02935015Y02404411D01*
X02935112Y02404929D01*
X02935145Y02405156D01*
Y02405350D01*
X02935177Y02405512D01*
Y02405642D01*
Y02405706D01*
Y02405739D01*
X02925105D01*
Y02406451D01*
X02925138Y02407067D01*
X02925170Y02407682D01*
X02925267Y02408233D01*
X02925364Y02408751D01*
X02925494Y02409269D01*
X02925623Y02409722D01*
X02925786Y02410143D01*
X02925915Y02410499D01*
X02926077Y02410856D01*
X02926239Y02411147D01*
X02926368Y02411406D01*
X02926498Y02411600D01*
X02926595Y02411762D01*
X02926692Y02411892D01*
X02926725Y02411957D01*
X02926757Y02411989D01*
X02927113Y02412410D01*
X02927502Y02412734D01*
X02927891Y02413058D01*
X02928311Y02413317D01*
X02928733Y02413544D01*
X02929154Y02413738D01*
X02929542Y02413867D01*
X02929931Y02413997D01*
X02930320Y02414094D01*
X02930643Y02414159D01*
X02930967Y02414224D01*
X02931226Y02414256D01*
X02931453Y02414288D01*
X02931744D01*
X02932263Y02414256D01*
D02*
G37*
G36*
X02956584Y02399035D02*
X02948649D01*
X02948034Y02399068D01*
X02947484Y02399100D01*
X02946933Y02399165D01*
X02946415Y02399262D01*
X02945961Y02399359D01*
X02945540Y02399456D01*
X02945119Y02399586D01*
X02944763Y02399715D01*
X02944439Y02399845D01*
X02944180Y02399974D01*
X02943921Y02400072D01*
X02943727Y02400169D01*
X02943565Y02400266D01*
X02943468Y02400331D01*
X02943403Y02400395D01*
X02943371D01*
X02942982Y02400719D01*
X02942658Y02401043D01*
X02942367Y02401399D01*
X02942108Y02401788D01*
X02941913Y02402177D01*
X02941719Y02402533D01*
X02941460Y02403278D01*
X02941330Y02403958D01*
X02941266Y02404249D01*
X02941233Y02404508D01*
X02941201Y02404702D01*
Y02404864D01*
Y02404962D01*
Y02404994D01*
X02941233Y02405674D01*
X02941363Y02406289D01*
X02941525Y02406840D01*
X02941719Y02407293D01*
X02941945Y02407682D01*
X02942108Y02407941D01*
X02942237Y02408103D01*
X02942270Y02408168D01*
X02942787Y02408686D01*
X02943403Y02409107D01*
X02944018Y02409431D01*
X02944633Y02409690D01*
X02945184Y02409852D01*
X02945411Y02409949D01*
X02945605Y02409981D01*
X02945799Y02410046D01*
X02945929D01*
X02945994Y02410078D01*
X02946026D01*
Y02410240D01*
X02945378Y02410402D01*
X02944828Y02410597D01*
X02944342Y02410823D01*
X02943921Y02411082D01*
X02943597Y02411309D01*
X02943338Y02411503D01*
X02943209Y02411633D01*
X02943144Y02411665D01*
X02942723Y02412151D01*
X02942399Y02412702D01*
X02942172Y02413220D01*
X02942010Y02413738D01*
X02941913Y02414159D01*
X02941881Y02414515D01*
X02941848Y02414645D01*
Y02414742D01*
Y02414807D01*
Y02414839D01*
Y02415292D01*
X02941913Y02415681D01*
X02942075Y02416426D01*
X02942302Y02417074D01*
X02942529Y02417592D01*
X02942787Y02418013D01*
X02943014Y02418304D01*
X02943176Y02418466D01*
X02943209Y02418531D01*
X02943241D01*
X02943597Y02418822D01*
X02943986Y02419049D01*
X02944439Y02419276D01*
X02944893Y02419438D01*
X02945832Y02419729D01*
X02946803Y02419924D01*
X02947257Y02419988D01*
X02947678Y02420021D01*
X02948034Y02420085D01*
X02948390D01*
X02948649Y02420118D01*
X02956584D01*
Y02399035D01*
D02*
G37*
G36*
X02921640D02*
X02918240D01*
Y02420506D01*
X02921640D01*
Y02399035D01*
D02*
G37*
G36*
X02898032D02*
X02894631D01*
Y02413965D01*
X02898032D01*
Y02399035D01*
D02*
G37*
G36*
X02901529Y02416005D02*
X02902015Y02415972D01*
X02902436Y02415875D01*
X02902792Y02415778D01*
X02903051Y02415681D01*
X02903278Y02415616D01*
X02903408Y02415551D01*
X02903440Y02415519D01*
X02903828Y02415292D01*
X02904185Y02414969D01*
X02904509Y02414645D01*
X02904767Y02414321D01*
X02904994Y02414029D01*
X02905156Y02413770D01*
X02905253Y02413608D01*
X02905286Y02413576D01*
Y02413544D01*
X02905804Y02413803D01*
X02906354Y02413965D01*
X02906873Y02414094D01*
X02907358Y02414191D01*
X02907812Y02414256D01*
X02908136Y02414288D01*
X02908459D01*
X02909334Y02414224D01*
X02910111Y02414094D01*
X02910791Y02413932D01*
X02911374Y02413705D01*
X02911828Y02413479D01*
X02912022Y02413382D01*
X02912151Y02413317D01*
X02912281Y02413220D01*
X02912378Y02413187D01*
X02912411Y02413123D01*
X02912443D01*
X02912767Y02412863D01*
X02913058Y02412572D01*
X02913317Y02412281D01*
X02913512Y02411989D01*
X02913706Y02411698D01*
X02913868Y02411406D01*
X02914095Y02410823D01*
X02914224Y02410305D01*
X02914257Y02410078D01*
X02914289Y02409884D01*
X02914321Y02409722D01*
Y02409593D01*
Y02409528D01*
Y02409496D01*
X02914289Y02409010D01*
X02914224Y02408589D01*
X02914127Y02408168D01*
X02913997Y02407779D01*
X02913641Y02407099D01*
X02913253Y02406548D01*
X02912864Y02406127D01*
X02912508Y02405804D01*
X02912378Y02405674D01*
X02912281Y02405609D01*
X02912216Y02405577D01*
X02912184Y02405544D01*
X02912572Y02405285D01*
X02912929Y02404994D01*
X02913253Y02404735D01*
X02913512Y02404476D01*
X02913738Y02404217D01*
X02913932Y02403958D01*
X02914062Y02403699D01*
X02914192Y02403472D01*
X02914354Y02403051D01*
X02914451Y02402759D01*
X02914483Y02402630D01*
Y02402533D01*
Y02402500D01*
Y02402468D01*
X02914451Y02402177D01*
X02914386Y02401885D01*
X02914289Y02401626D01*
X02914159Y02401399D01*
X02913803Y02401043D01*
X02913414Y02400751D01*
X02913058Y02400525D01*
X02912702Y02400395D01*
X02912572Y02400363D01*
X02912475Y02400331D01*
X02912411Y02400298D01*
X02912378D01*
X02912864Y02400104D01*
X02913285Y02399877D01*
X02913641Y02399650D01*
X02913965Y02399424D01*
X02914224Y02399197D01*
X02914451Y02398938D01*
X02914645Y02398711D01*
X02914774Y02398485D01*
X02914969Y02398064D01*
X02915099Y02397740D01*
Y02397610D01*
X02915131Y02397513D01*
Y02397448D01*
Y02397416D01*
X02915099Y02397124D01*
X02915066Y02396865D01*
X02914904Y02396380D01*
X02914645Y02395959D01*
X02914354Y02395602D01*
X02914095Y02395311D01*
X02913835Y02395084D01*
X02913673Y02394955D01*
X02913609Y02394922D01*
X02913253Y02394728D01*
X02912864Y02394534D01*
X02912022Y02394274D01*
X02911147Y02394080D01*
X02910305Y02393918D01*
X02909917Y02393886D01*
X02909561Y02393853D01*
X02909237Y02393821D01*
X02908945D01*
X02908719Y02393789D01*
X02907780D01*
X02907229Y02393853D01*
X02906678Y02393886D01*
X02906160Y02393983D01*
X02905707Y02394048D01*
X02905253Y02394145D01*
X02904865Y02394242D01*
X02904509Y02394372D01*
X02904185Y02394469D01*
X02903893Y02394566D01*
X02903634Y02394663D01*
X02903440Y02394760D01*
X02903278Y02394825D01*
X02903181Y02394890D01*
X02903116Y02394922D01*
X02903083D01*
X02902695Y02395181D01*
X02902371Y02395440D01*
X02902080Y02395699D01*
X02901821Y02395991D01*
X02901626Y02396282D01*
X02901432Y02396574D01*
X02901173Y02397124D01*
X02901043Y02397610D01*
X02900979Y02397805D01*
X02900946Y02397999D01*
X02900914Y02398161D01*
Y02398258D01*
Y02398323D01*
Y02398355D01*
X02900946Y02398906D01*
X02901043Y02399391D01*
X02901205Y02399812D01*
X02901367Y02400169D01*
X02901562Y02400428D01*
X02901691Y02400622D01*
X02901821Y02400751D01*
X02901853Y02400784D01*
X02902112Y02400978D01*
X02902371Y02401172D01*
X02903019Y02401464D01*
X02903731Y02401723D01*
X02904411Y02401885D01*
X02905059Y02402015D01*
X02905318Y02402079D01*
X02905577Y02402112D01*
X02905771Y02402144D01*
X02905934Y02402177D01*
X02906063D01*
X02909431Y02402468D01*
X02909820Y02402500D01*
X02910176Y02402565D01*
X02910468Y02402630D01*
X02910662Y02402662D01*
X02910856Y02402727D01*
X02910953Y02402759D01*
X02911018Y02402792D01*
X02911050D01*
X02911212Y02402889D01*
X02911310Y02403018D01*
X02911439Y02403245D01*
X02911504Y02403439D01*
Y02403504D01*
Y02403537D01*
X02911471Y02403796D01*
X02911342Y02404055D01*
X02911180Y02404281D01*
X02910953Y02404476D01*
X02910759Y02404605D01*
X02910597Y02404735D01*
X02910468Y02404800D01*
X02910435Y02404832D01*
X02909755Y02404702D01*
X02909431Y02404670D01*
X02909107Y02404638D01*
X02908881Y02404605D01*
X02908492D01*
X02907617Y02404670D01*
X02906840Y02404800D01*
X02906128Y02404962D01*
X02905545Y02405188D01*
X02905092Y02405383D01*
X02904897Y02405480D01*
X02904767Y02405577D01*
X02904638Y02405642D01*
X02904541Y02405706D01*
X02904509Y02405739D01*
X02904476D01*
X02904152Y02405998D01*
X02903861Y02406289D01*
X02903634Y02406581D01*
X02903408Y02406905D01*
X02903213Y02407196D01*
X02903083Y02407520D01*
X02902857Y02408135D01*
X02902727Y02408686D01*
X02902695Y02408913D01*
X02902663Y02409139D01*
X02902630Y02409301D01*
Y02409431D01*
Y02409496D01*
Y02409528D01*
X02902695Y02410143D01*
X02902824Y02410726D01*
X02903019Y02411212D01*
X02903213Y02411665D01*
X02903440Y02412021D01*
X02903634Y02412281D01*
X02903764Y02412442D01*
X02903828Y02412507D01*
X02903505Y02412766D01*
X02903213Y02412928D01*
X02902986Y02413026D01*
X02902954Y02413058D01*
X02902922D01*
X02902663Y02413123D01*
X02902404Y02413187D01*
X02901821Y02413252D01*
X02901562Y02413284D01*
X02901173D01*
X02900979Y02416037D01*
X02901529Y02416005D01*
D02*
G37*
%LPC*%
G36*
X02922207Y02432398D02*
X02921916D01*
Y02429645D01*
X02922175Y02429224D01*
X02922434Y02428836D01*
X02922725Y02428512D01*
X02923017Y02428221D01*
X02923308Y02427994D01*
X02923600Y02427800D01*
X02923891Y02427638D01*
X02924150Y02427508D01*
X02924636Y02427314D01*
X02924862Y02427249D01*
X02925057Y02427217D01*
X02925186D01*
X02925316Y02427184D01*
X02925413D01*
X02925834Y02427217D01*
X02926190Y02427281D01*
X02926514Y02427379D01*
X02926773Y02427540D01*
X02927000Y02427702D01*
X02927194Y02427897D01*
X02927356Y02428123D01*
X02927486Y02428318D01*
X02927648Y02428739D01*
X02927745Y02429095D01*
Y02429257D01*
X02927777Y02429354D01*
Y02429419D01*
Y02429451D01*
X02927745Y02429807D01*
X02927680Y02430131D01*
X02927550Y02430423D01*
X02927389Y02430682D01*
X02927000Y02431103D01*
X02926547Y02431459D01*
X02926125Y02431686D01*
X02925737Y02431848D01*
X02925575Y02431912D01*
X02925446Y02431945D01*
X02925381Y02431977D01*
X02925348D01*
X02924701Y02432107D01*
X02924085Y02432204D01*
X02923503Y02432269D01*
X02922984Y02432333D01*
X02922563Y02432366D01*
X02922207Y02432398D01*
D02*
G37*
G36*
X02892996Y02438001D02*
X02892931D01*
X02892413Y02437968D01*
X02891927Y02437839D01*
X02891506Y02437645D01*
X02891150Y02437385D01*
X02890826Y02437094D01*
X02890567Y02436770D01*
X02890340Y02436414D01*
X02890178Y02436058D01*
X02890016Y02435669D01*
X02889887Y02435313D01*
X02889822Y02434989D01*
X02889757Y02434698D01*
X02889692Y02434438D01*
X02889660Y02434244D01*
Y02434115D01*
Y02434082D01*
X02896331D01*
X02896266Y02434698D01*
X02896137Y02435216D01*
X02896007Y02435669D01*
X02895846Y02436090D01*
X02895716Y02436382D01*
X02895587Y02436608D01*
X02895489Y02436770D01*
X02895457Y02436803D01*
X02895101Y02437191D01*
X02894680Y02437483D01*
X02894259Y02437709D01*
X02893838Y02437839D01*
X02893481Y02437936D01*
X02893190Y02437968D01*
X02892996Y02438001D01*
D02*
G37*
G36*
X02931777Y02411924D02*
X02931712D01*
X02931194Y02411892D01*
X02930708Y02411762D01*
X02930287Y02411568D01*
X02929931Y02411309D01*
X02929607Y02411018D01*
X02929348Y02410694D01*
X02929121Y02410338D01*
X02928959Y02409981D01*
X02928797Y02409593D01*
X02928668Y02409236D01*
X02928603Y02408913D01*
X02928538Y02408621D01*
X02928474Y02408362D01*
X02928441Y02408168D01*
Y02408038D01*
Y02408006D01*
X02935112D01*
X02935048Y02408621D01*
X02934918Y02409139D01*
X02934789Y02409593D01*
X02934626Y02410014D01*
X02934497Y02410305D01*
X02934367Y02410532D01*
X02934270Y02410694D01*
X02934238Y02410726D01*
X02933882Y02411115D01*
X02933461Y02411406D01*
X02933040Y02411633D01*
X02932619Y02411762D01*
X02932263Y02411860D01*
X02931971Y02411892D01*
X02931777Y02411924D01*
D02*
G37*
G36*
X02952989Y02417365D02*
X02949459D01*
X02948747Y02417333D01*
X02948163Y02417268D01*
X02947645Y02417171D01*
X02947224Y02417041D01*
X02946901Y02416912D01*
X02946674Y02416815D01*
X02946544Y02416750D01*
X02946512Y02416717D01*
X02946156Y02416426D01*
X02945897Y02416070D01*
X02945735Y02415713D01*
X02945605Y02415357D01*
X02945540Y02415001D01*
X02945475Y02414742D01*
Y02414547D01*
Y02414515D01*
Y02414483D01*
X02945508Y02413997D01*
X02945605Y02413608D01*
X02945767Y02413220D01*
X02945929Y02412928D01*
X02946123Y02412702D01*
X02946253Y02412507D01*
X02946382Y02412410D01*
X02946415Y02412378D01*
X02946868Y02412054D01*
X02947419Y02411827D01*
X02947969Y02411665D01*
X02948520Y02411568D01*
X02949006Y02411503D01*
X02949232Y02411471D01*
X02949394Y02411439D01*
X02952989D01*
Y02417365D01*
D02*
G37*
G36*
Y02408686D02*
X02949556D01*
X02948811Y02408654D01*
X02948163Y02408556D01*
X02947613Y02408427D01*
X02947127Y02408297D01*
X02946771Y02408135D01*
X02946512Y02408006D01*
X02946350Y02407909D01*
X02946285Y02407876D01*
X02946026Y02407714D01*
X02945832Y02407520D01*
X02945475Y02407099D01*
X02945216Y02406646D01*
X02945055Y02406225D01*
X02944957Y02405836D01*
X02944925Y02405544D01*
X02944893Y02405415D01*
Y02405318D01*
Y02405285D01*
Y02405253D01*
X02944925Y02404702D01*
X02945022Y02404217D01*
X02945184Y02403796D01*
X02945346Y02403472D01*
X02945508Y02403180D01*
X02945670Y02402986D01*
X02945767Y02402857D01*
X02945799Y02402824D01*
X02946253Y02402468D01*
X02946771Y02402209D01*
X02947289Y02402015D01*
X02947840Y02401885D01*
X02948326Y02401820D01*
X02948714Y02401788D01*
X02948844Y02401756D01*
X02952989D01*
Y02408686D01*
D02*
G37*
G36*
X02908654Y02412248D02*
X02908459D01*
X02908071Y02412216D01*
X02907715Y02412151D01*
X02907391Y02412054D01*
X02907132Y02411957D01*
X02906937Y02411827D01*
X02906776Y02411730D01*
X02906678Y02411665D01*
X02906646Y02411633D01*
X02906354Y02411309D01*
X02906128Y02410985D01*
X02905966Y02410629D01*
X02905836Y02410273D01*
X02905771Y02409981D01*
X02905739Y02409722D01*
Y02409560D01*
Y02409496D01*
X02905771Y02409042D01*
X02905836Y02408654D01*
X02905966Y02408297D01*
X02906063Y02408006D01*
X02906193Y02407779D01*
X02906322Y02407585D01*
X02906387Y02407488D01*
X02906419Y02407455D01*
X02906711Y02407164D01*
X02907067Y02406969D01*
X02907391Y02406808D01*
X02907715Y02406710D01*
X02908006Y02406646D01*
X02908233Y02406613D01*
X02908459D01*
X02908848Y02406646D01*
X02909237Y02406710D01*
X02909528Y02406808D01*
X02909820Y02406937D01*
X02910014Y02407067D01*
X02910176Y02407164D01*
X02910273Y02407229D01*
X02910305Y02407261D01*
X02910597Y02407585D01*
X02910824Y02407941D01*
X02910953Y02408330D01*
X02911083Y02408686D01*
X02911147Y02409010D01*
X02911180Y02409269D01*
Y02409463D01*
Y02409528D01*
X02911147Y02409949D01*
X02911083Y02410305D01*
X02910953Y02410661D01*
X02910824Y02410920D01*
X02910727Y02411147D01*
X02910597Y02411309D01*
X02910532Y02411406D01*
X02910500Y02411439D01*
X02910176Y02411698D01*
X02909852Y02411892D01*
X02909496Y02412054D01*
X02909172Y02412151D01*
X02908913Y02412216D01*
X02908654Y02412248D01*
D02*
G37*
G36*
X02910338Y02399877D02*
X02910305D01*
X02906613Y02399521D01*
X02906095Y02399456D01*
X02905642Y02399391D01*
X02905253Y02399294D01*
X02904962Y02399229D01*
X02904735Y02399132D01*
X02904606Y02399100D01*
X02904509Y02399035D01*
X02904476D01*
X02904282Y02398873D01*
X02904120Y02398679D01*
X02904023Y02398485D01*
X02903925Y02398290D01*
X02903893Y02398096D01*
X02903861Y02397934D01*
Y02397837D01*
Y02397805D01*
X02903893Y02397513D01*
X02903990Y02397286D01*
X02904152Y02397060D01*
X02904314Y02396865D01*
X02904509Y02396703D01*
X02904638Y02396574D01*
X02904767Y02396509D01*
X02904800Y02396477D01*
X02905286Y02396250D01*
X02905836Y02396088D01*
X02906419Y02395991D01*
X02906970Y02395926D01*
X02907456Y02395861D01*
X02907682D01*
X02907877Y02395829D01*
X02908233D01*
X02908848Y02395861D01*
X02909399Y02395894D01*
X02909885Y02395991D01*
X02910273Y02396088D01*
X02910597Y02396153D01*
X02910856Y02396250D01*
X02910986Y02396282D01*
X02911050Y02396315D01*
X02911471Y02396541D01*
X02911795Y02396801D01*
X02911989Y02397060D01*
X02912151Y02397319D01*
X02912249Y02397545D01*
X02912281Y02397740D01*
X02912314Y02397869D01*
Y02397902D01*
X02912281Y02398161D01*
X02912216Y02398387D01*
X02912119Y02398582D01*
X02911989Y02398776D01*
X02911666Y02399132D01*
X02911310Y02399391D01*
X02910953Y02399618D01*
X02910629Y02399748D01*
X02910500Y02399812D01*
X02910403Y02399845D01*
X02910338Y02399877D01*
D02*
G37*
%LPD*%
D12*
X03000593Y02513000D02*
G03*
X03000593Y02513000I-00055793J00000000D01*
G01*
X03007030D02*
G03*
X03007030Y02513000I-00062230J00000000D01*
G01*
D15*
X02934800Y02584998D02*
Y02579166D01*
X02933634Y02578000D01*
X02931301D01*
X02930135Y02579166D01*
Y02584998D01*
X02927802Y02578000D02*
X02925470D01*
X02926636D01*
Y02584998D01*
X02927802Y02583831D01*
D48*
X02987749Y02471539D02*
D03*
M02*
