G04*
G04 #@! TF.GenerationSoftware,Altium Limited,Altium Designer,19.1.5 (86)*
G04*
G04 Layer_Physical_Order=1*
G04 Layer_Color=255*
%FSAX44Y44*%
%MOMM*%
G71*
G01*
G75*
%ADD10C,0.4000*%
%ADD11C,0.2500*%
%ADD12C,0.5000*%
%ADD13C,0.2000*%
G04:AMPARAMS|DCode=31|XSize=12.065mm|YSize=1.2065mm|CornerRadius=0.3016mm|HoleSize=0mm|Usage=FLASHONLY|Rotation=270.000|XOffset=0mm|YOffset=0mm|HoleType=Round|Shape=RoundedRectangle|*
%AMROUNDEDRECTD31*
21,1,12.0650,0.6033,0,0,270.0*
21,1,11.4618,1.2065,0,0,270.0*
1,1,0.6033,-0.3016,-5.7309*
1,1,0.6033,-0.3016,5.7309*
1,1,0.6033,0.3016,5.7309*
1,1,0.6033,0.3016,-5.7309*
%
%ADD31ROUNDEDRECTD31*%
G04:AMPARAMS|DCode=32|XSize=12.7mm|YSize=1.27mm|CornerRadius=0.3175mm|HoleSize=0mm|Usage=FLASHONLY|Rotation=270.000|XOffset=0mm|YOffset=0mm|HoleType=Round|Shape=RoundedRectangle|*
%AMROUNDEDRECTD32*
21,1,12.7000,0.6350,0,0,270.0*
21,1,12.0650,1.2700,0,0,270.0*
1,1,0.6350,-0.3175,-6.0325*
1,1,0.6350,-0.3175,6.0325*
1,1,0.6350,0.3175,6.0325*
1,1,0.6350,0.3175,-6.0325*
%
%ADD32ROUNDEDRECTD32*%
%ADD33R,1.2500X1.2500*%
%ADD34O,0.7000X1.5000*%
%ADD35R,0.7000X1.5000*%
G04:AMPARAMS|DCode=36|XSize=0.7mm|YSize=1.3mm|CornerRadius=0.175mm|HoleSize=0mm|Usage=FLASHONLY|Rotation=0.000|XOffset=0mm|YOffset=0mm|HoleType=Round|Shape=RoundedRectangle|*
%AMROUNDEDRECTD36*
21,1,0.7000,0.9500,0,0,0.0*
21,1,0.3500,1.3000,0,0,0.0*
1,1,0.3500,0.1750,-0.4750*
1,1,0.3500,-0.1750,-0.4750*
1,1,0.3500,-0.1750,0.4750*
1,1,0.3500,0.1750,0.4750*
%
%ADD36ROUNDEDRECTD36*%
%ADD37R,0.7000X1.3000*%
%ADD38R,0.8500X0.8000*%
%ADD39R,0.8000X0.8500*%
%ADD40C,0.3000*%
%ADD41C,0.6000*%
%ADD42R,1.6000X1.6000*%
%ADD43C,1.6000*%
%ADD44P,2.2627X4X90.0*%
%ADD45R,1.6000X1.6000*%
%ADD46C,0.7000*%
G36*
X03052210Y02375590D02*
X03033580D01*
X03023580Y02375590D01*
X03023517Y02375577D01*
X03023453Y02375587D01*
X03021493Y02375490D01*
X03021306Y02375444D01*
X03021115D01*
X03017269Y02374679D01*
X03017033Y02374581D01*
X03016783Y02374531D01*
X03013161Y02373031D01*
X03013115Y02373000D01*
X02984924D01*
Y02380500D01*
X02990800D01*
Y02391500D01*
X02984924D01*
Y02402055D01*
Y02407077D01*
X03014244Y02436397D01*
X03015820Y02435745D01*
X03018300Y02435418D01*
X03020780Y02435745D01*
X03023091Y02436702D01*
X03025075Y02438225D01*
X03026471Y02440044D01*
X03027071Y02439995D01*
X03027741Y02439693D01*
Y02433267D01*
X03022583Y02428109D01*
X03020780Y02428855D01*
X03018300Y02429182D01*
X03015820Y02428855D01*
X03013509Y02427898D01*
X03011525Y02426375D01*
X03010002Y02424391D01*
X03009044Y02422080D01*
X03008718Y02419600D01*
X03009044Y02417120D01*
X03010002Y02414809D01*
X03011525Y02412825D01*
X03013509Y02411302D01*
X03015820Y02410345D01*
X03018300Y02410018D01*
X03020780Y02410345D01*
X03023091Y02411302D01*
X03025075Y02412825D01*
X03026598Y02414809D01*
X03027556Y02417120D01*
X03027882Y02419600D01*
X03027556Y02422080D01*
X03026867Y02423741D01*
X03032963Y02429837D01*
X03033626Y02430829D01*
X03033859Y02432000D01*
X03033859Y02432000D01*
Y02450056D01*
X03033626Y02451227D01*
X03032963Y02452219D01*
X03026669Y02458513D01*
X03025677Y02459176D01*
X03024506Y02459409D01*
X03024506Y02459409D01*
X03007859D01*
Y02477733D01*
X03009963Y02479837D01*
X03009963Y02479837D01*
X03010626Y02480829D01*
X03010859Y02482000D01*
X03010859Y02482000D01*
Y02483264D01*
X03011055Y02483395D01*
X03012160Y02485049D01*
X03012548Y02487000D01*
Y02495000D01*
X03012160Y02496951D01*
X03011055Y02498605D01*
X03009401Y02499710D01*
X03007450Y02500098D01*
X03005499Y02499710D01*
X03003845Y02498605D01*
X03002740Y02496951D01*
X03002352Y02495000D01*
Y02487000D01*
X03002740Y02485049D01*
X03003845Y02483395D01*
X03003937Y02482463D01*
X03002637Y02481163D01*
X03001974Y02480171D01*
X03001741Y02479000D01*
X03001741Y02479000D01*
Y02458816D01*
X03001287Y02458513D01*
X03001287Y02458513D01*
X02970291Y02427517D01*
X02969800Y02427582D01*
X02967320Y02427256D01*
X02965009Y02426298D01*
X02963025Y02424776D01*
X02961502Y02422791D01*
X02960784Y02421059D01*
X02928816D01*
X02928098Y02422791D01*
X02926576Y02424776D01*
X02924591Y02426298D01*
X02922280Y02427256D01*
X02919800Y02427582D01*
X02917320Y02427256D01*
X02915009Y02426298D01*
X02913025Y02424776D01*
X02911502Y02422791D01*
X02910544Y02420480D01*
X02910218Y02418000D01*
X02910544Y02415520D01*
X02911502Y02413209D01*
X02913025Y02411225D01*
X02915009Y02409702D01*
X02917320Y02408745D01*
X02919800Y02408418D01*
X02922280Y02408745D01*
X02924591Y02409702D01*
X02926576Y02411225D01*
X02928098Y02413209D01*
X02928816Y02414941D01*
X02960784D01*
X02961502Y02413209D01*
X02963025Y02411225D01*
X02965009Y02409702D01*
X02967320Y02408745D01*
X02969800Y02408418D01*
X02972280Y02408745D01*
X02974591Y02409702D01*
X02976576Y02411225D01*
X02978098Y02413209D01*
X02979055Y02415520D01*
X02979382Y02418000D01*
X02979055Y02420480D01*
X02978098Y02422791D01*
X02976576Y02424775D01*
X02976552Y02425127D01*
X03004367Y02452941D01*
X03004800D01*
X03005970Y02453174D01*
X03006146Y02453291D01*
X03011524D01*
X03011933Y02452089D01*
X03011525Y02451776D01*
X03010002Y02449791D01*
X03009044Y02447480D01*
X03008718Y02445000D01*
X03009044Y02442520D01*
X03009404Y02441651D01*
X02978831Y02411078D01*
X02978058Y02409921D01*
X02977786Y02408555D01*
Y02405624D01*
X02889723D01*
X02874460Y02420887D01*
X02874946Y02422060D01*
X02882340D01*
Y02427350D01*
X02875550D01*
Y02429850D01*
X02882340D01*
Y02433853D01*
X02883393Y02434557D01*
X02884111Y02435632D01*
X02884364Y02436900D01*
Y02446400D01*
X02884111Y02447668D01*
X02883393Y02448743D01*
X02882318Y02449461D01*
X02881050Y02449713D01*
X02878691D01*
X02875602Y02452802D01*
X02874775Y02453355D01*
X02873800Y02453549D01*
X02865800D01*
X02864825Y02453355D01*
X02863997Y02452802D01*
X02860845Y02449650D01*
X02855300D01*
Y02434100D01*
X02854300D01*
Y02423100D01*
X02862153D01*
X02885721Y02399532D01*
X02886879Y02398758D01*
X02888245Y02398486D01*
X02977786D01*
Y02373000D01*
X02873395D01*
X02873349Y02373031D01*
X02869727Y02374531D01*
X02869477Y02374581D01*
X02869241Y02374679D01*
X02865396Y02375444D01*
X02865204D01*
X02865017Y02375490D01*
X02863057Y02375587D01*
X02862993Y02375577D01*
X02862930Y02375590D01*
X02852930D01*
X02837390Y02375590D01*
X02837390Y02620410D01*
X03052210D01*
X03052210Y02375590D01*
D02*
G37*
%LPC*%
G36*
X02953590Y02613040D02*
X02946050D01*
Y02605500D01*
X02953590D01*
Y02613040D01*
D02*
G37*
G36*
X02943550D02*
X02936010D01*
Y02605500D01*
X02943550D01*
Y02613040D01*
D02*
G37*
G36*
X03013590D02*
X03006050D01*
Y02605500D01*
X03013590D01*
Y02613040D01*
D02*
G37*
G36*
X02893590D02*
X02886050D01*
Y02605500D01*
X02893590D01*
Y02613040D01*
D02*
G37*
G36*
X03003550D02*
X02996010D01*
Y02605500D01*
X03003550D01*
Y02613040D01*
D02*
G37*
G36*
X02883550D02*
X02876010D01*
Y02605500D01*
X02883550D01*
Y02613040D01*
D02*
G37*
G36*
X02953590Y02603000D02*
X02946050D01*
Y02595460D01*
X02953590D01*
Y02603000D01*
D02*
G37*
G36*
X02943550D02*
X02936010D01*
Y02595460D01*
X02943550D01*
Y02603000D01*
D02*
G37*
G36*
X03034800Y02614599D02*
X03031798Y02614204D01*
X03029001Y02613045D01*
X03026598Y02611202D01*
X03024755Y02608800D01*
X03023596Y02606002D01*
X03023201Y02603000D01*
X03023596Y02599998D01*
X03024755Y02597200D01*
X03026598Y02594798D01*
X03029001Y02592955D01*
X03031798Y02591796D01*
X03034800Y02591401D01*
X03037802Y02591796D01*
X03040600Y02592955D01*
X03043002Y02594798D01*
X03044845Y02597200D01*
X03046004Y02599998D01*
X03046399Y02603000D01*
X03046004Y02606002D01*
X03044845Y02608800D01*
X03043002Y02611202D01*
X03040600Y02613045D01*
X03037802Y02614204D01*
X03034800Y02614599D01*
D02*
G37*
G36*
X02854800D02*
X02851798Y02614204D01*
X02849001Y02613045D01*
X02846598Y02611202D01*
X02844755Y02608800D01*
X02843596Y02606002D01*
X02843201Y02603000D01*
X02843596Y02599998D01*
X02844755Y02597200D01*
X02846598Y02594798D01*
X02849001Y02592955D01*
X02851798Y02591796D01*
X02854800Y02591401D01*
X02857802Y02591796D01*
X02860600Y02592955D01*
X02863002Y02594798D01*
X02864845Y02597200D01*
X02866004Y02599998D01*
X02866399Y02603000D01*
X02866004Y02606002D01*
X02864845Y02608800D01*
X02863002Y02611202D01*
X02860600Y02613045D01*
X02857802Y02614204D01*
X02854800Y02614599D01*
D02*
G37*
G36*
X03044340Y02572540D02*
X03038800D01*
Y02567250D01*
X03044340D01*
Y02572540D01*
D02*
G37*
G36*
X03036300D02*
X03030760D01*
Y02567250D01*
X03036300D01*
Y02572540D01*
D02*
G37*
G36*
X02884800Y02604250D02*
D01*
Y02603000D01*
X02876010D01*
Y02595460D01*
X02875392Y02594446D01*
X02873248Y02592303D01*
X02872695Y02591476D01*
X02872501Y02590500D01*
Y02572500D01*
X02872695Y02571524D01*
X02873248Y02570698D01*
X02876300Y02567645D01*
Y02560814D01*
X02876178Y02560733D01*
X02858317Y02542872D01*
X02857709Y02541962D01*
X02857496Y02540889D01*
Y02513519D01*
X02856300D01*
Y02502519D01*
X02857496D01*
Y02501000D01*
X02856300D01*
Y02490000D01*
X02857496D01*
Y02486000D01*
X02856300D01*
Y02475000D01*
X02857496D01*
Y02473504D01*
X02857282Y02473461D01*
X02856207Y02472743D01*
X02855489Y02471668D01*
X02855236Y02470400D01*
Y02460900D01*
X02855489Y02459632D01*
X02856207Y02458557D01*
X02857282Y02457838D01*
X02858550Y02457586D01*
X02862050D01*
X02863318Y02457838D01*
X02864393Y02458557D01*
X02865111Y02459632D01*
X02865363Y02460900D01*
Y02470400D01*
X02865111Y02471668D01*
X02864393Y02472743D01*
X02863318Y02473461D01*
X02863104Y02473504D01*
Y02475000D01*
X02867800D01*
Y02486000D01*
X02863104D01*
Y02490000D01*
X02867800D01*
Y02501000D01*
X02863104D01*
Y02502519D01*
X02867800D01*
Y02513519D01*
X02863104D01*
Y02539728D01*
X02875127Y02551751D01*
X02876300Y02551264D01*
Y02544500D01*
X02879251D01*
Y02543500D01*
X02879445Y02542525D01*
X02879998Y02541698D01*
X02892998Y02528698D01*
X02893824Y02528145D01*
X02894800Y02527951D01*
X02898795D01*
X02902048Y02524698D01*
X02902875Y02524145D01*
X02903850Y02523951D01*
X02973518D01*
X02974005Y02522778D01*
X02962796Y02511569D01*
X02973682Y02500683D01*
Y02498049D01*
X02883300D01*
Y02501000D01*
X02871800D01*
Y02490000D01*
X02883300D01*
Y02492951D01*
X02975194D01*
X02978947Y02489198D01*
X02979774Y02488645D01*
X02980750Y02488451D01*
X02989652D01*
Y02487000D01*
X02990040Y02485049D01*
X02991145Y02483395D01*
X02992799Y02482290D01*
X02994750Y02481902D01*
X02996701Y02482290D01*
X02998355Y02483395D01*
X02999460Y02485049D01*
X02999848Y02487000D01*
Y02495000D01*
X02999460Y02496951D01*
X02998355Y02498605D01*
X02996701Y02499710D01*
X02994750Y02500098D01*
X02992799Y02499710D01*
X02991145Y02498605D01*
X02990040Y02496951D01*
X02989652Y02495000D01*
Y02493549D01*
X02981806D01*
X02978780Y02496575D01*
Y02500683D01*
X02989666Y02511569D01*
X02978457Y02522778D01*
X02978943Y02523951D01*
X02990924D01*
X02991309Y02522681D01*
X02991195Y02522605D01*
X02990090Y02520951D01*
X02989702Y02519000D01*
X02990090Y02517049D01*
X02991195Y02515395D01*
X02992849Y02514290D01*
X02994800Y02513902D01*
X02996751Y02514290D01*
X02998405Y02515395D01*
X02999110Y02516451D01*
X03005744D01*
X03017251Y02504944D01*
Y02499077D01*
X03016545Y02498605D01*
X03015440Y02496951D01*
X03015052Y02495000D01*
Y02487000D01*
X03015440Y02485049D01*
X03016545Y02483395D01*
X03018199Y02482290D01*
X03020150Y02481902D01*
X03022101Y02482290D01*
X03023755Y02483395D01*
X03024860Y02485049D01*
X03025248Y02487000D01*
Y02495000D01*
X03024860Y02496951D01*
X03023755Y02498605D01*
X03022349Y02499544D01*
Y02506000D01*
X03022155Y02506976D01*
X03021602Y02507802D01*
X03008602Y02520802D01*
X03007776Y02521355D01*
X03006800Y02521549D01*
X02999110D01*
X02998405Y02522605D01*
X02998291Y02522681D01*
X02998676Y02523951D01*
X03005250D01*
X03006225Y02524145D01*
X03007052Y02524698D01*
X03012001Y02529647D01*
X03012153Y02529748D01*
X03021602Y02539198D01*
X03022155Y02540025D01*
X03022349Y02541000D01*
Y02541456D01*
X03023755Y02542395D01*
X03024860Y02544049D01*
X03025248Y02546000D01*
Y02554000D01*
X03024860Y02555951D01*
X03023755Y02557605D01*
X03022101Y02558710D01*
X03020150Y02559098D01*
X03018199Y02558710D01*
X03016545Y02557605D01*
X03015440Y02555951D01*
X03015052Y02554000D01*
Y02546000D01*
X03015440Y02544049D01*
X03016545Y02542395D01*
X03016639Y02541444D01*
X03010522Y02535327D01*
X03009349Y02535813D01*
Y02541280D01*
X03009401Y02541290D01*
X03011055Y02542395D01*
X03012160Y02544049D01*
X03012548Y02546000D01*
Y02554000D01*
X03012160Y02555951D01*
X03011055Y02557605D01*
X03009401Y02558710D01*
X03007450Y02559098D01*
X03005499Y02558710D01*
X03003845Y02557605D01*
X03002740Y02555951D01*
X03002352Y02554000D01*
Y02546000D01*
X03002740Y02544049D01*
X03003845Y02542395D01*
X03004251Y02542124D01*
Y02534056D01*
X03002744Y02532549D01*
X02999855D01*
X02999256Y02533669D01*
X02999510Y02534049D01*
X02999898Y02536000D01*
X02999510Y02537951D01*
X02998405Y02539605D01*
X02997435Y02540253D01*
X02997423Y02541773D01*
X02998355Y02542395D01*
X02999460Y02544049D01*
X02999848Y02546000D01*
Y02554000D01*
X02999460Y02555951D01*
X02998355Y02557605D01*
X02996701Y02558710D01*
X02994750Y02559098D01*
X02992799Y02558710D01*
X02991145Y02557605D01*
X02990040Y02555951D01*
X02989652Y02554000D01*
Y02552549D01*
X02987300D01*
Y02557645D01*
X02998853Y02569198D01*
X02999405Y02570024D01*
X02999599Y02571000D01*
Y02572944D01*
X03000655Y02574000D01*
X03012550D01*
Y02588339D01*
X03013820Y02588865D01*
X03016996Y02585688D01*
Y02571500D01*
X03016300D01*
Y02560500D01*
X03023585D01*
X03027850Y02556235D01*
Y02541000D01*
X03037850D01*
Y02559000D01*
X03038929Y02559460D01*
X03044340D01*
Y02564750D01*
X03037550D01*
X03030760D01*
Y02562915D01*
X03029587Y02562429D01*
X03027800Y02564215D01*
Y02571500D01*
X03022604D01*
Y02586850D01*
X03022390Y02587923D01*
X03021783Y02588833D01*
X03015633Y02594983D01*
X03014723Y02595591D01*
X03013650Y02595804D01*
X03013590D01*
Y02603000D01*
X03004800D01*
X02996010D01*
Y02595804D01*
X02975231D01*
X02974158Y02595591D01*
X02973248Y02594983D01*
X02953820Y02575555D01*
X02952550Y02575909D01*
Y02589500D01*
X02937050D01*
Y02584299D01*
X02933775D01*
X02923271Y02594803D01*
X02922444Y02595355D01*
X02921469Y02595549D01*
X02893590D01*
Y02603000D01*
X02884800D01*
Y02604250D01*
D02*
G37*
G36*
X02913369Y02521151D02*
X02910889Y02520825D01*
X02908578Y02519867D01*
X02906594Y02518345D01*
X02905071Y02516360D01*
X02904113Y02514049D01*
X02903787Y02511569D01*
X02903793Y02511523D01*
X02902956Y02510568D01*
X02883300D01*
Y02513519D01*
X02871800D01*
Y02502519D01*
X02883300D01*
Y02505470D01*
X02906075D01*
X02906594Y02504794D01*
X02908578Y02503271D01*
X02910889Y02502314D01*
X02913369Y02501987D01*
X02915849Y02502314D01*
X02918160Y02503271D01*
X02920145Y02504794D01*
X02921667Y02506778D01*
X02922625Y02509089D01*
X02922951Y02511569D01*
X02922625Y02514049D01*
X02921667Y02516360D01*
X02920145Y02518345D01*
X02918160Y02519867D01*
X02915849Y02520825D01*
X02913369Y02521151D01*
D02*
G37*
G36*
X03034100Y02500910D02*
Y02492250D01*
X03039008D01*
Y02495000D01*
X03038539Y02497357D01*
X03037205Y02499355D01*
X03035207Y02500690D01*
X03034100Y02500910D01*
D02*
G37*
G36*
X03031600D02*
X03030493Y02500690D01*
X03028495Y02499355D01*
X03027160Y02497357D01*
X03026692Y02495000D01*
Y02492250D01*
X03031600D01*
Y02500910D01*
D02*
G37*
G36*
X02884340Y02487040D02*
X02878800D01*
Y02481750D01*
X02884340D01*
Y02487040D01*
D02*
G37*
G36*
X02876300D02*
X02870760D01*
Y02481750D01*
X02876300D01*
Y02487040D01*
D02*
G37*
G36*
X03039008Y02489750D02*
X03034100D01*
Y02481090D01*
X03035207Y02481310D01*
X03037205Y02482646D01*
X03038539Y02484643D01*
X03039008Y02487000D01*
Y02489750D01*
D02*
G37*
G36*
X03031600D02*
X03026692D01*
Y02487000D01*
X03027160Y02484643D01*
X03028495Y02482646D01*
X03030493Y02481310D01*
X03031600Y02481090D01*
Y02489750D01*
D02*
G37*
G36*
X02884340Y02479250D02*
X02877550D01*
X02870760D01*
Y02473960D01*
X02874742D01*
X02875110Y02472997D01*
X02875172Y02472690D01*
X02874489Y02471668D01*
X02874236Y02470400D01*
Y02460900D01*
X02874489Y02459632D01*
X02875207Y02458557D01*
X02876282Y02457838D01*
X02877550Y02457586D01*
X02881050D01*
X02882318Y02457838D01*
X02883393Y02458557D01*
X02884111Y02459632D01*
X02884364Y02460900D01*
Y02470400D01*
X02884111Y02471668D01*
X02883429Y02472690D01*
X02883490Y02472997D01*
X02883858Y02473960D01*
X02884340D01*
Y02479250D01*
D02*
G37*
G36*
X03007340Y02392540D02*
X03001800D01*
Y02387250D01*
X03007340D01*
Y02392540D01*
D02*
G37*
G36*
X02999300D02*
X02993760D01*
Y02387250D01*
X02999300D01*
Y02392540D01*
D02*
G37*
G36*
X03034800Y02404599D02*
X03031798Y02404204D01*
X03029001Y02403045D01*
X03026598Y02401202D01*
X03024755Y02398800D01*
X03023596Y02396002D01*
X03023201Y02393000D01*
X03023596Y02389998D01*
X03024755Y02387200D01*
X03026598Y02384798D01*
X03029001Y02382955D01*
X03031798Y02381796D01*
X03034800Y02381401D01*
X03037802Y02381796D01*
X03040600Y02382955D01*
X03043002Y02384798D01*
X03044845Y02387200D01*
X03046004Y02389998D01*
X03046399Y02393000D01*
X03046004Y02396002D01*
X03044845Y02398800D01*
X03043002Y02401202D01*
X03040600Y02403045D01*
X03037802Y02404204D01*
X03034800Y02404599D01*
D02*
G37*
G36*
X02854800D02*
X02851798Y02404204D01*
X02849001Y02403045D01*
X02846598Y02401202D01*
X02844755Y02398800D01*
X02843596Y02396002D01*
X02843201Y02393000D01*
X02843596Y02389998D01*
X02844755Y02387200D01*
X02846598Y02384798D01*
X02849001Y02382955D01*
X02851798Y02381796D01*
X02854800Y02381401D01*
X02857802Y02381796D01*
X02860600Y02382955D01*
X02863002Y02384798D01*
X02864845Y02387200D01*
X02866004Y02389998D01*
X02866399Y02393000D01*
X02866004Y02396002D01*
X02864845Y02398800D01*
X02863002Y02401202D01*
X02860600Y02403045D01*
X02857802Y02404204D01*
X02854800Y02404599D01*
D02*
G37*
G36*
X03007340Y02384750D02*
X03001800D01*
Y02379460D01*
X03007340D01*
Y02384750D01*
D02*
G37*
G36*
X02999300D02*
X02993760D01*
Y02379460D01*
X02999300D01*
Y02384750D01*
D02*
G37*
%LPD*%
G36*
X02997050Y02589500D02*
Y02577605D01*
X02995247Y02575802D01*
X02994695Y02574976D01*
X02994501Y02574000D01*
Y02572056D01*
X02985945Y02563500D01*
X02976300D01*
Y02552549D01*
X02918110D01*
X02917405Y02553605D01*
X02915751Y02554710D01*
X02913800Y02555098D01*
X02911849Y02554710D01*
X02910195Y02553605D01*
X02909090Y02551951D01*
X02908702Y02550000D01*
X02909090Y02548049D01*
X02910195Y02546395D01*
X02911849Y02545290D01*
X02913800Y02544902D01*
X02915751Y02545290D01*
X02917405Y02546395D01*
X02918110Y02547451D01*
X02976300D01*
Y02536500D01*
X02983695D01*
X02985998Y02534198D01*
X02986564Y02533819D01*
X02986320Y02532549D01*
X02906356D01*
X02897349Y02541556D01*
Y02544500D01*
X02900300D01*
Y02556000D01*
X02900300Y02556000D01*
X02900678Y02556085D01*
X02901012Y02556160D01*
X02901397Y02556417D01*
X02901397Y02556417D01*
X02901406Y02556423D01*
X02901922Y02556767D01*
X02910493Y02565339D01*
X02910889Y02565175D01*
X02913369Y02564849D01*
X02915849Y02565175D01*
X02918160Y02566133D01*
X02920145Y02567656D01*
X02921667Y02569640D01*
X02922385Y02571372D01*
X02926352D01*
X02932300Y02565424D01*
Y02558500D01*
X02943800D01*
Y02565785D01*
X02945587Y02567571D01*
X02946760Y02567085D01*
Y02565250D01*
X02953550D01*
X02960340D01*
Y02570540D01*
X02958395D01*
X02957910Y02571713D01*
X02976392Y02590196D01*
X02996068D01*
X02997050Y02589500D01*
D02*
G37*
%LPC*%
G36*
X02960340Y02562750D02*
X02954800D01*
Y02557460D01*
X02960340D01*
Y02562750D01*
D02*
G37*
G36*
X02952300D02*
X02946760D01*
Y02557460D01*
X02952300D01*
Y02562750D01*
D02*
G37*
%LPD*%
D10*
X03015800Y02443000D02*
X03022300D01*
X02981355Y02298075D02*
Y02402055D01*
X02860700Y02429600D02*
X02860875Y02429425D01*
X02888245Y02402055D01*
X02981355D02*
Y02408555D01*
X03015800Y02443000D01*
X02860300Y02430000D02*
Y02441650D01*
X02860050Y02428600D02*
X02860700Y02429250D01*
Y02429600D01*
X02860300Y02430000D02*
X02860700Y02429600D01*
X02888245Y02402055D02*
X02981355D01*
D11*
X03019800Y02568000D02*
X03022300Y02565500D01*
X02860300Y02508019D02*
Y02540889D01*
Y02465650D02*
Y02508019D01*
X02954731Y02572500D02*
X02975231Y02593000D01*
X02946550Y02572500D02*
X02954731D01*
X02938050Y02564000D02*
X02946550Y02572500D01*
X02913369Y02572180D02*
Y02574431D01*
X02899939Y02558750D02*
X02913369Y02572180D01*
X02860300Y02540889D02*
X02878161Y02558750D01*
X03030800Y02554000D02*
Y02557250D01*
X03022050Y02566000D02*
X03030800Y02557250D01*
X03019800Y02568000D02*
Y02586850D01*
X03013650Y02593000D02*
X03019800Y02586850D01*
X02975231Y02593000D02*
X03013650D01*
X02878161Y02558750D02*
X02899939D01*
D12*
X02904800Y02388000D02*
X02905155Y02387645D01*
Y02388000D01*
Y02298075D02*
Y02387645D01*
X02965800Y02564000D02*
X02976231Y02574431D01*
X02953550Y02564000D02*
X02965800D01*
D13*
X02932719Y02581750D02*
X02944800D01*
X02921469Y02593000D02*
X02932719Y02581750D01*
X02877550Y02593000D02*
X02921469D01*
X02875050Y02590500D02*
X02877550Y02593000D01*
X03019800Y02491000D02*
Y02506000D01*
X02994800Y02519000D02*
X03006800D01*
X03019800Y02506000D01*
X02976231Y02495519D02*
Y02511569D01*
Y02495500D02*
Y02495519D01*
X02877550Y02495500D02*
X02976231D01*
X02987800Y02536000D02*
X02994800D01*
X02981800Y02542000D02*
X02987800Y02536000D01*
X02981800Y02542000D02*
Y02542250D01*
X03019800Y02541000D02*
Y02550000D01*
X03010350Y02531550D02*
X03019800Y02541000D01*
X03010300Y02531550D02*
X03010350D01*
X03006800Y02533000D02*
Y02550000D01*
X03005250Y02526500D02*
X03010300Y02531550D01*
X02903850Y02526500D02*
X03005250D01*
X03003800Y02530000D02*
X03006800Y02533000D01*
X02905300Y02530000D02*
X03003800D01*
X02899850Y02530500D02*
X02903850Y02526500D01*
X02894800Y02530500D02*
X02899850D01*
X02894800Y02540500D02*
X02905300Y02530000D01*
X02980800Y02559000D02*
X02985050D01*
X02913800Y02550000D02*
X02990750D01*
X02990750Y02550000D01*
X02985050Y02559000D02*
X02997050Y02571000D01*
Y02574000D01*
X02865800Y02451000D02*
X02873800D01*
X02860300Y02445500D02*
X02865800Y02451000D01*
X02860300Y02441650D02*
Y02445500D01*
X02873800Y02451000D02*
X02879300Y02445500D01*
Y02441650D02*
Y02445500D01*
X02909819Y02508019D02*
X02913369Y02511569D01*
X02877550Y02508019D02*
X02909819D01*
X02997050Y02574000D02*
X03004800Y02581750D01*
X02980750Y02491000D02*
X02990750D01*
X02976231Y02495519D02*
X02980750Y02491000D01*
X02888550Y02578000D02*
X02888550D01*
X02894800Y02571750D01*
Y02565750D02*
Y02571750D01*
X02884800Y02581750D02*
X02888550Y02578000D01*
X02875050Y02572500D02*
Y02590500D01*
Y02572500D02*
X02881800Y02565750D01*
Y02543500D02*
X02894800Y02530500D01*
X02881800Y02543500D02*
Y02550250D01*
X02894800Y02540500D02*
Y02550250D01*
D31*
X02932460Y02301250D02*
D03*
X02954050D02*
D03*
D32*
X02905155Y02298075D02*
D03*
X02981355D02*
D03*
D33*
X02884800Y02604250D02*
D03*
Y02581750D02*
D03*
X02944800D02*
D03*
Y02604250D02*
D03*
X03004800Y02581750D02*
D03*
Y02604250D02*
D03*
D34*
X03007450Y02550000D02*
D03*
X03020150D02*
D03*
X02994750D02*
D03*
X03032850Y02491000D02*
D03*
X03020150D02*
D03*
X03007450D02*
D03*
X02994750D02*
D03*
D35*
X03032850Y02550000D02*
D03*
D36*
X02860300Y02465650D02*
D03*
X02879300D02*
D03*
X02869800Y02441650D02*
D03*
X02879300D02*
D03*
D37*
X02860300D02*
D03*
D38*
X03000550Y02386000D02*
D03*
X02985050D02*
D03*
X02877550Y02480500D02*
D03*
X02862050D02*
D03*
X02938050Y02564000D02*
D03*
X02953550D02*
D03*
X02860050Y02428600D02*
D03*
X02875550D02*
D03*
X02862050Y02495500D02*
D03*
X02877550D02*
D03*
X02862050Y02508019D02*
D03*
X02877550D02*
D03*
X03022050Y02566000D02*
D03*
X03037550D02*
D03*
D39*
X02881800Y02550250D02*
D03*
Y02565750D02*
D03*
X02894800Y02550250D02*
D03*
Y02565750D02*
D03*
X02981800Y02542250D02*
D03*
Y02557750D02*
D03*
D40*
X02927619Y02574431D02*
X02938050Y02564000D01*
X02913369Y02574431D02*
X02927619D01*
X03007800Y02482000D02*
Y02491000D01*
X03022300Y02417600D02*
Y02423500D01*
X03004800Y02479000D02*
X03007800Y02482000D01*
X03004800Y02456350D02*
Y02479000D01*
Y02456000D02*
Y02456350D01*
X03024506D01*
X03003450D02*
X03004800D01*
X03003450D02*
X03003800Y02456000D01*
X03004800D01*
X02969800Y02422700D02*
X03003450Y02456350D01*
X03024506D02*
X03030800Y02450056D01*
Y02432000D02*
Y02450056D01*
X03022300Y02423500D02*
X03030800Y02432000D01*
X02969800Y02418000D02*
Y02422700D01*
X02919800Y02418000D02*
X02969800D01*
D41*
X02875550Y02428600D02*
Y02429750D01*
X02869800Y02435500D02*
X02875550Y02429750D01*
X02869800Y02435500D02*
Y02441650D01*
D42*
X03018300Y02470400D02*
D03*
D43*
Y02445000D02*
D03*
Y02419600D02*
D03*
X02913369Y02511569D02*
D03*
X02976231Y02574431D02*
D03*
X02913369D02*
D03*
X02969800Y02418000D02*
D03*
Y02468000D02*
D03*
X02919800Y02418000D02*
D03*
D44*
X02976231Y02511569D02*
D03*
D45*
X02919800Y02468000D02*
D03*
D46*
X02994800Y02519000D02*
D03*
Y02536000D02*
D03*
X02913800Y02550000D02*
D03*
X03040800Y02579000D02*
D03*
X02888245Y02430750D02*
D03*
X02909800Y02601000D02*
D03*
X02979800D02*
D03*
X02905155Y02388000D02*
D03*
M02*
