G04*
G04 #@! TF.GenerationSoftware,Altium Limited,Altium Designer,19.1.5 (86)*
G04*
G04 Layer_Color=65535*
%FSAX44Y44*%
%MOMM*%
G71*
G01*
G75*
%ADD10C,0.4000*%
%ADD11C,0.2500*%
%ADD12C,0.5000*%
%ADD13C,0.2000*%
%ADD14C,0.0127*%
%ADD15C,0.1500*%
G36*
X02944391Y02460680D02*
X02942424D01*
Y02462925D01*
X02944391D01*
Y02460680D01*
D02*
G37*
G36*
X02953207Y02458760D02*
X02953462Y02458737D01*
X02953763Y02458690D01*
X02954086Y02458621D01*
X02954434Y02458528D01*
X02954757Y02458389D01*
X02954804Y02458366D01*
X02954896Y02458320D01*
X02955058Y02458251D01*
X02955243Y02458135D01*
X02955475Y02457996D01*
X02955683Y02457811D01*
X02955891Y02457626D01*
X02956076Y02457394D01*
X02956100Y02457371D01*
X02956146Y02457279D01*
X02956215Y02457163D01*
X02956331Y02457001D01*
X02956423Y02456770D01*
X02956516Y02456538D01*
X02956632Y02456261D01*
X02956701Y02455960D01*
Y02455937D01*
X02956724Y02455844D01*
X02956747Y02455705D01*
X02956771Y02455520D01*
Y02455242D01*
X02956794Y02454919D01*
X02956817Y02454525D01*
Y02454039D01*
Y02446912D01*
X02954850D01*
Y02453947D01*
Y02453970D01*
Y02453993D01*
Y02454155D01*
Y02454363D01*
X02954827Y02454618D01*
X02954804Y02454919D01*
X02954757Y02455219D01*
X02954688Y02455497D01*
X02954619Y02455751D01*
Y02455775D01*
X02954572Y02455844D01*
X02954503Y02455960D01*
X02954434Y02456099D01*
X02954318Y02456237D01*
X02954179Y02456399D01*
X02953994Y02456561D01*
X02953786Y02456700D01*
X02953763Y02456723D01*
X02953693Y02456770D01*
X02953554Y02456816D01*
X02953392Y02456885D01*
X02953207Y02456955D01*
X02952976Y02457024D01*
X02952698Y02457047D01*
X02952420Y02457070D01*
X02952305D01*
X02952212Y02457047D01*
X02951981Y02457024D01*
X02951680Y02456978D01*
X02951356Y02456862D01*
X02950986Y02456723D01*
X02950616Y02456538D01*
X02950268Y02456261D01*
X02950222Y02456214D01*
X02950129Y02456099D01*
X02950060Y02456006D01*
X02949991Y02455890D01*
X02949898Y02455751D01*
X02949829Y02455589D01*
X02949736Y02455404D01*
X02949644Y02455173D01*
X02949574Y02454919D01*
X02949505Y02454641D01*
X02949459Y02454340D01*
X02949412Y02454016D01*
X02949366Y02453623D01*
Y02453229D01*
Y02446912D01*
X02947399D01*
Y02458528D01*
X02949158D01*
Y02456862D01*
X02949181Y02456885D01*
X02949227Y02456955D01*
X02949297Y02457047D01*
X02949389Y02457163D01*
X02949528Y02457302D01*
X02949690Y02457464D01*
X02949875Y02457649D01*
X02950107Y02457834D01*
X02950338Y02457996D01*
X02950616Y02458181D01*
X02950916Y02458343D01*
X02951240Y02458482D01*
X02951610Y02458598D01*
X02951981Y02458690D01*
X02952397Y02458760D01*
X02952837Y02458783D01*
X02953022D01*
X02953207Y02458760D01*
D02*
G37*
G36*
X02964939Y02446727D02*
Y02446704D01*
X02964915Y02446635D01*
X02964869Y02446542D01*
X02964823Y02446426D01*
X02964754Y02446264D01*
X02964684Y02446079D01*
X02964522Y02445686D01*
X02964360Y02445246D01*
X02964175Y02444807D01*
X02963990Y02444413D01*
X02963897Y02444251D01*
X02963828Y02444089D01*
X02963805Y02444043D01*
X02963735Y02443927D01*
X02963620Y02443765D01*
X02963481Y02443557D01*
X02963296Y02443326D01*
X02963087Y02443094D01*
X02962879Y02442863D01*
X02962625Y02442678D01*
X02962602Y02442655D01*
X02962509Y02442608D01*
X02962370Y02442539D01*
X02962162Y02442446D01*
X02961931Y02442354D01*
X02961653Y02442284D01*
X02961352Y02442238D01*
X02961005Y02442215D01*
X02960912D01*
X02960797Y02442238D01*
X02960635D01*
X02960450Y02442284D01*
X02960241Y02442331D01*
X02960010Y02442377D01*
X02959756Y02442469D01*
X02959547Y02444297D01*
X02959570D01*
X02959663Y02444274D01*
X02959779Y02444251D01*
X02959918Y02444205D01*
X02960288Y02444135D01*
X02960658Y02444112D01*
X02960774D01*
X02960889Y02444135D01*
X02961028D01*
X02961375Y02444205D01*
X02961537Y02444274D01*
X02961699Y02444344D01*
X02961722D01*
X02961769Y02444390D01*
X02961838Y02444436D01*
X02961931Y02444506D01*
X02962139Y02444691D01*
X02962324Y02444945D01*
Y02444969D01*
X02962370Y02445015D01*
X02962417Y02445107D01*
X02962463Y02445246D01*
X02962556Y02445431D01*
X02962648Y02445709D01*
X02962787Y02446033D01*
X02962926Y02446426D01*
Y02446449D01*
X02962972Y02446542D01*
X02963018Y02446704D01*
X02963111Y02446912D01*
X02958714Y02458528D01*
X02960797D01*
X02963226Y02451795D01*
Y02451772D01*
X02963250Y02451748D01*
X02963273Y02451679D01*
X02963296Y02451563D01*
X02963342Y02451448D01*
X02963388Y02451309D01*
X02963504Y02450985D01*
X02963643Y02450591D01*
X02963782Y02450129D01*
X02963921Y02449643D01*
X02964059Y02449111D01*
Y02449134D01*
X02964083Y02449180D01*
X02964106Y02449249D01*
X02964129Y02449342D01*
X02964152Y02449458D01*
X02964198Y02449596D01*
X02964291Y02449944D01*
X02964406Y02450337D01*
X02964568Y02450800D01*
X02964707Y02451263D01*
X02964893Y02451748D01*
X02967391Y02458528D01*
X02969359D01*
X02964939Y02446727D01*
D02*
G37*
G36*
X02944391Y02446912D02*
X02942424D01*
Y02458528D01*
X02944391D01*
Y02446912D01*
D02*
G37*
G36*
X02940480Y02461027D02*
X02935204D01*
Y02446912D01*
X02933076D01*
Y02461027D01*
X02927800D01*
Y02462925D01*
X02940480D01*
Y02461027D01*
D02*
G37*
G36*
X02955243Y02438989D02*
X02955452D01*
X02955938Y02438966D01*
X02956447Y02438897D01*
X02957002Y02438827D01*
X02957511Y02438712D01*
X02957766Y02438642D01*
X02957974Y02438573D01*
X02957997D01*
X02958020Y02438550D01*
X02958159Y02438480D01*
X02958367Y02438388D01*
X02958622Y02438226D01*
X02958900Y02438017D01*
X02959200Y02437740D01*
X02959478Y02437416D01*
X02959756Y02437046D01*
Y02437023D01*
X02959779Y02436999D01*
X02959871Y02436861D01*
X02959964Y02436629D01*
X02960103Y02436328D01*
X02960218Y02435981D01*
X02960334Y02435565D01*
X02960403Y02435125D01*
X02960427Y02434639D01*
Y02434616D01*
Y02434570D01*
Y02434477D01*
X02960403Y02434362D01*
Y02434200D01*
X02960380Y02434037D01*
X02960288Y02433644D01*
X02960149Y02433181D01*
X02959964Y02432695D01*
X02959686Y02432209D01*
X02959501Y02431978D01*
X02959316Y02431747D01*
X02959293Y02431724D01*
X02959270Y02431700D01*
X02959200Y02431631D01*
X02959108Y02431562D01*
X02958992Y02431469D01*
X02958853Y02431376D01*
X02958668Y02431261D01*
X02958483Y02431122D01*
X02958252Y02431006D01*
X02957997Y02430891D01*
X02957719Y02430752D01*
X02957419Y02430636D01*
X02957072Y02430543D01*
X02956724Y02430428D01*
X02956331Y02430358D01*
X02955914Y02430289D01*
X02955961Y02430266D01*
X02956053Y02430220D01*
X02956192Y02430127D01*
X02956377Y02430034D01*
X02956794Y02429780D01*
X02957002Y02429618D01*
X02957187Y02429479D01*
X02957233Y02429433D01*
X02957349Y02429317D01*
X02957534Y02429132D01*
X02957766Y02428901D01*
X02958020Y02428577D01*
X02958321Y02428230D01*
X02958622Y02427813D01*
X02958946Y02427350D01*
X02961699Y02423000D01*
X02959061D01*
X02956956Y02426332D01*
Y02426355D01*
X02956909Y02426402D01*
X02956863Y02426471D01*
X02956794Y02426564D01*
X02956632Y02426818D01*
X02956423Y02427142D01*
X02956169Y02427489D01*
X02955914Y02427859D01*
X02955660Y02428206D01*
X02955428Y02428530D01*
X02955405Y02428553D01*
X02955336Y02428646D01*
X02955220Y02428785D01*
X02955058Y02428947D01*
X02954711Y02429294D01*
X02954526Y02429456D01*
X02954341Y02429595D01*
X02954318Y02429618D01*
X02954272Y02429641D01*
X02954179Y02429687D01*
X02954040Y02429757D01*
X02953901Y02429826D01*
X02953739Y02429895D01*
X02953369Y02430011D01*
X02953346D01*
X02953300Y02430034D01*
X02953207D01*
X02953091Y02430058D01*
X02952929Y02430081D01*
X02952744D01*
X02952490Y02430104D01*
X02949759D01*
Y02423000D01*
X02947631D01*
Y02439012D01*
X02955058D01*
X02955243Y02438989D01*
D02*
G37*
G36*
X02943859Y02423000D02*
X02941730D01*
Y02439012D01*
X02943859D01*
Y02423000D01*
D02*
G37*
G36*
X02938629Y02437115D02*
X02929929D01*
Y02432163D01*
X02937449D01*
Y02430266D01*
X02929929D01*
Y02423000D01*
X02927800D01*
Y02439012D01*
X02938629D01*
Y02437115D01*
D02*
G37*
%LPC*%
G36*
X02954804Y02437231D02*
X02949759D01*
Y02431932D01*
X02954526D01*
X02954804Y02431955D01*
X02955128Y02431978D01*
X02955498Y02432001D01*
X02955868Y02432047D01*
X02956238Y02432117D01*
X02956562Y02432209D01*
X02956609Y02432233D01*
X02956701Y02432279D01*
X02956840Y02432348D01*
X02957025Y02432441D01*
X02957233Y02432580D01*
X02957442Y02432742D01*
X02957650Y02432950D01*
X02957812Y02433181D01*
X02957835Y02433204D01*
X02957881Y02433297D01*
X02957951Y02433436D01*
X02958043Y02433621D01*
X02958112Y02433829D01*
X02958182Y02434061D01*
X02958228Y02434338D01*
X02958252Y02434616D01*
Y02434639D01*
Y02434662D01*
X02958228Y02434801D01*
X02958205Y02435009D01*
X02958159Y02435287D01*
X02958043Y02435565D01*
X02957904Y02435889D01*
X02957696Y02436190D01*
X02957419Y02436490D01*
X02957372Y02436513D01*
X02957256Y02436606D01*
X02957072Y02436722D01*
X02956771Y02436861D01*
X02956423Y02436999D01*
X02955961Y02437115D01*
X02955428Y02437208D01*
X02954804Y02437231D01*
D02*
G37*
%LPD*%
D10*
X03001028Y02470400D02*
G03*
X03001028Y02470400I-00001270J00000000D01*
G01*
D11*
X03043300Y02549500D02*
G03*
X03043300Y02549500I-00001250J00000000D01*
G01*
X02851800Y02441650D02*
G03*
X02851800Y02441650I-00001250J00000000D01*
G01*
D12*
X02892300Y02468000D02*
G03*
X02892300Y02468000I-00002500J00000000D01*
G01*
X02876800Y02618000D02*
X02892800D01*
X02936800D02*
X02952800D01*
X02996800D02*
X03012800D01*
D13*
X02892829Y02413017D02*
G03*
X02892829Y02472983I00051971J00029983D01*
G01*
X03005600Y02406900D02*
Y02483100D01*
Y02406900D02*
X03031000D01*
Y02483100D01*
X03005600D02*
X03031000D01*
X02875400Y02613190D02*
X02884800D01*
X02875400Y02572810D02*
Y02613190D01*
Y02572810D02*
X02894200D01*
Y02613190D01*
X02884800D02*
X02894200D01*
X03038800Y02497500D02*
X03042800D01*
X02984800D02*
X02988800D01*
X03038800Y02543500D02*
X03042800D01*
Y02497500D02*
Y02543500D01*
X02866800Y02462650D02*
X02872800D01*
X02853800Y02444650D02*
Y02462650D01*
X02885800Y02444650D02*
Y02462650D01*
X02978300Y02392500D02*
X03007300D01*
X02978300Y02379500D02*
Y02392500D01*
Y02379500D02*
X03007300D01*
Y02392500D01*
X02892800Y02413000D02*
Y02472983D01*
X02855300Y02487000D02*
X02884300D01*
X02855300Y02474000D02*
Y02487000D01*
Y02474000D02*
X02884300D01*
Y02487000D01*
X02855300Y02529500D02*
Y02542500D01*
X02884300D01*
Y02529500D02*
Y02542500D01*
X02855300Y02529500D02*
X02884300D01*
X02855300Y02543500D02*
Y02556500D01*
X02884300D01*
Y02543500D02*
Y02556500D01*
X02855300Y02543500D02*
X02884300D01*
X02957924Y02554460D02*
Y02567460D01*
X02928924Y02554460D02*
X02957924D01*
X02928924D02*
Y02567460D01*
X02957924D01*
X02882300Y02422100D02*
Y02435100D01*
X02853300Y02422100D02*
X02882300D01*
X02853300D02*
Y02435100D01*
X02882300D01*
X02855300Y02515500D02*
Y02528500D01*
X02884300D01*
Y02515500D02*
Y02528500D01*
X02855300Y02515500D02*
X02884300D01*
X02944800Y02613190D02*
X02954200D01*
Y02572810D02*
Y02613190D01*
X02935400Y02572810D02*
X02954200D01*
X02935400D02*
Y02613190D01*
X02944800D01*
X03004800D02*
X03014200D01*
Y02572810D02*
Y02613190D01*
X02995400Y02572810D02*
X03014200D01*
X02995400D02*
Y02613190D01*
X03004800D01*
X02884300Y02489000D02*
Y02502000D01*
X02855300Y02489000D02*
X02884300D01*
X02855300D02*
Y02502000D01*
X02884300D01*
Y02501519D02*
Y02514519D01*
X02855300Y02501519D02*
X02884300D01*
X02855300D02*
Y02514519D01*
X02884300D01*
X03044300Y02559500D02*
Y02572500D01*
X03015300Y02559500D02*
X03044300D01*
X03015300D02*
Y02572500D01*
X03044300D01*
D14*
X03054800Y02393000D02*
G03*
X03054800Y02393000I-00020000J00000000D01*
G01*
X02874800D02*
G03*
X02874800Y02393000I-00020000J00000000D01*
G01*
X03054800Y02603000D02*
G03*
X03054800Y02603000I-00020000J00000000D01*
G01*
X02874800D02*
G03*
X02874800Y02603000I-00020000J00000000D01*
G01*
D15*
X02891465Y02483831D02*
X02890299Y02484998D01*
X02887966D01*
X02886800Y02483831D01*
Y02479166D01*
X02887966Y02478000D01*
X02890299D01*
X02891465Y02479166D01*
X02897296Y02478000D02*
Y02484998D01*
X02893798Y02481499D01*
X02898463D01*
X02886965Y02399977D02*
X02885799Y02401143D01*
X02883466D01*
X02882300Y02399977D01*
Y02398810D01*
X02883466Y02397644D01*
X02885799D01*
X02886965Y02396478D01*
Y02395311D01*
X02885799Y02394145D01*
X02883466D01*
X02882300Y02395311D01*
X02889298Y02401143D02*
Y02394145D01*
X02891630Y02396478D01*
X02893963Y02394145D01*
Y02401143D01*
X02896295Y02394145D02*
X02898628D01*
X02897462D01*
Y02401143D01*
X02896295Y02399977D01*
X02994800Y02395000D02*
Y02401998D01*
X02998299D01*
X02999465Y02400831D01*
Y02398499D01*
X02998299Y02397333D01*
X02994800D01*
X02997133D02*
X02999465Y02395000D01*
X03006463Y02401998D02*
X03004130Y02400831D01*
X03001798Y02398499D01*
Y02396166D01*
X03002964Y02395000D01*
X03005297D01*
X03006463Y02396166D01*
Y02397333D01*
X03005297Y02398499D01*
X03001798D01*
X02886800Y02533000D02*
Y02539998D01*
X02890299D01*
X02891465Y02538831D01*
Y02536499D01*
X02890299Y02535333D01*
X02886800D01*
X02889133D02*
X02891465Y02533000D01*
X02897296D02*
Y02539998D01*
X02893798Y02536499D01*
X02898463D01*
X02892798Y02458000D02*
X02886966D01*
X02885800Y02456834D01*
Y02454501D01*
X02886966Y02453335D01*
X02892798D01*
X02891631Y02451002D02*
X02892798Y02449836D01*
Y02447503D01*
X02891631Y02446337D01*
X02890465D01*
X02889299Y02447503D01*
Y02448670D01*
Y02447503D01*
X02888133Y02446337D01*
X02886966D01*
X02885800Y02447503D01*
Y02449836D01*
X02886966Y02451002D01*
X03049048Y02491500D02*
X03043216D01*
X03042050Y02490334D01*
Y02488001D01*
X03043216Y02486835D01*
X03049048D01*
X03042050Y02479837D02*
Y02484502D01*
X03046715Y02479837D01*
X03047881D01*
X03049048Y02481003D01*
Y02483336D01*
X03047881Y02484502D01*
X02886800Y02547000D02*
Y02553998D01*
X02890299D01*
X02891465Y02552832D01*
Y02550499D01*
X02890299Y02549333D01*
X02886800D01*
X02889133D02*
X02891465Y02547000D01*
X02898463Y02553998D02*
X02893798D01*
Y02550499D01*
X02896130Y02551665D01*
X02897296D01*
X02898463Y02550499D01*
Y02548166D01*
X02897296Y02547000D01*
X02894964D01*
X02893798Y02548166D01*
X02886800Y02521000D02*
Y02527998D01*
X02890299D01*
X02891465Y02526832D01*
Y02524499D01*
X02890299Y02523333D01*
X02886800D01*
X02889133D02*
X02891465Y02521000D01*
X02893798Y02526832D02*
X02894964Y02527998D01*
X02897296D01*
X02898463Y02526832D01*
Y02525665D01*
X02897296Y02524499D01*
X02896130D01*
X02897296D01*
X02898463Y02523333D01*
Y02522166D01*
X02897296Y02521000D01*
X02894964D01*
X02893798Y02522166D01*
X02886800Y02492250D02*
Y02499248D01*
X02890299D01*
X02891465Y02498081D01*
Y02495749D01*
X02890299Y02494583D01*
X02886800D01*
X02889133D02*
X02891465Y02492250D01*
X02898463D02*
X02893798D01*
X02898463Y02496915D01*
Y02498081D01*
X02897296Y02499248D01*
X02894964D01*
X02893798Y02498081D01*
X02886800Y02505769D02*
Y02512767D01*
X02890299D01*
X02891465Y02511600D01*
Y02509268D01*
X02890299Y02508102D01*
X02886800D01*
X02889133D02*
X02891465Y02505769D01*
X02893798D02*
X02896130D01*
X02894964D01*
Y02512767D01*
X02893798Y02511600D01*
X02901198Y02613190D02*
X02894200D01*
Y02608525D01*
X02901198Y02601527D02*
Y02606192D01*
X02894200D01*
Y02601527D01*
X02897699Y02606192D02*
Y02603860D01*
X02901198Y02599195D02*
X02894200D01*
Y02595695D01*
X02895366Y02594529D01*
X02900031D01*
X02901198Y02595695D01*
Y02599195D01*
X02894200Y02592197D02*
Y02589864D01*
Y02591031D01*
X02901198D01*
X02900031Y02592197D01*
X02961198Y02613190D02*
X02954200D01*
Y02608525D01*
X02961198Y02601527D02*
Y02606192D01*
X02954200D01*
Y02601527D01*
X02957699Y02606192D02*
Y02603860D01*
X02961198Y02599195D02*
X02954200D01*
Y02595695D01*
X02955366Y02594529D01*
X02960031D01*
X02961198Y02595695D01*
Y02599195D01*
X02954200Y02587532D02*
Y02592197D01*
X02958865Y02587532D01*
X02960031D01*
X02961198Y02588698D01*
Y02591031D01*
X02960031Y02592197D01*
X02994298Y02613190D02*
X02987300D01*
Y02608525D01*
X02994298Y02601527D02*
Y02606192D01*
X02987300D01*
Y02601527D01*
X02990799Y02606192D02*
Y02603860D01*
X02994298Y02599195D02*
X02987300D01*
Y02595695D01*
X02988466Y02594529D01*
X02993131D01*
X02994298Y02595695D01*
Y02599195D01*
X02993131Y02592197D02*
X02994298Y02591031D01*
Y02588698D01*
X02993131Y02587532D01*
X02991965D01*
X02990799Y02588698D01*
Y02589864D01*
Y02588698D01*
X02989633Y02587532D01*
X02988466D01*
X02987300Y02588698D01*
Y02591031D01*
X02988466Y02592197D01*
X02887469Y02337415D02*
X02886302Y02336249D01*
Y02333916D01*
X02887469Y02332750D01*
X02892134D01*
X02893300Y02333916D01*
Y02336249D01*
X02892134Y02337415D01*
X02886302Y02343247D02*
Y02340914D01*
X02887469Y02339748D01*
X02892134D01*
X02893300Y02340914D01*
Y02343247D01*
X02892134Y02344413D01*
X02887469D01*
X02886302Y02343247D01*
X02893300Y02346745D02*
X02886302D01*
X02893300Y02351411D01*
X02886302D01*
X02893300Y02358408D02*
Y02353743D01*
X02888635Y02358408D01*
X02887469D01*
X02886302Y02357242D01*
Y02354910D01*
X02887469Y02353743D01*
X03033969Y02456665D02*
X03032802Y02455499D01*
Y02453166D01*
X03033969Y02452000D01*
X03038634D01*
X03039800Y02453166D01*
Y02455499D01*
X03038634Y02456665D01*
X03032802Y02462497D02*
Y02460164D01*
X03033969Y02458998D01*
X03038634D01*
X03039800Y02460164D01*
Y02462497D01*
X03038634Y02463663D01*
X03033969D01*
X03032802Y02462497D01*
X03039800Y02465995D02*
X03032802D01*
X03039800Y02470661D01*
X03032802D01*
X03039800Y02472993D02*
Y02475326D01*
Y02474160D01*
X03032802D01*
X03033969Y02472993D01*
X02869465Y02418831D02*
X02868299Y02419998D01*
X02865966D01*
X02864800Y02418831D01*
Y02414166D01*
X02865966Y02413000D01*
X02868299D01*
X02869465Y02414166D01*
X02871798Y02418831D02*
X02872964Y02419998D01*
X02875297D01*
X02876463Y02418831D01*
Y02417665D01*
X02875297Y02416499D01*
X02874130D01*
X02875297D01*
X02876463Y02415333D01*
Y02414166D01*
X02875297Y02413000D01*
X02872964D01*
X02871798Y02414166D01*
X03021465Y02580581D02*
X03020299Y02581748D01*
X03017966D01*
X03016800Y02580581D01*
Y02575916D01*
X03017966Y02574750D01*
X03020299D01*
X03021465Y02575916D01*
X03028463Y02574750D02*
X03023798D01*
X03028463Y02579415D01*
Y02580581D01*
X03027296Y02581748D01*
X03024964D01*
X03023798Y02580581D01*
X02954465Y02548331D02*
X02953299Y02549498D01*
X02950966D01*
X02949800Y02548331D01*
Y02543666D01*
X02950966Y02542500D01*
X02953299D01*
X02954465Y02543666D01*
X02956798Y02542500D02*
X02959130D01*
X02957964D01*
Y02549498D01*
X02956798Y02548331D01*
M02*
