G04*
G04 #@! TF.GenerationSoftware,Altium Limited,Altium Designer,19.1.5 (86)*
G04*
G04 Layer_Color=32896*
%FSAX44Y44*%
%MOMM*%
G71*
G01*
G75*
%ADD13C,0.2000*%
%ADD15C,0.1500*%
G36*
X02926940Y02605848D02*
X02927314Y02605626D01*
X02927661Y02605446D01*
X02927966Y02605307D01*
X02928119Y02605252D01*
X02928244Y02605196D01*
X02928355Y02605155D01*
X02928452Y02605113D01*
X02928521Y02605085D01*
X02928590Y02605071D01*
X02928618Y02605058D01*
X02928632D01*
X02928396Y02603837D01*
X02928063Y02603962D01*
X02927744Y02604087D01*
X02927467Y02604212D01*
X02927231Y02604337D01*
X02927037Y02604461D01*
X02926885Y02604544D01*
X02926829Y02604586D01*
X02926788Y02604600D01*
X02926774Y02604628D01*
X02926760D01*
Y02598290D01*
X02928493D01*
Y02597166D01*
X02923709D01*
Y02598290D01*
X02925373D01*
Y02606111D01*
X02926566D01*
X02926940Y02605848D01*
D02*
G37*
G36*
X02954455Y02601785D02*
X02957256Y02597166D01*
X02955620D01*
X02953928Y02600051D01*
X02953859Y02600176D01*
X02953803Y02600287D01*
X02953748Y02600384D01*
X02953706Y02600467D01*
X02953678Y02600536D01*
X02953651Y02600578D01*
X02953623Y02600606D01*
Y02600620D01*
X02953581Y02600536D01*
X02953526Y02600453D01*
X02953498Y02600384D01*
X02953484Y02600370D01*
Y02600356D01*
X02953401Y02600218D01*
X02953359Y02600121D01*
X02953332Y02600065D01*
X02953318Y02600051D01*
X02951640Y02597166D01*
X02949837D01*
X02952666Y02601854D01*
X02949976Y02606195D01*
X02951626D01*
X02953110Y02603657D01*
X02953221Y02603449D01*
X02953304Y02603296D01*
X02953373Y02603185D01*
X02953415Y02603102D01*
X02953443Y02603047D01*
X02953456Y02603005D01*
X02953470Y02602991D01*
X02953526Y02603088D01*
X02953581Y02603185D01*
X02953637Y02603268D01*
X02953651Y02603282D01*
Y02603296D01*
X02953734Y02603449D01*
X02953789Y02603560D01*
X02953831Y02603629D01*
X02953845Y02603643D01*
X02955287Y02606195D01*
X02957076D01*
X02954455Y02601785D01*
D02*
G37*
G36*
X02932834Y02606181D02*
X02933098Y02606139D01*
X02933347Y02606070D01*
X02933569Y02605987D01*
X02933791Y02605876D01*
X02933985Y02605737D01*
X02934166Y02605585D01*
X02934332Y02605418D01*
X02934498Y02605238D01*
X02934637Y02605044D01*
X02934887Y02604628D01*
X02935081Y02604184D01*
X02935247Y02603726D01*
X02935372Y02603268D01*
X02935469Y02602825D01*
X02935539Y02602409D01*
X02935566Y02602214D01*
X02935580Y02602034D01*
X02935608Y02601868D01*
X02935622Y02601715D01*
Y02601577D01*
X02935636Y02601465D01*
Y02601382D01*
Y02601313D01*
Y02601271D01*
Y02601258D01*
X02935622Y02600883D01*
X02935608Y02600536D01*
X02935566Y02600218D01*
X02935525Y02599912D01*
X02935469Y02599635D01*
X02935414Y02599372D01*
X02935358Y02599136D01*
X02935289Y02598928D01*
X02935220Y02598747D01*
X02935164Y02598581D01*
X02935109Y02598456D01*
X02935053Y02598345D01*
X02935012Y02598248D01*
X02934970Y02598193D01*
X02934956Y02598151D01*
X02934942Y02598137D01*
X02934803Y02597943D01*
X02934637Y02597763D01*
X02934471Y02597610D01*
X02934304Y02597485D01*
X02934124Y02597375D01*
X02933944Y02597278D01*
X02933763Y02597208D01*
X02933583Y02597139D01*
X02933430Y02597097D01*
X02933278Y02597055D01*
X02933139Y02597042D01*
X02933015Y02597014D01*
X02932917D01*
X02932848Y02597000D01*
X02932779D01*
X02932571Y02597014D01*
X02932377Y02597028D01*
X02932016Y02597111D01*
X02931697Y02597222D01*
X02931433Y02597361D01*
X02931323Y02597430D01*
X02931226Y02597499D01*
X02931142Y02597555D01*
X02931059Y02597610D01*
X02931004Y02597652D01*
X02930962Y02597693D01*
X02930948Y02597707D01*
X02930934Y02597721D01*
X02930782Y02597888D01*
X02930657Y02598082D01*
X02930532Y02598262D01*
X02930435Y02598456D01*
X02930352Y02598664D01*
X02930282Y02598858D01*
X02930186Y02599247D01*
X02930144Y02599413D01*
X02930116Y02599579D01*
X02930102Y02599732D01*
X02930088Y02599857D01*
X02930074Y02599968D01*
Y02600037D01*
Y02600093D01*
Y02600107D01*
X02930102Y02600550D01*
X02930157Y02600952D01*
X02930255Y02601285D01*
X02930296Y02601438D01*
X02930352Y02601577D01*
X02930407Y02601701D01*
X02930449Y02601812D01*
X02930504Y02601909D01*
X02930546Y02601979D01*
X02930574Y02602034D01*
X02930602Y02602076D01*
X02930629Y02602104D01*
Y02602118D01*
X02930754Y02602270D01*
X02930893Y02602409D01*
X02931031Y02602520D01*
X02931170Y02602617D01*
X02931323Y02602714D01*
X02931461Y02602783D01*
X02931753Y02602880D01*
X02932002Y02602950D01*
X02932113Y02602963D01*
X02932210Y02602977D01*
X02932279Y02602991D01*
X02932390D01*
X02932612Y02602977D01*
X02932820Y02602950D01*
X02933000Y02602894D01*
X02933181Y02602825D01*
X02933347Y02602755D01*
X02933500Y02602658D01*
X02933625Y02602575D01*
X02933749Y02602478D01*
X02933860Y02602381D01*
X02933944Y02602284D01*
X02934027Y02602187D01*
X02934096Y02602118D01*
X02934138Y02602048D01*
X02934179Y02601992D01*
X02934193Y02601965D01*
X02934207Y02601951D01*
X02934193Y02602242D01*
X02934179Y02602506D01*
X02934152Y02602755D01*
X02934110Y02602991D01*
X02934069Y02603199D01*
X02934027Y02603407D01*
X02933971Y02603588D01*
X02933916Y02603768D01*
X02933791Y02604073D01*
X02933666Y02604323D01*
X02933514Y02604531D01*
X02933375Y02604697D01*
X02933222Y02604822D01*
X02933084Y02604919D01*
X02932959Y02604988D01*
X02932834Y02605044D01*
X02932737Y02605071D01*
X02932668Y02605085D01*
X02932599D01*
X02932460Y02605071D01*
X02932349Y02605044D01*
X02932238Y02605002D01*
X02932141Y02604947D01*
X02931974Y02604808D01*
X02931850Y02604655D01*
X02931766Y02604489D01*
X02931711Y02604350D01*
X02931697Y02604295D01*
X02931683Y02604253D01*
X02931669Y02604225D01*
Y02604212D01*
X02930255Y02604738D01*
X02930380Y02605002D01*
X02930518Y02605224D01*
X02930685Y02605418D01*
X02930865Y02605585D01*
X02931059Y02605723D01*
X02931239Y02605834D01*
X02931433Y02605931D01*
X02931628Y02606014D01*
X02931808Y02606070D01*
X02931988Y02606111D01*
X02932141Y02606153D01*
X02932279Y02606167D01*
X02932390Y02606181D01*
X02932487Y02606195D01*
X02932557D01*
X02932834Y02606181D01*
D02*
G37*
G36*
X02946578D02*
X02946772Y02606167D01*
X02947133Y02606084D01*
X02947451Y02605959D01*
X02947715Y02605834D01*
X02947826Y02605765D01*
X02947937Y02605695D01*
X02948020Y02605626D01*
X02948090Y02605571D01*
X02948145Y02605529D01*
X02948187Y02605487D01*
X02948200Y02605474D01*
X02948214Y02605460D01*
X02948367Y02605293D01*
X02948492Y02605113D01*
X02948603Y02604933D01*
X02948700Y02604738D01*
X02948769Y02604531D01*
X02948838Y02604337D01*
X02948936Y02603962D01*
X02948977Y02603782D01*
X02949005Y02603615D01*
X02949019Y02603463D01*
X02949033Y02603338D01*
X02949046Y02603241D01*
Y02603158D01*
Y02603102D01*
Y02603088D01*
X02949033Y02602866D01*
X02949019Y02602658D01*
X02948949Y02602256D01*
X02948852Y02601923D01*
X02948797Y02601771D01*
X02948741Y02601632D01*
X02948686Y02601507D01*
X02948644Y02601396D01*
X02948589Y02601313D01*
X02948547Y02601230D01*
X02948506Y02601174D01*
X02948478Y02601133D01*
X02948450Y02601105D01*
Y02601091D01*
X02948325Y02600939D01*
X02948187Y02600800D01*
X02948034Y02600689D01*
X02947895Y02600592D01*
X02947743Y02600509D01*
X02947590Y02600425D01*
X02947313Y02600328D01*
X02947063Y02600259D01*
X02946952Y02600245D01*
X02946855Y02600231D01*
X02946786Y02600218D01*
X02946675D01*
X02946453Y02600231D01*
X02946245Y02600259D01*
X02946051Y02600315D01*
X02945870Y02600384D01*
X02945704Y02600467D01*
X02945551Y02600550D01*
X02945427Y02600647D01*
X02945302Y02600758D01*
X02945205Y02600855D01*
X02945108Y02600952D01*
X02945038Y02601036D01*
X02944983Y02601119D01*
X02944927Y02601188D01*
X02944900Y02601244D01*
X02944873Y02601271D01*
X02944886Y02600994D01*
X02944900Y02600731D01*
X02944927Y02600481D01*
X02944955Y02600245D01*
X02944983Y02600037D01*
X02945011Y02599843D01*
X02945052Y02599663D01*
X02945094Y02599510D01*
X02945121Y02599372D01*
X02945163Y02599247D01*
X02945191Y02599149D01*
X02945219Y02599066D01*
X02945246Y02599011D01*
X02945260Y02598969D01*
X02945274Y02598942D01*
Y02598928D01*
X02945357Y02598789D01*
X02945441Y02598664D01*
X02945524Y02598553D01*
X02945621Y02598456D01*
X02945732Y02598373D01*
X02945829Y02598304D01*
X02946023Y02598206D01*
X02946203Y02598151D01*
X02946342Y02598123D01*
X02946397Y02598109D01*
X02946481D01*
X02946606Y02598123D01*
X02946717Y02598151D01*
X02946827Y02598193D01*
X02946924Y02598248D01*
X02947077Y02598387D01*
X02947202Y02598539D01*
X02947299Y02598692D01*
X02947368Y02598831D01*
X02947382Y02598886D01*
X02947396Y02598928D01*
X02947410Y02598955D01*
Y02598969D01*
X02948838Y02598429D01*
X02948727Y02598179D01*
X02948589Y02597957D01*
X02948422Y02597763D01*
X02948256Y02597596D01*
X02948062Y02597472D01*
X02947868Y02597347D01*
X02947673Y02597249D01*
X02947479Y02597180D01*
X02947285Y02597125D01*
X02947105Y02597069D01*
X02946938Y02597042D01*
X02946800Y02597028D01*
X02946675Y02597014D01*
X02946592Y02597000D01*
X02946508D01*
X02946259Y02597014D01*
X02946023Y02597042D01*
X02945801Y02597083D01*
X02945593Y02597153D01*
X02945399Y02597222D01*
X02945233Y02597305D01*
X02945066Y02597402D01*
X02944927Y02597485D01*
X02944803Y02597582D01*
X02944692Y02597666D01*
X02944595Y02597749D01*
X02944525Y02597818D01*
X02944470Y02597888D01*
X02944414Y02597929D01*
X02944401Y02597957D01*
X02944387Y02597971D01*
X02944234Y02598221D01*
X02944095Y02598484D01*
X02943971Y02598789D01*
X02943860Y02599094D01*
X02943777Y02599427D01*
X02943707Y02599760D01*
X02943652Y02600079D01*
X02943596Y02600412D01*
X02943554Y02600717D01*
X02943527Y02600994D01*
X02943513Y02601258D01*
X02943499Y02601494D01*
X02943485Y02601674D01*
Y02601812D01*
Y02601868D01*
Y02601909D01*
Y02601923D01*
Y02601937D01*
X02943499Y02602312D01*
X02943513Y02602658D01*
X02943541Y02602977D01*
X02943596Y02603268D01*
X02943638Y02603546D01*
X02943693Y02603810D01*
X02943763Y02604031D01*
X02943818Y02604239D01*
X02943887Y02604420D01*
X02943943Y02604586D01*
X02944012Y02604725D01*
X02944054Y02604836D01*
X02944095Y02604919D01*
X02944137Y02604974D01*
X02944151Y02605016D01*
X02944165Y02605030D01*
X02944303Y02605238D01*
X02944470Y02605418D01*
X02944636Y02605571D01*
X02944817Y02605710D01*
X02944997Y02605820D01*
X02945191Y02605917D01*
X02945371Y02605987D01*
X02945538Y02606056D01*
X02945704Y02606098D01*
X02945870Y02606139D01*
X02946009Y02606153D01*
X02946134Y02606181D01*
X02946231D01*
X02946300Y02606195D01*
X02946370D01*
X02946578Y02606181D01*
D02*
G37*
G36*
X02974800Y02597166D02*
X02973413D01*
Y02601701D01*
Y02602312D01*
Y02602894D01*
Y02603171D01*
X02973427Y02603435D01*
Y02603685D01*
Y02603920D01*
Y02604128D01*
Y02604323D01*
X02973441Y02604489D01*
Y02604641D01*
Y02604753D01*
Y02604836D01*
Y02604891D01*
Y02604905D01*
X02973275D01*
X02973163Y02604420D01*
X02973053Y02603990D01*
X02972956Y02603601D01*
X02972886Y02603268D01*
X02972803Y02602977D01*
X02972747Y02602728D01*
X02972692Y02602506D01*
X02972650Y02602325D01*
X02972609Y02602173D01*
X02972581Y02602062D01*
X02972553Y02601965D01*
X02972539Y02601896D01*
X02972526Y02601840D01*
X02972512Y02601812D01*
Y02601785D01*
X02971319Y02597166D01*
X02969489D01*
X02968268Y02601840D01*
X02968213Y02602062D01*
X02968143Y02602284D01*
X02968018Y02602783D01*
X02967893Y02603296D01*
X02967783Y02603795D01*
X02967727Y02604017D01*
X02967672Y02604225D01*
X02967630Y02604420D01*
X02967589Y02604586D01*
X02967561Y02604711D01*
X02967533Y02604822D01*
X02967519Y02604877D01*
Y02604905D01*
X02967353D01*
Y02604517D01*
X02967367Y02604156D01*
Y02603823D01*
Y02603504D01*
Y02603213D01*
Y02602963D01*
X02967380Y02602728D01*
Y02602506D01*
Y02602325D01*
Y02602159D01*
Y02602020D01*
Y02601909D01*
Y02601826D01*
Y02601771D01*
Y02601729D01*
Y02601715D01*
Y02597166D01*
X02965883D01*
Y02606195D01*
X02968434D01*
X02969586Y02601563D01*
X02969641Y02601341D01*
X02969710Y02601105D01*
X02969766Y02600869D01*
X02969821Y02600661D01*
X02969863Y02600453D01*
X02969904Y02600301D01*
X02969918Y02600245D01*
Y02600204D01*
X02969932Y02600176D01*
Y02600162D01*
X02969974Y02599954D01*
X02970029Y02599760D01*
X02970057Y02599579D01*
X02970099Y02599427D01*
X02970126Y02599274D01*
X02970168Y02599149D01*
X02970182Y02599039D01*
X02970210Y02598942D01*
X02970251Y02598789D01*
X02970279Y02598692D01*
X02970293Y02598623D01*
Y02598609D01*
X02970459D01*
X02970556Y02599149D01*
X02970667Y02599677D01*
X02970778Y02600176D01*
X02970834Y02600412D01*
X02970889Y02600634D01*
X02970931Y02600828D01*
X02970972Y02601008D01*
X02971014Y02601174D01*
X02971042Y02601313D01*
X02971069Y02601424D01*
X02971097Y02601507D01*
X02971111Y02601563D01*
Y02601577D01*
X02972248Y02606195D01*
X02974800D01*
Y02597166D01*
D02*
G37*
G36*
X02963719D02*
X02957894D01*
Y02598429D01*
X02962124D01*
Y02606195D01*
X02963719D01*
Y02597166D01*
D02*
G37*
G36*
X02922474Y02600204D02*
Y02599164D01*
X02919091D01*
Y02597166D01*
X02917759D01*
Y02599164D01*
X02916650D01*
Y02600273D01*
X02917759D01*
Y02606111D01*
X02919590D01*
X02922474Y02600204D01*
D02*
G37*
G36*
X02939796Y02606181D02*
X02940018Y02606153D01*
X02940226Y02606111D01*
X02940406Y02606056D01*
X02940587Y02605987D01*
X02940753Y02605904D01*
X02940892Y02605820D01*
X02941030Y02605737D01*
X02941141Y02605654D01*
X02941252Y02605571D01*
X02941335Y02605487D01*
X02941405Y02605418D01*
X02941460Y02605363D01*
X02941502Y02605321D01*
X02941516Y02605293D01*
X02941530Y02605280D01*
X02941682Y02605058D01*
X02941807Y02604794D01*
X02941918Y02604517D01*
X02942015Y02604225D01*
X02942084Y02603934D01*
X02942154Y02603629D01*
X02942251Y02603019D01*
X02942292Y02602741D01*
X02942320Y02602478D01*
X02942334Y02602228D01*
X02942348Y02602020D01*
X02942362Y02601854D01*
Y02601715D01*
Y02601632D01*
Y02601618D01*
Y02601604D01*
X02942348Y02601188D01*
X02942334Y02600814D01*
X02942306Y02600453D01*
X02942265Y02600121D01*
X02942223Y02599815D01*
X02942168Y02599538D01*
X02942112Y02599288D01*
X02942057Y02599066D01*
X02942001Y02598872D01*
X02941946Y02598692D01*
X02941890Y02598553D01*
X02941849Y02598429D01*
X02941807Y02598345D01*
X02941779Y02598276D01*
X02941752Y02598234D01*
Y02598221D01*
X02941613Y02598012D01*
X02941460Y02597818D01*
X02941294Y02597652D01*
X02941128Y02597513D01*
X02940947Y02597402D01*
X02940767Y02597305D01*
X02940587Y02597222D01*
X02940420Y02597153D01*
X02940254Y02597097D01*
X02940087Y02597069D01*
X02939949Y02597042D01*
X02939824Y02597014D01*
X02939727D01*
X02939658Y02597000D01*
X02939588D01*
X02939352Y02597014D01*
X02939131Y02597042D01*
X02938909Y02597083D01*
X02938714Y02597153D01*
X02938534Y02597222D01*
X02938382Y02597291D01*
X02938229Y02597375D01*
X02938090Y02597472D01*
X02937979Y02597555D01*
X02937868Y02597638D01*
X02937785Y02597707D01*
X02937716Y02597791D01*
X02937661Y02597846D01*
X02937619Y02597888D01*
X02937605Y02597915D01*
X02937591Y02597929D01*
X02937438Y02598151D01*
X02937314Y02598415D01*
X02937203Y02598692D01*
X02937106Y02598983D01*
X02937022Y02599288D01*
X02936967Y02599594D01*
X02936856Y02600190D01*
X02936828Y02600481D01*
X02936801Y02600745D01*
X02936787Y02600994D01*
X02936773Y02601202D01*
X02936759Y02601369D01*
Y02601507D01*
Y02601591D01*
Y02601604D01*
Y02601618D01*
Y02602020D01*
X02936787Y02602409D01*
X02936814Y02602769D01*
X02936856Y02603088D01*
X02936912Y02603393D01*
X02936967Y02603671D01*
X02937022Y02603920D01*
X02937078Y02604142D01*
X02937133Y02604350D01*
X02937189Y02604517D01*
X02937244Y02604655D01*
X02937300Y02604780D01*
X02937341Y02604863D01*
X02937369Y02604933D01*
X02937383Y02604974D01*
X02937397Y02604988D01*
X02937536Y02605196D01*
X02937688Y02605390D01*
X02937855Y02605543D01*
X02938021Y02605681D01*
X02938201Y02605806D01*
X02938382Y02605904D01*
X02938562Y02605987D01*
X02938728Y02606042D01*
X02938895Y02606098D01*
X02939061Y02606125D01*
X02939200Y02606153D01*
X02939311Y02606181D01*
X02939422D01*
X02939491Y02606195D01*
X02939561D01*
X02939796Y02606181D01*
D02*
G37*
G36*
X02867742Y02555874D02*
X02859270D01*
X02858130D01*
X02857042D01*
X02856524D01*
X02856031Y02555900D01*
X02855565D01*
X02855125D01*
X02854736D01*
X02854373D01*
X02854062Y02555925D01*
X02853777D01*
X02853570D01*
X02853415D01*
X02853311D01*
X02853285D01*
Y02555615D01*
X02854192Y02555407D01*
X02854995Y02555200D01*
X02855721Y02555019D01*
X02856342Y02554889D01*
X02856886Y02554734D01*
X02857353Y02554630D01*
X02857767Y02554526D01*
X02858104Y02554449D01*
X02858389Y02554371D01*
X02858596Y02554319D01*
X02858777Y02554267D01*
X02858907Y02554241D01*
X02859011Y02554216D01*
X02859062Y02554190D01*
X02859114D01*
X02867742Y02551962D01*
Y02548542D01*
X02859011Y02546262D01*
X02858596Y02546158D01*
X02858182Y02546029D01*
X02857249Y02545795D01*
X02856291Y02545562D01*
X02855358Y02545355D01*
X02854943Y02545251D01*
X02854555Y02545148D01*
X02854192Y02545070D01*
X02853881Y02544992D01*
X02853648Y02544940D01*
X02853441Y02544889D01*
X02853337Y02544863D01*
X02853285D01*
Y02544552D01*
X02854011D01*
X02854684Y02544578D01*
X02855306D01*
X02855902D01*
X02856446D01*
X02856912D01*
X02857353Y02544604D01*
X02857767D01*
X02858104D01*
X02858415D01*
X02858674D01*
X02858881D01*
X02859037D01*
X02859140D01*
X02859218D01*
X02859244D01*
X02867742D01*
Y02541806D01*
X02850876D01*
Y02546573D01*
X02859529Y02548723D01*
X02859944Y02548827D01*
X02860384Y02548956D01*
X02860824Y02549060D01*
X02861213Y02549164D01*
X02861602Y02549241D01*
X02861887Y02549319D01*
X02861990Y02549345D01*
X02862068D01*
X02862120Y02549371D01*
X02862146D01*
X02862534Y02549449D01*
X02862897Y02549552D01*
X02863234Y02549604D01*
X02863519Y02549682D01*
X02863804Y02549733D01*
X02864037Y02549811D01*
X02864244Y02549837D01*
X02864426Y02549889D01*
X02864711Y02549967D01*
X02864892Y02550018D01*
X02865021Y02550044D01*
X02865047D01*
Y02550355D01*
X02864037Y02550537D01*
X02863052Y02550744D01*
X02862120Y02550951D01*
X02861679Y02551055D01*
X02861265Y02551158D01*
X02860902Y02551236D01*
X02860565Y02551314D01*
X02860255Y02551392D01*
X02859995Y02551443D01*
X02859788Y02551495D01*
X02859633Y02551547D01*
X02859529Y02551573D01*
X02859503D01*
X02850876Y02553697D01*
Y02558465D01*
X02867742D01*
Y02555874D01*
D02*
G37*
G36*
X02888603Y02552829D02*
X02888577Y02552337D01*
X02888551Y02551897D01*
X02888499Y02551456D01*
X02888422Y02551042D01*
X02888344Y02550679D01*
X02888266Y02550342D01*
X02888163Y02550005D01*
X02888059Y02549720D01*
X02887955Y02549461D01*
X02887852Y02549254D01*
X02887774Y02549047D01*
X02887696Y02548891D01*
X02887618Y02548762D01*
X02887567Y02548684D01*
X02887515Y02548632D01*
Y02548607D01*
X02887256Y02548296D01*
X02886996Y02548036D01*
X02886712Y02547803D01*
X02886401Y02547596D01*
X02886090Y02547441D01*
X02885805Y02547285D01*
X02885209Y02547078D01*
X02884665Y02546974D01*
X02884432Y02546922D01*
X02884225Y02546897D01*
X02884069Y02546871D01*
X02883940D01*
X02883862D01*
X02883836D01*
X02883292Y02546897D01*
X02882799Y02547000D01*
X02882359Y02547130D01*
X02881996Y02547285D01*
X02881685Y02547466D01*
X02881478Y02547596D01*
X02881349Y02547700D01*
X02881297Y02547726D01*
X02880882Y02548140D01*
X02880545Y02548632D01*
X02880286Y02549125D01*
X02880079Y02549617D01*
X02879950Y02550057D01*
X02879872Y02550239D01*
X02879846Y02550394D01*
X02879794Y02550550D01*
Y02550653D01*
X02879768Y02550705D01*
Y02550731D01*
X02879639D01*
X02879509Y02550213D01*
X02879354Y02549772D01*
X02879172Y02549384D01*
X02878965Y02549047D01*
X02878784Y02548788D01*
X02878628Y02548581D01*
X02878525Y02548477D01*
X02878499Y02548425D01*
X02878110Y02548088D01*
X02877670Y02547829D01*
X02877255Y02547648D01*
X02876841Y02547518D01*
X02876504Y02547441D01*
X02876219Y02547415D01*
X02876115Y02547389D01*
X02876038D01*
X02875986D01*
X02875960D01*
X02875597D01*
X02875286Y02547441D01*
X02874690Y02547570D01*
X02874172Y02547751D01*
X02873758Y02547933D01*
X02873421Y02548140D01*
X02873188Y02548322D01*
X02873058Y02548451D01*
X02873006Y02548477D01*
Y02548503D01*
X02872773Y02548788D01*
X02872592Y02549099D01*
X02872410Y02549461D01*
X02872281Y02549824D01*
X02872048Y02550576D01*
X02871892Y02551353D01*
X02871841Y02551715D01*
X02871815Y02552052D01*
X02871763Y02552337D01*
Y02552622D01*
X02871737Y02552829D01*
Y02559177D01*
X02888603D01*
Y02552829D01*
D02*
G37*
G36*
X02883214Y02544694D02*
X02883706Y02544668D01*
X02884147Y02544591D01*
X02884561Y02544513D01*
X02884950Y02544409D01*
X02885312Y02544306D01*
X02885623Y02544202D01*
X02885934Y02544073D01*
X02886194Y02543943D01*
X02886427Y02543839D01*
X02886608Y02543736D01*
X02886789Y02543632D01*
X02886919Y02543554D01*
X02886996Y02543477D01*
X02887048Y02543451D01*
X02887074Y02543425D01*
X02887385Y02543140D01*
X02887670Y02542803D01*
X02887929Y02542466D01*
X02888137Y02542130D01*
X02888318Y02541767D01*
X02888474Y02541404D01*
X02888577Y02541041D01*
X02888681Y02540704D01*
X02888759Y02540368D01*
X02888810Y02540057D01*
X02888862Y02539772D01*
X02888888Y02539539D01*
X02888914Y02539357D01*
Y02539072D01*
X02888862Y02538373D01*
X02888759Y02537751D01*
X02888603Y02537155D01*
X02888370Y02536637D01*
X02888111Y02536196D01*
X02887826Y02535782D01*
X02887489Y02535419D01*
X02887178Y02535108D01*
X02886841Y02534823D01*
X02886530Y02534616D01*
X02886245Y02534435D01*
X02885986Y02534279D01*
X02885753Y02534176D01*
X02885598Y02534098D01*
X02885468Y02534046D01*
X02885442D01*
X02884717Y02536533D01*
X02885131Y02536663D01*
X02885468Y02536818D01*
X02885779Y02536974D01*
X02886038Y02537181D01*
X02886271Y02537388D01*
X02886453Y02537596D01*
X02886608Y02537803D01*
X02886737Y02538010D01*
X02886841Y02538217D01*
X02886893Y02538399D01*
X02886945Y02538580D01*
X02886996Y02538736D01*
Y02538865D01*
X02887022Y02538969D01*
Y02539046D01*
X02886971Y02539539D01*
X02886867Y02539953D01*
X02886737Y02540342D01*
X02886556Y02540627D01*
X02886401Y02540886D01*
X02886245Y02541041D01*
X02886142Y02541171D01*
X02886116Y02541197D01*
X02885701Y02541482D01*
X02885235Y02541689D01*
X02884768Y02541819D01*
X02884302Y02541922D01*
X02883888Y02542000D01*
X02883706Y02542026D01*
X02883551D01*
X02883421Y02542052D01*
X02883318D01*
X02883266D01*
X02883240D01*
Y02533994D01*
X02882670D01*
X02882178Y02534020D01*
X02881685Y02534046D01*
X02881245Y02534124D01*
X02880830Y02534202D01*
X02880416Y02534305D01*
X02880053Y02534409D01*
X02879716Y02534538D01*
X02879431Y02534642D01*
X02879146Y02534772D01*
X02878913Y02534901D01*
X02878706Y02535005D01*
X02878551Y02535108D01*
X02878421Y02535186D01*
X02878317Y02535264D01*
X02878266Y02535290D01*
X02878240Y02535316D01*
X02877903Y02535601D01*
X02877644Y02535912D01*
X02877385Y02536222D01*
X02877177Y02536559D01*
X02876996Y02536896D01*
X02876841Y02537233D01*
X02876737Y02537544D01*
X02876633Y02537855D01*
X02876556Y02538165D01*
X02876504Y02538425D01*
X02876452Y02538684D01*
X02876426Y02538891D01*
X02876400Y02539072D01*
Y02539306D01*
X02876426Y02539720D01*
X02876452Y02540109D01*
X02876530Y02540497D01*
X02876633Y02540860D01*
X02876866Y02541482D01*
X02877022Y02541767D01*
X02877151Y02542026D01*
X02877281Y02542259D01*
X02877437Y02542466D01*
X02877566Y02542622D01*
X02877670Y02542777D01*
X02877773Y02542881D01*
X02877825Y02542959D01*
X02877877Y02543010D01*
X02877903Y02543036D01*
X02878240Y02543321D01*
X02878602Y02543580D01*
X02878991Y02543813D01*
X02879380Y02544021D01*
X02879768Y02544176D01*
X02880183Y02544306D01*
X02880960Y02544513D01*
X02881323Y02544591D01*
X02881660Y02544642D01*
X02881945Y02544668D01*
X02882204Y02544694D01*
X02882411Y02544720D01*
X02882592D01*
X02882696D01*
X02882722D01*
X02883214Y02544694D01*
D02*
G37*
G36*
X02865047Y02538723D02*
X02865514Y02538619D01*
X02865954Y02538463D01*
X02866291Y02538308D01*
X02866576Y02538153D01*
X02866783Y02537997D01*
X02866913Y02537894D01*
X02866964Y02537868D01*
X02867327Y02537453D01*
X02867586Y02537013D01*
X02867768Y02536546D01*
X02867897Y02536080D01*
X02867975Y02535691D01*
X02868001Y02535510D01*
Y02535354D01*
X02868027Y02535251D01*
Y02535069D01*
X02868001Y02534629D01*
X02867949Y02534189D01*
X02867845Y02533800D01*
X02867742Y02533437D01*
X02867612Y02533100D01*
X02867457Y02532790D01*
X02867275Y02532531D01*
X02867094Y02532272D01*
X02866938Y02532038D01*
X02866757Y02531857D01*
X02866602Y02531676D01*
X02866472Y02531546D01*
X02866369Y02531442D01*
X02866265Y02531365D01*
X02866213Y02531339D01*
X02866187Y02531313D01*
X02866524Y02531287D01*
X02866809Y02531261D01*
X02867068Y02531209D01*
X02867301Y02531183D01*
X02867483Y02531157D01*
X02867638D01*
X02867716Y02531131D01*
X02867742D01*
Y02528618D01*
X02867068Y02528670D01*
X02866447Y02528722D01*
X02865851Y02528748D01*
X02865306Y02528774D01*
X02864866Y02528800D01*
X02864684D01*
X02864529D01*
X02864400D01*
X02864296D01*
X02864244D01*
X02864218D01*
X02859477D01*
X02859114D01*
X02858777Y02528852D01*
X02858156Y02529007D01*
X02857638Y02529214D01*
X02857197Y02529525D01*
X02856808Y02529862D01*
X02856472Y02530276D01*
X02856213Y02530691D01*
X02856006Y02531106D01*
X02855850Y02531546D01*
X02855721Y02531961D01*
X02855643Y02532349D01*
X02855565Y02532712D01*
X02855539Y02532997D01*
X02855513Y02533230D01*
Y02533437D01*
X02855539Y02534137D01*
X02855643Y02534785D01*
X02855824Y02535380D01*
X02856031Y02535899D01*
X02856291Y02536339D01*
X02856549Y02536754D01*
X02856860Y02537090D01*
X02857171Y02537401D01*
X02857482Y02537634D01*
X02857767Y02537842D01*
X02858052Y02538023D01*
X02858311Y02538153D01*
X02858518Y02538256D01*
X02858674Y02538308D01*
X02858803Y02538360D01*
X02858829D01*
X02859503Y02535795D01*
X02859166Y02535717D01*
X02858881Y02535614D01*
X02858622Y02535484D01*
X02858415Y02535380D01*
X02858260Y02535251D01*
X02858130Y02535147D01*
X02858052Y02535095D01*
X02858026Y02535069D01*
X02857819Y02534810D01*
X02857664Y02534551D01*
X02857560Y02534292D01*
X02857482Y02534059D01*
X02857430Y02533852D01*
X02857404Y02533671D01*
Y02533515D01*
X02857430Y02533152D01*
X02857482Y02532841D01*
X02857534Y02532582D01*
X02857612Y02532375D01*
X02857715Y02532220D01*
X02857767Y02532116D01*
X02857819Y02532038D01*
X02857845Y02532012D01*
X02858052Y02531831D01*
X02858311Y02531676D01*
X02858596Y02531572D01*
X02858881Y02531520D01*
X02859114Y02531468D01*
X02859322Y02531442D01*
X02859477D01*
X02859503D01*
X02859529D01*
X02860203D01*
X02860229Y02532142D01*
X02860280Y02532816D01*
X02860358Y02533385D01*
X02860410Y02533878D01*
X02860462Y02534292D01*
X02860487Y02534474D01*
X02860514Y02534603D01*
X02860540Y02534707D01*
Y02534785D01*
X02860565Y02534836D01*
Y02534862D01*
X02860721Y02535536D01*
X02860954Y02536132D01*
X02861213Y02536676D01*
X02861498Y02537116D01*
X02861809Y02537479D01*
X02862146Y02537790D01*
X02862483Y02538049D01*
X02862819Y02538256D01*
X02863156Y02538412D01*
X02863467Y02538541D01*
X02863752Y02538619D01*
X02863985Y02538697D01*
X02864193Y02538723D01*
X02864374Y02538748D01*
X02864478D01*
X02864503D01*
X02865047Y02538723D01*
D02*
G37*
G36*
X02888603Y02528502D02*
X02871426D01*
Y02531222D01*
X02888603D01*
Y02528502D01*
D02*
G37*
G36*
X02890132Y02525989D02*
X02890339Y02525963D01*
X02890728Y02525833D01*
X02891064Y02525626D01*
X02891349Y02525393D01*
X02891582Y02525186D01*
X02891764Y02524978D01*
X02891867Y02524849D01*
X02891893Y02524797D01*
X02892049Y02524512D01*
X02892204Y02524201D01*
X02892411Y02523528D01*
X02892567Y02522828D01*
X02892697Y02522154D01*
X02892722Y02521844D01*
X02892748Y02521559D01*
X02892774Y02521299D01*
Y02521066D01*
X02892800Y02520885D01*
Y02520134D01*
X02892748Y02519693D01*
X02892722Y02519253D01*
X02892645Y02518838D01*
X02892593Y02518475D01*
X02892515Y02518113D01*
X02892437Y02517802D01*
X02892334Y02517517D01*
X02892256Y02517258D01*
X02892178Y02517025D01*
X02892101Y02516817D01*
X02892023Y02516662D01*
X02891971Y02516532D01*
X02891919Y02516455D01*
X02891893Y02516403D01*
Y02516377D01*
X02891686Y02516066D01*
X02891479Y02515807D01*
X02891271Y02515574D01*
X02891038Y02515367D01*
X02890805Y02515211D01*
X02890572Y02515056D01*
X02890132Y02514848D01*
X02889743Y02514745D01*
X02889587Y02514693D01*
X02889432Y02514667D01*
X02889302Y02514641D01*
X02889225D01*
X02889173D01*
X02889147D01*
X02888706Y02514667D01*
X02888318Y02514745D01*
X02887981Y02514874D01*
X02887696Y02515004D01*
X02887489Y02515159D01*
X02887333Y02515263D01*
X02887230Y02515367D01*
X02887204Y02515392D01*
X02887048Y02515600D01*
X02886893Y02515807D01*
X02886660Y02516325D01*
X02886453Y02516895D01*
X02886323Y02517439D01*
X02886219Y02517957D01*
X02886168Y02518165D01*
X02886142Y02518372D01*
X02886116Y02518527D01*
X02886090Y02518657D01*
Y02518760D01*
X02885857Y02521455D01*
X02885831Y02521766D01*
X02885779Y02522051D01*
X02885727Y02522284D01*
X02885701Y02522439D01*
X02885649Y02522595D01*
X02885623Y02522673D01*
X02885598Y02522724D01*
Y02522750D01*
X02885520Y02522880D01*
X02885416Y02522957D01*
X02885235Y02523061D01*
X02885079Y02523113D01*
X02885027D01*
X02885002D01*
X02884794Y02523087D01*
X02884587Y02522983D01*
X02884406Y02522854D01*
X02884250Y02522673D01*
X02884147Y02522517D01*
X02884043Y02522388D01*
X02883991Y02522284D01*
X02883965Y02522258D01*
X02884069Y02521714D01*
X02884095Y02521455D01*
X02884121Y02521196D01*
X02884147Y02521014D01*
Y02520703D01*
X02884095Y02520004D01*
X02883991Y02519382D01*
X02883862Y02518812D01*
X02883680Y02518346D01*
X02883525Y02517983D01*
X02883447Y02517828D01*
X02883369Y02517724D01*
X02883318Y02517621D01*
X02883266Y02517543D01*
X02883240Y02517517D01*
Y02517491D01*
X02883033Y02517232D01*
X02882799Y02516999D01*
X02882566Y02516817D01*
X02882307Y02516636D01*
X02882074Y02516481D01*
X02881815Y02516377D01*
X02881323Y02516196D01*
X02880882Y02516092D01*
X02880701Y02516066D01*
X02880520Y02516040D01*
X02880390Y02516014D01*
X02880286D01*
X02880235D01*
X02880209D01*
X02879716Y02516066D01*
X02879250Y02516170D01*
X02878861Y02516325D01*
X02878499Y02516481D01*
X02878214Y02516662D01*
X02878007Y02516817D01*
X02877877Y02516921D01*
X02877825Y02516973D01*
X02877618Y02516714D01*
X02877488Y02516481D01*
X02877411Y02516299D01*
X02877385Y02516273D01*
Y02516247D01*
X02877333Y02516040D01*
X02877281Y02515833D01*
X02877229Y02515367D01*
X02877203Y02515159D01*
Y02514848D01*
X02875001Y02514693D01*
X02875027Y02515133D01*
X02875053Y02515522D01*
X02875131Y02515859D01*
X02875208Y02516144D01*
X02875286Y02516351D01*
X02875338Y02516532D01*
X02875390Y02516636D01*
X02875416Y02516662D01*
X02875597Y02516973D01*
X02875856Y02517258D01*
X02876115Y02517517D01*
X02876374Y02517724D01*
X02876607Y02517905D01*
X02876815Y02518035D01*
X02876944Y02518113D01*
X02876970Y02518139D01*
X02876996D01*
X02876789Y02518553D01*
X02876659Y02518994D01*
X02876556Y02519408D01*
X02876478Y02519797D01*
X02876426Y02520159D01*
X02876400Y02520419D01*
Y02520678D01*
X02876452Y02521377D01*
X02876556Y02521999D01*
X02876685Y02522543D01*
X02876866Y02523009D01*
X02877048Y02523372D01*
X02877126Y02523528D01*
X02877177Y02523631D01*
X02877255Y02523735D01*
X02877281Y02523813D01*
X02877333Y02523838D01*
Y02523864D01*
X02877540Y02524123D01*
X02877773Y02524357D01*
X02878007Y02524564D01*
X02878240Y02524719D01*
X02878473Y02524875D01*
X02878706Y02525004D01*
X02879172Y02525186D01*
X02879587Y02525289D01*
X02879768Y02525315D01*
X02879924Y02525341D01*
X02880053Y02525367D01*
X02880157D01*
X02880209D01*
X02880235D01*
X02880623Y02525341D01*
X02880960Y02525289D01*
X02881297Y02525211D01*
X02881608Y02525108D01*
X02882152Y02524823D01*
X02882592Y02524512D01*
X02882929Y02524201D01*
X02883188Y02523916D01*
X02883292Y02523813D01*
X02883344Y02523735D01*
X02883369Y02523683D01*
X02883395Y02523657D01*
X02883603Y02523968D01*
X02883836Y02524253D01*
X02884043Y02524512D01*
X02884250Y02524719D01*
X02884458Y02524901D01*
X02884665Y02525056D01*
X02884872Y02525160D01*
X02885053Y02525263D01*
X02885390Y02525393D01*
X02885623Y02525471D01*
X02885727Y02525497D01*
X02885805D01*
X02885831D01*
X02885857D01*
X02886090Y02525471D01*
X02886323Y02525419D01*
X02886530Y02525341D01*
X02886712Y02525237D01*
X02886996Y02524953D01*
X02887230Y02524642D01*
X02887411Y02524357D01*
X02887515Y02524072D01*
X02887541Y02523968D01*
X02887567Y02523890D01*
X02887592Y02523838D01*
Y02523813D01*
X02887748Y02524201D01*
X02887929Y02524538D01*
X02888111Y02524823D01*
X02888292Y02525082D01*
X02888474Y02525289D01*
X02888681Y02525471D01*
X02888862Y02525626D01*
X02889043Y02525730D01*
X02889380Y02525885D01*
X02889639Y02525989D01*
X02889743D01*
X02889821Y02526015D01*
X02889872D01*
X02889898D01*
X02890132Y02525989D01*
D02*
G37*
G36*
X02867742Y02522660D02*
X02863933D01*
X02862120Y02521027D01*
X02867742Y02518074D01*
Y02515094D01*
X02860280Y02519292D01*
X02855798Y02515302D01*
Y02518385D01*
X02861031Y02522660D01*
X02850565D01*
Y02525354D01*
X02867742D01*
Y02522660D01*
D02*
G37*
G36*
X02888603Y02509615D02*
X02876659D01*
Y02512335D01*
X02888603D01*
Y02509615D01*
D02*
G37*
G36*
X02874535Y02509485D02*
X02871711D01*
Y02512439D01*
X02874535D01*
Y02509485D01*
D02*
G37*
G36*
X02862353Y02513669D02*
X02862845Y02513644D01*
X02863286Y02513566D01*
X02863700Y02513488D01*
X02864089Y02513385D01*
X02864452Y02513281D01*
X02864762Y02513177D01*
X02865073Y02513048D01*
X02865332Y02512918D01*
X02865565Y02512815D01*
X02865747Y02512711D01*
X02865928Y02512607D01*
X02866058Y02512530D01*
X02866136Y02512452D01*
X02866187Y02512426D01*
X02866213Y02512400D01*
X02866524Y02512115D01*
X02866809Y02511778D01*
X02867068Y02511441D01*
X02867275Y02511105D01*
X02867457Y02510742D01*
X02867612Y02510379D01*
X02867716Y02510016D01*
X02867820Y02509680D01*
X02867897Y02509343D01*
X02867949Y02509032D01*
X02868001Y02508747D01*
X02868027Y02508514D01*
X02868053Y02508333D01*
Y02508047D01*
X02868001Y02507348D01*
X02867897Y02506726D01*
X02867742Y02506130D01*
X02867509Y02505612D01*
X02867249Y02505172D01*
X02866964Y02504757D01*
X02866628Y02504395D01*
X02866317Y02504084D01*
X02865980Y02503799D01*
X02865669Y02503591D01*
X02865384Y02503410D01*
X02865125Y02503255D01*
X02864892Y02503151D01*
X02864737Y02503073D01*
X02864607Y02503021D01*
X02864581D01*
X02863856Y02505509D01*
X02864270Y02505638D01*
X02864607Y02505793D01*
X02864918Y02505949D01*
X02865177Y02506156D01*
X02865410Y02506364D01*
X02865591Y02506571D01*
X02865747Y02506778D01*
X02865876Y02506985D01*
X02865980Y02507193D01*
X02866032Y02507374D01*
X02866084Y02507555D01*
X02866136Y02507711D01*
Y02507840D01*
X02866161Y02507944D01*
Y02508022D01*
X02866110Y02508514D01*
X02866006Y02508928D01*
X02865876Y02509317D01*
X02865695Y02509602D01*
X02865540Y02509861D01*
X02865384Y02510016D01*
X02865280Y02510146D01*
X02865255Y02510172D01*
X02864840Y02510457D01*
X02864374Y02510664D01*
X02863907Y02510794D01*
X02863441Y02510897D01*
X02863026Y02510975D01*
X02862845Y02511001D01*
X02862690D01*
X02862560Y02511027D01*
X02862457D01*
X02862405D01*
X02862379D01*
Y02502970D01*
X02861809D01*
X02861317Y02502995D01*
X02860824Y02503021D01*
X02860384Y02503099D01*
X02859969Y02503177D01*
X02859555Y02503280D01*
X02859192Y02503384D01*
X02858855Y02503514D01*
X02858570Y02503617D01*
X02858286Y02503747D01*
X02858052Y02503876D01*
X02857845Y02503980D01*
X02857690Y02504084D01*
X02857560Y02504161D01*
X02857456Y02504239D01*
X02857404Y02504265D01*
X02857379Y02504291D01*
X02857042Y02504576D01*
X02856783Y02504887D01*
X02856524Y02505198D01*
X02856317Y02505534D01*
X02856135Y02505871D01*
X02855980Y02506208D01*
X02855876Y02506519D01*
X02855772Y02506830D01*
X02855695Y02507141D01*
X02855643Y02507400D01*
X02855591Y02507659D01*
X02855565Y02507866D01*
X02855539Y02508047D01*
Y02508281D01*
X02855565Y02508695D01*
X02855591Y02509084D01*
X02855669Y02509472D01*
X02855772Y02509835D01*
X02856006Y02510457D01*
X02856161Y02510742D01*
X02856291Y02511001D01*
X02856420Y02511234D01*
X02856575Y02511441D01*
X02856705Y02511597D01*
X02856808Y02511752D01*
X02856912Y02511856D01*
X02856964Y02511934D01*
X02857016Y02511985D01*
X02857042Y02512011D01*
X02857379Y02512296D01*
X02857741Y02512556D01*
X02858130Y02512789D01*
X02858518Y02512996D01*
X02858907Y02513151D01*
X02859322Y02513281D01*
X02860099Y02513488D01*
X02860462Y02513566D01*
X02860798Y02513618D01*
X02861083Y02513644D01*
X02861342Y02513669D01*
X02861550Y02513695D01*
X02861731D01*
X02861835D01*
X02861861D01*
X02862353Y02513669D01*
D02*
G37*
G36*
X02885960Y02506143D02*
X02886453Y02506040D01*
X02886893Y02505884D01*
X02887256Y02505729D01*
X02887541Y02505573D01*
X02887748Y02505418D01*
X02887878Y02505314D01*
X02887929Y02505288D01*
X02888266Y02504900D01*
X02888499Y02504485D01*
X02888681Y02504045D01*
X02888784Y02503656D01*
X02888862Y02503293D01*
X02888888Y02502982D01*
X02888914Y02502879D01*
Y02502723D01*
X02888888Y02502309D01*
X02888836Y02501920D01*
X02888732Y02501583D01*
X02888629Y02501272D01*
X02888551Y02501013D01*
X02888448Y02500806D01*
X02888396Y02500703D01*
X02888370Y02500651D01*
X02888111Y02500262D01*
X02887800Y02499899D01*
X02887515Y02499588D01*
X02887204Y02499329D01*
X02886945Y02499122D01*
X02886737Y02498967D01*
X02886582Y02498863D01*
X02886530Y02498837D01*
X02888603D01*
Y02496195D01*
X02876659D01*
Y02498941D01*
X02884536D01*
X02884820Y02499096D01*
X02885105Y02499278D01*
X02885338Y02499485D01*
X02885546Y02499640D01*
X02885701Y02499822D01*
X02885831Y02499925D01*
X02885909Y02500029D01*
X02885934Y02500055D01*
X02886142Y02500366D01*
X02886297Y02500651D01*
X02886427Y02500936D01*
X02886505Y02501169D01*
X02886556Y02501376D01*
X02886582Y02501557D01*
Y02501687D01*
X02886556Y02501972D01*
X02886505Y02502231D01*
X02886401Y02502464D01*
X02886271Y02502672D01*
X02886116Y02502827D01*
X02885960Y02502957D01*
X02885598Y02503164D01*
X02885235Y02503293D01*
X02884924Y02503345D01*
X02884794Y02503371D01*
X02884691D01*
X02884639D01*
X02884613D01*
X02876659D01*
Y02506169D01*
X02885390D01*
X02885960Y02506143D01*
D02*
G37*
G36*
X02867742Y02490793D02*
X02850876D01*
Y02493772D01*
X02867742D01*
Y02490793D01*
D02*
G37*
G36*
Y02484290D02*
X02859918D01*
X02859607Y02484083D01*
X02859348Y02483875D01*
X02859088Y02483668D01*
X02858907Y02483487D01*
X02858726Y02483331D01*
X02858622Y02483176D01*
X02858544Y02483098D01*
X02858518Y02483072D01*
X02858311Y02482761D01*
X02858156Y02482476D01*
X02858052Y02482217D01*
X02857975Y02481984D01*
X02857923Y02481777D01*
X02857897Y02481621D01*
Y02481492D01*
X02857923Y02481207D01*
X02857975Y02480948D01*
X02858078Y02480741D01*
X02858208Y02480559D01*
X02858363Y02480378D01*
X02858544Y02480248D01*
X02858907Y02480067D01*
X02859270Y02479937D01*
X02859607Y02479886D01*
X02859736Y02479860D01*
X02859840D01*
X02859892D01*
X02859918D01*
X02867742D01*
Y02477036D01*
X02859140D01*
X02858570Y02477061D01*
X02858078Y02477165D01*
X02857638Y02477295D01*
X02857275Y02477450D01*
X02856990Y02477632D01*
X02856783Y02477761D01*
X02856653Y02477865D01*
X02856601Y02477891D01*
X02856239Y02478279D01*
X02855980Y02478694D01*
X02855798Y02479108D01*
X02855669Y02479523D01*
X02855591Y02479886D01*
X02855565Y02480196D01*
X02855539Y02480300D01*
Y02480455D01*
X02855565Y02480844D01*
X02855617Y02481233D01*
X02855721Y02481570D01*
X02855824Y02481880D01*
X02855928Y02482139D01*
X02856031Y02482321D01*
X02856083Y02482450D01*
X02856109Y02482502D01*
X02856368Y02482891D01*
X02856653Y02483253D01*
X02856938Y02483564D01*
X02857223Y02483849D01*
X02857482Y02484057D01*
X02857715Y02484238D01*
X02857845Y02484342D01*
X02857871Y02484368D01*
X02855798D01*
Y02487010D01*
X02867742D01*
Y02484290D01*
D02*
G37*
G36*
X02888603Y02489951D02*
X02880779D01*
X02880468Y02489795D01*
X02880209Y02489614D01*
X02879976Y02489433D01*
X02879768Y02489251D01*
X02879613Y02489122D01*
X02879483Y02488992D01*
X02879406Y02488914D01*
X02879380Y02488889D01*
X02879172Y02488604D01*
X02879017Y02488345D01*
X02878913Y02488085D01*
X02878835Y02487852D01*
X02878784Y02487645D01*
X02878758Y02487489D01*
Y02487360D01*
X02878784Y02487101D01*
X02878835Y02486868D01*
X02878939Y02486686D01*
X02879069Y02486531D01*
X02879406Y02486272D01*
X02879768Y02486091D01*
X02880131Y02485987D01*
X02880468Y02485935D01*
X02880597Y02485909D01*
X02880701D01*
X02880753D01*
X02880779D01*
X02888603D01*
Y02483189D01*
X02880779D01*
X02880494Y02483033D01*
X02880209Y02482878D01*
X02879976Y02482697D01*
X02879768Y02482541D01*
X02879613Y02482386D01*
X02879509Y02482282D01*
X02879431Y02482204D01*
X02879406Y02482178D01*
X02879198Y02481893D01*
X02879043Y02481634D01*
X02878913Y02481401D01*
X02878835Y02481168D01*
X02878784Y02480987D01*
X02878758Y02480831D01*
Y02480702D01*
X02878784Y02480417D01*
X02878835Y02480157D01*
X02878939Y02479924D01*
X02879069Y02479743D01*
X02879224Y02479588D01*
X02879406Y02479458D01*
X02879768Y02479251D01*
X02880131Y02479121D01*
X02880468Y02479069D01*
X02880597Y02479043D01*
X02880701D01*
X02880753D01*
X02880779D01*
X02888603D01*
Y02476323D01*
X02880002D01*
X02879431Y02476349D01*
X02878939Y02476453D01*
X02878499Y02476556D01*
X02878136Y02476712D01*
X02877851Y02476841D01*
X02877644Y02476971D01*
X02877514Y02477074D01*
X02877462Y02477100D01*
X02877100Y02477463D01*
X02876841Y02477852D01*
X02876659Y02478266D01*
X02876530Y02478655D01*
X02876452Y02479018D01*
X02876426Y02479303D01*
X02876400Y02479406D01*
Y02479562D01*
X02876426Y02479976D01*
X02876504Y02480365D01*
X02876607Y02480753D01*
X02876763Y02481090D01*
X02876944Y02481427D01*
X02877151Y02481738D01*
X02877359Y02482023D01*
X02877566Y02482308D01*
X02877799Y02482541D01*
X02878007Y02482748D01*
X02878214Y02482930D01*
X02878395Y02483059D01*
X02878551Y02483189D01*
X02878654Y02483266D01*
X02878732Y02483318D01*
X02878758Y02483344D01*
X02878395Y02483448D01*
X02878084Y02483577D01*
X02877799Y02483733D01*
X02877566Y02483888D01*
X02877385Y02484018D01*
X02877229Y02484147D01*
X02877151Y02484225D01*
X02877126Y02484251D01*
X02876892Y02484562D01*
X02876711Y02484899D01*
X02876582Y02485261D01*
X02876478Y02485572D01*
X02876426Y02485857D01*
X02876400Y02486091D01*
Y02486298D01*
X02876426Y02486712D01*
X02876504Y02487101D01*
X02876607Y02487464D01*
X02876763Y02487826D01*
X02876944Y02488163D01*
X02877151Y02488474D01*
X02877359Y02488759D01*
X02877566Y02489018D01*
X02877799Y02489251D01*
X02878007Y02489458D01*
X02878214Y02489640D01*
X02878395Y02489769D01*
X02878551Y02489899D01*
X02878654Y02489977D01*
X02878732Y02490029D01*
X02878758Y02490054D01*
X02876659D01*
Y02492645D01*
X02888603D01*
Y02489951D01*
D02*
G37*
%LPC*%
G36*
X02932779Y02601868D02*
X02932737D01*
X02932529Y02601854D01*
X02932349Y02601785D01*
X02932182Y02601701D01*
X02932044Y02601591D01*
X02931933Y02601452D01*
X02931836Y02601299D01*
X02931753Y02601133D01*
X02931697Y02600966D01*
X02931642Y02600800D01*
X02931614Y02600634D01*
X02931586Y02600481D01*
X02931558Y02600342D01*
Y02600231D01*
X02931544Y02600148D01*
Y02600079D01*
Y02600065D01*
X02931558Y02599718D01*
X02931600Y02599413D01*
X02931655Y02599164D01*
X02931739Y02598942D01*
X02931836Y02598747D01*
X02931933Y02598581D01*
X02932057Y02598456D01*
X02932169Y02598359D01*
X02932279Y02598276D01*
X02932390Y02598206D01*
X02932502Y02598165D01*
X02932599Y02598137D01*
X02932682Y02598123D01*
X02932737Y02598109D01*
X02932793D01*
X02932917Y02598123D01*
X02933042Y02598137D01*
X02933250Y02598221D01*
X02933445Y02598359D01*
X02933597Y02598525D01*
X02933736Y02598720D01*
X02933847Y02598942D01*
X02933944Y02599178D01*
X02934013Y02599427D01*
X02934082Y02599677D01*
X02934124Y02599912D01*
X02934152Y02600134D01*
X02934166Y02600328D01*
X02934179Y02600495D01*
X02934193Y02600634D01*
Y02600717D01*
Y02600731D01*
Y02600745D01*
X02934082Y02600939D01*
X02933971Y02601119D01*
X02933847Y02601271D01*
X02933736Y02601396D01*
X02933611Y02601507D01*
X02933486Y02601591D01*
X02933375Y02601674D01*
X02933250Y02601729D01*
X02933056Y02601812D01*
X02932890Y02601854D01*
X02932820D01*
X02932779Y02601868D01*
D02*
G37*
G36*
X02946370Y02605071D02*
X02946314D01*
X02946190Y02605058D01*
X02946078Y02605044D01*
X02945870Y02604961D01*
X02945676Y02604836D01*
X02945524Y02604669D01*
X02945399Y02604461D01*
X02945288Y02604239D01*
X02945191Y02604004D01*
X02945121Y02603768D01*
X02945066Y02603518D01*
X02945011Y02603282D01*
X02944983Y02603061D01*
X02944969Y02602866D01*
X02944955Y02602686D01*
X02944941Y02602561D01*
Y02602478D01*
Y02602464D01*
Y02602450D01*
X02945038Y02602256D01*
X02945135Y02602090D01*
X02945246Y02601937D01*
X02945371Y02601812D01*
X02945482Y02601701D01*
X02945593Y02601618D01*
X02945718Y02601535D01*
X02945829Y02601479D01*
X02946023Y02601396D01*
X02946190Y02601355D01*
X02946259D01*
X02946300Y02601341D01*
X02946342D01*
X02946522Y02601355D01*
X02946703Y02601410D01*
X02946841Y02601465D01*
X02946966Y02601549D01*
X02947063Y02601618D01*
X02947133Y02601688D01*
X02947174Y02601729D01*
X02947188Y02601743D01*
X02947313Y02601937D01*
X02947410Y02602159D01*
X02947466Y02602395D01*
X02947521Y02602617D01*
X02947549Y02602811D01*
X02947563Y02602963D01*
Y02603033D01*
Y02603074D01*
Y02603102D01*
Y02603116D01*
X02947549Y02603463D01*
X02947507Y02603768D01*
X02947451Y02604017D01*
X02947368Y02604253D01*
X02947271Y02604434D01*
X02947160Y02604600D01*
X02947049Y02604725D01*
X02946938Y02604822D01*
X02946827Y02604905D01*
X02946703Y02604974D01*
X02946606Y02605016D01*
X02946508Y02605044D01*
X02946425Y02605058D01*
X02946370Y02605071D01*
D02*
G37*
G36*
X02919188Y02604947D02*
X02919021D01*
X02919035Y02604628D01*
X02919049Y02604323D01*
Y02604031D01*
X02919063Y02603768D01*
Y02603518D01*
X02919077Y02603296D01*
Y02603102D01*
Y02602922D01*
X02919091Y02602755D01*
Y02602617D01*
Y02602506D01*
Y02602409D01*
Y02602325D01*
Y02602270D01*
Y02602242D01*
Y02602228D01*
Y02600273D01*
X02921268D01*
X02920172Y02602617D01*
X02919964Y02603088D01*
X02919770Y02603532D01*
X02919604Y02603920D01*
X02919521Y02604101D01*
X02919451Y02604267D01*
X02919396Y02604420D01*
X02919340Y02604544D01*
X02919299Y02604669D01*
X02919257Y02604766D01*
X02919229Y02604836D01*
X02919202Y02604905D01*
X02919188Y02604933D01*
Y02604947D01*
D02*
G37*
G36*
X02939630Y02605044D02*
X02939436D01*
X02939325Y02605016D01*
X02939131Y02604947D01*
X02938964Y02604836D01*
X02938825Y02604725D01*
X02938728Y02604614D01*
X02938659Y02604503D01*
X02938617Y02604434D01*
X02938604Y02604420D01*
Y02604406D01*
X02938548Y02604253D01*
X02938492Y02604073D01*
X02938451Y02603879D01*
X02938409Y02603657D01*
X02938354Y02603199D01*
X02938312Y02602741D01*
X02938298Y02602520D01*
X02938285Y02602312D01*
Y02602118D01*
X02938271Y02601951D01*
Y02601812D01*
Y02601701D01*
Y02601646D01*
Y02601618D01*
Y02601285D01*
X02938285Y02600980D01*
X02938298Y02600703D01*
X02938312Y02600439D01*
X02938326Y02600204D01*
X02938354Y02599996D01*
X02938368Y02599801D01*
X02938395Y02599635D01*
X02938423Y02599482D01*
X02938437Y02599358D01*
X02938465Y02599247D01*
X02938479Y02599164D01*
X02938492Y02599094D01*
X02938506Y02599052D01*
X02938520Y02599025D01*
Y02599011D01*
X02938576Y02598858D01*
X02938645Y02598734D01*
X02938728Y02598609D01*
X02938812Y02598512D01*
X02938895Y02598429D01*
X02938992Y02598359D01*
X02939158Y02598262D01*
X02939325Y02598193D01*
X02939463Y02598165D01*
X02939519Y02598151D01*
X02939588D01*
X02939699Y02598165D01*
X02939810Y02598179D01*
X02940004Y02598248D01*
X02940171Y02598359D01*
X02940295Y02598470D01*
X02940392Y02598581D01*
X02940462Y02598692D01*
X02940504Y02598761D01*
X02940517Y02598789D01*
X02940573Y02598942D01*
X02940628Y02599136D01*
X02940684Y02599330D01*
X02940711Y02599552D01*
X02940781Y02600023D01*
X02940822Y02600495D01*
X02940836Y02600717D01*
X02940850Y02600925D01*
Y02601119D01*
X02940864Y02601285D01*
Y02601424D01*
Y02601535D01*
Y02601591D01*
Y02601618D01*
Y02601951D01*
X02940850Y02602242D01*
X02940836Y02602534D01*
X02940822Y02602783D01*
X02940795Y02603019D01*
X02940781Y02603227D01*
X02940753Y02603421D01*
X02940725Y02603588D01*
X02940698Y02603740D01*
X02940670Y02603865D01*
X02940656Y02603976D01*
X02940628Y02604059D01*
X02940614Y02604128D01*
X02940601Y02604170D01*
X02940587Y02604198D01*
Y02604212D01*
X02940531Y02604364D01*
X02940462Y02604489D01*
X02940392Y02604600D01*
X02940309Y02604697D01*
X02940226Y02604780D01*
X02940143Y02604836D01*
X02939962Y02604947D01*
X02939810Y02605002D01*
X02939685Y02605030D01*
X02939630Y02605044D01*
D02*
G37*
G36*
X02878680Y02556301D02*
X02873939D01*
Y02553477D01*
X02873965Y02552907D01*
X02874017Y02552441D01*
X02874095Y02552026D01*
X02874198Y02551689D01*
X02874302Y02551430D01*
X02874379Y02551249D01*
X02874431Y02551145D01*
X02874457Y02551120D01*
X02874690Y02550835D01*
X02874975Y02550627D01*
X02875260Y02550498D01*
X02875545Y02550394D01*
X02875830Y02550342D01*
X02876038Y02550291D01*
X02876193D01*
X02876219D01*
X02876245D01*
X02876633Y02550316D01*
X02876944Y02550394D01*
X02877255Y02550524D01*
X02877488Y02550653D01*
X02877670Y02550809D01*
X02877825Y02550912D01*
X02877903Y02551016D01*
X02877929Y02551042D01*
X02878188Y02551405D01*
X02878369Y02551845D01*
X02878499Y02552285D01*
X02878576Y02552726D01*
X02878628Y02553114D01*
X02878654Y02553296D01*
X02878680Y02553425D01*
Y02556301D01*
D02*
G37*
G36*
X02886427D02*
X02880882D01*
Y02553555D01*
X02880908Y02552959D01*
X02880986Y02552441D01*
X02881089Y02552000D01*
X02881193Y02551612D01*
X02881323Y02551327D01*
X02881426Y02551120D01*
X02881504Y02550990D01*
X02881530Y02550938D01*
X02881660Y02550731D01*
X02881815Y02550576D01*
X02882152Y02550291D01*
X02882515Y02550083D01*
X02882851Y02549954D01*
X02883162Y02549876D01*
X02883395Y02549850D01*
X02883499Y02549824D01*
X02883577D01*
X02883603D01*
X02883629D01*
X02884069Y02549850D01*
X02884458Y02549928D01*
X02884794Y02550057D01*
X02885053Y02550187D01*
X02885287Y02550316D01*
X02885442Y02550446D01*
X02885546Y02550524D01*
X02885572Y02550550D01*
X02885857Y02550912D01*
X02886064Y02551327D01*
X02886219Y02551741D01*
X02886323Y02552182D01*
X02886375Y02552570D01*
X02886401Y02552881D01*
X02886427Y02552985D01*
Y02556301D01*
D02*
G37*
G36*
X02881426Y02542000D02*
X02880934Y02541948D01*
X02880520Y02541844D01*
X02880157Y02541741D01*
X02879820Y02541611D01*
X02879587Y02541508D01*
X02879406Y02541404D01*
X02879276Y02541326D01*
X02879250Y02541300D01*
X02878939Y02541015D01*
X02878706Y02540679D01*
X02878525Y02540342D01*
X02878421Y02540005D01*
X02878343Y02539720D01*
X02878317Y02539487D01*
X02878292Y02539331D01*
Y02539280D01*
X02878317Y02538865D01*
X02878421Y02538476D01*
X02878576Y02538140D01*
X02878784Y02537855D01*
X02879017Y02537596D01*
X02879276Y02537388D01*
X02879561Y02537207D01*
X02879846Y02537077D01*
X02880157Y02536948D01*
X02880442Y02536844D01*
X02880701Y02536792D01*
X02880934Y02536741D01*
X02881141Y02536689D01*
X02881297Y02536663D01*
X02881400D01*
X02881426D01*
Y02542000D01*
D02*
G37*
G36*
X02864348Y02536132D02*
X02864296D01*
X02864270D01*
X02863985Y02536106D01*
X02863726Y02536054D01*
X02863493Y02535950D01*
X02863286Y02535821D01*
X02862949Y02535510D01*
X02862664Y02535147D01*
X02862483Y02534810D01*
X02862353Y02534500D01*
X02862301Y02534370D01*
X02862275Y02534266D01*
X02862249Y02534215D01*
Y02534189D01*
X02862146Y02533671D01*
X02862068Y02533178D01*
X02862016Y02532712D01*
X02861964Y02532297D01*
X02861938Y02531961D01*
X02861913Y02531676D01*
Y02531442D01*
X02864115D01*
X02864452Y02531650D01*
X02864762Y02531857D01*
X02865021Y02532090D01*
X02865255Y02532323D01*
X02865436Y02532556D01*
X02865591Y02532790D01*
X02865721Y02533023D01*
X02865825Y02533230D01*
X02865980Y02533619D01*
X02866032Y02533800D01*
X02866058Y02533956D01*
Y02534059D01*
X02866084Y02534163D01*
Y02534241D01*
X02866058Y02534577D01*
X02866006Y02534862D01*
X02865928Y02535121D01*
X02865799Y02535329D01*
X02865669Y02535510D01*
X02865514Y02535665D01*
X02865332Y02535795D01*
X02865177Y02535899D01*
X02864840Y02536028D01*
X02864555Y02536106D01*
X02864426D01*
X02864348Y02536132D01*
D02*
G37*
G36*
X02880416Y02522854D02*
X02880261D01*
X02880209D01*
X02879872Y02522828D01*
X02879587Y02522776D01*
X02879302Y02522673D01*
X02879095Y02522569D01*
X02878913Y02522491D01*
X02878784Y02522388D01*
X02878706Y02522336D01*
X02878680Y02522310D01*
X02878473Y02522051D01*
X02878317Y02521792D01*
X02878188Y02521507D01*
X02878110Y02521248D01*
X02878058Y02521040D01*
X02878033Y02520833D01*
Y02520678D01*
X02878058Y02520367D01*
X02878110Y02520082D01*
X02878188Y02519823D01*
X02878266Y02519615D01*
X02878369Y02519460D01*
X02878447Y02519330D01*
X02878499Y02519253D01*
X02878525Y02519227D01*
X02878784Y02518994D01*
X02879043Y02518812D01*
X02879328Y02518683D01*
X02879613Y02518579D01*
X02879846Y02518527D01*
X02880053Y02518501D01*
X02880183D01*
X02880235D01*
X02880597Y02518527D01*
X02880908Y02518579D01*
X02881193Y02518683D01*
X02881426Y02518760D01*
X02881608Y02518864D01*
X02881763Y02518968D01*
X02881841Y02519019D01*
X02881867Y02519045D01*
X02882100Y02519279D01*
X02882255Y02519564D01*
X02882385Y02519823D01*
X02882463Y02520082D01*
X02882515Y02520315D01*
X02882540Y02520496D01*
Y02520678D01*
X02882515Y02520988D01*
X02882463Y02521299D01*
X02882385Y02521533D01*
X02882281Y02521766D01*
X02882178Y02521921D01*
X02882100Y02522051D01*
X02882048Y02522128D01*
X02882022Y02522154D01*
X02881763Y02522388D01*
X02881478Y02522569D01*
X02881167Y02522673D01*
X02880882Y02522776D01*
X02880623Y02522828D01*
X02880416Y02522854D01*
D02*
G37*
G36*
X02889536Y02523761D02*
X02889510D01*
X02889302Y02523735D01*
X02889121Y02523683D01*
X02888965Y02523605D01*
X02888810Y02523502D01*
X02888525Y02523242D01*
X02888318Y02522957D01*
X02888137Y02522673D01*
X02888033Y02522413D01*
X02887981Y02522310D01*
X02887955Y02522232D01*
X02887929Y02522180D01*
Y02522154D01*
X02888214Y02519201D01*
X02888266Y02518786D01*
X02888318Y02518424D01*
X02888396Y02518113D01*
X02888448Y02517880D01*
X02888525Y02517698D01*
X02888551Y02517595D01*
X02888603Y02517517D01*
Y02517491D01*
X02888732Y02517336D01*
X02888888Y02517206D01*
X02889043Y02517128D01*
X02889199Y02517050D01*
X02889354Y02517025D01*
X02889484Y02516999D01*
X02889561D01*
X02889587D01*
X02889821Y02517025D01*
X02890002Y02517102D01*
X02890183Y02517232D01*
X02890339Y02517361D01*
X02890468Y02517517D01*
X02890572Y02517621D01*
X02890624Y02517724D01*
X02890650Y02517750D01*
X02890831Y02518139D01*
X02890960Y02518579D01*
X02891038Y02519045D01*
X02891090Y02519486D01*
X02891142Y02519875D01*
Y02520056D01*
X02891168Y02520211D01*
Y02520496D01*
X02891142Y02520988D01*
X02891116Y02521429D01*
X02891038Y02521818D01*
X02890960Y02522128D01*
X02890909Y02522388D01*
X02890831Y02522595D01*
X02890805Y02522699D01*
X02890779Y02522750D01*
X02890598Y02523087D01*
X02890391Y02523346D01*
X02890183Y02523502D01*
X02889976Y02523631D01*
X02889795Y02523709D01*
X02889639Y02523735D01*
X02889536Y02523761D01*
D02*
G37*
G36*
X02860565Y02510975D02*
X02860073Y02510923D01*
X02859659Y02510820D01*
X02859296Y02510716D01*
X02858959Y02510587D01*
X02858726Y02510483D01*
X02858544Y02510379D01*
X02858415Y02510302D01*
X02858389Y02510276D01*
X02858078Y02509991D01*
X02857845Y02509654D01*
X02857664Y02509317D01*
X02857560Y02508980D01*
X02857482Y02508695D01*
X02857456Y02508462D01*
X02857430Y02508307D01*
Y02508255D01*
X02857456Y02507840D01*
X02857560Y02507452D01*
X02857715Y02507115D01*
X02857923Y02506830D01*
X02858156Y02506571D01*
X02858415Y02506364D01*
X02858700Y02506182D01*
X02858985Y02506053D01*
X02859296Y02505923D01*
X02859581Y02505819D01*
X02859840Y02505768D01*
X02860073Y02505716D01*
X02860280Y02505664D01*
X02860436Y02505638D01*
X02860540D01*
X02860565D01*
Y02510975D01*
D02*
G37*
%LPD*%
D13*
X02992119Y02547140D02*
G03*
X02992119Y02538860I-00047319J-00004140D01*
G01*
X02999410D01*
Y02547140D01*
X02992119D02*
X02999410D01*
D15*
X02909800Y02584998D02*
Y02579166D01*
X02908634Y02578000D01*
X02906301D01*
X02905135Y02579166D01*
Y02584998D01*
X02902802Y02578000D02*
X02900470D01*
X02901636D01*
Y02584998D01*
X02902802Y02583831D01*
M02*
