%TF.GenerationSoftware,Altium Limited,Altium Designer,19.1.5 (86)*%
G04 Layer_Color=16711935*
%FSLAX44Y44*%
%MOMM*%
%TF.FileFunction,Soldermask,Bot*%
%TF.Part,Single*%
G01*
G75*
%TA.AperFunction,ComponentPad*%
%ADD24R,1.8000X1.8000*%
%ADD25C,1.8000*%
%ADD32R,2.0000X2.0000*%
%ADD33C,2.0000*%
%ADD34R,1.8000X1.8000*%
%TA.AperFunction,WasherPad*%
G04:AMPARAMS|DCode=35|XSize=0.2mm|YSize=0.2mm|CornerRadius=0mm|HoleSize=0mm|Usage=FLASHONLY|Rotation=90.000|XOffset=0mm|YOffset=0mm|HoleType=Round|Shape=RoundedRectangle|*
%AMROUNDEDRECTD35*
21,1,0.2000,0.2000,0,0,90.0*
21,1,0.2000,0.2000,0,0,90.0*
1,1,0.0000,0.1000,0.1000*
1,1,0.0000,0.1000,-0.1000*
1,1,0.0000,-0.1000,-0.1000*
1,1,0.0000,-0.1000,0.1000*
%
%ADD35ROUNDEDRECTD35*%
%TA.AperFunction,ViaPad*%
%ADD36C,0.9000*%
D24*
X-25000Y-30000D02*
D03*
D25*
X73500Y-53000D02*
D03*
Y-78400D02*
D03*
X25000Y-80000D02*
D03*
Y-30000D02*
D03*
X-25000Y-80000D02*
D03*
D32*
X17960Y62960D02*
D03*
D33*
X-17960D02*
D03*
Y27040D02*
D03*
X17960D02*
D03*
D34*
X73500Y-27600D02*
D03*
D35*
X90000Y105000D02*
D03*
X-90000D02*
D03*
X90000Y-105000D02*
D03*
X-90000D02*
D03*
D36*
X92750Y80000D02*
D03*
X-56555Y-67250D02*
D03*
X-35000Y103000D02*
D03*
X35000D02*
D03*
X-39645Y-110000D02*
D03*
%TF.MD5,d68915cdd2c2dc726ae15d1284a731f5*%
M02*
