%TF.GenerationSoftware,Altium Limited,Altium Designer,19.1.5 (86)*%
G04 Layer_Color=32896*
%FSLAX44Y44*%
%MOMM*%
%TF.FileFunction,Legend,Bot*%
%TF.Part,Single*%
G01*
G75*
%TA.AperFunction,NonConductor*%
%ADD30C,0.2000*%
%ADD31C,0.1500*%
G36*
X-85058Y-3126D02*
X-93530D01*
X-94670D01*
X-95758D01*
X-96276D01*
X-96769Y-3100D01*
X-97235D01*
X-97675D01*
X-98064D01*
X-98427D01*
X-98738Y-3074D01*
X-99023D01*
X-99230D01*
X-99385D01*
X-99489D01*
X-99515D01*
Y-3385D01*
X-98608Y-3593D01*
X-97805Y-3800D01*
X-97079Y-3981D01*
X-96458Y-4111D01*
X-95914Y-4266D01*
X-95447Y-4370D01*
X-95033Y-4473D01*
X-94696Y-4551D01*
X-94411Y-4629D01*
X-94204Y-4681D01*
X-94022Y-4733D01*
X-93893Y-4758D01*
X-93789Y-4784D01*
X-93737Y-4810D01*
X-93686D01*
X-85058Y-7038D01*
Y-10458D01*
X-93789Y-12738D01*
X-94204Y-12842D01*
X-94618Y-12971D01*
X-95551Y-13204D01*
X-96510Y-13438D01*
X-97442Y-13645D01*
X-97857Y-13749D01*
X-98245Y-13852D01*
X-98608Y-13930D01*
X-98919Y-14008D01*
X-99152Y-14059D01*
X-99359Y-14111D01*
X-99463Y-14137D01*
X-99515D01*
Y-14448D01*
X-98790D01*
X-98116Y-14422D01*
X-97494D01*
X-96898D01*
X-96354D01*
X-95888D01*
X-95447Y-14396D01*
X-95033D01*
X-94696D01*
X-94385D01*
X-94126D01*
X-93919D01*
X-93763D01*
X-93660D01*
X-93582D01*
X-93556D01*
X-85058D01*
Y-17194D01*
X-101924D01*
Y-12427D01*
X-93271Y-10277D01*
X-92857Y-10173D01*
X-92416Y-10044D01*
X-91976Y-9940D01*
X-91587Y-9837D01*
X-91198Y-9759D01*
X-90913Y-9681D01*
X-90810Y-9655D01*
X-90732D01*
X-90680Y-9629D01*
X-90654D01*
X-90266Y-9552D01*
X-89903Y-9448D01*
X-89566Y-9396D01*
X-89281Y-9318D01*
X-88996Y-9266D01*
X-88763Y-9189D01*
X-88556Y-9163D01*
X-88374Y-9111D01*
X-88090Y-9033D01*
X-87908Y-8982D01*
X-87779Y-8956D01*
X-87753D01*
Y-8645D01*
X-88763Y-8463D01*
X-89748Y-8256D01*
X-90680Y-8049D01*
X-91121Y-7945D01*
X-91535Y-7842D01*
X-91898Y-7764D01*
X-92235Y-7686D01*
X-92546Y-7608D01*
X-92805Y-7557D01*
X-93012Y-7505D01*
X-93167Y-7453D01*
X-93271Y-7427D01*
X-93297D01*
X-101924Y-5303D01*
Y-536D01*
X-85058D01*
Y-3126D01*
D02*
G37*
G36*
X-64197Y-6170D02*
X-64223Y-6663D01*
X-64249Y-7103D01*
X-64301Y-7544D01*
X-64378Y-7958D01*
X-64456Y-8321D01*
X-64534Y-8658D01*
X-64637Y-8995D01*
X-64741Y-9280D01*
X-64845Y-9539D01*
X-64948Y-9746D01*
X-65026Y-9953D01*
X-65104Y-10108D01*
X-65182Y-10238D01*
X-65233Y-10316D01*
X-65285Y-10368D01*
Y-10394D01*
X-65544Y-10704D01*
X-65803Y-10963D01*
X-66088Y-11197D01*
X-66399Y-11404D01*
X-66710Y-11559D01*
X-66995Y-11715D01*
X-67591Y-11922D01*
X-68135Y-12026D01*
X-68368Y-12077D01*
X-68576Y-12104D01*
X-68731Y-12129D01*
X-68861D01*
X-68938D01*
X-68964D01*
X-69508Y-12104D01*
X-70001Y-12000D01*
X-70441Y-11870D01*
X-70804Y-11715D01*
X-71115Y-11533D01*
X-71322Y-11404D01*
X-71451Y-11300D01*
X-71503Y-11274D01*
X-71918Y-10860D01*
X-72255Y-10368D01*
X-72514Y-9875D01*
X-72721Y-9383D01*
X-72850Y-8943D01*
X-72928Y-8761D01*
X-72954Y-8606D01*
X-73006Y-8450D01*
Y-8347D01*
X-73032Y-8295D01*
Y-8269D01*
X-73161D01*
X-73291Y-8787D01*
X-73446Y-9228D01*
X-73628Y-9616D01*
X-73835Y-9953D01*
X-74016Y-10212D01*
X-74172Y-10419D01*
X-74275Y-10523D01*
X-74301Y-10575D01*
X-74690Y-10912D01*
X-75130Y-11171D01*
X-75545Y-11352D01*
X-75959Y-11482D01*
X-76296Y-11559D01*
X-76581Y-11585D01*
X-76685Y-11611D01*
X-76762D01*
X-76814D01*
X-76840D01*
X-77203D01*
X-77514Y-11559D01*
X-78110Y-11430D01*
X-78628Y-11249D01*
X-79042Y-11067D01*
X-79379Y-10860D01*
X-79612Y-10678D01*
X-79742Y-10549D01*
X-79794Y-10523D01*
Y-10497D01*
X-80027Y-10212D01*
X-80208Y-9901D01*
X-80390Y-9539D01*
X-80519Y-9176D01*
X-80752Y-8425D01*
X-80908Y-7647D01*
X-80960Y-7285D01*
X-80985Y-6948D01*
X-81037Y-6663D01*
Y-6378D01*
X-81063Y-6170D01*
Y177D01*
X-64197D01*
Y-6170D01*
D02*
G37*
G36*
X-69586Y-14306D02*
X-69094Y-14332D01*
X-68653Y-14409D01*
X-68239Y-14487D01*
X-67850Y-14591D01*
X-67487Y-14694D01*
X-67176Y-14798D01*
X-66866Y-14927D01*
X-66606Y-15057D01*
X-66373Y-15161D01*
X-66192Y-15264D01*
X-66011Y-15368D01*
X-65881Y-15446D01*
X-65803Y-15523D01*
X-65752Y-15549D01*
X-65726Y-15575D01*
X-65415Y-15860D01*
X-65130Y-16197D01*
X-64871Y-16534D01*
X-64663Y-16870D01*
X-64482Y-17233D01*
X-64327Y-17596D01*
X-64223Y-17959D01*
X-64119Y-18296D01*
X-64042Y-18632D01*
X-63990Y-18943D01*
X-63938Y-19228D01*
X-63912Y-19461D01*
X-63886Y-19643D01*
Y-19928D01*
X-63938Y-20627D01*
X-64042Y-21249D01*
X-64197Y-21845D01*
X-64430Y-22363D01*
X-64689Y-22803D01*
X-64974Y-23218D01*
X-65311Y-23581D01*
X-65622Y-23892D01*
X-65959Y-24177D01*
X-66270Y-24384D01*
X-66555Y-24565D01*
X-66814Y-24721D01*
X-67047Y-24824D01*
X-67202Y-24902D01*
X-67332Y-24954D01*
X-67358D01*
X-68083Y-22467D01*
X-67669Y-22337D01*
X-67332Y-22182D01*
X-67021Y-22026D01*
X-66762Y-21819D01*
X-66529Y-21612D01*
X-66347Y-21404D01*
X-66192Y-21197D01*
X-66062Y-20990D01*
X-65959Y-20783D01*
X-65907Y-20601D01*
X-65855Y-20420D01*
X-65803Y-20264D01*
Y-20135D01*
X-65778Y-20031D01*
Y-19954D01*
X-65829Y-19461D01*
X-65933Y-19047D01*
X-66062Y-18658D01*
X-66244Y-18373D01*
X-66399Y-18114D01*
X-66555Y-17959D01*
X-66658Y-17829D01*
X-66684Y-17803D01*
X-67099Y-17518D01*
X-67565Y-17311D01*
X-68032Y-17181D01*
X-68498Y-17078D01*
X-68912Y-17000D01*
X-69094Y-16974D01*
X-69249D01*
X-69379Y-16948D01*
X-69482D01*
X-69534D01*
X-69560D01*
Y-25006D01*
X-70130D01*
X-70622Y-24980D01*
X-71115Y-24954D01*
X-71555Y-24876D01*
X-71969Y-24798D01*
X-72384Y-24695D01*
X-72747Y-24591D01*
X-73084Y-24462D01*
X-73369Y-24358D01*
X-73653Y-24228D01*
X-73887Y-24099D01*
X-74094Y-23995D01*
X-74249Y-23892D01*
X-74379Y-23814D01*
X-74483Y-23736D01*
X-74534Y-23710D01*
X-74560Y-23684D01*
X-74897Y-23399D01*
X-75156Y-23088D01*
X-75415Y-22778D01*
X-75623Y-22441D01*
X-75804Y-22104D01*
X-75959Y-21767D01*
X-76063Y-21456D01*
X-76167Y-21145D01*
X-76244Y-20835D01*
X-76296Y-20575D01*
X-76348Y-20316D01*
X-76374Y-20109D01*
X-76400Y-19928D01*
Y-19694D01*
X-76374Y-19280D01*
X-76348Y-18891D01*
X-76270Y-18503D01*
X-76167Y-18140D01*
X-75933Y-17518D01*
X-75778Y-17233D01*
X-75648Y-16974D01*
X-75519Y-16741D01*
X-75363Y-16534D01*
X-75234Y-16378D01*
X-75130Y-16223D01*
X-75027Y-16119D01*
X-74975Y-16042D01*
X-74923Y-15990D01*
X-74897Y-15964D01*
X-74560Y-15679D01*
X-74198Y-15420D01*
X-73809Y-15187D01*
X-73420Y-14979D01*
X-73032Y-14824D01*
X-72617Y-14694D01*
X-71840Y-14487D01*
X-71477Y-14409D01*
X-71140Y-14358D01*
X-70855Y-14332D01*
X-70596Y-14306D01*
X-70389Y-14280D01*
X-70208D01*
X-70104D01*
X-70078D01*
X-69586Y-14306D01*
D02*
G37*
G36*
X-87753Y-20277D02*
X-87286Y-20381D01*
X-86846Y-20536D01*
X-86509Y-20692D01*
X-86224Y-20847D01*
X-86017Y-21003D01*
X-85887Y-21107D01*
X-85836Y-21132D01*
X-85473Y-21547D01*
X-85214Y-21987D01*
X-85032Y-22454D01*
X-84903Y-22920D01*
X-84825Y-23309D01*
X-84799Y-23490D01*
Y-23646D01*
X-84773Y-23749D01*
Y-23930D01*
X-84799Y-24371D01*
X-84851Y-24811D01*
X-84955Y-25200D01*
X-85058Y-25563D01*
X-85188Y-25900D01*
X-85343Y-26210D01*
X-85525Y-26469D01*
X-85706Y-26728D01*
X-85861Y-26962D01*
X-86043Y-27143D01*
X-86198Y-27324D01*
X-86328Y-27454D01*
X-86431Y-27558D01*
X-86535Y-27635D01*
X-86587Y-27661D01*
X-86613Y-27687D01*
X-86276Y-27713D01*
X-85991Y-27739D01*
X-85732Y-27791D01*
X-85499Y-27817D01*
X-85317Y-27843D01*
X-85162D01*
X-85084Y-27868D01*
X-85058D01*
Y-30382D01*
X-85732Y-30330D01*
X-86354Y-30278D01*
X-86950Y-30252D01*
X-87494Y-30226D01*
X-87934Y-30200D01*
X-88115D01*
X-88271D01*
X-88400D01*
X-88504D01*
X-88556D01*
X-88582D01*
X-93323D01*
X-93686D01*
X-94022Y-30148D01*
X-94644Y-29993D01*
X-95162Y-29786D01*
X-95603Y-29475D01*
X-95991Y-29138D01*
X-96328Y-28723D01*
X-96587Y-28309D01*
X-96795Y-27894D01*
X-96950Y-27454D01*
X-97079Y-27039D01*
X-97157Y-26651D01*
X-97235Y-26288D01*
X-97261Y-26003D01*
X-97287Y-25770D01*
Y-25563D01*
X-97261Y-24863D01*
X-97157Y-24215D01*
X-96976Y-23620D01*
X-96769Y-23101D01*
X-96510Y-22661D01*
X-96250Y-22246D01*
X-95940Y-21910D01*
X-95629Y-21599D01*
X-95318Y-21366D01*
X-95033Y-21158D01*
X-94748Y-20977D01*
X-94489Y-20847D01*
X-94282Y-20744D01*
X-94126Y-20692D01*
X-93996Y-20640D01*
X-93971D01*
X-93297Y-23205D01*
X-93634Y-23283D01*
X-93919Y-23386D01*
X-94178Y-23516D01*
X-94385Y-23620D01*
X-94541Y-23749D01*
X-94670Y-23853D01*
X-94748Y-23905D01*
X-94774Y-23930D01*
X-94981Y-24190D01*
X-95136Y-24449D01*
X-95240Y-24708D01*
X-95318Y-24941D01*
X-95370Y-25148D01*
X-95395Y-25329D01*
Y-25485D01*
X-95370Y-25848D01*
X-95318Y-26158D01*
X-95266Y-26418D01*
X-95188Y-26625D01*
X-95085Y-26780D01*
X-95033Y-26884D01*
X-94981Y-26962D01*
X-94955Y-26988D01*
X-94748Y-27169D01*
X-94489Y-27324D01*
X-94204Y-27428D01*
X-93919Y-27480D01*
X-93686Y-27532D01*
X-93478Y-27558D01*
X-93323D01*
X-93297D01*
X-93271D01*
X-92598D01*
X-92571Y-26858D01*
X-92520Y-26184D01*
X-92442Y-25615D01*
X-92390Y-25122D01*
X-92338Y-24708D01*
X-92312Y-24526D01*
X-92287Y-24397D01*
X-92261Y-24293D01*
Y-24215D01*
X-92235Y-24164D01*
Y-24138D01*
X-92079Y-23464D01*
X-91846Y-22868D01*
X-91587Y-22324D01*
X-91302Y-21884D01*
X-90991Y-21521D01*
X-90654Y-21210D01*
X-90317Y-20951D01*
X-89981Y-20744D01*
X-89644Y-20588D01*
X-89333Y-20459D01*
X-89048Y-20381D01*
X-88815Y-20303D01*
X-88608Y-20277D01*
X-88426Y-20252D01*
X-88323D01*
X-88297D01*
X-87753Y-20277D01*
D02*
G37*
G36*
X-64197Y-30498D02*
X-81374D01*
Y-27778D01*
X-64197D01*
Y-30498D01*
D02*
G37*
G36*
X-62668Y-33011D02*
X-62461Y-33037D01*
X-62073Y-33167D01*
X-61736Y-33374D01*
X-61451Y-33607D01*
X-61218Y-33814D01*
X-61036Y-34022D01*
X-60933Y-34151D01*
X-60907Y-34203D01*
X-60751Y-34488D01*
X-60596Y-34799D01*
X-60389Y-35473D01*
X-60233Y-36172D01*
X-60104Y-36846D01*
X-60078Y-37157D01*
X-60052Y-37441D01*
X-60026Y-37701D01*
Y-37934D01*
X-60000Y-38115D01*
Y-38866D01*
X-60052Y-39307D01*
X-60078Y-39747D01*
X-60156Y-40162D01*
X-60207Y-40525D01*
X-60285Y-40887D01*
X-60363Y-41198D01*
X-60466Y-41483D01*
X-60544Y-41742D01*
X-60622Y-41975D01*
X-60700Y-42183D01*
X-60777Y-42338D01*
X-60829Y-42468D01*
X-60881Y-42545D01*
X-60907Y-42597D01*
Y-42623D01*
X-61114Y-42934D01*
X-61321Y-43193D01*
X-61529Y-43426D01*
X-61762Y-43633D01*
X-61995Y-43789D01*
X-62228Y-43944D01*
X-62668Y-44152D01*
X-63057Y-44255D01*
X-63213Y-44307D01*
X-63368Y-44333D01*
X-63498Y-44359D01*
X-63575D01*
X-63627D01*
X-63653D01*
X-64093Y-44333D01*
X-64482Y-44255D01*
X-64819Y-44126D01*
X-65104Y-43996D01*
X-65311Y-43841D01*
X-65467Y-43737D01*
X-65570Y-43633D01*
X-65596Y-43608D01*
X-65752Y-43400D01*
X-65907Y-43193D01*
X-66140Y-42675D01*
X-66347Y-42105D01*
X-66477Y-41561D01*
X-66581Y-41043D01*
X-66632Y-40835D01*
X-66658Y-40628D01*
X-66684Y-40473D01*
X-66710Y-40343D01*
Y-40240D01*
X-66943Y-37545D01*
X-66969Y-37234D01*
X-67021Y-36949D01*
X-67073Y-36716D01*
X-67099Y-36561D01*
X-67151Y-36405D01*
X-67176Y-36327D01*
X-67202Y-36276D01*
Y-36250D01*
X-67280Y-36120D01*
X-67384Y-36042D01*
X-67565Y-35939D01*
X-67721Y-35887D01*
X-67772D01*
X-67798D01*
X-68006Y-35913D01*
X-68213Y-36016D01*
X-68394Y-36146D01*
X-68550Y-36327D01*
X-68653Y-36483D01*
X-68757Y-36612D01*
X-68809Y-36716D01*
X-68835Y-36742D01*
X-68731Y-37286D01*
X-68705Y-37545D01*
X-68679Y-37804D01*
X-68653Y-37985D01*
Y-38296D01*
X-68705Y-38996D01*
X-68809Y-39618D01*
X-68938Y-40188D01*
X-69120Y-40654D01*
X-69275Y-41017D01*
X-69353Y-41172D01*
X-69430Y-41276D01*
X-69482Y-41379D01*
X-69534Y-41457D01*
X-69560Y-41483D01*
Y-41509D01*
X-69767Y-41768D01*
X-70001Y-42001D01*
X-70234Y-42183D01*
X-70493Y-42364D01*
X-70726Y-42519D01*
X-70985Y-42623D01*
X-71477Y-42804D01*
X-71918Y-42908D01*
X-72099Y-42934D01*
X-72280Y-42960D01*
X-72410Y-42986D01*
X-72514D01*
X-72565D01*
X-72591D01*
X-73084Y-42934D01*
X-73550Y-42830D01*
X-73938Y-42675D01*
X-74301Y-42519D01*
X-74586Y-42338D01*
X-74794Y-42183D01*
X-74923Y-42079D01*
X-74975Y-42027D01*
X-75182Y-42286D01*
X-75312Y-42519D01*
X-75389Y-42701D01*
X-75415Y-42727D01*
Y-42753D01*
X-75467Y-42960D01*
X-75519Y-43167D01*
X-75571Y-43633D01*
X-75597Y-43841D01*
Y-44152D01*
X-77799Y-44307D01*
X-77773Y-43867D01*
X-77747Y-43478D01*
X-77669Y-43141D01*
X-77592Y-42856D01*
X-77514Y-42649D01*
X-77462Y-42468D01*
X-77410Y-42364D01*
X-77384Y-42338D01*
X-77203Y-42027D01*
X-76944Y-41742D01*
X-76685Y-41483D01*
X-76426Y-41276D01*
X-76192Y-41094D01*
X-75985Y-40965D01*
X-75856Y-40887D01*
X-75830Y-40861D01*
X-75804D01*
X-76011Y-40447D01*
X-76141Y-40006D01*
X-76244Y-39592D01*
X-76322Y-39203D01*
X-76374Y-38840D01*
X-76400Y-38581D01*
Y-38322D01*
X-76348Y-37623D01*
X-76244Y-37001D01*
X-76115Y-36457D01*
X-75933Y-35991D01*
X-75752Y-35628D01*
X-75674Y-35473D01*
X-75623Y-35369D01*
X-75545Y-35265D01*
X-75519Y-35187D01*
X-75467Y-35162D01*
Y-35136D01*
X-75260Y-34877D01*
X-75027Y-34643D01*
X-74794Y-34436D01*
X-74560Y-34281D01*
X-74327Y-34125D01*
X-74094Y-33996D01*
X-73628Y-33814D01*
X-73213Y-33711D01*
X-73032Y-33685D01*
X-72876Y-33659D01*
X-72747Y-33633D01*
X-72643D01*
X-72591D01*
X-72565D01*
X-72177Y-33659D01*
X-71840Y-33711D01*
X-71503Y-33788D01*
X-71192Y-33892D01*
X-70648Y-34177D01*
X-70208Y-34488D01*
X-69871Y-34799D01*
X-69612Y-35084D01*
X-69508Y-35187D01*
X-69456Y-35265D01*
X-69430Y-35317D01*
X-69405Y-35343D01*
X-69197Y-35032D01*
X-68964Y-34747D01*
X-68757Y-34488D01*
X-68550Y-34281D01*
X-68342Y-34099D01*
X-68135Y-33944D01*
X-67928Y-33840D01*
X-67747Y-33737D01*
X-67410Y-33607D01*
X-67176Y-33529D01*
X-67073Y-33503D01*
X-66995D01*
X-66969D01*
X-66943D01*
X-66710Y-33529D01*
X-66477Y-33581D01*
X-66270Y-33659D01*
X-66088Y-33763D01*
X-65803Y-34048D01*
X-65570Y-34358D01*
X-65389Y-34643D01*
X-65285Y-34928D01*
X-65259Y-35032D01*
X-65233Y-35110D01*
X-65208Y-35162D01*
Y-35187D01*
X-65052Y-34799D01*
X-64871Y-34462D01*
X-64689Y-34177D01*
X-64508Y-33918D01*
X-64327Y-33711D01*
X-64119Y-33529D01*
X-63938Y-33374D01*
X-63757Y-33270D01*
X-63420Y-33115D01*
X-63161Y-33011D01*
X-63057D01*
X-62979Y-32985D01*
X-62928D01*
X-62902D01*
X-62668Y-33011D01*
D02*
G37*
G36*
X-85058Y-36340D02*
X-88867D01*
X-90680Y-37973D01*
X-85058Y-40926D01*
Y-43906D01*
X-92520Y-39708D01*
X-97002Y-43698D01*
Y-40615D01*
X-91768Y-36340D01*
X-102235D01*
Y-33646D01*
X-85058D01*
Y-36340D01*
D02*
G37*
G36*
X-64197Y-49385D02*
X-76141D01*
Y-46665D01*
X-64197D01*
Y-49385D01*
D02*
G37*
G36*
X-78265Y-49515D02*
X-81089D01*
Y-46561D01*
X-78265D01*
Y-49515D01*
D02*
G37*
G36*
X-90447Y-45331D02*
X-89955Y-45356D01*
X-89514Y-45434D01*
X-89100Y-45512D01*
X-88711Y-45616D01*
X-88349Y-45719D01*
X-88038Y-45823D01*
X-87727Y-45952D01*
X-87468Y-46082D01*
X-87234Y-46185D01*
X-87053Y-46289D01*
X-86872Y-46393D01*
X-86742Y-46470D01*
X-86664Y-46548D01*
X-86613Y-46574D01*
X-86587Y-46600D01*
X-86276Y-46885D01*
X-85991Y-47222D01*
X-85732Y-47559D01*
X-85525Y-47895D01*
X-85343Y-48258D01*
X-85188Y-48621D01*
X-85084Y-48983D01*
X-84980Y-49320D01*
X-84903Y-49657D01*
X-84851Y-49968D01*
X-84799Y-50253D01*
X-84773Y-50486D01*
X-84747Y-50668D01*
Y-50953D01*
X-84799Y-51652D01*
X-84903Y-52274D01*
X-85058Y-52870D01*
X-85291Y-53388D01*
X-85550Y-53828D01*
X-85836Y-54243D01*
X-86172Y-54605D01*
X-86483Y-54916D01*
X-86820Y-55201D01*
X-87131Y-55409D01*
X-87416Y-55590D01*
X-87675Y-55746D01*
X-87908Y-55849D01*
X-88064Y-55927D01*
X-88193Y-55979D01*
X-88219D01*
X-88944Y-53492D01*
X-88530Y-53362D01*
X-88193Y-53207D01*
X-87882Y-53051D01*
X-87623Y-52844D01*
X-87390Y-52636D01*
X-87209Y-52429D01*
X-87053Y-52222D01*
X-86924Y-52015D01*
X-86820Y-51807D01*
X-86768Y-51626D01*
X-86716Y-51445D01*
X-86664Y-51289D01*
Y-51160D01*
X-86639Y-51056D01*
Y-50978D01*
X-86690Y-50486D01*
X-86794Y-50072D01*
X-86924Y-49683D01*
X-87105Y-49398D01*
X-87260Y-49139D01*
X-87416Y-48983D01*
X-87520Y-48854D01*
X-87545Y-48828D01*
X-87960Y-48543D01*
X-88426Y-48336D01*
X-88893Y-48206D01*
X-89359Y-48103D01*
X-89774Y-48025D01*
X-89955Y-47999D01*
X-90110D01*
X-90240Y-47973D01*
X-90344D01*
X-90395D01*
X-90421D01*
Y-56031D01*
X-90991D01*
X-91483Y-56005D01*
X-91976Y-55979D01*
X-92416Y-55901D01*
X-92831Y-55823D01*
X-93245Y-55720D01*
X-93608Y-55616D01*
X-93945Y-55486D01*
X-94230Y-55383D01*
X-94515Y-55253D01*
X-94748Y-55124D01*
X-94955Y-55020D01*
X-95111Y-54916D01*
X-95240Y-54839D01*
X-95344Y-54761D01*
X-95395Y-54735D01*
X-95421Y-54709D01*
X-95758Y-54424D01*
X-96017Y-54113D01*
X-96276Y-53802D01*
X-96484Y-53466D01*
X-96665Y-53129D01*
X-96820Y-52792D01*
X-96924Y-52481D01*
X-97028Y-52170D01*
X-97105Y-51859D01*
X-97157Y-51600D01*
X-97209Y-51341D01*
X-97235Y-51134D01*
X-97261Y-50953D01*
Y-50719D01*
X-97235Y-50305D01*
X-97209Y-49916D01*
X-97131Y-49528D01*
X-97028Y-49165D01*
X-96795Y-48543D01*
X-96639Y-48258D01*
X-96510Y-47999D01*
X-96380Y-47766D01*
X-96225Y-47559D01*
X-96095Y-47403D01*
X-95991Y-47248D01*
X-95888Y-47144D01*
X-95836Y-47066D01*
X-95784Y-47014D01*
X-95758Y-46989D01*
X-95421Y-46704D01*
X-95059Y-46445D01*
X-94670Y-46211D01*
X-94282Y-46004D01*
X-93893Y-45849D01*
X-93478Y-45719D01*
X-92701Y-45512D01*
X-92338Y-45434D01*
X-92002Y-45382D01*
X-91717Y-45356D01*
X-91458Y-45331D01*
X-91250Y-45305D01*
X-91069D01*
X-90965D01*
X-90939D01*
X-90447Y-45331D01*
D02*
G37*
G36*
X-66840Y-52857D02*
X-66347Y-52960D01*
X-65907Y-53116D01*
X-65544Y-53271D01*
X-65259Y-53427D01*
X-65052Y-53582D01*
X-64922Y-53686D01*
X-64871Y-53712D01*
X-64534Y-54100D01*
X-64301Y-54515D01*
X-64119Y-54955D01*
X-64016Y-55344D01*
X-63938Y-55707D01*
X-63912Y-56017D01*
X-63886Y-56121D01*
Y-56277D01*
X-63912Y-56691D01*
X-63964Y-57080D01*
X-64068Y-57417D01*
X-64171Y-57727D01*
X-64249Y-57986D01*
X-64353Y-58194D01*
X-64404Y-58297D01*
X-64430Y-58349D01*
X-64689Y-58738D01*
X-65000Y-59101D01*
X-65285Y-59412D01*
X-65596Y-59671D01*
X-65855Y-59878D01*
X-66062Y-60033D01*
X-66218Y-60137D01*
X-66270Y-60163D01*
X-64197D01*
Y-62805D01*
X-76141D01*
Y-60059D01*
X-68265D01*
X-67980Y-59904D01*
X-67695Y-59722D01*
X-67462Y-59515D01*
X-67254Y-59360D01*
X-67099Y-59178D01*
X-66969Y-59075D01*
X-66891Y-58971D01*
X-66866Y-58945D01*
X-66658Y-58634D01*
X-66503Y-58349D01*
X-66373Y-58064D01*
X-66296Y-57831D01*
X-66244Y-57624D01*
X-66218Y-57442D01*
Y-57313D01*
X-66244Y-57028D01*
X-66296Y-56769D01*
X-66399Y-56536D01*
X-66529Y-56328D01*
X-66684Y-56173D01*
X-66840Y-56043D01*
X-67202Y-55836D01*
X-67565Y-55707D01*
X-67876Y-55655D01*
X-68006Y-55629D01*
X-68109D01*
X-68161D01*
X-68187D01*
X-76141D01*
Y-52831D01*
X-67410D01*
X-66840Y-52857D01*
D02*
G37*
G36*
X-85058Y-68207D02*
X-101924D01*
Y-65228D01*
X-85058D01*
Y-68207D01*
D02*
G37*
G36*
Y-74710D02*
X-92882D01*
X-93193Y-74917D01*
X-93452Y-75125D01*
X-93712Y-75332D01*
X-93893Y-75513D01*
X-94074Y-75669D01*
X-94178Y-75824D01*
X-94256Y-75902D01*
X-94282Y-75928D01*
X-94489Y-76239D01*
X-94644Y-76524D01*
X-94748Y-76783D01*
X-94825Y-77016D01*
X-94877Y-77223D01*
X-94903Y-77379D01*
Y-77508D01*
X-94877Y-77793D01*
X-94825Y-78052D01*
X-94722Y-78260D01*
X-94592Y-78441D01*
X-94437Y-78622D01*
X-94256Y-78752D01*
X-93893Y-78933D01*
X-93530Y-79063D01*
X-93193Y-79114D01*
X-93064Y-79140D01*
X-92960D01*
X-92908D01*
X-92882D01*
X-85058D01*
Y-81964D01*
X-93660D01*
X-94230Y-81938D01*
X-94722Y-81835D01*
X-95162Y-81705D01*
X-95525Y-81550D01*
X-95810Y-81369D01*
X-96017Y-81239D01*
X-96147Y-81135D01*
X-96199Y-81109D01*
X-96561Y-80721D01*
X-96820Y-80306D01*
X-97002Y-79892D01*
X-97131Y-79477D01*
X-97209Y-79114D01*
X-97235Y-78804D01*
X-97261Y-78700D01*
Y-78545D01*
X-97235Y-78156D01*
X-97183Y-77767D01*
X-97079Y-77431D01*
X-96976Y-77120D01*
X-96872Y-76860D01*
X-96769Y-76679D01*
X-96717Y-76550D01*
X-96691Y-76498D01*
X-96432Y-76109D01*
X-96147Y-75746D01*
X-95862Y-75436D01*
X-95577Y-75151D01*
X-95318Y-74943D01*
X-95085Y-74762D01*
X-94955Y-74658D01*
X-94929Y-74632D01*
X-97002D01*
Y-71990D01*
X-85058D01*
Y-74710D01*
D02*
G37*
G36*
X-64197Y-69049D02*
X-72021D01*
X-72332Y-69205D01*
X-72591Y-69386D01*
X-72825Y-69567D01*
X-73032Y-69749D01*
X-73187Y-69878D01*
X-73317Y-70008D01*
X-73394Y-70086D01*
X-73420Y-70111D01*
X-73628Y-70396D01*
X-73783Y-70655D01*
X-73887Y-70915D01*
X-73964Y-71148D01*
X-74016Y-71355D01*
X-74042Y-71511D01*
Y-71640D01*
X-74016Y-71899D01*
X-73964Y-72132D01*
X-73861Y-72314D01*
X-73731Y-72469D01*
X-73394Y-72728D01*
X-73032Y-72909D01*
X-72669Y-73013D01*
X-72332Y-73065D01*
X-72203Y-73091D01*
X-72099D01*
X-72047D01*
X-72021D01*
X-64197D01*
Y-75811D01*
X-72021D01*
X-72306Y-75967D01*
X-72591Y-76122D01*
X-72825Y-76304D01*
X-73032Y-76459D01*
X-73187Y-76614D01*
X-73291Y-76718D01*
X-73369Y-76796D01*
X-73394Y-76822D01*
X-73602Y-77107D01*
X-73757Y-77366D01*
X-73887Y-77599D01*
X-73964Y-77832D01*
X-74016Y-78013D01*
X-74042Y-78169D01*
Y-78298D01*
X-74016Y-78583D01*
X-73964Y-78843D01*
X-73861Y-79076D01*
X-73731Y-79257D01*
X-73576Y-79412D01*
X-73394Y-79542D01*
X-73032Y-79749D01*
X-72669Y-79879D01*
X-72332Y-79931D01*
X-72203Y-79956D01*
X-72099D01*
X-72047D01*
X-72021D01*
X-64197D01*
Y-82677D01*
X-72799D01*
X-73369Y-82651D01*
X-73861Y-82547D01*
X-74301Y-82444D01*
X-74664Y-82288D01*
X-74949Y-82159D01*
X-75156Y-82029D01*
X-75286Y-81925D01*
X-75338Y-81900D01*
X-75700Y-81537D01*
X-75959Y-81148D01*
X-76141Y-80734D01*
X-76270Y-80345D01*
X-76348Y-79982D01*
X-76374Y-79697D01*
X-76400Y-79594D01*
Y-79438D01*
X-76374Y-79024D01*
X-76296Y-78635D01*
X-76192Y-78247D01*
X-76037Y-77910D01*
X-75856Y-77573D01*
X-75648Y-77262D01*
X-75441Y-76977D01*
X-75234Y-76692D01*
X-75001Y-76459D01*
X-74794Y-76252D01*
X-74586Y-76070D01*
X-74405Y-75941D01*
X-74249Y-75811D01*
X-74146Y-75733D01*
X-74068Y-75682D01*
X-74042Y-75656D01*
X-74405Y-75552D01*
X-74716Y-75423D01*
X-75001Y-75267D01*
X-75234Y-75112D01*
X-75415Y-74982D01*
X-75571Y-74853D01*
X-75648Y-74775D01*
X-75674Y-74749D01*
X-75908Y-74438D01*
X-76089Y-74101D01*
X-76218Y-73739D01*
X-76322Y-73428D01*
X-76374Y-73143D01*
X-76400Y-72909D01*
Y-72702D01*
X-76374Y-72288D01*
X-76296Y-71899D01*
X-76192Y-71536D01*
X-76037Y-71174D01*
X-75856Y-70837D01*
X-75648Y-70526D01*
X-75441Y-70241D01*
X-75234Y-69982D01*
X-75001Y-69749D01*
X-74794Y-69542D01*
X-74586Y-69360D01*
X-74405Y-69231D01*
X-74249Y-69101D01*
X-74146Y-69023D01*
X-74068Y-68972D01*
X-74042Y-68946D01*
X-76141D01*
Y-66355D01*
X-64197D01*
Y-69049D01*
D02*
G37*
G36*
X-17860Y107848D02*
X-17485Y107626D01*
X-17139Y107446D01*
X-16834Y107307D01*
X-16681Y107252D01*
X-16556Y107196D01*
X-16445Y107155D01*
X-16348Y107113D01*
X-16279Y107085D01*
X-16209Y107071D01*
X-16182Y107058D01*
X-16168D01*
X-16404Y105837D01*
X-16737Y105962D01*
X-17055Y106087D01*
X-17333Y106212D01*
X-17569Y106336D01*
X-17763Y106461D01*
X-17915Y106544D01*
X-17971Y106586D01*
X-18012Y106600D01*
X-18026Y106628D01*
X-18040D01*
Y100290D01*
X-16307D01*
Y99166D01*
X-21091D01*
Y100290D01*
X-19427D01*
Y108111D01*
X-18234D01*
X-17860Y107848D01*
D02*
G37*
G36*
X9655Y103785D02*
X12457Y99166D01*
X10820D01*
X9128Y102051D01*
X9059Y102176D01*
X9003Y102287D01*
X8948Y102384D01*
X8906Y102467D01*
X8878Y102536D01*
X8851Y102578D01*
X8823Y102606D01*
Y102620D01*
X8781Y102536D01*
X8726Y102453D01*
X8698Y102384D01*
X8684Y102370D01*
Y102356D01*
X8601Y102218D01*
X8559Y102120D01*
X8532Y102065D01*
X8518Y102051D01*
X6840Y99166D01*
X5037D01*
X7866Y103854D01*
X5176Y108195D01*
X6826D01*
X8310Y105657D01*
X8421Y105449D01*
X8504Y105296D01*
X8573Y105185D01*
X8615Y105102D01*
X8643Y105047D01*
X8656Y105005D01*
X8670Y104991D01*
X8726Y105088D01*
X8781Y105185D01*
X8837Y105268D01*
X8851Y105282D01*
Y105296D01*
X8934Y105449D01*
X8989Y105560D01*
X9031Y105629D01*
X9045Y105643D01*
X10487Y108195D01*
X12276D01*
X9655Y103785D01*
D02*
G37*
G36*
X-11966Y108181D02*
X-11702Y108139D01*
X-11453Y108070D01*
X-11231Y107987D01*
X-11009Y107876D01*
X-10815Y107737D01*
X-10634Y107584D01*
X-10468Y107418D01*
X-10302Y107238D01*
X-10163Y107044D01*
X-9913Y106628D01*
X-9719Y106184D01*
X-9553Y105726D01*
X-9428Y105268D01*
X-9331Y104825D01*
X-9261Y104409D01*
X-9234Y104214D01*
X-9220Y104034D01*
X-9192Y103868D01*
X-9178Y103715D01*
Y103577D01*
X-9164Y103466D01*
Y103382D01*
Y103313D01*
Y103272D01*
Y103258D01*
X-9178Y102883D01*
X-9192Y102536D01*
X-9234Y102218D01*
X-9275Y101912D01*
X-9331Y101635D01*
X-9386Y101371D01*
X-9442Y101136D01*
X-9511Y100928D01*
X-9580Y100747D01*
X-9636Y100581D01*
X-9691Y100456D01*
X-9747Y100345D01*
X-9788Y100248D01*
X-9830Y100193D01*
X-9844Y100151D01*
X-9858Y100137D01*
X-9997Y99943D01*
X-10163Y99763D01*
X-10329Y99610D01*
X-10496Y99485D01*
X-10676Y99375D01*
X-10856Y99277D01*
X-11037Y99208D01*
X-11217Y99139D01*
X-11369Y99097D01*
X-11522Y99056D01*
X-11661Y99042D01*
X-11786Y99014D01*
X-11883D01*
X-11952Y99000D01*
X-12021D01*
X-12229Y99014D01*
X-12423Y99028D01*
X-12784Y99111D01*
X-13103Y99222D01*
X-13367Y99361D01*
X-13477Y99430D01*
X-13575Y99499D01*
X-13658Y99555D01*
X-13741Y99610D01*
X-13796Y99652D01*
X-13838Y99693D01*
X-13852Y99707D01*
X-13866Y99721D01*
X-14018Y99888D01*
X-14143Y100082D01*
X-14268Y100262D01*
X-14365Y100456D01*
X-14448Y100664D01*
X-14518Y100858D01*
X-14615Y101247D01*
X-14656Y101413D01*
X-14684Y101580D01*
X-14698Y101732D01*
X-14712Y101857D01*
X-14726Y101968D01*
Y102037D01*
Y102093D01*
Y102107D01*
X-14698Y102550D01*
X-14642Y102952D01*
X-14545Y103285D01*
X-14504Y103438D01*
X-14448Y103577D01*
X-14393Y103701D01*
X-14351Y103812D01*
X-14296Y103909D01*
X-14254Y103979D01*
X-14226Y104034D01*
X-14199Y104076D01*
X-14171Y104104D01*
Y104117D01*
X-14046Y104270D01*
X-13907Y104409D01*
X-13769Y104520D01*
X-13630Y104617D01*
X-13477Y104714D01*
X-13339Y104783D01*
X-13047Y104880D01*
X-12798Y104950D01*
X-12687Y104963D01*
X-12590Y104977D01*
X-12521Y104991D01*
X-12410D01*
X-12188Y104977D01*
X-11980Y104950D01*
X-11799Y104894D01*
X-11619Y104825D01*
X-11453Y104755D01*
X-11300Y104658D01*
X-11175Y104575D01*
X-11050Y104478D01*
X-10940Y104381D01*
X-10856Y104284D01*
X-10773Y104187D01*
X-10704Y104117D01*
X-10662Y104048D01*
X-10621Y103993D01*
X-10607Y103965D01*
X-10593Y103951D01*
X-10607Y104242D01*
X-10621Y104506D01*
X-10648Y104755D01*
X-10690Y104991D01*
X-10732Y105199D01*
X-10773Y105407D01*
X-10829Y105588D01*
X-10884Y105768D01*
X-11009Y106073D01*
X-11134Y106322D01*
X-11286Y106531D01*
X-11425Y106697D01*
X-11578Y106822D01*
X-11716Y106919D01*
X-11841Y106988D01*
X-11966Y107044D01*
X-12063Y107071D01*
X-12132Y107085D01*
X-12202D01*
X-12340Y107071D01*
X-12451Y107044D01*
X-12562Y107002D01*
X-12659Y106947D01*
X-12826Y106808D01*
X-12950Y106655D01*
X-13034Y106489D01*
X-13089Y106350D01*
X-13103Y106295D01*
X-13117Y106253D01*
X-13131Y106225D01*
Y106212D01*
X-14545Y106739D01*
X-14420Y107002D01*
X-14282Y107224D01*
X-14115Y107418D01*
X-13935Y107584D01*
X-13741Y107723D01*
X-13561Y107834D01*
X-13367Y107931D01*
X-13172Y108014D01*
X-12992Y108070D01*
X-12812Y108111D01*
X-12659Y108153D01*
X-12521Y108167D01*
X-12410Y108181D01*
X-12313Y108195D01*
X-12243D01*
X-11966Y108181D01*
D02*
G37*
G36*
X1778D02*
X1972Y108167D01*
X2333Y108084D01*
X2652Y107959D01*
X2915Y107834D01*
X3026Y107765D01*
X3137Y107696D01*
X3220Y107626D01*
X3289Y107571D01*
X3345Y107529D01*
X3386Y107487D01*
X3400Y107474D01*
X3414Y107460D01*
X3567Y107293D01*
X3692Y107113D01*
X3803Y106933D01*
X3900Y106739D01*
X3969Y106531D01*
X4038Y106336D01*
X4135Y105962D01*
X4177Y105782D01*
X4205Y105615D01*
X4219Y105463D01*
X4232Y105338D01*
X4246Y105241D01*
Y105158D01*
Y105102D01*
Y105088D01*
X4232Y104866D01*
X4219Y104658D01*
X4149Y104256D01*
X4052Y103923D01*
X3997Y103771D01*
X3941Y103632D01*
X3886Y103507D01*
X3844Y103396D01*
X3789Y103313D01*
X3747Y103230D01*
X3706Y103174D01*
X3678Y103133D01*
X3650Y103105D01*
Y103091D01*
X3525Y102939D01*
X3386Y102800D01*
X3234Y102689D01*
X3095Y102592D01*
X2943Y102509D01*
X2790Y102425D01*
X2513Y102328D01*
X2263Y102259D01*
X2152Y102245D01*
X2055Y102231D01*
X1986Y102218D01*
X1875D01*
X1653Y102231D01*
X1445Y102259D01*
X1251Y102315D01*
X1071Y102384D01*
X904Y102467D01*
X751Y102550D01*
X627Y102647D01*
X502Y102758D01*
X405Y102855D01*
X308Y102952D01*
X238Y103036D01*
X183Y103119D01*
X127Y103188D01*
X100Y103244D01*
X73Y103271D01*
X86Y102994D01*
X100Y102731D01*
X127Y102481D01*
X155Y102245D01*
X183Y102037D01*
X211Y101843D01*
X252Y101663D01*
X294Y101510D01*
X322Y101371D01*
X363Y101247D01*
X391Y101150D01*
X419Y101066D01*
X446Y101011D01*
X460Y100969D01*
X474Y100942D01*
Y100928D01*
X557Y100789D01*
X641Y100664D01*
X724Y100553D01*
X821Y100456D01*
X932Y100373D01*
X1029Y100304D01*
X1223Y100207D01*
X1403Y100151D01*
X1542Y100123D01*
X1597Y100110D01*
X1681D01*
X1805Y100123D01*
X1917Y100151D01*
X2027Y100193D01*
X2124Y100248D01*
X2277Y100387D01*
X2402Y100539D01*
X2499Y100692D01*
X2568Y100831D01*
X2582Y100886D01*
X2596Y100928D01*
X2610Y100955D01*
Y100969D01*
X4038Y100428D01*
X3927Y100179D01*
X3789Y99957D01*
X3622Y99763D01*
X3456Y99596D01*
X3262Y99472D01*
X3068Y99347D01*
X2873Y99250D01*
X2679Y99180D01*
X2485Y99125D01*
X2305Y99069D01*
X2138Y99042D01*
X2000Y99028D01*
X1875Y99014D01*
X1792Y99000D01*
X1708D01*
X1459Y99014D01*
X1223Y99042D01*
X1001Y99083D01*
X793Y99153D01*
X599Y99222D01*
X433Y99305D01*
X266Y99402D01*
X127Y99485D01*
X3Y99583D01*
X-108Y99666D01*
X-205Y99749D01*
X-275Y99818D01*
X-330Y99888D01*
X-386Y99929D01*
X-399Y99957D01*
X-413Y99971D01*
X-566Y100220D01*
X-705Y100484D01*
X-830Y100789D01*
X-940Y101094D01*
X-1024Y101427D01*
X-1093Y101760D01*
X-1148Y102079D01*
X-1204Y102412D01*
X-1245Y102717D01*
X-1273Y102994D01*
X-1287Y103258D01*
X-1301Y103493D01*
X-1315Y103674D01*
Y103812D01*
Y103868D01*
Y103909D01*
Y103923D01*
Y103937D01*
X-1301Y104312D01*
X-1287Y104658D01*
X-1259Y104977D01*
X-1204Y105268D01*
X-1162Y105546D01*
X-1107Y105809D01*
X-1037Y106031D01*
X-982Y106239D01*
X-913Y106420D01*
X-857Y106586D01*
X-788Y106725D01*
X-746Y106836D01*
X-705Y106919D01*
X-663Y106974D01*
X-649Y107016D01*
X-635Y107030D01*
X-497Y107238D01*
X-330Y107418D01*
X-164Y107571D01*
X16Y107709D01*
X197Y107820D01*
X391Y107917D01*
X571Y107987D01*
X738Y108056D01*
X904Y108098D01*
X1071Y108139D01*
X1209Y108153D01*
X1334Y108181D01*
X1431D01*
X1500Y108195D01*
X1570D01*
X1778Y108181D01*
D02*
G37*
G36*
X30000Y99166D02*
X28613D01*
Y103701D01*
Y104312D01*
Y104894D01*
Y105171D01*
X28627Y105435D01*
Y105685D01*
Y105920D01*
Y106128D01*
Y106322D01*
X28641Y106489D01*
Y106642D01*
Y106752D01*
Y106836D01*
Y106891D01*
Y106905D01*
X28475D01*
X28363Y106420D01*
X28253Y105990D01*
X28156Y105601D01*
X28086Y105268D01*
X28003Y104977D01*
X27947Y104728D01*
X27892Y104506D01*
X27850Y104326D01*
X27809Y104173D01*
X27781Y104062D01*
X27753Y103965D01*
X27739Y103896D01*
X27726Y103840D01*
X27712Y103812D01*
Y103785D01*
X26519Y99166D01*
X24688D01*
X23468Y103840D01*
X23412Y104062D01*
X23343Y104284D01*
X23218Y104783D01*
X23094Y105296D01*
X22983Y105795D01*
X22927Y106017D01*
X22872Y106225D01*
X22830Y106420D01*
X22788Y106586D01*
X22761Y106711D01*
X22733Y106822D01*
X22719Y106877D01*
Y106905D01*
X22553D01*
Y106517D01*
X22566Y106156D01*
Y105823D01*
Y105504D01*
Y105213D01*
Y104963D01*
X22580Y104728D01*
Y104506D01*
Y104326D01*
Y104159D01*
Y104020D01*
Y103909D01*
Y103826D01*
Y103771D01*
Y103729D01*
Y103715D01*
Y99166D01*
X21083D01*
Y108195D01*
X23634D01*
X24785Y103563D01*
X24841Y103341D01*
X24910Y103105D01*
X24966Y102869D01*
X25021Y102661D01*
X25063Y102453D01*
X25104Y102301D01*
X25118Y102245D01*
Y102204D01*
X25132Y102176D01*
Y102162D01*
X25174Y101954D01*
X25229Y101760D01*
X25257Y101580D01*
X25299Y101427D01*
X25326Y101274D01*
X25368Y101150D01*
X25382Y101039D01*
X25410Y100942D01*
X25451Y100789D01*
X25479Y100692D01*
X25493Y100623D01*
Y100609D01*
X25659D01*
X25756Y101150D01*
X25867Y101677D01*
X25978Y102176D01*
X26034Y102412D01*
X26089Y102633D01*
X26131Y102828D01*
X26172Y103008D01*
X26214Y103174D01*
X26242Y103313D01*
X26269Y103424D01*
X26297Y103507D01*
X26311Y103563D01*
Y103577D01*
X27448Y108195D01*
X30000D01*
Y99166D01*
D02*
G37*
G36*
X18919D02*
X13094D01*
Y100428D01*
X17324D01*
Y108195D01*
X18919D01*
Y99166D01*
D02*
G37*
G36*
X-22325Y102204D02*
Y101164D01*
X-25709D01*
Y99166D01*
X-27041D01*
Y101164D01*
X-28150D01*
Y102273D01*
X-27041D01*
Y108111D01*
X-25210D01*
X-22325Y102204D01*
D02*
G37*
G36*
X-5004Y108181D02*
X-4782Y108153D01*
X-4574Y108111D01*
X-4394Y108056D01*
X-4213Y107987D01*
X-4047Y107903D01*
X-3908Y107820D01*
X-3770Y107737D01*
X-3659Y107654D01*
X-3548Y107571D01*
X-3465Y107487D01*
X-3395Y107418D01*
X-3340Y107363D01*
X-3298Y107321D01*
X-3284Y107293D01*
X-3270Y107279D01*
X-3118Y107058D01*
X-2993Y106794D01*
X-2882Y106517D01*
X-2785Y106225D01*
X-2716Y105934D01*
X-2646Y105629D01*
X-2549Y105019D01*
X-2508Y104741D01*
X-2480Y104478D01*
X-2466Y104228D01*
X-2452Y104020D01*
X-2438Y103854D01*
Y103715D01*
Y103632D01*
Y103618D01*
Y103604D01*
X-2452Y103188D01*
X-2466Y102814D01*
X-2494Y102453D01*
X-2535Y102120D01*
X-2577Y101815D01*
X-2632Y101538D01*
X-2688Y101288D01*
X-2743Y101066D01*
X-2799Y100872D01*
X-2854Y100692D01*
X-2910Y100553D01*
X-2951Y100428D01*
X-2993Y100345D01*
X-3021Y100276D01*
X-3048Y100234D01*
Y100220D01*
X-3187Y100012D01*
X-3340Y99818D01*
X-3506Y99652D01*
X-3672Y99513D01*
X-3853Y99402D01*
X-4033Y99305D01*
X-4213Y99222D01*
X-4380Y99153D01*
X-4546Y99097D01*
X-4713Y99069D01*
X-4851Y99042D01*
X-4976Y99014D01*
X-5073D01*
X-5142Y99000D01*
X-5212D01*
X-5448Y99014D01*
X-5670Y99042D01*
X-5891Y99083D01*
X-6086Y99153D01*
X-6266Y99222D01*
X-6418Y99291D01*
X-6571Y99375D01*
X-6710Y99472D01*
X-6821Y99555D01*
X-6932Y99638D01*
X-7015Y99707D01*
X-7084Y99790D01*
X-7140Y99846D01*
X-7181Y99888D01*
X-7195Y99915D01*
X-7209Y99929D01*
X-7362Y100151D01*
X-7486Y100415D01*
X-7597Y100692D01*
X-7694Y100983D01*
X-7778Y101288D01*
X-7833Y101593D01*
X-7944Y102190D01*
X-7972Y102481D01*
X-7999Y102745D01*
X-8013Y102994D01*
X-8027Y103202D01*
X-8041Y103369D01*
Y103507D01*
Y103590D01*
Y103604D01*
Y103618D01*
Y104020D01*
X-8013Y104409D01*
X-7986Y104769D01*
X-7944Y105088D01*
X-7889Y105393D01*
X-7833Y105671D01*
X-7778Y105920D01*
X-7722Y106142D01*
X-7667Y106350D01*
X-7611Y106517D01*
X-7556Y106655D01*
X-7500Y106780D01*
X-7459Y106863D01*
X-7431Y106933D01*
X-7417Y106974D01*
X-7403Y106988D01*
X-7264Y107196D01*
X-7112Y107390D01*
X-6945Y107543D01*
X-6779Y107682D01*
X-6599Y107806D01*
X-6418Y107903D01*
X-6238Y107987D01*
X-6072Y108042D01*
X-5905Y108098D01*
X-5739Y108125D01*
X-5600Y108153D01*
X-5489Y108181D01*
X-5378D01*
X-5309Y108195D01*
X-5240D01*
X-5004Y108181D01*
D02*
G37*
%LPC*%
G36*
X-74120Y-2699D02*
X-78861D01*
Y-5523D01*
X-78835Y-6093D01*
X-78783Y-6559D01*
X-78706Y-6974D01*
X-78602Y-7311D01*
X-78498Y-7570D01*
X-78421Y-7751D01*
X-78369Y-7854D01*
X-78343Y-7880D01*
X-78110Y-8165D01*
X-77825Y-8373D01*
X-77540Y-8502D01*
X-77255Y-8606D01*
X-76970Y-8658D01*
X-76762Y-8709D01*
X-76607D01*
X-76581D01*
X-76555D01*
X-76167Y-8684D01*
X-75856Y-8606D01*
X-75545Y-8476D01*
X-75312Y-8347D01*
X-75130Y-8191D01*
X-74975Y-8088D01*
X-74897Y-7984D01*
X-74871Y-7958D01*
X-74612Y-7595D01*
X-74431Y-7155D01*
X-74301Y-6715D01*
X-74223Y-6274D01*
X-74172Y-5885D01*
X-74146Y-5704D01*
X-74120Y-5575D01*
Y-2699D01*
D02*
G37*
G36*
X-66373D02*
X-71918D01*
Y-5445D01*
X-71892Y-6041D01*
X-71814Y-6559D01*
X-71710Y-7000D01*
X-71607Y-7388D01*
X-71477Y-7673D01*
X-71374Y-7880D01*
X-71296Y-8010D01*
X-71270Y-8062D01*
X-71140Y-8269D01*
X-70985Y-8425D01*
X-70648Y-8709D01*
X-70286Y-8917D01*
X-69949Y-9046D01*
X-69638Y-9124D01*
X-69405Y-9150D01*
X-69301Y-9176D01*
X-69223D01*
X-69197D01*
X-69171D01*
X-68731Y-9150D01*
X-68342Y-9072D01*
X-68006Y-8943D01*
X-67747Y-8813D01*
X-67513Y-8684D01*
X-67358Y-8554D01*
X-67254Y-8476D01*
X-67228Y-8450D01*
X-66943Y-8088D01*
X-66736Y-7673D01*
X-66581Y-7259D01*
X-66477Y-6818D01*
X-66425Y-6430D01*
X-66399Y-6119D01*
X-66373Y-6015D01*
Y-2699D01*
D02*
G37*
G36*
X-71374Y-17000D02*
X-71866Y-17052D01*
X-72280Y-17155D01*
X-72643Y-17259D01*
X-72980Y-17389D01*
X-73213Y-17492D01*
X-73394Y-17596D01*
X-73524Y-17674D01*
X-73550Y-17700D01*
X-73861Y-17985D01*
X-74094Y-18321D01*
X-74275Y-18658D01*
X-74379Y-18995D01*
X-74457Y-19280D01*
X-74483Y-19513D01*
X-74509Y-19669D01*
Y-19720D01*
X-74483Y-20135D01*
X-74379Y-20524D01*
X-74223Y-20860D01*
X-74016Y-21145D01*
X-73783Y-21404D01*
X-73524Y-21612D01*
X-73239Y-21793D01*
X-72954Y-21923D01*
X-72643Y-22052D01*
X-72358Y-22156D01*
X-72099Y-22208D01*
X-71866Y-22259D01*
X-71659Y-22311D01*
X-71503Y-22337D01*
X-71399D01*
X-71374D01*
Y-17000D01*
D02*
G37*
G36*
X-88452Y-22868D02*
X-88504D01*
X-88530D01*
X-88815Y-22894D01*
X-89074Y-22946D01*
X-89307Y-23050D01*
X-89514Y-23179D01*
X-89851Y-23490D01*
X-90136Y-23853D01*
X-90317Y-24190D01*
X-90447Y-24500D01*
X-90499Y-24630D01*
X-90525Y-24734D01*
X-90551Y-24785D01*
Y-24811D01*
X-90654Y-25329D01*
X-90732Y-25822D01*
X-90784Y-26288D01*
X-90836Y-26703D01*
X-90862Y-27039D01*
X-90887Y-27324D01*
Y-27558D01*
X-88685D01*
X-88349Y-27350D01*
X-88038Y-27143D01*
X-87779Y-26910D01*
X-87545Y-26677D01*
X-87364Y-26444D01*
X-87209Y-26210D01*
X-87079Y-25977D01*
X-86975Y-25770D01*
X-86820Y-25381D01*
X-86768Y-25200D01*
X-86742Y-25045D01*
Y-24941D01*
X-86716Y-24837D01*
Y-24760D01*
X-86742Y-24423D01*
X-86794Y-24138D01*
X-86872Y-23879D01*
X-87001Y-23671D01*
X-87131Y-23490D01*
X-87286Y-23335D01*
X-87468Y-23205D01*
X-87623Y-23101D01*
X-87960Y-22972D01*
X-88245Y-22894D01*
X-88374D01*
X-88452Y-22868D01*
D02*
G37*
G36*
X-72384Y-36146D02*
X-72540D01*
X-72591D01*
X-72928Y-36172D01*
X-73213Y-36224D01*
X-73498Y-36327D01*
X-73705Y-36431D01*
X-73887Y-36509D01*
X-74016Y-36612D01*
X-74094Y-36664D01*
X-74120Y-36690D01*
X-74327Y-36949D01*
X-74483Y-37208D01*
X-74612Y-37493D01*
X-74690Y-37752D01*
X-74742Y-37960D01*
X-74768Y-38167D01*
Y-38322D01*
X-74742Y-38633D01*
X-74690Y-38918D01*
X-74612Y-39177D01*
X-74534Y-39385D01*
X-74431Y-39540D01*
X-74353Y-39670D01*
X-74301Y-39747D01*
X-74275Y-39773D01*
X-74016Y-40006D01*
X-73757Y-40188D01*
X-73472Y-40317D01*
X-73187Y-40421D01*
X-72954Y-40473D01*
X-72747Y-40499D01*
X-72617D01*
X-72565D01*
X-72203Y-40473D01*
X-71892Y-40421D01*
X-71607Y-40317D01*
X-71374Y-40240D01*
X-71192Y-40136D01*
X-71037Y-40032D01*
X-70959Y-39980D01*
X-70933Y-39955D01*
X-70700Y-39721D01*
X-70545Y-39436D01*
X-70415Y-39177D01*
X-70337Y-38918D01*
X-70286Y-38685D01*
X-70260Y-38504D01*
Y-38322D01*
X-70286Y-38012D01*
X-70337Y-37701D01*
X-70415Y-37467D01*
X-70519Y-37234D01*
X-70622Y-37079D01*
X-70700Y-36949D01*
X-70752Y-36872D01*
X-70778Y-36846D01*
X-71037Y-36612D01*
X-71322Y-36431D01*
X-71633Y-36327D01*
X-71918Y-36224D01*
X-72177Y-36172D01*
X-72384Y-36146D01*
D02*
G37*
G36*
X-63264Y-35239D02*
X-63290D01*
X-63498Y-35265D01*
X-63679Y-35317D01*
X-63834Y-35395D01*
X-63990Y-35498D01*
X-64275Y-35758D01*
X-64482Y-36042D01*
X-64663Y-36327D01*
X-64767Y-36586D01*
X-64819Y-36690D01*
X-64845Y-36768D01*
X-64871Y-36820D01*
Y-36846D01*
X-64586Y-39799D01*
X-64534Y-40214D01*
X-64482Y-40576D01*
X-64404Y-40887D01*
X-64353Y-41120D01*
X-64275Y-41302D01*
X-64249Y-41405D01*
X-64197Y-41483D01*
Y-41509D01*
X-64068Y-41665D01*
X-63912Y-41794D01*
X-63757Y-41872D01*
X-63601Y-41950D01*
X-63446Y-41975D01*
X-63316Y-42001D01*
X-63239D01*
X-63213D01*
X-62979Y-41975D01*
X-62798Y-41898D01*
X-62617Y-41768D01*
X-62461Y-41639D01*
X-62332Y-41483D01*
X-62228Y-41379D01*
X-62176Y-41276D01*
X-62150Y-41250D01*
X-61969Y-40861D01*
X-61839Y-40421D01*
X-61762Y-39955D01*
X-61710Y-39514D01*
X-61658Y-39125D01*
Y-38944D01*
X-61632Y-38789D01*
Y-38504D01*
X-61658Y-38012D01*
X-61684Y-37571D01*
X-61762Y-37182D01*
X-61839Y-36872D01*
X-61891Y-36612D01*
X-61969Y-36405D01*
X-61995Y-36302D01*
X-62021Y-36250D01*
X-62202Y-35913D01*
X-62410Y-35654D01*
X-62617Y-35498D01*
X-62824Y-35369D01*
X-63005Y-35291D01*
X-63161Y-35265D01*
X-63264Y-35239D01*
D02*
G37*
G36*
X-92235Y-48025D02*
X-92727Y-48077D01*
X-93141Y-48180D01*
X-93504Y-48284D01*
X-93841Y-48414D01*
X-94074Y-48517D01*
X-94256Y-48621D01*
X-94385Y-48699D01*
X-94411Y-48724D01*
X-94722Y-49009D01*
X-94955Y-49346D01*
X-95136Y-49683D01*
X-95240Y-50020D01*
X-95318Y-50305D01*
X-95344Y-50538D01*
X-95370Y-50693D01*
Y-50745D01*
X-95344Y-51160D01*
X-95240Y-51548D01*
X-95085Y-51885D01*
X-94877Y-52170D01*
X-94644Y-52429D01*
X-94385Y-52636D01*
X-94100Y-52818D01*
X-93815Y-52947D01*
X-93504Y-53077D01*
X-93219Y-53181D01*
X-92960Y-53232D01*
X-92727Y-53284D01*
X-92520Y-53336D01*
X-92364Y-53362D01*
X-92261D01*
X-92235D01*
Y-48025D01*
D02*
G37*
G36*
X-12021Y103868D02*
X-12063D01*
X-12271Y103854D01*
X-12451Y103785D01*
X-12618Y103701D01*
X-12756Y103590D01*
X-12867Y103452D01*
X-12964Y103299D01*
X-13047Y103133D01*
X-13103Y102966D01*
X-13159Y102800D01*
X-13186Y102633D01*
X-13214Y102481D01*
X-13242Y102342D01*
Y102231D01*
X-13255Y102148D01*
Y102079D01*
Y102065D01*
X-13242Y101718D01*
X-13200Y101413D01*
X-13145Y101164D01*
X-13061Y100942D01*
X-12964Y100747D01*
X-12867Y100581D01*
X-12742Y100456D01*
X-12631Y100359D01*
X-12521Y100276D01*
X-12410Y100207D01*
X-12299Y100165D01*
X-12202Y100137D01*
X-12118Y100123D01*
X-12063Y100110D01*
X-12007D01*
X-11883Y100123D01*
X-11758Y100137D01*
X-11550Y100220D01*
X-11356Y100359D01*
X-11203Y100526D01*
X-11064Y100720D01*
X-10953Y100942D01*
X-10856Y101177D01*
X-10787Y101427D01*
X-10718Y101677D01*
X-10676Y101912D01*
X-10648Y102134D01*
X-10634Y102328D01*
X-10621Y102495D01*
X-10607Y102633D01*
Y102717D01*
Y102731D01*
Y102745D01*
X-10718Y102939D01*
X-10829Y103119D01*
X-10953Y103272D01*
X-11064Y103396D01*
X-11189Y103507D01*
X-11314Y103590D01*
X-11425Y103674D01*
X-11550Y103729D01*
X-11744Y103812D01*
X-11910Y103854D01*
X-11980D01*
X-12021Y103868D01*
D02*
G37*
G36*
X1570Y107071D02*
X1514D01*
X1390Y107058D01*
X1278Y107044D01*
X1071Y106960D01*
X876Y106836D01*
X724Y106669D01*
X599Y106461D01*
X488Y106239D01*
X391Y106004D01*
X322Y105768D01*
X266Y105518D01*
X211Y105282D01*
X183Y105061D01*
X169Y104866D01*
X155Y104686D01*
X141Y104561D01*
Y104478D01*
Y104464D01*
Y104450D01*
X238Y104256D01*
X336Y104090D01*
X446Y103937D01*
X571Y103812D01*
X682Y103701D01*
X793Y103618D01*
X918Y103535D01*
X1029Y103479D01*
X1223Y103396D01*
X1390Y103355D01*
X1459D01*
X1500Y103341D01*
X1542D01*
X1722Y103355D01*
X1903Y103410D01*
X2041Y103466D01*
X2166Y103549D01*
X2263Y103618D01*
X2333Y103687D01*
X2374Y103729D01*
X2388Y103743D01*
X2513Y103937D01*
X2610Y104159D01*
X2665Y104395D01*
X2721Y104617D01*
X2749Y104811D01*
X2763Y104963D01*
Y105033D01*
Y105074D01*
Y105102D01*
Y105116D01*
X2749Y105463D01*
X2707Y105768D01*
X2652Y106017D01*
X2568Y106253D01*
X2471Y106433D01*
X2360Y106600D01*
X2249Y106725D01*
X2138Y106822D01*
X2027Y106905D01*
X1903Y106974D01*
X1805Y107016D01*
X1708Y107044D01*
X1625Y107058D01*
X1570Y107071D01*
D02*
G37*
G36*
X-25612Y106947D02*
X-25779D01*
X-25765Y106628D01*
X-25751Y106322D01*
Y106031D01*
X-25737Y105768D01*
Y105518D01*
X-25723Y105296D01*
Y105102D01*
Y104922D01*
X-25709Y104755D01*
Y104617D01*
Y104506D01*
Y104409D01*
Y104326D01*
Y104270D01*
Y104242D01*
Y104228D01*
Y102273D01*
X-23532D01*
X-24628Y104617D01*
X-24836Y105088D01*
X-25030Y105532D01*
X-25196Y105920D01*
X-25280Y106101D01*
X-25349Y106267D01*
X-25404Y106420D01*
X-25460Y106544D01*
X-25501Y106669D01*
X-25543Y106766D01*
X-25571Y106836D01*
X-25598Y106905D01*
X-25612Y106933D01*
Y106947D01*
D02*
G37*
G36*
X-5170Y107044D02*
X-5364D01*
X-5475Y107016D01*
X-5670Y106947D01*
X-5836Y106836D01*
X-5975Y106725D01*
X-6072Y106614D01*
X-6141Y106503D01*
X-6183Y106433D01*
X-6197Y106420D01*
Y106406D01*
X-6252Y106253D01*
X-6308Y106073D01*
X-6349Y105879D01*
X-6391Y105657D01*
X-6446Y105199D01*
X-6488Y104741D01*
X-6502Y104520D01*
X-6515Y104312D01*
Y104117D01*
X-6529Y103951D01*
Y103812D01*
Y103701D01*
Y103646D01*
Y103618D01*
Y103285D01*
X-6515Y102980D01*
X-6502Y102703D01*
X-6488Y102439D01*
X-6474Y102204D01*
X-6446Y101996D01*
X-6432Y101801D01*
X-6405Y101635D01*
X-6377Y101482D01*
X-6363Y101358D01*
X-6335Y101247D01*
X-6321Y101164D01*
X-6308Y101094D01*
X-6294Y101053D01*
X-6280Y101025D01*
Y101011D01*
X-6224Y100858D01*
X-6155Y100734D01*
X-6072Y100609D01*
X-5989Y100512D01*
X-5905Y100428D01*
X-5808Y100359D01*
X-5642Y100262D01*
X-5475Y100193D01*
X-5337Y100165D01*
X-5281Y100151D01*
X-5212D01*
X-5101Y100165D01*
X-4990Y100179D01*
X-4796Y100248D01*
X-4629Y100359D01*
X-4505Y100470D01*
X-4408Y100581D01*
X-4338Y100692D01*
X-4297Y100761D01*
X-4283Y100789D01*
X-4227Y100942D01*
X-4172Y101136D01*
X-4116Y101330D01*
X-4089Y101552D01*
X-4019Y102023D01*
X-3978Y102495D01*
X-3964Y102717D01*
X-3950Y102925D01*
Y103119D01*
X-3936Y103285D01*
Y103424D01*
Y103535D01*
Y103590D01*
Y103618D01*
Y103951D01*
X-3950Y104242D01*
X-3964Y104534D01*
X-3978Y104783D01*
X-4005Y105019D01*
X-4019Y105227D01*
X-4047Y105421D01*
X-4075Y105588D01*
X-4102Y105740D01*
X-4130Y105865D01*
X-4144Y105976D01*
X-4172Y106059D01*
X-4186Y106128D01*
X-4200Y106170D01*
X-4213Y106198D01*
Y106212D01*
X-4269Y106364D01*
X-4338Y106489D01*
X-4408Y106600D01*
X-4491Y106697D01*
X-4574Y106780D01*
X-4657Y106836D01*
X-4837Y106947D01*
X-4990Y107002D01*
X-5115Y107030D01*
X-5170Y107044D01*
D02*
G37*
%LPD*%
D30*
X47319Y49140D02*
G03*
X47319Y40860I-47319J-4140D01*
G01*
X54610D01*
Y49140D01*
X47319D02*
X54610D01*
D31*
X-35000Y86998D02*
Y81166D01*
X-36166Y80000D01*
X-38499D01*
X-39665Y81166D01*
Y86998D01*
X-41998Y80000D02*
X-44330D01*
X-43164D01*
Y86998D01*
X-41998Y85831D01*
%TF.MD5,ed8fadeb898476a7671466b0659c6669*%
M02*
