%TF.GenerationSoftware,Altium Limited,Altium Designer,19.1.5 (86)*%
G04 Layer_Color=65535*
%FSLAX44Y44*%
%MOMM*%
%TF.FileFunction,Legend,Top*%
%TF.Part,Single*%
G01*
G75*
%TA.AperFunction,NonConductor*%
%ADD30C,0.2000*%
%ADD31C,0.1500*%
%ADD37C,0.4000*%
%ADD38C,0.2500*%
%ADD39C,0.5000*%
%ADD40C,0.0127*%
G36*
X-409Y-37320D02*
X-2376D01*
Y-35075D01*
X-409D01*
Y-37320D01*
D02*
G37*
G36*
X8407Y-39240D02*
X8662Y-39264D01*
X8962Y-39310D01*
X9286Y-39379D01*
X9633Y-39472D01*
X9957Y-39611D01*
X10004Y-39634D01*
X10096Y-39680D01*
X10258Y-39750D01*
X10443Y-39865D01*
X10675Y-40004D01*
X10883Y-40189D01*
X11091Y-40374D01*
X11276Y-40606D01*
X11300Y-40629D01*
X11346Y-40721D01*
X11415Y-40837D01*
X11531Y-40999D01*
X11623Y-41230D01*
X11716Y-41462D01*
X11832Y-41739D01*
X11901Y-42040D01*
Y-42063D01*
X11924Y-42156D01*
X11947Y-42295D01*
X11970Y-42480D01*
Y-42758D01*
X11994Y-43081D01*
X12017Y-43475D01*
Y-43961D01*
Y-51088D01*
X10050D01*
Y-44053D01*
Y-44030D01*
Y-44007D01*
Y-43845D01*
Y-43637D01*
X10027Y-43382D01*
X10004Y-43081D01*
X9957Y-42781D01*
X9888Y-42503D01*
X9819Y-42249D01*
Y-42225D01*
X9772Y-42156D01*
X9703Y-42040D01*
X9633Y-41901D01*
X9518Y-41763D01*
X9379Y-41601D01*
X9194Y-41439D01*
X8986Y-41300D01*
X8962Y-41277D01*
X8893Y-41230D01*
X8754Y-41184D01*
X8592Y-41115D01*
X8407Y-41045D01*
X8176Y-40976D01*
X7898Y-40953D01*
X7620Y-40930D01*
X7505D01*
X7412Y-40953D01*
X7181Y-40976D01*
X6880Y-41022D01*
X6556Y-41138D01*
X6186Y-41277D01*
X5816Y-41462D01*
X5468Y-41739D01*
X5422Y-41786D01*
X5329Y-41901D01*
X5260Y-41994D01*
X5191Y-42110D01*
X5098Y-42249D01*
X5029Y-42410D01*
X4936Y-42596D01*
X4844Y-42827D01*
X4774Y-43081D01*
X4705Y-43359D01*
X4658Y-43660D01*
X4612Y-43984D01*
X4566Y-44377D01*
Y-44771D01*
Y-51088D01*
X2599D01*
Y-39472D01*
X4358D01*
Y-41138D01*
X4381Y-41115D01*
X4427Y-41045D01*
X4496Y-40953D01*
X4589Y-40837D01*
X4728Y-40698D01*
X4890Y-40536D01*
X5075Y-40351D01*
X5306Y-40166D01*
X5538Y-40004D01*
X5816Y-39819D01*
X6116Y-39657D01*
X6440Y-39518D01*
X6811Y-39402D01*
X7181Y-39310D01*
X7597Y-39240D01*
X8037Y-39217D01*
X8222D01*
X8407Y-39240D01*
D02*
G37*
G36*
X20139Y-51273D02*
Y-51296D01*
X20116Y-51365D01*
X20069Y-51458D01*
X20023Y-51574D01*
X19954Y-51736D01*
X19884Y-51921D01*
X19722Y-52314D01*
X19560Y-52754D01*
X19375Y-53193D01*
X19190Y-53587D01*
X19097Y-53749D01*
X19028Y-53911D01*
X19005Y-53957D01*
X18936Y-54073D01*
X18820Y-54235D01*
X18681Y-54443D01*
X18496Y-54674D01*
X18288Y-54906D01*
X18079Y-55137D01*
X17825Y-55322D01*
X17802Y-55345D01*
X17709Y-55392D01*
X17570Y-55461D01*
X17362Y-55554D01*
X17131Y-55646D01*
X16853Y-55716D01*
X16552Y-55762D01*
X16205Y-55785D01*
X16113D01*
X15997Y-55762D01*
X15835D01*
X15650Y-55716D01*
X15441Y-55669D01*
X15210Y-55623D01*
X14956Y-55531D01*
X14747Y-53703D01*
X14770D01*
X14863Y-53726D01*
X14979Y-53749D01*
X15117Y-53795D01*
X15488Y-53864D01*
X15858Y-53888D01*
X15974D01*
X16089Y-53864D01*
X16228D01*
X16575Y-53795D01*
X16737Y-53726D01*
X16899Y-53656D01*
X16922D01*
X16969Y-53610D01*
X17038Y-53564D01*
X17131Y-53494D01*
X17339Y-53309D01*
X17524Y-53055D01*
Y-53032D01*
X17570Y-52985D01*
X17617Y-52893D01*
X17663Y-52754D01*
X17755Y-52569D01*
X17848Y-52291D01*
X17987Y-51967D01*
X18126Y-51574D01*
Y-51550D01*
X18172Y-51458D01*
X18218Y-51296D01*
X18311Y-51088D01*
X13914Y-39472D01*
X15997D01*
X18426Y-46205D01*
Y-46228D01*
X18450Y-46252D01*
X18473Y-46321D01*
X18496Y-46437D01*
X18542Y-46552D01*
X18588Y-46691D01*
X18704Y-47015D01*
X18843Y-47409D01*
X18982Y-47871D01*
X19121Y-48357D01*
X19259Y-48889D01*
Y-48866D01*
X19283Y-48820D01*
X19306Y-48751D01*
X19329Y-48658D01*
X19352Y-48542D01*
X19398Y-48404D01*
X19491Y-48057D01*
X19606Y-47663D01*
X19769Y-47200D01*
X19907Y-46737D01*
X20092Y-46252D01*
X22592Y-39472D01*
X24558D01*
X20139Y-51273D01*
D02*
G37*
G36*
X-409Y-51088D02*
X-2376D01*
Y-39472D01*
X-409D01*
Y-51088D01*
D02*
G37*
G36*
X-4320Y-36973D02*
X-9595D01*
Y-51088D01*
X-11724D01*
Y-36973D01*
X-17000D01*
Y-35075D01*
X-4320D01*
Y-36973D01*
D02*
G37*
G36*
X10443Y-59011D02*
X10652D01*
X11137Y-59034D01*
X11647Y-59103D01*
X12202Y-59173D01*
X12711Y-59288D01*
X12966Y-59358D01*
X13174Y-59427D01*
X13197D01*
X13220Y-59450D01*
X13359Y-59520D01*
X13567Y-59612D01*
X13822Y-59774D01*
X14099Y-59983D01*
X14400Y-60260D01*
X14678Y-60584D01*
X14956Y-60954D01*
Y-60978D01*
X14979Y-61001D01*
X15071Y-61139D01*
X15164Y-61371D01*
X15303Y-61672D01*
X15418Y-62019D01*
X15534Y-62435D01*
X15603Y-62875D01*
X15627Y-63361D01*
Y-63384D01*
Y-63430D01*
Y-63523D01*
X15603Y-63639D01*
Y-63801D01*
X15580Y-63962D01*
X15488Y-64356D01*
X15349Y-64819D01*
X15164Y-65305D01*
X14886Y-65791D01*
X14701Y-66022D01*
X14516Y-66253D01*
X14493Y-66276D01*
X14470Y-66300D01*
X14400Y-66369D01*
X14308Y-66438D01*
X14192Y-66531D01*
X14053Y-66624D01*
X13868Y-66739D01*
X13683Y-66878D01*
X13451Y-66994D01*
X13197Y-67109D01*
X12919Y-67248D01*
X12618Y-67364D01*
X12271Y-67457D01*
X11924Y-67572D01*
X11531Y-67642D01*
X11114Y-67711D01*
X11161Y-67734D01*
X11253Y-67780D01*
X11392Y-67873D01*
X11577Y-67966D01*
X11994Y-68220D01*
X12202Y-68382D01*
X12387Y-68521D01*
X12433Y-68567D01*
X12549Y-68683D01*
X12734Y-68868D01*
X12966Y-69099D01*
X13220Y-69423D01*
X13521Y-69770D01*
X13822Y-70187D01*
X14146Y-70650D01*
X16899Y-75000D01*
X14261D01*
X12156Y-71668D01*
Y-71645D01*
X12109Y-71599D01*
X12063Y-71529D01*
X11994Y-71437D01*
X11832Y-71182D01*
X11623Y-70858D01*
X11369Y-70511D01*
X11114Y-70141D01*
X10860Y-69794D01*
X10628Y-69470D01*
X10605Y-69447D01*
X10536Y-69354D01*
X10420Y-69215D01*
X10258Y-69053D01*
X9911Y-68706D01*
X9726Y-68544D01*
X9541Y-68405D01*
X9518Y-68382D01*
X9471Y-68359D01*
X9379Y-68313D01*
X9240Y-68243D01*
X9101Y-68174D01*
X8939Y-68105D01*
X8569Y-67989D01*
X8546D01*
X8500Y-67966D01*
X8407D01*
X8291Y-67943D01*
X8129Y-67919D01*
X7944D01*
X7690Y-67896D01*
X4959D01*
Y-75000D01*
X2831D01*
Y-58987D01*
X10258D01*
X10443Y-59011D01*
D02*
G37*
G36*
X-941Y-75000D02*
X-3070D01*
Y-58987D01*
X-941D01*
Y-75000D01*
D02*
G37*
G36*
X-6171Y-60885D02*
X-14871D01*
Y-65837D01*
X-7351D01*
Y-67734D01*
X-14871D01*
Y-75000D01*
X-17000D01*
Y-58987D01*
X-6171D01*
Y-60885D01*
D02*
G37*
%LPC*%
G36*
X10004Y-60769D02*
X4959D01*
Y-66068D01*
X9726D01*
X10004Y-66045D01*
X10328Y-66022D01*
X10698Y-65999D01*
X11068Y-65953D01*
X11438Y-65883D01*
X11762Y-65791D01*
X11809Y-65767D01*
X11901Y-65721D01*
X12040Y-65652D01*
X12225Y-65559D01*
X12433Y-65420D01*
X12642Y-65258D01*
X12850Y-65050D01*
X13012Y-64819D01*
X13035Y-64795D01*
X13081Y-64703D01*
X13151Y-64564D01*
X13243Y-64379D01*
X13313Y-64171D01*
X13382Y-63939D01*
X13428Y-63662D01*
X13451Y-63384D01*
Y-63361D01*
Y-63338D01*
X13428Y-63199D01*
X13405Y-62991D01*
X13359Y-62713D01*
X13243Y-62435D01*
X13104Y-62111D01*
X12896Y-61810D01*
X12618Y-61510D01*
X12572Y-61487D01*
X12457Y-61394D01*
X12271Y-61278D01*
X11970Y-61139D01*
X11623Y-61001D01*
X11161Y-60885D01*
X10628Y-60792D01*
X10004Y-60769D01*
D02*
G37*
%LPD*%
D30*
X-51971Y-84983D02*
G03*
X-51971Y-25017I51971J29983D01*
G01*
X60800Y-91100D02*
Y-14900D01*
Y-91100D02*
X86200D01*
Y-14900D01*
X60800D02*
X86200D01*
X-69400Y115190D02*
X-60000D01*
X-69400Y74810D02*
Y115190D01*
Y74810D02*
X-50600D01*
Y115190D01*
X-60000D02*
X-50600D01*
X94000Y-500D02*
X98000D01*
X40000D02*
X44000D01*
X94000Y45500D02*
X98000D01*
Y-500D02*
Y45500D01*
X-78000Y-35350D02*
X-72000D01*
X-91000Y-53350D02*
Y-35350D01*
X-59000Y-53350D02*
Y-35350D01*
X33500Y-105500D02*
X62500D01*
X33500Y-118500D02*
Y-105500D01*
Y-118500D02*
X62500D01*
Y-105500D01*
X-52000Y-85000D02*
Y-25017D01*
X-89500Y-11000D02*
X-60500D01*
X-89500Y-24000D02*
Y-11000D01*
Y-24000D02*
X-60500D01*
Y-11000D01*
X-89500Y31500D02*
Y44500D01*
X-60500D01*
Y31500D02*
Y44500D01*
X-89500Y31500D02*
X-60500D01*
X-89500Y45500D02*
Y58500D01*
X-60500D01*
Y45500D02*
Y58500D01*
X-89500Y45500D02*
X-60500D01*
X13124Y56460D02*
Y69460D01*
X-15876Y56460D02*
X13124D01*
X-15876D02*
Y69460D01*
X13124D01*
X-62500Y-75900D02*
Y-62900D01*
X-91500Y-75900D02*
X-62500D01*
X-91500D02*
Y-62900D01*
X-62500D01*
X-89500Y17500D02*
Y30500D01*
X-60500D01*
Y17500D02*
Y30500D01*
X-89500Y17500D02*
X-60500D01*
X-0Y115190D02*
X9400D01*
Y74810D02*
Y115190D01*
X-9400Y74810D02*
X9400D01*
X-9400D02*
Y115190D01*
X-0D01*
X60000D02*
X69400D01*
Y74810D02*
Y115190D01*
X50600Y74810D02*
X69400D01*
X50600D02*
Y115190D01*
X60000D01*
X-60500Y-9000D02*
Y4000D01*
X-89500Y-9000D02*
X-60500D01*
X-89500D02*
Y4000D01*
X-60500D01*
Y3519D02*
Y16519D01*
X-89500Y3519D02*
X-60500D01*
X-89500D02*
Y16519D01*
X-60500D01*
X99500Y61500D02*
Y74500D01*
X70500Y61500D02*
X99500D01*
X70500D02*
Y74500D01*
X99500D01*
D31*
X-53335Y-14169D02*
X-54501Y-13002D01*
X-56834D01*
X-58000Y-14169D01*
Y-18834D01*
X-56834Y-20000D01*
X-54501D01*
X-53335Y-18834D01*
X-47503Y-20000D02*
Y-13002D01*
X-51002Y-16501D01*
X-46337D01*
X-57835Y-98024D02*
X-59001Y-96857D01*
X-61334D01*
X-62500Y-98024D01*
Y-99190D01*
X-61334Y-100356D01*
X-59001D01*
X-57835Y-101522D01*
Y-102689D01*
X-59001Y-103855D01*
X-61334D01*
X-62500Y-102689D01*
X-55502Y-96857D02*
Y-103855D01*
X-53170Y-101522D01*
X-50837Y-103855D01*
Y-96857D01*
X-48505Y-103855D02*
X-46172D01*
X-47338D01*
Y-96857D01*
X-48505Y-98024D01*
X50000Y-103000D02*
Y-96002D01*
X53499D01*
X54665Y-97169D01*
Y-99501D01*
X53499Y-100667D01*
X50000D01*
X52333D02*
X54665Y-103000D01*
X61663Y-96002D02*
X59330Y-97169D01*
X56998Y-99501D01*
Y-101834D01*
X58164Y-103000D01*
X60497D01*
X61663Y-101834D01*
Y-100667D01*
X60497Y-99501D01*
X56998D01*
X-58000Y35000D02*
Y41998D01*
X-54501D01*
X-53335Y40831D01*
Y38499D01*
X-54501Y37333D01*
X-58000D01*
X-55667D02*
X-53335Y35000D01*
X-47503D02*
Y41998D01*
X-51002Y38499D01*
X-46337D01*
X-52002Y-40000D02*
X-57834D01*
X-59000Y-41166D01*
Y-43499D01*
X-57834Y-44665D01*
X-52002D01*
X-53169Y-46998D02*
X-52002Y-48164D01*
Y-50497D01*
X-53169Y-51663D01*
X-54335D01*
X-55501Y-50497D01*
Y-49330D01*
Y-50497D01*
X-56667Y-51663D01*
X-57834D01*
X-59000Y-50497D01*
Y-48164D01*
X-57834Y-46998D01*
X104248Y-6500D02*
X98416D01*
X97250Y-7666D01*
Y-9999D01*
X98416Y-11165D01*
X104248D01*
X97250Y-18163D02*
Y-13498D01*
X101915Y-18163D01*
X103082D01*
X104248Y-16997D01*
Y-14664D01*
X103082Y-13498D01*
X-58000Y49000D02*
Y55998D01*
X-54501D01*
X-53335Y54832D01*
Y52499D01*
X-54501Y51333D01*
X-58000D01*
X-55667D02*
X-53335Y49000D01*
X-46337Y55998D02*
X-51002D01*
Y52499D01*
X-48670Y53665D01*
X-47503D01*
X-46337Y52499D01*
Y50166D01*
X-47503Y49000D01*
X-49836D01*
X-51002Y50166D01*
X-58000Y23000D02*
Y29998D01*
X-54501D01*
X-53335Y28832D01*
Y26499D01*
X-54501Y25333D01*
X-58000D01*
X-55667D02*
X-53335Y23000D01*
X-51002Y28832D02*
X-49836Y29998D01*
X-47503D01*
X-46337Y28832D01*
Y27665D01*
X-47503Y26499D01*
X-48670D01*
X-47503D01*
X-46337Y25333D01*
Y24166D01*
X-47503Y23000D01*
X-49836D01*
X-51002Y24166D01*
X-58000Y-5750D02*
Y1248D01*
X-54501D01*
X-53335Y81D01*
Y-2251D01*
X-54501Y-3417D01*
X-58000D01*
X-55667D02*
X-53335Y-5750D01*
X-46337D02*
X-51002D01*
X-46337Y-1085D01*
Y81D01*
X-47503Y1248D01*
X-49836D01*
X-51002Y81D01*
X-58000Y7769D02*
Y14767D01*
X-54501D01*
X-53335Y13600D01*
Y11268D01*
X-54501Y10102D01*
X-58000D01*
X-55667D02*
X-53335Y7769D01*
X-51002D02*
X-48670D01*
X-49836D01*
Y14767D01*
X-51002Y13600D01*
X-43602Y115190D02*
X-50600D01*
Y110525D01*
X-43602Y103527D02*
Y108192D01*
X-50600D01*
Y103527D01*
X-47101Y108192D02*
Y105860D01*
X-43602Y101194D02*
X-50600D01*
Y97696D01*
X-49434Y96529D01*
X-44769D01*
X-43602Y97696D01*
Y101194D01*
X-50600Y94197D02*
Y91864D01*
Y93031D01*
X-43602D01*
X-44769Y94197D01*
X16398Y115190D02*
X9400D01*
Y110525D01*
X16398Y103527D02*
Y108192D01*
X9400D01*
Y103527D01*
X12899Y108192D02*
Y105860D01*
X16398Y101194D02*
X9400D01*
Y97696D01*
X10566Y96529D01*
X15231D01*
X16398Y97696D01*
Y101194D01*
X9400Y89532D02*
Y94197D01*
X14065Y89532D01*
X15231D01*
X16398Y90698D01*
Y93031D01*
X15231Y94197D01*
X49498Y115190D02*
X42500D01*
Y110525D01*
X49498Y103527D02*
Y108192D01*
X42500D01*
Y103527D01*
X45999Y108192D02*
Y105860D01*
X49498Y101194D02*
X42500D01*
Y97696D01*
X43666Y96529D01*
X48331D01*
X49498Y97696D01*
Y101194D01*
X48331Y94197D02*
X49498Y93031D01*
Y90698D01*
X48331Y89532D01*
X47165D01*
X45999Y90698D01*
Y91864D01*
Y90698D01*
X44833Y89532D01*
X43666D01*
X42500Y90698D01*
Y93031D01*
X43666Y94197D01*
X-57332Y-160585D02*
X-58498Y-161751D01*
Y-164084D01*
X-57332Y-165250D01*
X-52666D01*
X-51500Y-164084D01*
Y-161751D01*
X-52666Y-160585D01*
X-58498Y-154753D02*
Y-157086D01*
X-57332Y-158252D01*
X-52666D01*
X-51500Y-157086D01*
Y-154753D01*
X-52666Y-153587D01*
X-57332D01*
X-58498Y-154753D01*
X-51500Y-151255D02*
X-58498D01*
X-51500Y-146589D01*
X-58498D01*
X-51500Y-139592D02*
Y-144257D01*
X-56165Y-139592D01*
X-57332D01*
X-58498Y-140758D01*
Y-143090D01*
X-57332Y-144257D01*
X89169Y-41335D02*
X88002Y-42501D01*
Y-44834D01*
X89169Y-46000D01*
X93834D01*
X95000Y-44834D01*
Y-42501D01*
X93834Y-41335D01*
X88002Y-35503D02*
Y-37836D01*
X89169Y-39002D01*
X93834D01*
X95000Y-37836D01*
Y-35503D01*
X93834Y-34337D01*
X89169D01*
X88002Y-35503D01*
X95000Y-32004D02*
X88002D01*
X95000Y-27339D01*
X88002D01*
X95000Y-25007D02*
Y-22674D01*
Y-23840D01*
X88002D01*
X89169Y-25007D01*
X-75335Y-79169D02*
X-76501Y-78002D01*
X-78834D01*
X-80000Y-79169D01*
Y-83834D01*
X-78834Y-85000D01*
X-76501D01*
X-75335Y-83834D01*
X-73002Y-79169D02*
X-71836Y-78002D01*
X-69503D01*
X-68337Y-79169D01*
Y-80335D01*
X-69503Y-81501D01*
X-70670D01*
X-69503D01*
X-68337Y-82667D01*
Y-83834D01*
X-69503Y-85000D01*
X-71836D01*
X-73002Y-83834D01*
X76665Y82581D02*
X75499Y83748D01*
X73166D01*
X72000Y82581D01*
Y77916D01*
X73166Y76750D01*
X75499D01*
X76665Y77916D01*
X83663Y76750D02*
X78998D01*
X83663Y81415D01*
Y82581D01*
X82497Y83748D01*
X80164D01*
X78998Y82581D01*
X9665Y50332D02*
X8499Y51498D01*
X6166D01*
X5000Y50332D01*
Y45666D01*
X6166Y44500D01*
X8499D01*
X9665Y45666D01*
X11998Y44500D02*
X14330D01*
X13164D01*
Y51498D01*
X11998Y50332D01*
D37*
X56228Y-27600D02*
G03*
X56228Y-27600I-1270J0D01*
G01*
D38*
X98500Y51500D02*
G03*
X98500Y51500I-1250J0D01*
G01*
X-93000Y-56350D02*
G03*
X-93000Y-56350I-1250J0D01*
G01*
D39*
X-52500Y-30000D02*
G03*
X-52500Y-30000I-2500J0D01*
G01*
X-68000Y120000D02*
X-52000D01*
X-8000D02*
X8000D01*
X52000D02*
X68000D01*
D40*
X110000Y-105000D02*
G03*
X110000Y-105000I-20000J0D01*
G01*
X-70000D02*
G03*
X-70000Y-105000I-20000J0D01*
G01*
X110000Y105000D02*
G03*
X110000Y105000I-20000J0D01*
G01*
X-70000D02*
G03*
X-70000Y105000I-20000J0D01*
G01*
%TF.MD5,b34f9c49dca5b64d9743828ee491b5a6*%
M02*
