%TF.GenerationSoftware,Altium Limited,Altium Designer,19.1.5 (86)*%
G04 Layer_Color=8421504*
%FSLAX44Y44*%
%MOMM*%
%TF.FileFunction,Paste,Top*%
%TF.Part,Single*%
G01*
G75*
%TA.AperFunction,SMDPad,CuDef*%
G04:AMPARAMS|DCode=10|XSize=12.065mm|YSize=1.2065mm|CornerRadius=0.3016mm|HoleSize=0mm|Usage=FLASHONLY|Rotation=270.000|XOffset=0mm|YOffset=0mm|HoleType=Round|Shape=RoundedRectangle|*
%AMROUNDEDRECTD10*
21,1,12.0650,0.6033,0,0,270.0*
21,1,11.4618,1.2065,0,0,270.0*
1,1,0.6033,-0.3016,-5.7309*
1,1,0.6033,-0.3016,5.7309*
1,1,0.6033,0.3016,5.7309*
1,1,0.6033,0.3016,-5.7309*
%
%ADD10ROUNDEDRECTD10*%
G04:AMPARAMS|DCode=11|XSize=12.7mm|YSize=1.27mm|CornerRadius=0.3175mm|HoleSize=0mm|Usage=FLASHONLY|Rotation=270.000|XOffset=0mm|YOffset=0mm|HoleType=Round|Shape=RoundedRectangle|*
%AMROUNDEDRECTD11*
21,1,12.7000,0.6350,0,0,270.0*
21,1,12.0650,1.2700,0,0,270.0*
1,1,0.6350,-0.3175,-6.0325*
1,1,0.6350,-0.3175,6.0325*
1,1,0.6350,0.3175,6.0325*
1,1,0.6350,0.3175,-6.0325*
%
%ADD11ROUNDEDRECTD11*%
%ADD12R,1.2500X1.2500*%
%ADD13O,0.7000X1.5000*%
%ADD14R,0.7000X1.5000*%
G04:AMPARAMS|DCode=15|XSize=0.7mm|YSize=1.3mm|CornerRadius=0.175mm|HoleSize=0mm|Usage=FLASHONLY|Rotation=0.000|XOffset=0mm|YOffset=0mm|HoleType=Round|Shape=RoundedRectangle|*
%AMROUNDEDRECTD15*
21,1,0.7000,0.9500,0,0,0.0*
21,1,0.3500,1.3000,0,0,0.0*
1,1,0.3500,0.1750,-0.4750*
1,1,0.3500,-0.1750,-0.4750*
1,1,0.3500,-0.1750,0.4750*
1,1,0.3500,0.1750,0.4750*
%
%ADD15ROUNDEDRECTD15*%
%ADD16R,0.7000X1.3000*%
%ADD17R,0.8500X0.8000*%
D10*
X-12340Y-196750D02*
D03*
X9250D02*
D03*
D11*
X-39645Y-199925D02*
D03*
X36555D02*
D03*
D12*
X-60000Y106250D02*
D03*
Y83750D02*
D03*
X-0D02*
D03*
Y106250D02*
D03*
X60000Y83750D02*
D03*
Y106250D02*
D03*
D13*
X62650Y52000D02*
D03*
X75350D02*
D03*
X49950D02*
D03*
X88050Y-7000D02*
D03*
X75350D02*
D03*
X62650D02*
D03*
X49950D02*
D03*
D14*
X88050Y52000D02*
D03*
D15*
X-84500Y-32350D02*
D03*
X-65500D02*
D03*
X-75000Y-56350D02*
D03*
X-65500D02*
D03*
D16*
X-84500D02*
D03*
D17*
X55750Y-112000D02*
D03*
X40250D02*
D03*
X-67250Y-17500D02*
D03*
X-82750D02*
D03*
X-67250Y38000D02*
D03*
X-82750D02*
D03*
X-67250Y52000D02*
D03*
X-82750D02*
D03*
X-9126Y62960D02*
D03*
X6374D02*
D03*
X-84750Y-69400D02*
D03*
X-69250D02*
D03*
X-67250Y24000D02*
D03*
X-82750D02*
D03*
Y-2500D02*
D03*
X-67250D02*
D03*
X-82750Y10019D02*
D03*
X-67250D02*
D03*
X77250Y68000D02*
D03*
X92750D02*
D03*
%TF.MD5,5bdd1c0601cfeb0154623067981c9ad2*%
M02*
