G04*
G04 #@! TF.GenerationSoftware,Altium Limited,Altium Designer,19.1.5 (86)*
G04*
G04 Layer_Color=32896*
%FSAX44Y44*%
%MOMM*%
G71*
G01*
G75*
%ADD13C,0.2000*%
%ADD15C,0.1500*%
G04:AMPARAMS|DCode=47|XSize=0.508mm|YSize=0.635mm|CornerRadius=0mm|HoleSize=0mm|Usage=FLASHONLY|Rotation=45.000|XOffset=0mm|YOffset=0mm|HoleType=Round|Shape=Rectangle|*
%AMROTATEDRECTD47*
4,1,4,0.0449,-0.4041,-0.4041,0.0449,-0.0449,0.4041,0.4041,-0.0449,0.0449,-0.4041,0.0*
%
%ADD47ROTATEDRECTD47*%

G36*
X02857742Y02520874D02*
X02849270D01*
X02848130D01*
X02847042D01*
X02846524D01*
X02846031Y02520900D01*
X02845565D01*
X02845125D01*
X02844736D01*
X02844373D01*
X02844062Y02520925D01*
X02843777D01*
X02843570D01*
X02843415D01*
X02843311D01*
X02843285D01*
Y02520615D01*
X02844192Y02520407D01*
X02844995Y02520200D01*
X02845721Y02520019D01*
X02846342Y02519889D01*
X02846886Y02519734D01*
X02847353Y02519630D01*
X02847767Y02519526D01*
X02848104Y02519449D01*
X02848389Y02519371D01*
X02848596Y02519319D01*
X02848777Y02519267D01*
X02848907Y02519241D01*
X02849011Y02519216D01*
X02849062Y02519190D01*
X02849114D01*
X02857742Y02516962D01*
Y02513542D01*
X02849011Y02511262D01*
X02848596Y02511158D01*
X02848182Y02511029D01*
X02847249Y02510795D01*
X02846290Y02510562D01*
X02845358Y02510355D01*
X02844943Y02510251D01*
X02844555Y02510148D01*
X02844192Y02510070D01*
X02843881Y02509992D01*
X02843648Y02509940D01*
X02843441Y02509889D01*
X02843337Y02509863D01*
X02843285D01*
Y02509552D01*
X02844011D01*
X02844684Y02509578D01*
X02845306D01*
X02845902D01*
X02846446D01*
X02846912D01*
X02847353Y02509604D01*
X02847767D01*
X02848104D01*
X02848415D01*
X02848674D01*
X02848881D01*
X02849037D01*
X02849140D01*
X02849218D01*
X02849244D01*
X02857742D01*
Y02506806D01*
X02840876D01*
Y02511573D01*
X02849529Y02513723D01*
X02849944Y02513827D01*
X02850384Y02513956D01*
X02850824Y02514060D01*
X02851213Y02514164D01*
X02851602Y02514241D01*
X02851887Y02514319D01*
X02851990Y02514345D01*
X02852068D01*
X02852120Y02514371D01*
X02852146D01*
X02852534Y02514449D01*
X02852897Y02514552D01*
X02853234Y02514604D01*
X02853519Y02514682D01*
X02853804Y02514733D01*
X02854037Y02514811D01*
X02854244Y02514837D01*
X02854426Y02514889D01*
X02854710Y02514967D01*
X02854892Y02515018D01*
X02855021Y02515044D01*
X02855047D01*
Y02515355D01*
X02854037Y02515537D01*
X02853052Y02515744D01*
X02852120Y02515951D01*
X02851679Y02516055D01*
X02851265Y02516158D01*
X02850902Y02516236D01*
X02850565Y02516314D01*
X02850255Y02516392D01*
X02849995Y02516443D01*
X02849788Y02516495D01*
X02849633Y02516547D01*
X02849529Y02516573D01*
X02849503D01*
X02840876Y02518697D01*
Y02523464D01*
X02857742D01*
Y02520874D01*
D02*
G37*
G36*
X02878603Y02517829D02*
X02878577Y02517337D01*
X02878551Y02516897D01*
X02878499Y02516456D01*
X02878422Y02516042D01*
X02878344Y02515679D01*
X02878266Y02515342D01*
X02878163Y02515005D01*
X02878059Y02514720D01*
X02877955Y02514461D01*
X02877852Y02514254D01*
X02877774Y02514047D01*
X02877696Y02513891D01*
X02877618Y02513762D01*
X02877567Y02513684D01*
X02877515Y02513632D01*
Y02513607D01*
X02877256Y02513296D01*
X02876996Y02513036D01*
X02876712Y02512803D01*
X02876401Y02512596D01*
X02876090Y02512441D01*
X02875805Y02512285D01*
X02875209Y02512078D01*
X02874665Y02511974D01*
X02874432Y02511922D01*
X02874225Y02511897D01*
X02874069Y02511871D01*
X02873940D01*
X02873862D01*
X02873836D01*
X02873292Y02511897D01*
X02872799Y02512000D01*
X02872359Y02512130D01*
X02871996Y02512285D01*
X02871685Y02512466D01*
X02871478Y02512596D01*
X02871349Y02512700D01*
X02871297Y02512726D01*
X02870882Y02513140D01*
X02870545Y02513632D01*
X02870286Y02514125D01*
X02870079Y02514617D01*
X02869950Y02515057D01*
X02869872Y02515239D01*
X02869846Y02515394D01*
X02869794Y02515550D01*
Y02515653D01*
X02869768Y02515705D01*
Y02515731D01*
X02869639D01*
X02869509Y02515213D01*
X02869354Y02514772D01*
X02869172Y02514384D01*
X02868965Y02514047D01*
X02868784Y02513788D01*
X02868628Y02513580D01*
X02868525Y02513477D01*
X02868499Y02513425D01*
X02868110Y02513088D01*
X02867670Y02512829D01*
X02867255Y02512648D01*
X02866841Y02512518D01*
X02866504Y02512441D01*
X02866219Y02512415D01*
X02866115Y02512389D01*
X02866038D01*
X02865986D01*
X02865960D01*
X02865597D01*
X02865286Y02512441D01*
X02864690Y02512570D01*
X02864172Y02512751D01*
X02863758Y02512933D01*
X02863421Y02513140D01*
X02863188Y02513322D01*
X02863058Y02513451D01*
X02863006Y02513477D01*
Y02513503D01*
X02862773Y02513788D01*
X02862592Y02514099D01*
X02862410Y02514461D01*
X02862281Y02514824D01*
X02862048Y02515576D01*
X02861892Y02516353D01*
X02861841Y02516715D01*
X02861815Y02517052D01*
X02861763Y02517337D01*
Y02517622D01*
X02861737Y02517829D01*
Y02524177D01*
X02878603D01*
Y02517829D01*
D02*
G37*
G36*
X02873214Y02509694D02*
X02873706Y02509668D01*
X02874147Y02509591D01*
X02874561Y02509513D01*
X02874950Y02509409D01*
X02875312Y02509306D01*
X02875623Y02509202D01*
X02875934Y02509073D01*
X02876194Y02508943D01*
X02876427Y02508839D01*
X02876608Y02508736D01*
X02876789Y02508632D01*
X02876919Y02508554D01*
X02876996Y02508477D01*
X02877048Y02508451D01*
X02877074Y02508425D01*
X02877385Y02508140D01*
X02877670Y02507803D01*
X02877929Y02507466D01*
X02878137Y02507130D01*
X02878318Y02506767D01*
X02878474Y02506404D01*
X02878577Y02506041D01*
X02878681Y02505704D01*
X02878759Y02505368D01*
X02878810Y02505057D01*
X02878862Y02504772D01*
X02878888Y02504539D01*
X02878914Y02504357D01*
Y02504072D01*
X02878862Y02503373D01*
X02878759Y02502751D01*
X02878603Y02502155D01*
X02878370Y02501637D01*
X02878111Y02501196D01*
X02877826Y02500782D01*
X02877489Y02500419D01*
X02877178Y02500108D01*
X02876841Y02499823D01*
X02876530Y02499616D01*
X02876245Y02499435D01*
X02875986Y02499279D01*
X02875753Y02499176D01*
X02875598Y02499098D01*
X02875468Y02499046D01*
X02875442D01*
X02874717Y02501533D01*
X02875131Y02501663D01*
X02875468Y02501818D01*
X02875779Y02501974D01*
X02876038Y02502181D01*
X02876271Y02502388D01*
X02876453Y02502596D01*
X02876608Y02502803D01*
X02876737Y02503010D01*
X02876841Y02503217D01*
X02876893Y02503399D01*
X02876945Y02503580D01*
X02876996Y02503736D01*
Y02503865D01*
X02877022Y02503969D01*
Y02504046D01*
X02876971Y02504539D01*
X02876867Y02504953D01*
X02876737Y02505342D01*
X02876556Y02505627D01*
X02876401Y02505886D01*
X02876245Y02506041D01*
X02876142Y02506171D01*
X02876116Y02506197D01*
X02875701Y02506482D01*
X02875235Y02506689D01*
X02874768Y02506819D01*
X02874302Y02506922D01*
X02873888Y02507000D01*
X02873706Y02507026D01*
X02873551D01*
X02873421Y02507052D01*
X02873318D01*
X02873266D01*
X02873240D01*
Y02498994D01*
X02872670D01*
X02872178Y02499020D01*
X02871685Y02499046D01*
X02871245Y02499124D01*
X02870830Y02499202D01*
X02870416Y02499305D01*
X02870053Y02499409D01*
X02869716Y02499538D01*
X02869431Y02499642D01*
X02869146Y02499772D01*
X02868913Y02499901D01*
X02868706Y02500005D01*
X02868551Y02500108D01*
X02868421Y02500186D01*
X02868317Y02500264D01*
X02868266Y02500290D01*
X02868240Y02500316D01*
X02867903Y02500601D01*
X02867644Y02500912D01*
X02867385Y02501222D01*
X02867177Y02501559D01*
X02866996Y02501896D01*
X02866841Y02502233D01*
X02866737Y02502544D01*
X02866633Y02502855D01*
X02866556Y02503165D01*
X02866504Y02503425D01*
X02866452Y02503684D01*
X02866426Y02503891D01*
X02866400Y02504072D01*
Y02504306D01*
X02866426Y02504720D01*
X02866452Y02505109D01*
X02866530Y02505497D01*
X02866633Y02505860D01*
X02866866Y02506482D01*
X02867022Y02506767D01*
X02867151Y02507026D01*
X02867281Y02507259D01*
X02867437Y02507466D01*
X02867566Y02507622D01*
X02867670Y02507777D01*
X02867773Y02507881D01*
X02867825Y02507959D01*
X02867877Y02508010D01*
X02867903Y02508036D01*
X02868240Y02508321D01*
X02868602Y02508580D01*
X02868991Y02508813D01*
X02869380Y02509021D01*
X02869768Y02509176D01*
X02870183Y02509306D01*
X02870960Y02509513D01*
X02871323Y02509591D01*
X02871660Y02509642D01*
X02871945Y02509668D01*
X02872204Y02509694D01*
X02872411Y02509720D01*
X02872592D01*
X02872696D01*
X02872722D01*
X02873214Y02509694D01*
D02*
G37*
G36*
X02855047Y02503723D02*
X02855514Y02503619D01*
X02855954Y02503463D01*
X02856291Y02503308D01*
X02856576Y02503153D01*
X02856783Y02502997D01*
X02856913Y02502894D01*
X02856964Y02502868D01*
X02857327Y02502453D01*
X02857586Y02502013D01*
X02857768Y02501546D01*
X02857897Y02501080D01*
X02857975Y02500691D01*
X02858001Y02500510D01*
Y02500354D01*
X02858027Y02500251D01*
Y02500069D01*
X02858001Y02499629D01*
X02857949Y02499189D01*
X02857845Y02498800D01*
X02857742Y02498437D01*
X02857612Y02498100D01*
X02857457Y02497790D01*
X02857275Y02497531D01*
X02857094Y02497272D01*
X02856938Y02497038D01*
X02856757Y02496857D01*
X02856602Y02496676D01*
X02856472Y02496546D01*
X02856369Y02496442D01*
X02856265Y02496365D01*
X02856213Y02496339D01*
X02856187Y02496313D01*
X02856524Y02496287D01*
X02856809Y02496261D01*
X02857068Y02496209D01*
X02857301Y02496183D01*
X02857483Y02496157D01*
X02857638D01*
X02857716Y02496131D01*
X02857742D01*
Y02493618D01*
X02857068Y02493670D01*
X02856447Y02493722D01*
X02855851Y02493748D01*
X02855306Y02493774D01*
X02854866Y02493800D01*
X02854684D01*
X02854529D01*
X02854400D01*
X02854296D01*
X02854244D01*
X02854218D01*
X02849477D01*
X02849114D01*
X02848777Y02493852D01*
X02848156Y02494007D01*
X02847638Y02494214D01*
X02847197Y02494525D01*
X02846808Y02494862D01*
X02846472Y02495276D01*
X02846213Y02495691D01*
X02846006Y02496106D01*
X02845850Y02496546D01*
X02845721Y02496961D01*
X02845643Y02497349D01*
X02845565Y02497712D01*
X02845539Y02497997D01*
X02845513Y02498230D01*
Y02498437D01*
X02845539Y02499137D01*
X02845643Y02499785D01*
X02845824Y02500380D01*
X02846031Y02500899D01*
X02846290Y02501339D01*
X02846549Y02501754D01*
X02846860Y02502090D01*
X02847171Y02502401D01*
X02847482Y02502634D01*
X02847767Y02502842D01*
X02848052Y02503023D01*
X02848311Y02503153D01*
X02848518Y02503256D01*
X02848674Y02503308D01*
X02848803Y02503360D01*
X02848829D01*
X02849503Y02500795D01*
X02849166Y02500717D01*
X02848881Y02500614D01*
X02848622Y02500484D01*
X02848415Y02500380D01*
X02848260Y02500251D01*
X02848130Y02500147D01*
X02848052Y02500095D01*
X02848026Y02500069D01*
X02847819Y02499810D01*
X02847664Y02499551D01*
X02847560Y02499292D01*
X02847482Y02499059D01*
X02847430Y02498852D01*
X02847404Y02498671D01*
Y02498515D01*
X02847430Y02498152D01*
X02847482Y02497841D01*
X02847534Y02497582D01*
X02847612Y02497375D01*
X02847715Y02497220D01*
X02847767Y02497116D01*
X02847819Y02497038D01*
X02847845Y02497012D01*
X02848052Y02496831D01*
X02848311Y02496676D01*
X02848596Y02496572D01*
X02848881Y02496520D01*
X02849114Y02496468D01*
X02849322Y02496442D01*
X02849477D01*
X02849503D01*
X02849529D01*
X02850203D01*
X02850229Y02497142D01*
X02850280Y02497816D01*
X02850358Y02498385D01*
X02850410Y02498878D01*
X02850462Y02499292D01*
X02850487Y02499474D01*
X02850514Y02499603D01*
X02850540Y02499707D01*
Y02499785D01*
X02850565Y02499836D01*
Y02499862D01*
X02850721Y02500536D01*
X02850954Y02501132D01*
X02851213Y02501676D01*
X02851498Y02502116D01*
X02851809Y02502479D01*
X02852146Y02502790D01*
X02852483Y02503049D01*
X02852819Y02503256D01*
X02853156Y02503412D01*
X02853467Y02503541D01*
X02853752Y02503619D01*
X02853985Y02503697D01*
X02854193Y02503723D01*
X02854374Y02503748D01*
X02854478D01*
X02854503D01*
X02855047Y02503723D01*
D02*
G37*
G36*
X02878603Y02493502D02*
X02861426D01*
Y02496222D01*
X02878603D01*
Y02493502D01*
D02*
G37*
G36*
X02880132Y02490989D02*
X02880339Y02490963D01*
X02880728Y02490833D01*
X02881064Y02490626D01*
X02881349Y02490393D01*
X02881582Y02490186D01*
X02881764Y02489978D01*
X02881867Y02489849D01*
X02881893Y02489797D01*
X02882049Y02489512D01*
X02882204Y02489201D01*
X02882411Y02488528D01*
X02882567Y02487828D01*
X02882697Y02487154D01*
X02882722Y02486844D01*
X02882748Y02486559D01*
X02882774Y02486299D01*
Y02486066D01*
X02882800Y02485885D01*
Y02485134D01*
X02882748Y02484693D01*
X02882722Y02484253D01*
X02882645Y02483838D01*
X02882593Y02483475D01*
X02882515Y02483113D01*
X02882437Y02482802D01*
X02882334Y02482517D01*
X02882256Y02482258D01*
X02882178Y02482025D01*
X02882101Y02481817D01*
X02882023Y02481662D01*
X02881971Y02481532D01*
X02881919Y02481455D01*
X02881893Y02481403D01*
Y02481377D01*
X02881686Y02481066D01*
X02881479Y02480807D01*
X02881271Y02480574D01*
X02881038Y02480367D01*
X02880805Y02480211D01*
X02880572Y02480056D01*
X02880132Y02479848D01*
X02879743Y02479745D01*
X02879587Y02479693D01*
X02879432Y02479667D01*
X02879302Y02479641D01*
X02879225D01*
X02879173D01*
X02879147D01*
X02878706Y02479667D01*
X02878318Y02479745D01*
X02877981Y02479874D01*
X02877696Y02480004D01*
X02877489Y02480159D01*
X02877333Y02480263D01*
X02877230Y02480367D01*
X02877204Y02480392D01*
X02877048Y02480600D01*
X02876893Y02480807D01*
X02876660Y02481325D01*
X02876453Y02481895D01*
X02876323Y02482439D01*
X02876219Y02482957D01*
X02876168Y02483165D01*
X02876142Y02483372D01*
X02876116Y02483527D01*
X02876090Y02483657D01*
Y02483760D01*
X02875857Y02486455D01*
X02875831Y02486766D01*
X02875779Y02487051D01*
X02875727Y02487284D01*
X02875701Y02487439D01*
X02875649Y02487595D01*
X02875623Y02487672D01*
X02875598Y02487724D01*
Y02487750D01*
X02875520Y02487880D01*
X02875416Y02487957D01*
X02875235Y02488061D01*
X02875079Y02488113D01*
X02875027D01*
X02875002D01*
X02874794Y02488087D01*
X02874587Y02487983D01*
X02874406Y02487854D01*
X02874250Y02487672D01*
X02874147Y02487517D01*
X02874043Y02487388D01*
X02873991Y02487284D01*
X02873965Y02487258D01*
X02874069Y02486714D01*
X02874095Y02486455D01*
X02874121Y02486196D01*
X02874147Y02486014D01*
Y02485703D01*
X02874095Y02485004D01*
X02873991Y02484382D01*
X02873862Y02483812D01*
X02873680Y02483346D01*
X02873525Y02482983D01*
X02873447Y02482828D01*
X02873369Y02482724D01*
X02873318Y02482621D01*
X02873266Y02482543D01*
X02873240Y02482517D01*
Y02482491D01*
X02873033Y02482232D01*
X02872799Y02481999D01*
X02872566Y02481817D01*
X02872307Y02481636D01*
X02872074Y02481481D01*
X02871815Y02481377D01*
X02871323Y02481196D01*
X02870882Y02481092D01*
X02870701Y02481066D01*
X02870520Y02481040D01*
X02870390Y02481014D01*
X02870286D01*
X02870235D01*
X02870209D01*
X02869716Y02481066D01*
X02869250Y02481170D01*
X02868861Y02481325D01*
X02868499Y02481481D01*
X02868214Y02481662D01*
X02868007Y02481817D01*
X02867877Y02481921D01*
X02867825Y02481973D01*
X02867618Y02481714D01*
X02867488Y02481481D01*
X02867411Y02481299D01*
X02867385Y02481273D01*
Y02481247D01*
X02867333Y02481040D01*
X02867281Y02480833D01*
X02867229Y02480367D01*
X02867203Y02480159D01*
Y02479848D01*
X02865001Y02479693D01*
X02865027Y02480133D01*
X02865053Y02480522D01*
X02865131Y02480859D01*
X02865208Y02481144D01*
X02865286Y02481351D01*
X02865338Y02481532D01*
X02865390Y02481636D01*
X02865416Y02481662D01*
X02865597Y02481973D01*
X02865856Y02482258D01*
X02866115Y02482517D01*
X02866374Y02482724D01*
X02866607Y02482905D01*
X02866815Y02483035D01*
X02866944Y02483113D01*
X02866970Y02483139D01*
X02866996D01*
X02866789Y02483553D01*
X02866659Y02483994D01*
X02866556Y02484408D01*
X02866478Y02484797D01*
X02866426Y02485159D01*
X02866400Y02485419D01*
Y02485678D01*
X02866452Y02486377D01*
X02866556Y02486999D01*
X02866685Y02487543D01*
X02866866Y02488009D01*
X02867048Y02488372D01*
X02867126Y02488528D01*
X02867177Y02488631D01*
X02867255Y02488735D01*
X02867281Y02488813D01*
X02867333Y02488838D01*
Y02488864D01*
X02867540Y02489123D01*
X02867773Y02489357D01*
X02868007Y02489564D01*
X02868240Y02489719D01*
X02868473Y02489875D01*
X02868706Y02490004D01*
X02869172Y02490186D01*
X02869587Y02490289D01*
X02869768Y02490315D01*
X02869924Y02490341D01*
X02870053Y02490367D01*
X02870157D01*
X02870209D01*
X02870235D01*
X02870623Y02490341D01*
X02870960Y02490289D01*
X02871297Y02490211D01*
X02871608Y02490108D01*
X02872152Y02489823D01*
X02872592Y02489512D01*
X02872929Y02489201D01*
X02873188Y02488916D01*
X02873292Y02488813D01*
X02873344Y02488735D01*
X02873369Y02488683D01*
X02873395Y02488657D01*
X02873603Y02488968D01*
X02873836Y02489253D01*
X02874043Y02489512D01*
X02874250Y02489719D01*
X02874458Y02489901D01*
X02874665Y02490056D01*
X02874872Y02490160D01*
X02875053Y02490263D01*
X02875390Y02490393D01*
X02875623Y02490471D01*
X02875727Y02490497D01*
X02875805D01*
X02875831D01*
X02875857D01*
X02876090Y02490471D01*
X02876323Y02490419D01*
X02876530Y02490341D01*
X02876712Y02490237D01*
X02876996Y02489952D01*
X02877230Y02489642D01*
X02877411Y02489357D01*
X02877515Y02489072D01*
X02877541Y02488968D01*
X02877567Y02488890D01*
X02877592Y02488838D01*
Y02488813D01*
X02877748Y02489201D01*
X02877929Y02489538D01*
X02878111Y02489823D01*
X02878292Y02490082D01*
X02878474Y02490289D01*
X02878681Y02490471D01*
X02878862Y02490626D01*
X02879043Y02490730D01*
X02879380Y02490885D01*
X02879639Y02490989D01*
X02879743D01*
X02879821Y02491015D01*
X02879872D01*
X02879898D01*
X02880132Y02490989D01*
D02*
G37*
G36*
X02857742Y02487660D02*
X02853933D01*
X02852120Y02486027D01*
X02857742Y02483074D01*
Y02480094D01*
X02850280Y02484292D01*
X02845798Y02480302D01*
Y02483385D01*
X02851031Y02487660D01*
X02840565D01*
Y02490354D01*
X02857742D01*
Y02487660D01*
D02*
G37*
G36*
X02878603Y02474615D02*
X02866659D01*
Y02477335D01*
X02878603D01*
Y02474615D01*
D02*
G37*
G36*
X02864535Y02474485D02*
X02861711D01*
Y02477439D01*
X02864535D01*
Y02474485D01*
D02*
G37*
G36*
X02852353Y02478669D02*
X02852845Y02478644D01*
X02853286Y02478566D01*
X02853700Y02478488D01*
X02854089Y02478385D01*
X02854452Y02478281D01*
X02854762Y02478177D01*
X02855073Y02478048D01*
X02855332Y02477918D01*
X02855565Y02477815D01*
X02855747Y02477711D01*
X02855928Y02477607D01*
X02856058Y02477530D01*
X02856136Y02477452D01*
X02856187Y02477426D01*
X02856213Y02477400D01*
X02856524Y02477115D01*
X02856809Y02476778D01*
X02857068Y02476441D01*
X02857275Y02476105D01*
X02857457Y02475742D01*
X02857612Y02475379D01*
X02857716Y02475016D01*
X02857820Y02474680D01*
X02857897Y02474343D01*
X02857949Y02474032D01*
X02858001Y02473747D01*
X02858027Y02473514D01*
X02858053Y02473333D01*
Y02473047D01*
X02858001Y02472348D01*
X02857897Y02471726D01*
X02857742Y02471130D01*
X02857509Y02470612D01*
X02857249Y02470172D01*
X02856964Y02469757D01*
X02856628Y02469395D01*
X02856317Y02469084D01*
X02855980Y02468799D01*
X02855669Y02468591D01*
X02855384Y02468410D01*
X02855125Y02468255D01*
X02854892Y02468151D01*
X02854737Y02468073D01*
X02854607Y02468021D01*
X02854581D01*
X02853856Y02470509D01*
X02854270Y02470638D01*
X02854607Y02470793D01*
X02854918Y02470949D01*
X02855177Y02471156D01*
X02855410Y02471364D01*
X02855591Y02471571D01*
X02855747Y02471778D01*
X02855876Y02471985D01*
X02855980Y02472193D01*
X02856032Y02472374D01*
X02856084Y02472555D01*
X02856136Y02472711D01*
Y02472840D01*
X02856161Y02472944D01*
Y02473022D01*
X02856110Y02473514D01*
X02856006Y02473928D01*
X02855876Y02474317D01*
X02855695Y02474602D01*
X02855540Y02474861D01*
X02855384Y02475016D01*
X02855280Y02475146D01*
X02855255Y02475172D01*
X02854840Y02475457D01*
X02854374Y02475664D01*
X02853907Y02475794D01*
X02853441Y02475897D01*
X02853026Y02475975D01*
X02852845Y02476001D01*
X02852690D01*
X02852560Y02476027D01*
X02852457D01*
X02852405D01*
X02852379D01*
Y02467970D01*
X02851809D01*
X02851317Y02467995D01*
X02850824Y02468021D01*
X02850384Y02468099D01*
X02849969Y02468177D01*
X02849555Y02468280D01*
X02849192Y02468384D01*
X02848855Y02468514D01*
X02848570Y02468617D01*
X02848286Y02468747D01*
X02848052Y02468876D01*
X02847845Y02468980D01*
X02847690Y02469084D01*
X02847560Y02469161D01*
X02847456Y02469239D01*
X02847404Y02469265D01*
X02847379Y02469291D01*
X02847042Y02469576D01*
X02846783Y02469887D01*
X02846524Y02470198D01*
X02846317Y02470534D01*
X02846135Y02470871D01*
X02845980Y02471208D01*
X02845876Y02471519D01*
X02845772Y02471830D01*
X02845695Y02472141D01*
X02845643Y02472400D01*
X02845591Y02472659D01*
X02845565Y02472866D01*
X02845539Y02473047D01*
Y02473281D01*
X02845565Y02473695D01*
X02845591Y02474084D01*
X02845669Y02474472D01*
X02845772Y02474835D01*
X02846006Y02475457D01*
X02846161Y02475742D01*
X02846290Y02476001D01*
X02846420Y02476234D01*
X02846575Y02476441D01*
X02846705Y02476597D01*
X02846808Y02476752D01*
X02846912Y02476856D01*
X02846964Y02476934D01*
X02847016Y02476985D01*
X02847042Y02477011D01*
X02847379Y02477296D01*
X02847741Y02477556D01*
X02848130Y02477789D01*
X02848518Y02477996D01*
X02848907Y02478151D01*
X02849322Y02478281D01*
X02850099Y02478488D01*
X02850462Y02478566D01*
X02850798Y02478618D01*
X02851083Y02478644D01*
X02851342Y02478669D01*
X02851550Y02478695D01*
X02851731D01*
X02851835D01*
X02851861D01*
X02852353Y02478669D01*
D02*
G37*
G36*
X02875960Y02471143D02*
X02876453Y02471040D01*
X02876893Y02470884D01*
X02877256Y02470729D01*
X02877541Y02470573D01*
X02877748Y02470418D01*
X02877878Y02470314D01*
X02877929Y02470288D01*
X02878266Y02469900D01*
X02878499Y02469485D01*
X02878681Y02469045D01*
X02878784Y02468656D01*
X02878862Y02468293D01*
X02878888Y02467982D01*
X02878914Y02467879D01*
Y02467723D01*
X02878888Y02467309D01*
X02878836Y02466920D01*
X02878732Y02466583D01*
X02878629Y02466272D01*
X02878551Y02466013D01*
X02878448Y02465806D01*
X02878396Y02465703D01*
X02878370Y02465651D01*
X02878111Y02465262D01*
X02877800Y02464899D01*
X02877515Y02464588D01*
X02877204Y02464329D01*
X02876945Y02464122D01*
X02876737Y02463967D01*
X02876582Y02463863D01*
X02876530Y02463837D01*
X02878603D01*
Y02461195D01*
X02866659D01*
Y02463941D01*
X02874535D01*
X02874820Y02464096D01*
X02875105Y02464278D01*
X02875338Y02464485D01*
X02875546Y02464640D01*
X02875701Y02464822D01*
X02875831Y02464925D01*
X02875909Y02465029D01*
X02875934Y02465055D01*
X02876142Y02465366D01*
X02876297Y02465651D01*
X02876427Y02465936D01*
X02876505Y02466169D01*
X02876556Y02466376D01*
X02876582Y02466557D01*
Y02466687D01*
X02876556Y02466972D01*
X02876505Y02467231D01*
X02876401Y02467464D01*
X02876271Y02467672D01*
X02876116Y02467827D01*
X02875960Y02467957D01*
X02875598Y02468164D01*
X02875235Y02468293D01*
X02874924Y02468345D01*
X02874794Y02468371D01*
X02874691D01*
X02874639D01*
X02874613D01*
X02866659D01*
Y02471169D01*
X02875390D01*
X02875960Y02471143D01*
D02*
G37*
G36*
X02857742Y02455793D02*
X02840876D01*
Y02458772D01*
X02857742D01*
Y02455793D01*
D02*
G37*
G36*
Y02449290D02*
X02849918D01*
X02849607Y02449083D01*
X02849348Y02448875D01*
X02849088Y02448668D01*
X02848907Y02448487D01*
X02848726Y02448331D01*
X02848622Y02448176D01*
X02848544Y02448098D01*
X02848518Y02448072D01*
X02848311Y02447761D01*
X02848156Y02447476D01*
X02848052Y02447217D01*
X02847975Y02446984D01*
X02847923Y02446777D01*
X02847897Y02446621D01*
Y02446492D01*
X02847923Y02446207D01*
X02847975Y02445948D01*
X02848078Y02445740D01*
X02848208Y02445559D01*
X02848363Y02445378D01*
X02848544Y02445248D01*
X02848907Y02445067D01*
X02849270Y02444937D01*
X02849607Y02444886D01*
X02849736Y02444860D01*
X02849840D01*
X02849892D01*
X02849918D01*
X02857742D01*
Y02442036D01*
X02849140D01*
X02848570Y02442061D01*
X02848078Y02442165D01*
X02847638Y02442295D01*
X02847275Y02442450D01*
X02846990Y02442632D01*
X02846783Y02442761D01*
X02846653Y02442865D01*
X02846601Y02442891D01*
X02846239Y02443279D01*
X02845980Y02443694D01*
X02845798Y02444108D01*
X02845669Y02444523D01*
X02845591Y02444886D01*
X02845565Y02445196D01*
X02845539Y02445300D01*
Y02445455D01*
X02845565Y02445844D01*
X02845617Y02446233D01*
X02845721Y02446570D01*
X02845824Y02446880D01*
X02845928Y02447139D01*
X02846031Y02447321D01*
X02846083Y02447450D01*
X02846109Y02447502D01*
X02846368Y02447891D01*
X02846653Y02448253D01*
X02846938Y02448564D01*
X02847223Y02448849D01*
X02847482Y02449057D01*
X02847715Y02449238D01*
X02847845Y02449342D01*
X02847871Y02449368D01*
X02845798D01*
Y02452010D01*
X02857742D01*
Y02449290D01*
D02*
G37*
G36*
X02878603Y02454951D02*
X02870779D01*
X02870468Y02454795D01*
X02870209Y02454614D01*
X02869976Y02454433D01*
X02869768Y02454251D01*
X02869613Y02454122D01*
X02869483Y02453992D01*
X02869406Y02453914D01*
X02869380Y02453889D01*
X02869172Y02453604D01*
X02869017Y02453344D01*
X02868913Y02453085D01*
X02868835Y02452852D01*
X02868784Y02452645D01*
X02868758Y02452489D01*
Y02452360D01*
X02868784Y02452101D01*
X02868835Y02451868D01*
X02868939Y02451686D01*
X02869069Y02451531D01*
X02869406Y02451272D01*
X02869768Y02451090D01*
X02870131Y02450987D01*
X02870468Y02450935D01*
X02870597Y02450909D01*
X02870701D01*
X02870753D01*
X02870779D01*
X02878603D01*
Y02448189D01*
X02870779D01*
X02870494Y02448033D01*
X02870209Y02447878D01*
X02869976Y02447697D01*
X02869768Y02447541D01*
X02869613Y02447386D01*
X02869509Y02447282D01*
X02869431Y02447204D01*
X02869406Y02447178D01*
X02869198Y02446893D01*
X02869043Y02446634D01*
X02868913Y02446401D01*
X02868835Y02446168D01*
X02868784Y02445987D01*
X02868758Y02445831D01*
Y02445702D01*
X02868784Y02445417D01*
X02868835Y02445157D01*
X02868939Y02444924D01*
X02869069Y02444743D01*
X02869224Y02444588D01*
X02869406Y02444458D01*
X02869768Y02444251D01*
X02870131Y02444121D01*
X02870468Y02444069D01*
X02870597Y02444043D01*
X02870701D01*
X02870753D01*
X02870779D01*
X02878603D01*
Y02441323D01*
X02870002D01*
X02869431Y02441349D01*
X02868939Y02441453D01*
X02868499Y02441556D01*
X02868136Y02441712D01*
X02867851Y02441841D01*
X02867644Y02441971D01*
X02867514Y02442074D01*
X02867462Y02442100D01*
X02867100Y02442463D01*
X02866841Y02442852D01*
X02866659Y02443266D01*
X02866530Y02443655D01*
X02866452Y02444018D01*
X02866426Y02444303D01*
X02866400Y02444406D01*
Y02444562D01*
X02866426Y02444976D01*
X02866504Y02445365D01*
X02866607Y02445753D01*
X02866763Y02446090D01*
X02866944Y02446427D01*
X02867151Y02446738D01*
X02867359Y02447023D01*
X02867566Y02447308D01*
X02867799Y02447541D01*
X02868007Y02447748D01*
X02868214Y02447930D01*
X02868395Y02448059D01*
X02868551Y02448189D01*
X02868654Y02448266D01*
X02868732Y02448318D01*
X02868758Y02448344D01*
X02868395Y02448448D01*
X02868084Y02448577D01*
X02867799Y02448733D01*
X02867566Y02448888D01*
X02867385Y02449018D01*
X02867229Y02449147D01*
X02867151Y02449225D01*
X02867126Y02449251D01*
X02866892Y02449562D01*
X02866711Y02449899D01*
X02866582Y02450261D01*
X02866478Y02450572D01*
X02866426Y02450857D01*
X02866400Y02451090D01*
Y02451298D01*
X02866426Y02451712D01*
X02866504Y02452101D01*
X02866607Y02452464D01*
X02866763Y02452826D01*
X02866944Y02453163D01*
X02867151Y02453474D01*
X02867359Y02453759D01*
X02867566Y02454018D01*
X02867799Y02454251D01*
X02868007Y02454458D01*
X02868214Y02454640D01*
X02868395Y02454769D01*
X02868551Y02454899D01*
X02868654Y02454977D01*
X02868732Y02455029D01*
X02868758Y02455054D01*
X02866659D01*
Y02457645D01*
X02878603D01*
Y02454951D01*
D02*
G37*
G36*
X02925940Y02614848D02*
X02926315Y02614626D01*
X02926661Y02614446D01*
X02926966Y02614307D01*
X02927119Y02614252D01*
X02927244Y02614196D01*
X02927355Y02614155D01*
X02927452Y02614113D01*
X02927521Y02614085D01*
X02927591Y02614071D01*
X02927618Y02614058D01*
X02927632D01*
X02927396Y02612837D01*
X02927064Y02612962D01*
X02926744Y02613087D01*
X02926467Y02613212D01*
X02926231Y02613336D01*
X02926037Y02613461D01*
X02925885Y02613544D01*
X02925829Y02613586D01*
X02925788Y02613600D01*
X02925774Y02613628D01*
X02925760D01*
Y02607290D01*
X02927493D01*
Y02606166D01*
X02922709D01*
Y02607290D01*
X02924373D01*
Y02615112D01*
X02925566D01*
X02925940Y02614848D01*
D02*
G37*
G36*
X02953455Y02610785D02*
X02956256Y02606166D01*
X02954620D01*
X02952928Y02609051D01*
X02952859Y02609176D01*
X02952803Y02609287D01*
X02952748Y02609384D01*
X02952706Y02609467D01*
X02952679Y02609536D01*
X02952651Y02609578D01*
X02952623Y02609606D01*
Y02609620D01*
X02952581Y02609536D01*
X02952526Y02609453D01*
X02952498Y02609384D01*
X02952484Y02609370D01*
Y02609356D01*
X02952401Y02609218D01*
X02952359Y02609120D01*
X02952332Y02609065D01*
X02952318Y02609051D01*
X02950640Y02606166D01*
X02948837D01*
X02951666Y02610854D01*
X02948976Y02615195D01*
X02950626D01*
X02952110Y02612657D01*
X02952221Y02612449D01*
X02952304Y02612296D01*
X02952373Y02612185D01*
X02952415Y02612102D01*
X02952443Y02612047D01*
X02952456Y02612005D01*
X02952470Y02611991D01*
X02952526Y02612088D01*
X02952581Y02612185D01*
X02952637Y02612268D01*
X02952651Y02612282D01*
Y02612296D01*
X02952734Y02612449D01*
X02952789Y02612560D01*
X02952831Y02612629D01*
X02952845Y02612643D01*
X02954287Y02615195D01*
X02956076D01*
X02953455Y02610785D01*
D02*
G37*
G36*
X02931834Y02615181D02*
X02932098Y02615139D01*
X02932347Y02615070D01*
X02932569Y02614987D01*
X02932791Y02614876D01*
X02932985Y02614737D01*
X02933166Y02614585D01*
X02933332Y02614418D01*
X02933499Y02614238D01*
X02933637Y02614044D01*
X02933887Y02613628D01*
X02934081Y02613184D01*
X02934247Y02612726D01*
X02934372Y02612268D01*
X02934469Y02611825D01*
X02934539Y02611409D01*
X02934566Y02611215D01*
X02934580Y02611034D01*
X02934608Y02610868D01*
X02934622Y02610715D01*
Y02610576D01*
X02934636Y02610466D01*
Y02610382D01*
Y02610313D01*
Y02610272D01*
Y02610258D01*
X02934622Y02609883D01*
X02934608Y02609536D01*
X02934566Y02609218D01*
X02934525Y02608912D01*
X02934469Y02608635D01*
X02934414Y02608372D01*
X02934358Y02608136D01*
X02934289Y02607928D01*
X02934220Y02607747D01*
X02934164Y02607581D01*
X02934109Y02607456D01*
X02934053Y02607345D01*
X02934012Y02607248D01*
X02933970Y02607193D01*
X02933956Y02607151D01*
X02933942Y02607137D01*
X02933803Y02606943D01*
X02933637Y02606763D01*
X02933471Y02606610D01*
X02933304Y02606485D01*
X02933124Y02606375D01*
X02932944Y02606277D01*
X02932763Y02606208D01*
X02932583Y02606139D01*
X02932431Y02606097D01*
X02932278Y02606056D01*
X02932139Y02606042D01*
X02932014Y02606014D01*
X02931917D01*
X02931848Y02606000D01*
X02931779D01*
X02931571Y02606014D01*
X02931377Y02606028D01*
X02931016Y02606111D01*
X02930697Y02606222D01*
X02930433Y02606360D01*
X02930323Y02606430D01*
X02930226Y02606499D01*
X02930142Y02606555D01*
X02930059Y02606610D01*
X02930004Y02606652D01*
X02929962Y02606693D01*
X02929948Y02606707D01*
X02929934Y02606721D01*
X02929782Y02606888D01*
X02929657Y02607082D01*
X02929532Y02607262D01*
X02929435Y02607456D01*
X02929352Y02607664D01*
X02929283Y02607858D01*
X02929185Y02608247D01*
X02929144Y02608413D01*
X02929116Y02608579D01*
X02929102Y02608732D01*
X02929088Y02608857D01*
X02929074Y02608968D01*
Y02609037D01*
Y02609093D01*
Y02609106D01*
X02929102Y02609550D01*
X02929158Y02609952D01*
X02929255Y02610285D01*
X02929296Y02610438D01*
X02929352Y02610576D01*
X02929407Y02610701D01*
X02929449Y02610812D01*
X02929504Y02610909D01*
X02929546Y02610979D01*
X02929574Y02611034D01*
X02929601Y02611076D01*
X02929629Y02611104D01*
Y02611118D01*
X02929754Y02611270D01*
X02929893Y02611409D01*
X02930031Y02611519D01*
X02930170Y02611617D01*
X02930323Y02611714D01*
X02930461Y02611783D01*
X02930753Y02611880D01*
X02931002Y02611949D01*
X02931113Y02611964D01*
X02931210Y02611977D01*
X02931280Y02611991D01*
X02931390D01*
X02931612Y02611977D01*
X02931820Y02611949D01*
X02932001Y02611894D01*
X02932181Y02611825D01*
X02932347Y02611755D01*
X02932500Y02611658D01*
X02932625Y02611575D01*
X02932750Y02611478D01*
X02932860Y02611381D01*
X02932944Y02611284D01*
X02933027Y02611187D01*
X02933096Y02611118D01*
X02933138Y02611048D01*
X02933180Y02610993D01*
X02933193Y02610965D01*
X02933207Y02610951D01*
X02933193Y02611242D01*
X02933180Y02611506D01*
X02933152Y02611755D01*
X02933110Y02611991D01*
X02933069Y02612199D01*
X02933027Y02612407D01*
X02932971Y02612588D01*
X02932916Y02612768D01*
X02932791Y02613073D01*
X02932666Y02613322D01*
X02932514Y02613531D01*
X02932375Y02613697D01*
X02932223Y02613822D01*
X02932084Y02613919D01*
X02931959Y02613988D01*
X02931834Y02614044D01*
X02931737Y02614071D01*
X02931668Y02614085D01*
X02931599D01*
X02931460Y02614071D01*
X02931349Y02614044D01*
X02931238Y02614002D01*
X02931141Y02613947D01*
X02930974Y02613808D01*
X02930850Y02613655D01*
X02930766Y02613489D01*
X02930711Y02613350D01*
X02930697Y02613295D01*
X02930683Y02613253D01*
X02930669Y02613225D01*
Y02613212D01*
X02929255Y02613739D01*
X02929380Y02614002D01*
X02929518Y02614224D01*
X02929684Y02614418D01*
X02929865Y02614585D01*
X02930059Y02614723D01*
X02930239Y02614834D01*
X02930433Y02614931D01*
X02930628Y02615015D01*
X02930808Y02615070D01*
X02930988Y02615112D01*
X02931141Y02615153D01*
X02931280Y02615167D01*
X02931390Y02615181D01*
X02931487Y02615195D01*
X02931557D01*
X02931834Y02615181D01*
D02*
G37*
G36*
X02945578D02*
X02945772Y02615167D01*
X02946133Y02615084D01*
X02946451Y02614959D01*
X02946715Y02614834D01*
X02946826Y02614765D01*
X02946937Y02614695D01*
X02947020Y02614626D01*
X02947090Y02614571D01*
X02947145Y02614529D01*
X02947187Y02614488D01*
X02947200Y02614474D01*
X02947214Y02614460D01*
X02947367Y02614293D01*
X02947491Y02614113D01*
X02947603Y02613933D01*
X02947700Y02613739D01*
X02947769Y02613531D01*
X02947838Y02613336D01*
X02947935Y02612962D01*
X02947977Y02612782D01*
X02948005Y02612615D01*
X02948018Y02612463D01*
X02948033Y02612338D01*
X02948046Y02612241D01*
Y02612158D01*
Y02612102D01*
Y02612088D01*
X02948033Y02611866D01*
X02948018Y02611658D01*
X02947949Y02611256D01*
X02947852Y02610923D01*
X02947797Y02610771D01*
X02947741Y02610632D01*
X02947686Y02610507D01*
X02947644Y02610396D01*
X02947589Y02610313D01*
X02947547Y02610230D01*
X02947505Y02610174D01*
X02947478Y02610133D01*
X02947450Y02610105D01*
Y02610091D01*
X02947325Y02609939D01*
X02947187Y02609800D01*
X02947034Y02609689D01*
X02946895Y02609592D01*
X02946743Y02609509D01*
X02946590Y02609425D01*
X02946313Y02609328D01*
X02946063Y02609259D01*
X02945952Y02609245D01*
X02945855Y02609231D01*
X02945786Y02609218D01*
X02945675D01*
X02945453Y02609231D01*
X02945245Y02609259D01*
X02945051Y02609315D01*
X02944871Y02609384D01*
X02944704Y02609467D01*
X02944551Y02609550D01*
X02944427Y02609648D01*
X02944302Y02609758D01*
X02944205Y02609855D01*
X02944108Y02609952D01*
X02944038Y02610036D01*
X02943983Y02610119D01*
X02943928Y02610188D01*
X02943900Y02610244D01*
X02943873Y02610271D01*
X02943886Y02609994D01*
X02943900Y02609731D01*
X02943928Y02609481D01*
X02943955Y02609245D01*
X02943983Y02609037D01*
X02944011Y02608843D01*
X02944052Y02608663D01*
X02944094Y02608510D01*
X02944122Y02608372D01*
X02944163Y02608247D01*
X02944191Y02608150D01*
X02944219Y02608066D01*
X02944247Y02608011D01*
X02944260Y02607969D01*
X02944274Y02607942D01*
Y02607928D01*
X02944357Y02607789D01*
X02944441Y02607664D01*
X02944524Y02607553D01*
X02944621Y02607456D01*
X02944732Y02607373D01*
X02944829Y02607304D01*
X02945023Y02607207D01*
X02945204Y02607151D01*
X02945342Y02607123D01*
X02945398Y02607109D01*
X02945481D01*
X02945605Y02607123D01*
X02945717Y02607151D01*
X02945827Y02607193D01*
X02945924Y02607248D01*
X02946077Y02607387D01*
X02946202Y02607539D01*
X02946299Y02607692D01*
X02946368Y02607831D01*
X02946382Y02607886D01*
X02946396Y02607928D01*
X02946410Y02607956D01*
Y02607969D01*
X02947838Y02607429D01*
X02947727Y02607179D01*
X02947589Y02606957D01*
X02947422Y02606763D01*
X02947256Y02606596D01*
X02947062Y02606472D01*
X02946868Y02606347D01*
X02946673Y02606250D01*
X02946479Y02606180D01*
X02946285Y02606125D01*
X02946105Y02606069D01*
X02945938Y02606042D01*
X02945800Y02606028D01*
X02945675Y02606014D01*
X02945592Y02606000D01*
X02945508D01*
X02945259Y02606014D01*
X02945023Y02606042D01*
X02944801Y02606083D01*
X02944593Y02606153D01*
X02944399Y02606222D01*
X02944232Y02606305D01*
X02944066Y02606402D01*
X02943928Y02606485D01*
X02943802Y02606583D01*
X02943692Y02606666D01*
X02943595Y02606749D01*
X02943525Y02606818D01*
X02943470Y02606888D01*
X02943414Y02606929D01*
X02943401Y02606957D01*
X02943387Y02606971D01*
X02943234Y02607220D01*
X02943095Y02607484D01*
X02942971Y02607789D01*
X02942859Y02608094D01*
X02942776Y02608427D01*
X02942707Y02608760D01*
X02942652Y02609079D01*
X02942596Y02609412D01*
X02942555Y02609717D01*
X02942527Y02609994D01*
X02942513Y02610258D01*
X02942499Y02610493D01*
X02942485Y02610674D01*
Y02610812D01*
Y02610868D01*
Y02610909D01*
Y02610923D01*
Y02610937D01*
X02942499Y02611312D01*
X02942513Y02611658D01*
X02942541Y02611977D01*
X02942596Y02612268D01*
X02942638Y02612546D01*
X02942693Y02612809D01*
X02942762Y02613031D01*
X02942818Y02613239D01*
X02942887Y02613419D01*
X02942943Y02613586D01*
X02943012Y02613725D01*
X02943054Y02613836D01*
X02943095Y02613919D01*
X02943137Y02613974D01*
X02943151Y02614016D01*
X02943165Y02614030D01*
X02943304Y02614238D01*
X02943470Y02614418D01*
X02943636Y02614571D01*
X02943817Y02614709D01*
X02943997Y02614820D01*
X02944191Y02614917D01*
X02944371Y02614987D01*
X02944538Y02615056D01*
X02944704Y02615098D01*
X02944871Y02615139D01*
X02945009Y02615153D01*
X02945134Y02615181D01*
X02945231D01*
X02945300Y02615195D01*
X02945370D01*
X02945578Y02615181D01*
D02*
G37*
G36*
X02973800Y02606166D02*
X02972413D01*
Y02610701D01*
Y02611312D01*
Y02611894D01*
Y02612172D01*
X02972427Y02612435D01*
Y02612685D01*
Y02612921D01*
Y02613128D01*
Y02613322D01*
X02972441Y02613489D01*
Y02613641D01*
Y02613752D01*
Y02613836D01*
Y02613891D01*
Y02613905D01*
X02972274D01*
X02972163Y02613419D01*
X02972053Y02612990D01*
X02971956Y02612601D01*
X02971886Y02612268D01*
X02971803Y02611977D01*
X02971747Y02611728D01*
X02971692Y02611506D01*
X02971650Y02611325D01*
X02971609Y02611173D01*
X02971581Y02611062D01*
X02971553Y02610965D01*
X02971539Y02610896D01*
X02971526Y02610840D01*
X02971512Y02610812D01*
Y02610785D01*
X02970319Y02606166D01*
X02968488D01*
X02967268Y02610840D01*
X02967213Y02611062D01*
X02967143Y02611284D01*
X02967018Y02611783D01*
X02966894Y02612296D01*
X02966783Y02612795D01*
X02966727Y02613017D01*
X02966671Y02613225D01*
X02966630Y02613419D01*
X02966588Y02613586D01*
X02966561Y02613711D01*
X02966533Y02613822D01*
X02966519Y02613877D01*
Y02613905D01*
X02966353D01*
Y02613517D01*
X02966367Y02613156D01*
Y02612823D01*
Y02612504D01*
Y02612213D01*
Y02611964D01*
X02966380Y02611728D01*
Y02611506D01*
Y02611325D01*
Y02611159D01*
Y02611021D01*
Y02610909D01*
Y02610826D01*
Y02610771D01*
Y02610729D01*
Y02610715D01*
Y02606166D01*
X02964883D01*
Y02615195D01*
X02967434D01*
X02968586Y02610563D01*
X02968641Y02610341D01*
X02968710Y02610105D01*
X02968766Y02609869D01*
X02968821Y02609661D01*
X02968863Y02609453D01*
X02968904Y02609301D01*
X02968918Y02609245D01*
Y02609203D01*
X02968932Y02609176D01*
Y02609162D01*
X02968974Y02608954D01*
X02969029Y02608760D01*
X02969057Y02608579D01*
X02969099Y02608427D01*
X02969126Y02608275D01*
X02969168Y02608150D01*
X02969182Y02608039D01*
X02969210Y02607942D01*
X02969251Y02607789D01*
X02969279Y02607692D01*
X02969293Y02607623D01*
Y02607609D01*
X02969459D01*
X02969556Y02608150D01*
X02969667Y02608676D01*
X02969778Y02609176D01*
X02969834Y02609412D01*
X02969889Y02609633D01*
X02969931Y02609828D01*
X02969972Y02610008D01*
X02970014Y02610174D01*
X02970042Y02610313D01*
X02970069Y02610424D01*
X02970097Y02610507D01*
X02970111Y02610563D01*
Y02610576D01*
X02971248Y02615195D01*
X02973800D01*
Y02606166D01*
D02*
G37*
G36*
X02962719D02*
X02956895D01*
Y02607429D01*
X02961124D01*
Y02615195D01*
X02962719D01*
Y02606166D01*
D02*
G37*
G36*
X02921475Y02609203D02*
Y02608163D01*
X02918091D01*
Y02606166D01*
X02916759D01*
Y02608163D01*
X02915650D01*
Y02609273D01*
X02916759D01*
Y02615112D01*
X02918590D01*
X02921475Y02609203D01*
D02*
G37*
G36*
X02938796Y02615181D02*
X02939018Y02615153D01*
X02939226Y02615112D01*
X02939406Y02615056D01*
X02939587Y02614987D01*
X02939753Y02614904D01*
X02939892Y02614820D01*
X02940031Y02614737D01*
X02940141Y02614654D01*
X02940252Y02614571D01*
X02940335Y02614488D01*
X02940405Y02614418D01*
X02940461Y02614363D01*
X02940502Y02614321D01*
X02940516Y02614293D01*
X02940530Y02614279D01*
X02940682Y02614058D01*
X02940807Y02613794D01*
X02940918Y02613517D01*
X02941015Y02613225D01*
X02941084Y02612934D01*
X02941154Y02612629D01*
X02941251Y02612019D01*
X02941292Y02611742D01*
X02941320Y02611478D01*
X02941334Y02611228D01*
X02941348Y02611021D01*
X02941362Y02610854D01*
Y02610715D01*
Y02610632D01*
Y02610618D01*
Y02610604D01*
X02941348Y02610188D01*
X02941334Y02609814D01*
X02941306Y02609453D01*
X02941265Y02609120D01*
X02941223Y02608815D01*
X02941168Y02608538D01*
X02941112Y02608288D01*
X02941057Y02608066D01*
X02941001Y02607872D01*
X02940946Y02607692D01*
X02940890Y02607553D01*
X02940849Y02607429D01*
X02940807Y02607345D01*
X02940779Y02607276D01*
X02940752Y02607234D01*
Y02607220D01*
X02940613Y02607012D01*
X02940461Y02606818D01*
X02940294Y02606652D01*
X02940128Y02606513D01*
X02939947Y02606402D01*
X02939767Y02606305D01*
X02939587Y02606222D01*
X02939420Y02606153D01*
X02939254Y02606097D01*
X02939088Y02606069D01*
X02938949Y02606042D01*
X02938824Y02606014D01*
X02938727D01*
X02938658Y02606000D01*
X02938588D01*
X02938352Y02606014D01*
X02938130Y02606042D01*
X02937909Y02606083D01*
X02937715Y02606153D01*
X02937534Y02606222D01*
X02937382Y02606291D01*
X02937229Y02606375D01*
X02937090Y02606472D01*
X02936979Y02606555D01*
X02936868Y02606638D01*
X02936785Y02606707D01*
X02936716Y02606790D01*
X02936660Y02606846D01*
X02936619Y02606888D01*
X02936605Y02606915D01*
X02936591Y02606929D01*
X02936439Y02607151D01*
X02936314Y02607415D01*
X02936203Y02607692D01*
X02936106Y02607983D01*
X02936023Y02608288D01*
X02935967Y02608593D01*
X02935856Y02609190D01*
X02935828Y02609481D01*
X02935800Y02609745D01*
X02935787Y02609994D01*
X02935773Y02610202D01*
X02935759Y02610369D01*
Y02610507D01*
Y02610591D01*
Y02610604D01*
Y02610618D01*
Y02611021D01*
X02935787Y02611409D01*
X02935815Y02611769D01*
X02935856Y02612088D01*
X02935912Y02612393D01*
X02935967Y02612671D01*
X02936023Y02612921D01*
X02936078Y02613142D01*
X02936133Y02613350D01*
X02936189Y02613517D01*
X02936245Y02613655D01*
X02936300Y02613780D01*
X02936341Y02613864D01*
X02936369Y02613933D01*
X02936383Y02613974D01*
X02936397Y02613988D01*
X02936536Y02614196D01*
X02936688Y02614390D01*
X02936855Y02614543D01*
X02937021Y02614682D01*
X02937201Y02614807D01*
X02937382Y02614904D01*
X02937562Y02614987D01*
X02937728Y02615042D01*
X02937895Y02615098D01*
X02938061Y02615125D01*
X02938200Y02615153D01*
X02938311Y02615181D01*
X02938422D01*
X02938491Y02615195D01*
X02938560D01*
X02938796Y02615181D01*
D02*
G37*
%LPC*%
G36*
X02868680Y02521301D02*
X02863939D01*
Y02518477D01*
X02863965Y02517907D01*
X02864017Y02517441D01*
X02864095Y02517026D01*
X02864198Y02516689D01*
X02864302Y02516430D01*
X02864379Y02516249D01*
X02864431Y02516145D01*
X02864457Y02516120D01*
X02864690Y02515835D01*
X02864975Y02515627D01*
X02865260Y02515498D01*
X02865545Y02515394D01*
X02865830Y02515342D01*
X02866038Y02515291D01*
X02866193D01*
X02866219D01*
X02866245D01*
X02866633Y02515316D01*
X02866944Y02515394D01*
X02867255Y02515524D01*
X02867488Y02515653D01*
X02867670Y02515809D01*
X02867825Y02515912D01*
X02867903Y02516016D01*
X02867929Y02516042D01*
X02868188Y02516405D01*
X02868369Y02516845D01*
X02868499Y02517285D01*
X02868576Y02517726D01*
X02868628Y02518114D01*
X02868654Y02518296D01*
X02868680Y02518425D01*
Y02521301D01*
D02*
G37*
G36*
X02876427D02*
X02870882D01*
Y02518555D01*
X02870908Y02517959D01*
X02870986Y02517441D01*
X02871089Y02517000D01*
X02871193Y02516612D01*
X02871323Y02516327D01*
X02871426Y02516120D01*
X02871504Y02515990D01*
X02871530Y02515938D01*
X02871660Y02515731D01*
X02871815Y02515576D01*
X02872152Y02515291D01*
X02872515Y02515083D01*
X02872851Y02514954D01*
X02873162Y02514876D01*
X02873395Y02514850D01*
X02873499Y02514824D01*
X02873577D01*
X02873603D01*
X02873629D01*
X02874069Y02514850D01*
X02874458Y02514928D01*
X02874794Y02515057D01*
X02875053Y02515187D01*
X02875287Y02515316D01*
X02875442Y02515446D01*
X02875546Y02515524D01*
X02875572Y02515550D01*
X02875857Y02515912D01*
X02876064Y02516327D01*
X02876219Y02516741D01*
X02876323Y02517182D01*
X02876375Y02517570D01*
X02876401Y02517881D01*
X02876427Y02517985D01*
Y02521301D01*
D02*
G37*
G36*
X02871426Y02507000D02*
X02870934Y02506948D01*
X02870520Y02506844D01*
X02870157Y02506741D01*
X02869820Y02506611D01*
X02869587Y02506508D01*
X02869406Y02506404D01*
X02869276Y02506326D01*
X02869250Y02506300D01*
X02868939Y02506015D01*
X02868706Y02505679D01*
X02868525Y02505342D01*
X02868421Y02505005D01*
X02868343Y02504720D01*
X02868317Y02504487D01*
X02868292Y02504331D01*
Y02504280D01*
X02868317Y02503865D01*
X02868421Y02503476D01*
X02868576Y02503140D01*
X02868784Y02502855D01*
X02869017Y02502596D01*
X02869276Y02502388D01*
X02869561Y02502207D01*
X02869846Y02502077D01*
X02870157Y02501948D01*
X02870442Y02501844D01*
X02870701Y02501792D01*
X02870934Y02501741D01*
X02871141Y02501689D01*
X02871297Y02501663D01*
X02871400D01*
X02871426D01*
Y02507000D01*
D02*
G37*
G36*
X02854348Y02501132D02*
X02854296D01*
X02854270D01*
X02853985Y02501106D01*
X02853726Y02501054D01*
X02853493Y02500950D01*
X02853286Y02500821D01*
X02852949Y02500510D01*
X02852664Y02500147D01*
X02852483Y02499810D01*
X02852353Y02499500D01*
X02852301Y02499370D01*
X02852275Y02499266D01*
X02852249Y02499215D01*
Y02499189D01*
X02852146Y02498671D01*
X02852068Y02498178D01*
X02852016Y02497712D01*
X02851964Y02497297D01*
X02851938Y02496961D01*
X02851913Y02496676D01*
Y02496442D01*
X02854115D01*
X02854452Y02496650D01*
X02854762Y02496857D01*
X02855021Y02497090D01*
X02855255Y02497323D01*
X02855436Y02497556D01*
X02855591Y02497790D01*
X02855721Y02498023D01*
X02855825Y02498230D01*
X02855980Y02498619D01*
X02856032Y02498800D01*
X02856058Y02498956D01*
Y02499059D01*
X02856084Y02499163D01*
Y02499241D01*
X02856058Y02499577D01*
X02856006Y02499862D01*
X02855928Y02500121D01*
X02855799Y02500329D01*
X02855669Y02500510D01*
X02855514Y02500665D01*
X02855332Y02500795D01*
X02855177Y02500899D01*
X02854840Y02501028D01*
X02854555Y02501106D01*
X02854426D01*
X02854348Y02501132D01*
D02*
G37*
G36*
X02870416Y02487854D02*
X02870261D01*
X02870209D01*
X02869872Y02487828D01*
X02869587Y02487776D01*
X02869302Y02487672D01*
X02869095Y02487569D01*
X02868913Y02487491D01*
X02868784Y02487388D01*
X02868706Y02487336D01*
X02868680Y02487310D01*
X02868473Y02487051D01*
X02868317Y02486792D01*
X02868188Y02486507D01*
X02868110Y02486248D01*
X02868058Y02486040D01*
X02868033Y02485833D01*
Y02485678D01*
X02868058Y02485367D01*
X02868110Y02485082D01*
X02868188Y02484823D01*
X02868266Y02484615D01*
X02868369Y02484460D01*
X02868447Y02484330D01*
X02868499Y02484253D01*
X02868525Y02484227D01*
X02868784Y02483994D01*
X02869043Y02483812D01*
X02869328Y02483683D01*
X02869613Y02483579D01*
X02869846Y02483527D01*
X02870053Y02483501D01*
X02870183D01*
X02870235D01*
X02870597Y02483527D01*
X02870908Y02483579D01*
X02871193Y02483683D01*
X02871426Y02483760D01*
X02871608Y02483864D01*
X02871763Y02483968D01*
X02871841Y02484019D01*
X02871867Y02484045D01*
X02872100Y02484279D01*
X02872255Y02484564D01*
X02872385Y02484823D01*
X02872463Y02485082D01*
X02872515Y02485315D01*
X02872540Y02485496D01*
Y02485678D01*
X02872515Y02485988D01*
X02872463Y02486299D01*
X02872385Y02486533D01*
X02872281Y02486766D01*
X02872178Y02486921D01*
X02872100Y02487051D01*
X02872048Y02487128D01*
X02872022Y02487154D01*
X02871763Y02487388D01*
X02871478Y02487569D01*
X02871167Y02487672D01*
X02870882Y02487776D01*
X02870623Y02487828D01*
X02870416Y02487854D01*
D02*
G37*
G36*
X02879536Y02488761D02*
X02879510D01*
X02879302Y02488735D01*
X02879121Y02488683D01*
X02878965Y02488605D01*
X02878810Y02488502D01*
X02878525Y02488242D01*
X02878318Y02487957D01*
X02878137Y02487672D01*
X02878033Y02487413D01*
X02877981Y02487310D01*
X02877955Y02487232D01*
X02877929Y02487180D01*
Y02487154D01*
X02878214Y02484201D01*
X02878266Y02483786D01*
X02878318Y02483424D01*
X02878396Y02483113D01*
X02878448Y02482880D01*
X02878525Y02482698D01*
X02878551Y02482595D01*
X02878603Y02482517D01*
Y02482491D01*
X02878732Y02482336D01*
X02878888Y02482206D01*
X02879043Y02482128D01*
X02879199Y02482050D01*
X02879354Y02482025D01*
X02879484Y02481999D01*
X02879561D01*
X02879587D01*
X02879821Y02482025D01*
X02880002Y02482102D01*
X02880183Y02482232D01*
X02880339Y02482361D01*
X02880468Y02482517D01*
X02880572Y02482621D01*
X02880624Y02482724D01*
X02880650Y02482750D01*
X02880831Y02483139D01*
X02880960Y02483579D01*
X02881038Y02484045D01*
X02881090Y02484486D01*
X02881142Y02484875D01*
Y02485056D01*
X02881168Y02485211D01*
Y02485496D01*
X02881142Y02485988D01*
X02881116Y02486429D01*
X02881038Y02486818D01*
X02880960Y02487128D01*
X02880909Y02487388D01*
X02880831Y02487595D01*
X02880805Y02487699D01*
X02880779Y02487750D01*
X02880598Y02488087D01*
X02880391Y02488346D01*
X02880183Y02488502D01*
X02879976Y02488631D01*
X02879795Y02488709D01*
X02879639Y02488735D01*
X02879536Y02488761D01*
D02*
G37*
G36*
X02850565Y02475975D02*
X02850073Y02475923D01*
X02849659Y02475820D01*
X02849296Y02475716D01*
X02848959Y02475587D01*
X02848726Y02475483D01*
X02848544Y02475379D01*
X02848415Y02475302D01*
X02848389Y02475276D01*
X02848078Y02474991D01*
X02847845Y02474654D01*
X02847664Y02474317D01*
X02847560Y02473980D01*
X02847482Y02473695D01*
X02847456Y02473462D01*
X02847430Y02473307D01*
Y02473255D01*
X02847456Y02472840D01*
X02847560Y02472452D01*
X02847715Y02472115D01*
X02847923Y02471830D01*
X02848156Y02471571D01*
X02848415Y02471364D01*
X02848700Y02471182D01*
X02848985Y02471053D01*
X02849296Y02470923D01*
X02849581Y02470819D01*
X02849840Y02470768D01*
X02850073Y02470716D01*
X02850280Y02470664D01*
X02850436Y02470638D01*
X02850540D01*
X02850565D01*
Y02475975D01*
D02*
G37*
G36*
X02931779Y02610868D02*
X02931737D01*
X02931529Y02610854D01*
X02931349Y02610785D01*
X02931182Y02610701D01*
X02931044Y02610591D01*
X02930933Y02610452D01*
X02930836Y02610299D01*
X02930753Y02610133D01*
X02930697Y02609966D01*
X02930641Y02609800D01*
X02930614Y02609633D01*
X02930586Y02609481D01*
X02930558Y02609342D01*
Y02609231D01*
X02930544Y02609148D01*
Y02609079D01*
Y02609065D01*
X02930558Y02608718D01*
X02930600Y02608413D01*
X02930656Y02608163D01*
X02930739Y02607942D01*
X02930836Y02607747D01*
X02930933Y02607581D01*
X02931058Y02607456D01*
X02931169Y02607359D01*
X02931280Y02607276D01*
X02931390Y02607207D01*
X02931501Y02607165D01*
X02931599Y02607137D01*
X02931682Y02607123D01*
X02931737Y02607109D01*
X02931793D01*
X02931917Y02607123D01*
X02932042Y02607137D01*
X02932250Y02607220D01*
X02932444Y02607359D01*
X02932597Y02607526D01*
X02932736Y02607720D01*
X02932847Y02607942D01*
X02932944Y02608177D01*
X02933013Y02608427D01*
X02933082Y02608676D01*
X02933124Y02608912D01*
X02933152Y02609134D01*
X02933166Y02609328D01*
X02933180Y02609495D01*
X02933193Y02609633D01*
Y02609717D01*
Y02609731D01*
Y02609745D01*
X02933082Y02609939D01*
X02932971Y02610119D01*
X02932847Y02610272D01*
X02932736Y02610396D01*
X02932611Y02610507D01*
X02932486Y02610591D01*
X02932375Y02610674D01*
X02932250Y02610729D01*
X02932056Y02610812D01*
X02931890Y02610854D01*
X02931820D01*
X02931779Y02610868D01*
D02*
G37*
G36*
X02945370Y02614071D02*
X02945314D01*
X02945190Y02614058D01*
X02945078Y02614044D01*
X02944871Y02613961D01*
X02944677Y02613836D01*
X02944524Y02613669D01*
X02944399Y02613461D01*
X02944288Y02613239D01*
X02944191Y02613004D01*
X02944122Y02612768D01*
X02944066Y02612518D01*
X02944011Y02612282D01*
X02943983Y02612061D01*
X02943969Y02611866D01*
X02943955Y02611686D01*
X02943941Y02611561D01*
Y02611478D01*
Y02611464D01*
Y02611450D01*
X02944038Y02611256D01*
X02944135Y02611090D01*
X02944247Y02610937D01*
X02944371Y02610812D01*
X02944482Y02610701D01*
X02944593Y02610618D01*
X02944718Y02610535D01*
X02944829Y02610479D01*
X02945023Y02610396D01*
X02945190Y02610355D01*
X02945259D01*
X02945300Y02610341D01*
X02945342D01*
X02945522Y02610355D01*
X02945703Y02610410D01*
X02945841Y02610466D01*
X02945966Y02610549D01*
X02946063Y02610618D01*
X02946133Y02610688D01*
X02946174Y02610729D01*
X02946188Y02610743D01*
X02946313Y02610937D01*
X02946410Y02611159D01*
X02946465Y02611395D01*
X02946521Y02611617D01*
X02946548Y02611811D01*
X02946562Y02611964D01*
Y02612033D01*
Y02612074D01*
Y02612102D01*
Y02612116D01*
X02946548Y02612463D01*
X02946507Y02612768D01*
X02946451Y02613017D01*
X02946368Y02613253D01*
X02946271Y02613434D01*
X02946160Y02613600D01*
X02946049Y02613725D01*
X02945938Y02613822D01*
X02945827Y02613905D01*
X02945703Y02613974D01*
X02945605Y02614016D01*
X02945508Y02614044D01*
X02945425Y02614058D01*
X02945370Y02614071D01*
D02*
G37*
G36*
X02918188Y02613947D02*
X02918021D01*
X02918035Y02613628D01*
X02918049Y02613322D01*
Y02613031D01*
X02918063Y02612768D01*
Y02612518D01*
X02918077Y02612296D01*
Y02612102D01*
Y02611922D01*
X02918091Y02611755D01*
Y02611617D01*
Y02611506D01*
Y02611409D01*
Y02611325D01*
Y02611270D01*
Y02611242D01*
Y02611228D01*
Y02609273D01*
X02920268D01*
X02919172Y02611617D01*
X02918964Y02612088D01*
X02918770Y02612532D01*
X02918604Y02612921D01*
X02918521Y02613101D01*
X02918451Y02613267D01*
X02918396Y02613419D01*
X02918340Y02613544D01*
X02918299Y02613669D01*
X02918257Y02613766D01*
X02918229Y02613836D01*
X02918202Y02613905D01*
X02918188Y02613933D01*
Y02613947D01*
D02*
G37*
G36*
X02938630Y02614044D02*
X02938436D01*
X02938325Y02614016D01*
X02938130Y02613947D01*
X02937964Y02613836D01*
X02937825Y02613725D01*
X02937728Y02613614D01*
X02937659Y02613503D01*
X02937617Y02613434D01*
X02937603Y02613419D01*
Y02613406D01*
X02937548Y02613253D01*
X02937492Y02613073D01*
X02937451Y02612879D01*
X02937409Y02612657D01*
X02937354Y02612199D01*
X02937312Y02611742D01*
X02937298Y02611519D01*
X02937285Y02611312D01*
Y02611118D01*
X02937271Y02610951D01*
Y02610812D01*
Y02610701D01*
Y02610646D01*
Y02610618D01*
Y02610285D01*
X02937285Y02609980D01*
X02937298Y02609703D01*
X02937312Y02609439D01*
X02937326Y02609203D01*
X02937354Y02608996D01*
X02937368Y02608801D01*
X02937395Y02608635D01*
X02937423Y02608482D01*
X02937437Y02608358D01*
X02937465Y02608247D01*
X02937479Y02608163D01*
X02937492Y02608094D01*
X02937506Y02608052D01*
X02937520Y02608025D01*
Y02608011D01*
X02937576Y02607858D01*
X02937645Y02607733D01*
X02937728Y02607609D01*
X02937812Y02607512D01*
X02937895Y02607429D01*
X02937992Y02607359D01*
X02938158Y02607262D01*
X02938325Y02607193D01*
X02938463Y02607165D01*
X02938519Y02607151D01*
X02938588D01*
X02938699Y02607165D01*
X02938810Y02607179D01*
X02939004Y02607248D01*
X02939171Y02607359D01*
X02939295Y02607470D01*
X02939392Y02607581D01*
X02939462Y02607692D01*
X02939503Y02607761D01*
X02939517Y02607789D01*
X02939573Y02607942D01*
X02939628Y02608136D01*
X02939684Y02608330D01*
X02939712Y02608552D01*
X02939781Y02609023D01*
X02939822Y02609495D01*
X02939836Y02609717D01*
X02939850Y02609925D01*
Y02610119D01*
X02939864Y02610285D01*
Y02610424D01*
Y02610535D01*
Y02610591D01*
Y02610618D01*
Y02610951D01*
X02939850Y02611242D01*
X02939836Y02611534D01*
X02939822Y02611783D01*
X02939795Y02612019D01*
X02939781Y02612227D01*
X02939753Y02612421D01*
X02939725Y02612588D01*
X02939698Y02612740D01*
X02939670Y02612865D01*
X02939656Y02612976D01*
X02939628Y02613059D01*
X02939614Y02613128D01*
X02939601Y02613170D01*
X02939587Y02613198D01*
Y02613212D01*
X02939531Y02613364D01*
X02939462Y02613489D01*
X02939392Y02613600D01*
X02939309Y02613697D01*
X02939226Y02613780D01*
X02939143Y02613836D01*
X02938963Y02613947D01*
X02938810Y02614002D01*
X02938685Y02614030D01*
X02938630Y02614044D01*
D02*
G37*
%LPD*%
D13*
X03007030Y02543000D02*
G03*
X03007030Y02543000I-00062230J00000000D01*
G01*
X03000593D02*
G03*
X03000593Y02543000I-00055793J00000000D01*
G01*
D15*
X02888800Y02582998D02*
Y02577166D01*
X02887634Y02576000D01*
X02885301D01*
X02884135Y02577166D01*
Y02582998D01*
X02881802Y02576000D02*
X02879470D01*
X02880636D01*
Y02582998D01*
X02881802Y02581831D01*
D47*
X02987749Y02501539D02*
D03*
M02*
