%TF.GenerationSoftware,Altium Limited,Altium Designer,19.1.5 (86)*%
G04 Layer_Physical_Order=1*
G04 Layer_Color=255*
%FSLAX44Y44*%
%MOMM*%
%TF.FileFunction,Copper,L1,Top,Signal*%
%TF.Part,Single*%
G01*
G75*
%TA.AperFunction,SMDPad,CuDef*%
G04:AMPARAMS|DCode=10|XSize=12.065mm|YSize=1.2065mm|CornerRadius=0.3016mm|HoleSize=0mm|Usage=FLASHONLY|Rotation=270.000|XOffset=0mm|YOffset=0mm|HoleType=Round|Shape=RoundedRectangle|*
%AMROUNDEDRECTD10*
21,1,12.0650,0.6033,0,0,270.0*
21,1,11.4618,1.2065,0,0,270.0*
1,1,0.6033,-0.3016,-5.7309*
1,1,0.6033,-0.3016,5.7309*
1,1,0.6033,0.3016,5.7309*
1,1,0.6033,0.3016,-5.7309*
%
%ADD10ROUNDEDRECTD10*%
G04:AMPARAMS|DCode=11|XSize=12.7mm|YSize=1.27mm|CornerRadius=0.3175mm|HoleSize=0mm|Usage=FLASHONLY|Rotation=270.000|XOffset=0mm|YOffset=0mm|HoleType=Round|Shape=RoundedRectangle|*
%AMROUNDEDRECTD11*
21,1,12.7000,0.6350,0,0,270.0*
21,1,12.0650,1.2700,0,0,270.0*
1,1,0.6350,-0.3175,-6.0325*
1,1,0.6350,-0.3175,6.0325*
1,1,0.6350,0.3175,6.0325*
1,1,0.6350,0.3175,-6.0325*
%
%ADD11ROUNDEDRECTD11*%
%ADD12R,1.2500X1.2500*%
%ADD13O,0.7000X1.5000*%
%ADD14R,0.7000X1.5000*%
G04:AMPARAMS|DCode=15|XSize=0.7mm|YSize=1.3mm|CornerRadius=0.175mm|HoleSize=0mm|Usage=FLASHONLY|Rotation=0.000|XOffset=0mm|YOffset=0mm|HoleType=Round|Shape=RoundedRectangle|*
%AMROUNDEDRECTD15*
21,1,0.7000,0.9500,0,0,0.0*
21,1,0.3500,1.3000,0,0,0.0*
1,1,0.3500,0.1750,-0.4750*
1,1,0.3500,-0.1750,-0.4750*
1,1,0.3500,-0.1750,0.4750*
1,1,0.3500,0.1750,0.4750*
%
%ADD15ROUNDEDRECTD15*%
%ADD16R,0.7000X1.3000*%
%ADD17R,0.8500X0.8000*%
%TA.AperFunction,Conductor*%
%ADD18C,0.3000*%
%ADD19C,0.2000*%
%ADD20C,0.2500*%
%ADD21C,0.4000*%
%ADD22C,0.5000*%
%ADD23C,0.6000*%
%TA.AperFunction,ComponentPad*%
%ADD24R,1.8000X1.8000*%
%ADD25C,1.8000*%
%ADD26R,1.6000X1.6000*%
%ADD27C,1.6000*%
%ADD28R,1.6000X1.6000*%
%TA.AperFunction,ViaPad*%
%ADD29C,0.7000*%
G36*
X107410Y-122410D02*
X88780D01*
X78780Y-122410D01*
X78717Y-122423D01*
X78653Y-122414D01*
X76693Y-122510D01*
X76506Y-122556D01*
X76315D01*
X72469Y-123321D01*
X72233Y-123419D01*
X71983Y-123469D01*
X68361Y-124969D01*
X68315Y-125000D01*
X40124D01*
Y-117500D01*
X46000D01*
Y-106500D01*
X40124D01*
Y-95945D01*
Y-90923D01*
X69444Y-61603D01*
X71020Y-62256D01*
X73500Y-62582D01*
X75980Y-62256D01*
X78291Y-61298D01*
X80275Y-59775D01*
X81671Y-57956D01*
X82271Y-58005D01*
X82941Y-58307D01*
Y-64733D01*
X77783Y-69891D01*
X75980Y-69145D01*
X73500Y-68818D01*
X71020Y-69145D01*
X68709Y-70102D01*
X66725Y-71624D01*
X65202Y-73609D01*
X64245Y-75920D01*
X63918Y-78400D01*
X64245Y-80880D01*
X65202Y-83191D01*
X66725Y-85175D01*
X68709Y-86698D01*
X71020Y-87655D01*
X73500Y-87982D01*
X75980Y-87655D01*
X78291Y-86698D01*
X80275Y-85175D01*
X81798Y-83191D01*
X82755Y-80880D01*
X83082Y-78400D01*
X82755Y-75920D01*
X82067Y-74258D01*
X88163Y-68163D01*
X88826Y-67171D01*
X89059Y-66000D01*
X89059Y-66000D01*
Y-47944D01*
X88826Y-46773D01*
X88163Y-45781D01*
X81869Y-39487D01*
X80877Y-38824D01*
X79706Y-38591D01*
X79706Y-38591D01*
X63059D01*
Y-20267D01*
X65163Y-18163D01*
X65163Y-18163D01*
X65826Y-17170D01*
X66059Y-16000D01*
X66059Y-16000D01*
Y-14736D01*
X66255Y-14605D01*
X67360Y-12951D01*
X67748Y-11000D01*
Y-3000D01*
X67360Y-1049D01*
X66255Y605D01*
X64601Y1710D01*
X62650Y2098D01*
X60699Y1710D01*
X59045Y605D01*
X57940Y-1049D01*
X57552Y-3000D01*
Y-11000D01*
X57940Y-12951D01*
X59045Y-14605D01*
X59137Y-15537D01*
X57837Y-16837D01*
X57174Y-17830D01*
X56941Y-19000D01*
X56941Y-19000D01*
Y-40383D01*
X38087Y-59237D01*
X37424Y-60229D01*
X37191Y-61400D01*
X37191Y-61400D01*
Y-63483D01*
X29212Y-71462D01*
X27480Y-70745D01*
X25000Y-70418D01*
X22520Y-70745D01*
X20209Y-71702D01*
X18225Y-73225D01*
X16702Y-75209D01*
X15984Y-76941D01*
X-15984D01*
X-16702Y-75209D01*
X-18225Y-73225D01*
X-20209Y-71702D01*
X-22520Y-70745D01*
X-25000Y-70418D01*
X-27480Y-70745D01*
X-29791Y-71702D01*
X-31776Y-73225D01*
X-33298Y-75209D01*
X-34255Y-77520D01*
X-34582Y-80000D01*
X-34255Y-82480D01*
X-33298Y-84791D01*
X-31776Y-86775D01*
X-29791Y-88298D01*
X-27480Y-89255D01*
X-25000Y-89582D01*
X-22520Y-89255D01*
X-20209Y-88298D01*
X-18225Y-86775D01*
X-16702Y-84791D01*
X-15984Y-83059D01*
X15984D01*
X16702Y-84791D01*
X18225Y-86775D01*
X20209Y-88298D01*
X22520Y-89255D01*
X25000Y-89582D01*
X27480Y-89255D01*
X29791Y-88298D01*
X31776Y-86775D01*
X33298Y-84791D01*
X34255Y-82480D01*
X34582Y-80000D01*
X34255Y-77520D01*
X33538Y-75788D01*
X42413Y-66913D01*
X42413Y-66913D01*
X43076Y-65921D01*
X43309Y-64750D01*
Y-62667D01*
X61267Y-44709D01*
X66725D01*
X67133Y-45911D01*
X66725Y-46224D01*
X65202Y-48209D01*
X64245Y-50520D01*
X63918Y-53000D01*
X64245Y-55480D01*
X64604Y-56349D01*
X34032Y-86922D01*
X33258Y-88079D01*
X32986Y-89445D01*
Y-92376D01*
X-55077D01*
X-70340Y-77113D01*
X-69854Y-75940D01*
X-62460D01*
Y-70650D01*
X-69250D01*
Y-68150D01*
X-62460D01*
Y-64147D01*
X-61407Y-63443D01*
X-60689Y-62368D01*
X-60436Y-61100D01*
Y-51600D01*
X-60689Y-50332D01*
X-61407Y-49257D01*
X-62482Y-48539D01*
X-63750Y-48286D01*
X-66109D01*
X-69198Y-45198D01*
X-70024Y-44645D01*
X-71000Y-44451D01*
X-79000D01*
X-79975Y-44645D01*
X-80802Y-45198D01*
X-83955Y-48350D01*
X-89500D01*
Y-63900D01*
X-90500D01*
Y-74900D01*
X-82647D01*
X-59078Y-98468D01*
X-57921Y-99242D01*
X-56555Y-99514D01*
X32986D01*
Y-125000D01*
X-71405D01*
X-71451Y-124969D01*
X-75073Y-123469D01*
X-75324Y-123419D01*
X-75559Y-123321D01*
X-79405Y-122556D01*
X-79596D01*
X-79783Y-122510D01*
X-81743Y-122414D01*
X-81807Y-122423D01*
X-81870Y-122410D01*
X-91870D01*
X-107410Y-122410D01*
X-107410Y122410D01*
X107410D01*
X107410Y-122410D01*
D02*
G37*
%LPC*%
G36*
X8790Y115040D02*
X1250D01*
Y107500D01*
X8790D01*
Y115040D01*
D02*
G37*
G36*
X-1250D02*
X-8790D01*
Y107500D01*
X-1250D01*
Y115040D01*
D02*
G37*
G36*
X68790D02*
X61250D01*
Y107500D01*
X68790D01*
Y115040D01*
D02*
G37*
G36*
X-51210D02*
X-58750D01*
Y107500D01*
X-51210D01*
Y115040D01*
D02*
G37*
G36*
X58750D02*
X51210D01*
Y107500D01*
X58750D01*
Y115040D01*
D02*
G37*
G36*
X-61250D02*
X-68790D01*
Y107500D01*
X-61250D01*
Y115040D01*
D02*
G37*
G36*
X68790Y105000D02*
X61250D01*
Y97460D01*
X68790D01*
Y105000D01*
D02*
G37*
G36*
X58750D02*
X51210D01*
Y97460D01*
X58750D01*
Y105000D01*
D02*
G37*
G36*
X90000Y116599D02*
X86998Y116204D01*
X84200Y115045D01*
X81798Y113202D01*
X79955Y110800D01*
X78796Y108002D01*
X78401Y105000D01*
X78796Y101998D01*
X79955Y99200D01*
X81798Y96798D01*
X84200Y94955D01*
X86998Y93796D01*
X90000Y93401D01*
X93002Y93796D01*
X95800Y94955D01*
X98202Y96798D01*
X100045Y99200D01*
X101204Y101998D01*
X101599Y105000D01*
X101204Y108002D01*
X100045Y110800D01*
X98202Y113202D01*
X95800Y115045D01*
X93002Y116204D01*
X90000Y116599D01*
D02*
G37*
G36*
X-90000D02*
X-93002Y116204D01*
X-95800Y115045D01*
X-98202Y113202D01*
X-100045Y110800D01*
X-101204Y108002D01*
X-101599Y105000D01*
X-101204Y101998D01*
X-100045Y99200D01*
X-98202Y96798D01*
X-95800Y94955D01*
X-93002Y93796D01*
X-90000Y93401D01*
X-86998Y93796D01*
X-84200Y94955D01*
X-81798Y96798D01*
X-79955Y99200D01*
X-78796Y101998D01*
X-78401Y105000D01*
X-78796Y108002D01*
X-79955Y110800D01*
X-81798Y113202D01*
X-84200Y115045D01*
X-86998Y116204D01*
X-90000Y116599D01*
D02*
G37*
G36*
X-60000Y106250D02*
D01*
Y105000D01*
X-68790D01*
Y98538D01*
X-69711Y98355D01*
X-70538Y97802D01*
X-94802Y73538D01*
X-95355Y72711D01*
X-95549Y71735D01*
Y34250D01*
X-95355Y33275D01*
X-94802Y32448D01*
X-88500Y26145D01*
Y18500D01*
X-80125D01*
X-79639Y17327D01*
X-81446Y15519D01*
X-88500D01*
Y4519D01*
X-85554D01*
Y3000D01*
X-88500D01*
Y-8000D01*
X-87304D01*
Y-12000D01*
X-88500D01*
Y-23000D01*
X-87304D01*
Y-24496D01*
X-87518Y-24539D01*
X-88593Y-25257D01*
X-89312Y-26332D01*
X-89564Y-27600D01*
Y-37100D01*
X-89312Y-38368D01*
X-88593Y-39443D01*
X-87518Y-40161D01*
X-86250Y-40414D01*
X-82750D01*
X-81482Y-40161D01*
X-80407Y-39443D01*
X-79689Y-38368D01*
X-79436Y-37100D01*
Y-27600D01*
X-79689Y-26332D01*
X-80407Y-25257D01*
X-81482Y-24539D01*
X-81696Y-24496D01*
Y-23000D01*
X-77000D01*
Y-12000D01*
X-81696D01*
Y-8000D01*
X-77000D01*
Y3000D01*
X-79946D01*
Y4519D01*
X-77000D01*
Y12035D01*
X-74270Y14765D01*
X-73000Y14239D01*
Y4519D01*
X-61500D01*
Y7470D01*
X-34981D01*
X-34005Y7664D01*
X-33179Y8217D01*
X-23409Y17986D01*
X-23256Y17868D01*
X-20701Y16810D01*
X-17960Y16449D01*
X-15219Y16810D01*
X-12665Y17868D01*
X-10472Y19551D01*
X-8789Y21744D01*
X-7731Y24299D01*
X-7370Y27040D01*
X-7731Y29781D01*
X-8789Y32335D01*
X-10472Y34528D01*
X-11322Y35181D01*
X-10891Y36451D01*
X10891D01*
X11322Y35181D01*
X10472Y34528D01*
X8789Y32335D01*
X7731Y29781D01*
X7370Y27040D01*
X7731Y24299D01*
X8789Y21744D01*
X8907Y21591D01*
X-12616Y68D01*
X-61500D01*
Y3000D01*
X-73000D01*
Y-8000D01*
X-61500D01*
Y-5030D01*
X-11560D01*
X-10585Y-4836D01*
X-9758Y-4283D01*
X12511Y17986D01*
X12665Y17868D01*
X15219Y16810D01*
X17960Y16449D01*
X20701Y16810D01*
X23256Y17868D01*
X23409Y17986D01*
X28026Y13369D01*
Y1944D01*
X28220Y969D01*
X28773Y142D01*
X37717Y-8802D01*
X38544Y-9355D01*
X39519Y-9549D01*
X44852D01*
Y-11000D01*
X45240Y-12951D01*
X46345Y-14605D01*
X47999Y-15710D01*
X49950Y-16098D01*
X51901Y-15710D01*
X53555Y-14605D01*
X54660Y-12951D01*
X55048Y-11000D01*
Y-3000D01*
X54660Y-1049D01*
X53555Y605D01*
X51901Y1710D01*
X49950Y2098D01*
X47999Y1710D01*
X46345Y605D01*
X45240Y-1049D01*
X44852Y-3000D01*
Y-4451D01*
X40575D01*
X33124Y3000D01*
Y14425D01*
X32930Y15400D01*
X32378Y16227D01*
X27014Y21591D01*
X27132Y21744D01*
X28190Y24299D01*
X28551Y27040D01*
X28190Y29781D01*
X27132Y32335D01*
X25449Y34528D01*
X24598Y35181D01*
X25029Y36451D01*
X27250D01*
X38503Y25198D01*
X39330Y24645D01*
X40306Y24451D01*
X54944D01*
X72451Y6944D01*
Y1076D01*
X71745Y605D01*
X70640Y-1049D01*
X70252Y-3000D01*
Y-11000D01*
X70640Y-12951D01*
X71745Y-14605D01*
X73399Y-15710D01*
X75350Y-16098D01*
X77301Y-15710D01*
X78955Y-14605D01*
X80060Y-12951D01*
X80448Y-11000D01*
Y-3000D01*
X80060Y-1049D01*
X78955Y605D01*
X77549Y1544D01*
Y8000D01*
X77355Y8975D01*
X76802Y9802D01*
X59827Y26778D01*
X60313Y27951D01*
X64500D01*
X65476Y28145D01*
X66302Y28698D01*
X77152Y39548D01*
X77705Y40375D01*
X77899Y41350D01*
Y43690D01*
X78955Y44395D01*
X80060Y46049D01*
X80448Y48000D01*
Y56000D01*
X80060Y57951D01*
X78955Y59605D01*
X77301Y60710D01*
X75350Y61098D01*
X73399Y60710D01*
X71745Y59605D01*
X70640Y57951D01*
X70252Y56000D01*
Y48000D01*
X70640Y46049D01*
X71745Y44395D01*
X72801Y43690D01*
Y42406D01*
X63444Y33049D01*
X60313D01*
X59827Y34222D01*
X64452Y38848D01*
X65005Y39675D01*
X65199Y40650D01*
Y43690D01*
X66255Y44395D01*
X67360Y46049D01*
X67748Y48000D01*
Y56000D01*
X67360Y57951D01*
X66255Y59605D01*
X64601Y60710D01*
X62650Y61098D01*
X60699Y60710D01*
X59045Y59605D01*
X57940Y57951D01*
X57552Y56000D01*
Y48000D01*
X57940Y46049D01*
X59045Y44395D01*
X60101Y43690D01*
Y41706D01*
X54944Y36549D01*
X44261D01*
X33168Y47641D01*
X33286Y48295D01*
X33634Y48911D01*
X44852D01*
Y48000D01*
X45240Y46049D01*
X46345Y44395D01*
X47999Y43290D01*
X49950Y42902D01*
X51901Y43290D01*
X53555Y44395D01*
X54660Y46049D01*
X55048Y48000D01*
Y56000D01*
X54660Y57951D01*
X53555Y59605D01*
X51901Y60710D01*
X49950Y61098D01*
X47999Y60710D01*
X46345Y59605D01*
X45240Y57951D01*
X44852Y56000D01*
Y54009D01*
X2756D01*
X1993Y55150D01*
X2581Y56420D01*
X5124D01*
Y61710D01*
X-416D01*
Y57801D01*
X-1397Y56995D01*
X-1915Y57098D01*
X-2286Y57024D01*
X-3376Y58102D01*
Y68460D01*
X-6836D01*
X-7322Y69634D01*
X-5049Y71906D01*
X29414D01*
X33303Y68017D01*
X34213Y67410D01*
X35286Y67196D01*
X71500D01*
Y62500D01*
X78785D01*
X83050Y58235D01*
Y43000D01*
X93050D01*
Y61000D01*
X94129Y61460D01*
X99540D01*
Y66750D01*
X92750D01*
X85960D01*
Y64915D01*
X84787Y64429D01*
X83000Y66215D01*
Y73500D01*
X71500D01*
Y72804D01*
X36447D01*
X32558Y76693D01*
X31648Y77301D01*
X30575Y77514D01*
X7750D01*
Y90257D01*
X7750Y90711D01*
X8844Y91674D01*
X9135Y91660D01*
X18848Y81948D01*
X19675Y81395D01*
X20650Y81201D01*
X52250D01*
Y76000D01*
X67750D01*
Y91500D01*
X52250D01*
Y86299D01*
X21706D01*
X10202Y97802D01*
X9375Y98355D01*
X8790Y98471D01*
Y105000D01*
X0D01*
X-8790D01*
Y98549D01*
X-51210D01*
Y105000D01*
X-60000D01*
Y106250D01*
D02*
G37*
G36*
X99540Y74540D02*
X94000D01*
Y69250D01*
X99540D01*
Y74540D01*
D02*
G37*
G36*
X91500D02*
X85960D01*
Y69250D01*
X91500D01*
Y74540D01*
D02*
G37*
G36*
X13164Y69500D02*
X7624D01*
Y64210D01*
X13164D01*
Y69500D01*
D02*
G37*
G36*
X5124D02*
X-416D01*
Y64210D01*
X5124D01*
Y69500D01*
D02*
G37*
G36*
X13164Y61710D02*
X7624D01*
Y56420D01*
X13164D01*
Y61710D01*
D02*
G37*
G36*
X89300Y2910D02*
Y-5750D01*
X94208D01*
Y-3000D01*
X93740Y-643D01*
X92405Y1355D01*
X90407Y2690D01*
X89300Y2910D01*
D02*
G37*
G36*
X86800D02*
X85693Y2690D01*
X83695Y1355D01*
X82360Y-643D01*
X81892Y-3000D01*
Y-5750D01*
X86800D01*
Y2910D01*
D02*
G37*
G36*
X-60460Y-10960D02*
X-66000D01*
Y-16250D01*
X-60460D01*
Y-10960D01*
D02*
G37*
G36*
X-68500D02*
X-74040D01*
Y-16250D01*
X-68500D01*
Y-10960D01*
D02*
G37*
G36*
X94208Y-8250D02*
X89300D01*
Y-16910D01*
X90407Y-16689D01*
X92405Y-15355D01*
X93740Y-13357D01*
X94208Y-11000D01*
Y-8250D01*
D02*
G37*
G36*
X86800D02*
X81892D01*
Y-11000D01*
X82360Y-13357D01*
X83695Y-15355D01*
X85693Y-16689D01*
X86800Y-16910D01*
Y-8250D01*
D02*
G37*
G36*
X-60460Y-18750D02*
X-67250D01*
X-74040D01*
Y-24040D01*
X-70058D01*
X-69690Y-25003D01*
X-69629Y-25310D01*
X-70311Y-26332D01*
X-70564Y-27600D01*
Y-37100D01*
X-70311Y-38368D01*
X-69593Y-39443D01*
X-68518Y-40161D01*
X-67250Y-40414D01*
X-63750D01*
X-62482Y-40161D01*
X-61407Y-39443D01*
X-60689Y-38368D01*
X-60436Y-37100D01*
Y-27600D01*
X-60689Y-26332D01*
X-61371Y-25310D01*
X-61310Y-25003D01*
X-60942Y-24040D01*
X-60460D01*
Y-18750D01*
D02*
G37*
G36*
X62540Y-105460D02*
X57000D01*
Y-110750D01*
X62540D01*
Y-105460D01*
D02*
G37*
G36*
X54500D02*
X48960D01*
Y-110750D01*
X54500D01*
Y-105460D01*
D02*
G37*
G36*
X90000Y-93401D02*
X86998Y-93796D01*
X84200Y-94955D01*
X81798Y-96798D01*
X79955Y-99200D01*
X78796Y-101998D01*
X78401Y-105000D01*
X78796Y-108002D01*
X79955Y-110800D01*
X81798Y-113202D01*
X84200Y-115045D01*
X86998Y-116204D01*
X90000Y-116599D01*
X93002Y-116204D01*
X95800Y-115045D01*
X98202Y-113202D01*
X100045Y-110800D01*
X101204Y-108002D01*
X101599Y-105000D01*
X101204Y-101998D01*
X100045Y-99200D01*
X98202Y-96798D01*
X95800Y-94955D01*
X93002Y-93796D01*
X90000Y-93401D01*
D02*
G37*
G36*
X-90000D02*
X-93002Y-93796D01*
X-95800Y-94955D01*
X-98202Y-96798D01*
X-100045Y-99200D01*
X-101204Y-101998D01*
X-101599Y-105000D01*
X-101204Y-108002D01*
X-100045Y-110800D01*
X-98202Y-113202D01*
X-95800Y-115045D01*
X-93002Y-116204D01*
X-90000Y-116599D01*
X-86998Y-116204D01*
X-84200Y-115045D01*
X-81798Y-113202D01*
X-79955Y-110800D01*
X-78796Y-108002D01*
X-78401Y-105000D01*
X-78796Y-101998D01*
X-79955Y-99200D01*
X-81798Y-96798D01*
X-84200Y-94955D01*
X-86998Y-93796D01*
X-90000Y-93401D01*
D02*
G37*
G36*
X62540Y-113250D02*
X57000D01*
Y-118540D01*
X62540D01*
Y-113250D01*
D02*
G37*
G36*
X54500D02*
X48960D01*
Y-118540D01*
X54500D01*
Y-113250D01*
D02*
G37*
%LPD*%
D10*
X-12340Y-196750D02*
D03*
X9250D02*
D03*
D11*
X-39645Y-199925D02*
D03*
X36555D02*
D03*
D12*
X-60000Y106250D02*
D03*
Y83750D02*
D03*
X-0D02*
D03*
Y106250D02*
D03*
X60000Y83750D02*
D03*
Y106250D02*
D03*
D13*
X62650Y52000D02*
D03*
X75350D02*
D03*
X49950D02*
D03*
X88050Y-7000D02*
D03*
X75350D02*
D03*
X62650D02*
D03*
X49950D02*
D03*
D14*
X88050Y52000D02*
D03*
D15*
X-84500Y-32350D02*
D03*
X-65500D02*
D03*
X-75000Y-56350D02*
D03*
X-65500D02*
D03*
D16*
X-84500D02*
D03*
D17*
X55750Y-112000D02*
D03*
X40250D02*
D03*
X-67250Y-17500D02*
D03*
X-82750D02*
D03*
X-67250Y38000D02*
D03*
X-82750D02*
D03*
X-67250Y52000D02*
D03*
X-82750D02*
D03*
X-9126Y62960D02*
D03*
X6374D02*
D03*
X-84750Y-69400D02*
D03*
X-69250D02*
D03*
X-67250Y24000D02*
D03*
X-82750D02*
D03*
Y-2500D02*
D03*
X-67250D02*
D03*
X-82750Y10019D02*
D03*
X-67250D02*
D03*
X77250Y68000D02*
D03*
X92750D02*
D03*
D18*
X63000Y-16000D02*
Y-7000D01*
X77500Y-80400D02*
Y-74500D01*
X60000Y-41650D02*
Y-19000D01*
X40250Y-61400D02*
X60000Y-41650D01*
X40250Y-64750D02*
Y-61400D01*
X25000Y-80000D02*
X40250Y-64750D01*
X60000Y-41650D02*
X79706D01*
X60000Y-19000D02*
X63000Y-16000D01*
X79706Y-41650D02*
X86000Y-47944D01*
Y-66000D02*
Y-47944D01*
X77500Y-74500D02*
X86000Y-66000D01*
X-25000Y-80000D02*
X25000D01*
D19*
X-42995Y38000D02*
X-38495Y42500D01*
X-67250Y38000D02*
X-42995D01*
X-38495Y42500D02*
X29755D01*
X-44495Y52000D02*
X-38495Y46000D01*
X-67250Y52000D02*
X-44495D01*
X-38495Y46000D02*
X31205D01*
X64500Y30500D02*
X75350Y41350D01*
X41755Y30500D02*
X64500D01*
X56000Y27000D02*
X75000Y8000D01*
X40306Y27000D02*
X56000D01*
X28306Y39000D02*
X40306Y27000D01*
X29755Y42500D02*
X41755Y30500D01*
X56000Y34000D02*
X62650Y40650D01*
X43205Y34000D02*
X56000D01*
X31205Y46000D02*
X43205Y34000D01*
X17960Y27040D02*
X30575Y14425D01*
Y1944D02*
Y14425D01*
Y1944D02*
X39519Y-7000D01*
X45950D01*
X-11560Y-2481D02*
X17960Y27040D01*
X-67231Y-2481D02*
X-11560D01*
X-67250Y-2500D02*
X-67231Y-2481D01*
X-34981Y10019D02*
X-17960Y27040D01*
X-67250Y10019D02*
X-34981D01*
X-50000Y24000D02*
X-35000Y39000D01*
X-67250Y24000D02*
X-50000D01*
X-93000Y71735D02*
X-68735Y96000D01*
X-93000Y34250D02*
Y71735D01*
X-67285Y92500D02*
X-20831D01*
X-89500Y70286D02*
X-67285Y92500D01*
X-89500Y44750D02*
Y70286D01*
X8400Y96000D02*
X20650Y83750D01*
X-68735Y96000D02*
X8400D01*
X-20831Y92500D02*
X-12081Y83750D01*
X-58125Y81875D02*
X-56000Y84000D01*
Y80000D02*
Y84000D01*
X-84750Y68985D02*
X-69985Y83750D01*
X-84750Y54000D02*
Y68985D01*
Y54000D02*
X-82750Y52000D01*
X-89500Y44750D02*
X-82750Y38000D01*
X-93000Y34250D02*
X-82750Y24000D01*
X-69985Y83750D02*
X-60000D01*
X-35000Y39000D02*
X28306D01*
X49410Y51460D02*
X49950Y52000D01*
X-1376Y51460D02*
X49410D01*
X-1915Y52000D02*
X-1376Y51460D01*
X75000Y-7000D02*
Y8000D01*
X75350Y41350D02*
Y52000D01*
X62650Y40650D02*
Y52000D01*
X49950Y51460D02*
Y52000D01*
X20650Y83750D02*
X60000D01*
X-58125Y81875D02*
X-56250Y80000D01*
X-60000Y83750D02*
X-58125Y81875D01*
X-56250Y80000D01*
X-12081Y83750D02*
X-0D01*
X-79000Y-47000D02*
X-71000D01*
X-84500Y-52500D02*
X-79000Y-47000D01*
X-84500Y-56350D02*
Y-52500D01*
X-71000Y-47000D02*
X-65500Y-52500D01*
Y-56350D02*
Y-52500D01*
X-56250Y80000D02*
X-56250D01*
D20*
X75000Y70000D02*
X77500Y67500D01*
X-84500Y-32350D02*
Y-2500D01*
X35286Y70000D02*
X75000D01*
X30575Y74710D02*
X35286Y70000D01*
X-6210Y74710D02*
X30575D01*
X-17960Y62960D02*
X-6210Y74710D01*
X-71290Y62960D02*
X-17960D01*
X-75000Y59250D02*
X-71290Y62960D01*
X-75000Y59250D02*
X-75000Y59250D01*
Y18000D02*
Y59250D01*
X-82750Y10250D02*
X-75000Y18000D01*
X-82750Y10019D02*
Y10250D01*
Y-2500D02*
Y10019D01*
X86000Y56000D02*
Y59250D01*
X77250Y68000D02*
X86000Y59250D01*
D21*
X71000Y-55000D02*
X77500D01*
X36555Y-199925D02*
Y-95945D01*
X-84100Y-68400D02*
X-83925Y-68575D01*
X-56555Y-95945D01*
X36555D02*
Y-89445D01*
X71000Y-55000D01*
X-84500Y-68000D02*
Y-56350D01*
X-84750Y-69400D02*
X-84100Y-68750D01*
Y-68400D01*
X-84500Y-68000D02*
X-84100Y-68400D01*
X-56555Y-95945D02*
X36555D01*
D22*
X-40000Y-110000D02*
X-39645Y-110355D01*
Y-110000D01*
Y-199925D02*
Y-110355D01*
D23*
X-69250Y-69400D02*
Y-68250D01*
X-75000Y-62500D02*
X-69250Y-68250D01*
X-75000Y-62500D02*
Y-56350D01*
D24*
X17960Y62960D02*
D03*
D25*
X-17960D02*
D03*
Y27040D02*
D03*
X17960D02*
D03*
D26*
X73500Y-27600D02*
D03*
D27*
Y-53000D02*
D03*
Y-78400D02*
D03*
X25000Y-80000D02*
D03*
Y-30000D02*
D03*
X-25000Y-80000D02*
D03*
D28*
Y-30000D02*
D03*
D29*
X-1915Y52000D02*
D03*
X92750Y80000D02*
D03*
X-56555Y-67250D02*
D03*
X-35000Y103000D02*
D03*
X35000D02*
D03*
X-39645Y-110000D02*
D03*
%TF.MD5,caa608ba216e184c90444c0ee80bb276*%
M02*
